0
SECTION
2
HEADER
9
$INSUNITS
70
4
0
ENDSEC
0
SECTION
2
TABLES
0
TABLE
2
LTYPE
0
LTYPE
72
65
70
64
2
CONTINUOUS
3
______
73
0
40
0
0
ENDTAB
0
TABLE
2
LAYER
0
ENDTAB
0
ENDSEC
0
SECTION
2
ENTITIES
0
LINE
8
0
10
84.5
20
-163.525
11
84.5
21
-59.9582649
0
LINE
8
0
10
86.1585528
20
-57.987627
11
124.8074703
21
-51.2910324
0
LINE
8
0
10
124.9936245
20
-51.2677084
11
156.829621
21
-48.7882694
0
LINE
8
0
10
157.1701607
20
-48.7908289
11
208.9352468
21
-53.6061857
0
LINE
8
0
10
210.75
20
-55.5975881
11
210.75
21
-89.8
0
LINE
8
0
10
212.75
20
-91.8
11
236.25
21
-91.8
0
LINE
8
0
10
238.25
20
-93.8
11
238.25
21
-126.2256374
0
LINE
8
0
10
238.2002871
20
-126.6687856
11
231.3329442
21
-156.8918347
0
LINE
8
0
10
231.3145088
20
-156.9663245
11
227.8206497
21
-170.0055841
0
LINE
8
0
10
225.3833888
20
-171.423033
11
176.248536
21
-158.589913
0
LINE
8
0
10
175.7431268
20
-158.525
11
153.8567018
21
-158.525
0
LINE
8
0
10
153.165291
20
-158.6483138
11
134.834709
21
-165.4016862
0
LINE
8
0
10
134.1432982
20
-165.525
11
86.5
21
-165.525
0
ARC
8
0
10
86.5
20
-59.9582649
40
2
50
99.8298929
51
180
0
ARC
8
0
10
125.1489175
20
-53.2616703
40
2
50
94.453299
51
99.8298929
0
ARC
8
0
10
156.9849139
20
-50.7822313
40
2
50
84.6854525
51
94.453299
0
ARC
8
0
10
208.75
20
-55.5975881
40
2
50
0
51
84.6854525
0
ARC
8
0
10
212.75
20
-89.8
40
2
50
180
51
270
0
ARC
8
0
10
236.25
20
-93.8
40
2
50
0
51
90
0
ARC
8
0
10
236.25
20
-126.2256374
40
2
50
347.1984952
51
0
0
ARC
8
0
10
229.3826571
20
-156.4486865
40
2
50
345.0000021
51
347.1984952
0
ARC
8
0
10
225.888798
20
-169.487946
40
2
50
255.3623859
51
345.0000021
0
ARC
8
0
10
175.7431268
20
-160.525
40
2
50
75.3623859
51
90
0
ARC
8
0
10
153.8567018
20
-160.525
40
2
50
90
51
110.224862
0
ARC
8
0
10
134.1432982
20
-163.525
40
2
50
270
51
290.224862
0
ARC
8
0
10
86.5
20
-163.525
40
2
50
180
51
270
0
CIRCLE
8
0
10
109.6
20
-88.23
40
1.1
0
CIRCLE
8
0
10
109.6
20
-145.38
40
1.1
0
CIRCLE
8
0
10
147.6
20
-116.925
40
1.1
0
CIRCLE
8
0
10
204.6
20
-69.3
40
1.1
0
CIRCLE
8
0
10
202.2
20
-137.2725
40
1.1
0
CIRCLE
8
0
10
220
20
-95.3
40
1.1
0
LINE
8
0
10
93
20
-157
11
107
21
-157
0
LINE
8
0
10
107
20
-157
11
107
21
-143
0
LINE
8
0
10
107
20
-143
11
93
21
-143
0
LINE
8
0
10
93
20
-143
11
93
21
-157
0
LINE
8
0
10
93
20
-137.95
11
107
21
-137.95
0
LINE
8
0
10
107
20
-137.95
11
107
21
-123.95
0
LINE
8
0
10
107
20
-123.95
11
93
21
-123.95
0
LINE
8
0
10
93
20
-123.95
11
93
21
-137.95
0
LINE
8
0
10
93
20
-118.9
11
107
21
-118.9
0
LINE
8
0
10
107
20
-118.9
11
107
21
-104.9
0
LINE
8
0
10
107
20
-104.9
11
93
21
-104.9
0
LINE
8
0
10
93
20
-104.9
11
93
21
-118.9
0
LINE
8
0
10
93
20
-99.85
11
107
21
-99.85
0
LINE
8
0
10
107
20
-99.85
11
107
21
-85.85
0
LINE
8
0
10
107
20
-85.85
11
93
21
-85.85
0
LINE
8
0
10
93
20
-85.85
11
93
21
-99.85
0
LINE
8
0
10
93
20
-80.8
11
107
21
-80.8
0
LINE
8
0
10
107
20
-80.8
11
107
21
-66.8
0
LINE
8
0
10
107
20
-66.8
11
93
21
-66.8
0
LINE
8
0
10
93
20
-66.8
11
93
21
-80.8
0
LINE
8
0
10
112
20
-157
11
126
21
-157
0
LINE
8
0
10
126
20
-157
11
126
21
-143
0
LINE
8
0
10
126
20
-143
11
112
21
-143
0
LINE
8
0
10
112
20
-143
11
112
21
-157
0
LINE
8
0
10
112
20
-137.95
11
126
21
-137.95
0
LINE
8
0
10
126
20
-137.95
11
126
21
-123.95
0
LINE
8
0
10
126
20
-123.95
11
112
21
-123.95
0
LINE
8
0
10
112
20
-123.95
11
112
21
-137.95
0
LINE
8
0
10
112
20
-118.9
11
126
21
-118.9
0
LINE
8
0
10
126
20
-118.9
11
126
21
-104.9
0
LINE
8
0
10
126
20
-104.9
11
112
21
-104.9
0
LINE
8
0
10
112
20
-104.9
11
112
21
-118.9
0
LINE
8
0
10
112
20
-99.85
11
126
21
-99.85
0
LINE
8
0
10
126
20
-99.85
11
126
21
-85.85
0
LINE
8
0
10
126
20
-85.85
11
112
21
-85.85
0
LINE
8
0
10
112
20
-85.85
11
112
21
-99.85
0
LINE
8
0
10
112
20
-80.8
11
126
21
-80.8
0
LINE
8
0
10
126
20
-80.8
11
126
21
-66.8
0
LINE
8
0
10
126
20
-66.8
11
112
21
-66.8
0
LINE
8
0
10
112
20
-66.8
11
112
21
-80.8
0
LINE
8
0
10
131
20
-150
11
145
21
-150
0
LINE
8
0
10
145
20
-150
11
145
21
-136
0
LINE
8
0
10
145
20
-136
11
131
21
-136
0
LINE
8
0
10
131
20
-136
11
131
21
-150
0
LINE
8
0
10
131
20
-130.95
11
145
21
-130.95
0
LINE
8
0
10
145
20
-130.95
11
145
21
-116.95
0
LINE
8
0
10
145
20
-116.95
11
131
21
-116.95
0
LINE
8
0
10
131
20
-116.95
11
131
21
-130.95
0
LINE
8
0
10
131
20
-111.9
11
145
21
-111.9
0
LINE
8
0
10
145
20
-111.9
11
145
21
-97.9
0
LINE
8
0
10
145
20
-97.9
11
131
21
-97.9
0
LINE
8
0
10
131
20
-97.9
11
131
21
-111.9
0
LINE
8
0
10
131
20
-92.85
11
145
21
-92.85
0
LINE
8
0
10
145
20
-92.85
11
145
21
-78.85
0
LINE
8
0
10
145
20
-78.85
11
131
21
-78.85
0
LINE
8
0
10
131
20
-78.85
11
131
21
-92.85
0
LINE
8
0
10
131
20
-73.8
11
145
21
-73.8
0
LINE
8
0
10
145
20
-73.8
11
145
21
-59.8
0
LINE
8
0
10
145
20
-59.8
11
131
21
-59.8
0
LINE
8
0
10
131
20
-59.8
11
131
21
-73.8
0
LINE
8
0
10
150
20
-147.5
11
164
21
-147.5
0
LINE
8
0
10
164
20
-147.5
11
164
21
-133.5
0
LINE
8
0
10
164
20
-133.5
11
150
21
-133.5
0
LINE
8
0
10
150
20
-133.5
11
150
21
-147.5
0
LINE
8
0
10
150
20
-128.45
11
164
21
-128.45
0
LINE
8
0
10
164
20
-128.45
11
164
21
-114.45
0
LINE
8
0
10
164
20
-114.45
11
150
21
-114.45
0
LINE
8
0
10
150
20
-114.45
11
150
21
-128.45
0
LINE
8
0
10
150
20
-109.4
11
164
21
-109.4
0
LINE
8
0
10
164
20
-109.4
11
164
21
-95.4
0
LINE
8
0
10
164
20
-95.4
11
150
21
-95.4
0
LINE
8
0
10
150
20
-95.4
11
150
21
-109.4
0
LINE
8
0
10
150
20
-90.35
11
164
21
-90.35
0
LINE
8
0
10
164
20
-90.35
11
164
21
-76.35
0
LINE
8
0
10
164
20
-76.35
11
150
21
-76.35
0
LINE
8
0
10
150
20
-76.35
11
150
21
-90.35
0
LINE
8
0
10
150
20
-71.3
11
164
21
-71.3
0
LINE
8
0
10
164
20
-71.3
11
164
21
-57.3
0
LINE
8
0
10
164
20
-57.3
11
150
21
-57.3
0
LINE
8
0
10
150
20
-57.3
11
150
21
-71.3
0
LINE
8
0
10
169
20
-150
11
183
21
-150
0
LINE
8
0
10
183
20
-150
11
183
21
-136
0
LINE
8
0
10
183
20
-136
11
169
21
-136
0
LINE
8
0
10
169
20
-136
11
169
21
-150
0
LINE
8
0
10
169
20
-130.95
11
183
21
-130.95
0
LINE
8
0
10
183
20
-130.95
11
183
21
-116.95
0
LINE
8
0
10
183
20
-116.95
11
169
21
-116.95
0
LINE
8
0
10
169
20
-116.95
11
169
21
-130.95
0
LINE
8
0
10
169
20
-111.9
11
183
21
-111.9
0
LINE
8
0
10
183
20
-111.9
11
183
21
-97.9
0
LINE
8
0
10
183
20
-97.9
11
169
21
-97.9
0
LINE
8
0
10
169
20
-97.9
11
169
21
-111.9
0
LINE
8
0
10
169
20
-92.85
11
183
21
-92.85
0
LINE
8
0
10
183
20
-92.85
11
183
21
-78.85
0
LINE
8
0
10
183
20
-78.85
11
169
21
-78.85
0
LINE
8
0
10
169
20
-78.85
11
169
21
-92.85
0
LINE
8
0
10
169
20
-73.8
11
183
21
-73.8
0
LINE
8
0
10
183
20
-73.8
11
183
21
-59.8
0
LINE
8
0
10
183
20
-59.8
11
169
21
-59.8
0
LINE
8
0
10
169
20
-59.8
11
169
21
-73.8
0
LINE
8
0
10
188
20
-133.45
11
202
21
-133.45
0
LINE
8
0
10
202
20
-133.45
11
202
21
-119.45
0
LINE
8
0
10
202
20
-119.45
11
188
21
-119.45
0
LINE
8
0
10
188
20
-119.45
11
188
21
-133.45
0
LINE
8
0
10
188
20
-114.4
11
202
21
-114.4
0
LINE
8
0
10
202
20
-114.4
11
202
21
-100.4
0
LINE
8
0
10
202
20
-100.4
11
188
21
-100.4
0
LINE
8
0
10
188
20
-100.4
11
188
21
-114.4
0
LINE
8
0
10
188
20
-95.35
11
202
21
-95.35
0
LINE
8
0
10
202
20
-95.35
11
202
21
-81.35
0
LINE
8
0
10
202
20
-81.35
11
188
21
-81.35
0
LINE
8
0
10
188
20
-81.35
11
188
21
-95.35
0
LINE
8
0
10
188
20
-76.3
11
202
21
-76.3
0
LINE
8
0
10
202
20
-76.3
11
202
21
-62.3
0
LINE
8
0
10
202
20
-62.3
11
188
21
-62.3
0
LINE
8
0
10
188
20
-62.3
11
188
21
-76.3
0
LINE
8
0
10
189.4267859
20
-152.9497475
11
202.9497475
21
-156.5732141
0
LINE
8
0
10
202.9497475
20
-156.5732141
11
206.5732141
21
-143.0502525
0
LINE
8
0
10
206.5732141
20
-143.0502525
11
193.0502525
21
-139.4267859
0
LINE
8
0
10
193.0502525
20
-139.4267859
11
189.4267859
21
-152.9497475
0
LINE
8
0
10
207.7793766
20
-157.8673094
11
221.3023382
21
-161.490776
0
LINE
8
0
10
221.3023382
20
-161.490776
11
224.9258048
21
-147.9678144
0
LINE
8
0
10
224.9258048
20
-147.9678144
11
211.4028432
21
-144.3443478
0
LINE
8
0
10
211.4028432
20
-144.3443478
11
207.7793766
21
-157.8673094
0
LINE
8
0
10
208.1217317
20
-138.2370319
11
221.6446933
21
-141.8604985
0
LINE
8
0
10
221.6446933
20
-141.8604985
11
225.2681599
21
-128.3375369
0
LINE
8
0
10
225.2681599
20
-128.3375369
11
211.7451983
21
-124.7140703
0
LINE
8
0
10
211.7451983
20
-124.7140703
11
208.1217317
21
-138.2370319
0
LINE
8
0
10
213
20
-121.4
11
227
21
-121.4
0
LINE
8
0
10
227
20
-121.4
11
227
21
-107.4
0
LINE
8
0
10
227
20
-107.4
11
213
21
-107.4
0
LINE
8
0
10
213
20
-107.4
11
213
21
-121.4
0
ENDSEC
0
EOF