%TF.GenerationSoftware,KiCad,Pcbnew,8.0.6*%
%TF.CreationDate,2025-03-22T19:16:27+01:00*%
%TF.ProjectId,left-finished,6c656674-2d66-4696-9e69-736865642e6b,v1.0.0*%
%TF.SameCoordinates,Original*%
%TF.FileFunction,Paste,Top*%
%TF.FilePolarity,Positive*%
%FSLAX46Y46*%
G04 Gerber Fmt 4.6, Leading zero omitted, Abs format (unit mm)*
G04 Created by KiCad (PCBNEW 8.0.6) date 2025-03-22 19:16:27*
%MOMM*%
%LPD*%
G01*
G04 APERTURE LIST*
G04 Aperture macros list*
%AMRotRect*
0 Rectangle, with rotation*
0 The origin of the aperture is its center*
0 $1 length*
0 $2 width*
0 $3 Rotation angle, in degrees counterclockwise*
0 Add horizontal line*
21,1,$1,$2,0,0,$3*%
%AMFreePoly0*
4,1,6,0.600000,-1.000000,0.000000,-0.400000,-0.600000,-1.000000,-0.600000,0.250000,0.600000,0.250000,0.600000,-1.000000,0.600000,-1.000000,$1*%
%AMFreePoly1*
4,1,6,0.600000,-0.200000,0.600000,-0.400000,-0.600000,-0.400000,-0.600000,-0.200000,0.000000,0.400000,0.600000,-0.200000,0.600000,-0.200000,$1*%
G04 Aperture macros list end*
%ADD10R,0.900000X0.900000*%
%ADD11R,1.250000X0.900000*%
%ADD12R,1.800000X1.100000*%
%ADD13R,1.200000X0.900000*%
%ADD14FreePoly0,90.000000*%
%ADD15FreePoly1,90.000000*%
%ADD16RotRect,0.900000X1.200000X75.000000*%
%ADD17R,0.635000X1.143000*%
%ADD18R,0.900000X1.200000*%
%ADD19R,1.400000X1.000000*%
%ADD20RotRect,1.400000X1.000000X345.000000*%
%ADD21RotRect,1.400000X1.000000X165.000000*%
G04 APERTURE END LIST*
D10*
%TO.C,T1*%
X233600000Y-65600000D03*
X231400000Y-65600000D03*
X233600000Y-73000000D03*
X231400000Y-73000000D03*
D11*
X230425000Y-71550000D03*
X230425000Y-68550000D03*
X230425000Y-67050000D03*
%TD*%
D12*
%TO.C,B1*%
X223100000Y-97150000D03*
X216900000Y-97150000D03*
X223100000Y-93450000D03*
X216900000Y-93450000D03*
%TD*%
D13*
%TO.C,D22*%
X168000000Y-130600000D03*
X168000000Y-127300000D03*
%TD*%
%TO.C,D27*%
X187000000Y-114050000D03*
X187000000Y-110750000D03*
%TD*%
%TO.C,D16*%
X149000000Y-147150000D03*
X149000000Y-143850000D03*
%TD*%
D14*
%TO.C,JST1*%
X227184000Y-101400000D03*
X227184000Y-103400000D03*
D15*
X228200000Y-101400000D03*
X228200000Y-103400000D03*
%TD*%
D13*
%TO.C,D18*%
X149000000Y-109050000D03*
X149000000Y-105750000D03*
%TD*%
%TO.C,D24*%
X168000000Y-92500000D03*
X168000000Y-89200000D03*
%TD*%
%TO.C,D8*%
X111000000Y-118550000D03*
X111000000Y-115250000D03*
%TD*%
%TO.C,D10*%
X111000000Y-80450000D03*
X111000000Y-77150000D03*
%TD*%
%TO.C,D13*%
X130000000Y-111550000D03*
X130000000Y-108250000D03*
%TD*%
%TO.C,D1*%
X92000000Y-156650000D03*
X92000000Y-153350000D03*
%TD*%
%TO.C,D4*%
X92000000Y-99500000D03*
X92000000Y-96200000D03*
%TD*%
D16*
%TO.C,D31*%
X206904039Y-157270417D03*
X207758139Y-154082861D03*
%TD*%
D13*
%TO.C,D11*%
X130000000Y-149650000D03*
X130000000Y-146350000D03*
%TD*%
D17*
%TO.C,J1*%
X215500380Y-111900000D03*
X214499620Y-111900000D03*
%TD*%
%TO.C,J2*%
X215500380Y-116900000D03*
X214499620Y-116900000D03*
%TD*%
D13*
%TO.C,D21*%
X168000000Y-149650000D03*
X168000000Y-146350000D03*
%TD*%
D18*
%TO.C,D33*%
X221650000Y-123400000D03*
X218350000Y-123400000D03*
%TD*%
D13*
%TO.C,D26*%
X187000000Y-133100000D03*
X187000000Y-129800000D03*
%TD*%
%TO.C,D19*%
X149000000Y-90000000D03*
X149000000Y-86700000D03*
%TD*%
%TO.C,D3*%
X92000000Y-118550000D03*
X92000000Y-115250000D03*
%TD*%
%TO.C,D2*%
X92000000Y-137600000D03*
X92000000Y-134300000D03*
%TD*%
%TO.C,D7*%
X111000000Y-137600000D03*
X111000000Y-134300000D03*
%TD*%
%TO.C,D23*%
X168000000Y-111550000D03*
X168000000Y-108250000D03*
%TD*%
%TO.C,D5*%
X92000000Y-80450000D03*
X92000000Y-77150000D03*
%TD*%
%TO.C,D6*%
X111000000Y-156650000D03*
X111000000Y-153350000D03*
%TD*%
%TO.C,D17*%
X149000000Y-128100000D03*
X149000000Y-124800000D03*
%TD*%
%TO.C,D20*%
X149000000Y-70950000D03*
X149000000Y-67650000D03*
%TD*%
%TO.C,D15*%
X130000000Y-73450000D03*
X130000000Y-70150000D03*
%TD*%
%TO.C,D28*%
X187000000Y-95000000D03*
X187000000Y-91700000D03*
%TD*%
%TO.C,D25*%
X168000000Y-73450000D03*
X168000000Y-70150000D03*
%TD*%
%TO.C,D29*%
X187000000Y-75950000D03*
X187000000Y-72650000D03*
%TD*%
D16*
%TO.C,D30*%
X188551448Y-152352855D03*
X189405548Y-149165299D03*
%TD*%
D13*
%TO.C,D14*%
X130000000Y-92500000D03*
X130000000Y-89200000D03*
%TD*%
%TO.C,D12*%
X130000000Y-130600000D03*
X130000000Y-127300000D03*
%TD*%
D16*
%TO.C,D32*%
X207246394Y-137640139D03*
X208100494Y-134452583D03*
%TD*%
D13*
%TO.C,D9*%
X111000000Y-99500000D03*
X111000000Y-96200000D03*
%TD*%
D19*
%TO.C,LED9*%
X140700000Y-71100000D03*
X140700000Y-72500000D03*
X135300000Y-72500000D03*
X135300000Y-71100000D03*
%TD*%
%TO.C,LED11*%
X159700000Y-106700000D03*
X159700000Y-108100000D03*
X154300000Y-108100000D03*
X154300000Y-106700000D03*
%TD*%
%TO.C,LED5*%
X121700000Y-116200000D03*
X121700000Y-117600000D03*
X116300000Y-117600000D03*
X116300000Y-116200000D03*
%TD*%
%TO.C,LED26*%
X154300000Y-127150000D03*
X154300000Y-125750000D03*
X159700000Y-125750000D03*
X159700000Y-127150000D03*
%TD*%
%TO.C,LED22*%
X116300000Y-136650000D03*
X116300000Y-135250000D03*
X121700000Y-135250000D03*
X121700000Y-136650000D03*
%TD*%
%TO.C,LED1*%
X102700000Y-154300000D03*
X102700000Y-155700000D03*
X97300000Y-155700000D03*
X97300000Y-154300000D03*
%TD*%
%TO.C,LED20*%
X97300000Y-136650000D03*
X97300000Y-135250000D03*
X102700000Y-135250000D03*
X102700000Y-136650000D03*
%TD*%
%TO.C,LED14*%
X178700000Y-109200000D03*
X178700000Y-110600000D03*
X173300000Y-110600000D03*
X173300000Y-109200000D03*
%TD*%
%TO.C,LED17*%
X197700000Y-73600000D03*
X197700000Y-75000000D03*
X192300000Y-75000000D03*
X192300000Y-73600000D03*
%TD*%
%TO.C,LED25*%
X135300000Y-91550000D03*
X135300000Y-90150000D03*
X140700000Y-90150000D03*
X140700000Y-91550000D03*
%TD*%
%TO.C,LED2*%
X102700000Y-116200000D03*
X102700000Y-117600000D03*
X97300000Y-117600000D03*
X97300000Y-116200000D03*
%TD*%
%TO.C,LED16*%
X197700000Y-111700000D03*
X197700000Y-113100000D03*
X192300000Y-113100000D03*
X192300000Y-111700000D03*
%TD*%
%TO.C,LED6*%
X121700000Y-78100000D03*
X121700000Y-79500000D03*
X116300000Y-79500000D03*
X116300000Y-78100000D03*
%TD*%
D20*
%TO.C,LED18*%
X199495078Y-152852292D03*
X199132731Y-154204589D03*
X193916732Y-152806966D03*
X194279079Y-151454669D03*
%TD*%
D19*
%TO.C,LED30*%
X192300000Y-132150000D03*
X192300000Y-130750000D03*
X197700000Y-130750000D03*
X197700000Y-132150000D03*
%TD*%
%TO.C,LED12*%
X159700000Y-68600000D03*
X159700000Y-70000000D03*
X154300000Y-70000000D03*
X154300000Y-68600000D03*
%TD*%
%TO.C,LED29*%
X173300000Y-91550000D03*
X173300000Y-90150000D03*
X178700000Y-90150000D03*
X178700000Y-91550000D03*
%TD*%
D20*
%TO.C,LED19*%
X217847669Y-157769854D03*
X217485322Y-159122151D03*
X212269323Y-157724528D03*
X212631670Y-156372231D03*
%TD*%
D19*
%TO.C,LED15*%
X178700000Y-71100000D03*
X178700000Y-72500000D03*
X173300000Y-72500000D03*
X173300000Y-71100000D03*
%TD*%
%TO.C,LED24*%
X135300000Y-129650000D03*
X135300000Y-128250000D03*
X140700000Y-128250000D03*
X140700000Y-129650000D03*
%TD*%
D21*
%TO.C,LED32*%
X212611678Y-138094251D03*
X212974025Y-136741954D03*
X218190024Y-138139577D03*
X217827677Y-139491874D03*
%TD*%
D19*
%TO.C,LED23*%
X116300000Y-98550000D03*
X116300000Y-97150000D03*
X121700000Y-97150000D03*
X121700000Y-98550000D03*
%TD*%
%TO.C,LED4*%
X121700000Y-154300000D03*
X121700000Y-155700000D03*
X116300000Y-155700000D03*
X116300000Y-154300000D03*
%TD*%
%TO.C,LED10*%
X159700000Y-144800000D03*
X159700000Y-146200000D03*
X154300000Y-146200000D03*
X154300000Y-144800000D03*
%TD*%
%TO.C,LED8*%
X140700000Y-109200000D03*
X140700000Y-110600000D03*
X135300000Y-110600000D03*
X135300000Y-109200000D03*
%TD*%
%TO.C,LED3*%
X102700000Y-78100000D03*
X102700000Y-79500000D03*
X97300000Y-79500000D03*
X97300000Y-78100000D03*
%TD*%
%TO.C,LED27*%
X154300000Y-89050000D03*
X154300000Y-87650000D03*
X159700000Y-87650000D03*
X159700000Y-89050000D03*
%TD*%
%TO.C,LED21*%
X97300000Y-98550000D03*
X97300000Y-97150000D03*
X102700000Y-97150000D03*
X102700000Y-98550000D03*
%TD*%
%TO.C,LED13*%
X178700000Y-147300000D03*
X178700000Y-148700000D03*
X173300000Y-148700000D03*
X173300000Y-147300000D03*
%TD*%
%TO.C,LED28*%
X173300000Y-129650000D03*
X173300000Y-128250000D03*
X178700000Y-128250000D03*
X178700000Y-129650000D03*
%TD*%
%TO.C,LED31*%
X192300000Y-94050000D03*
X192300000Y-92650000D03*
X197700000Y-92650000D03*
X197700000Y-94050000D03*
%TD*%
%TO.C,LED7*%
X140700000Y-147300000D03*
X140700000Y-148700000D03*
X135300000Y-148700000D03*
X135300000Y-147300000D03*
%TD*%
M02*
