M48
; DRILL file {KiCad 8.0.6} date 2025-03-22T19:16:14+0100
; FORMAT={-:-/ absolute / inch / decimal}
; #@! TF.CreationDate,2025-03-22T19:16:14+01:00
; #@! TF.GenerationSoftware,Kicad,Pcbnew,8.0.6
; #@! TF.FileFunction,Plated,1,2,PTH
FMAT,2
INCH
; #@! TA.AperFunction,Plated,PTH,ComponentDrill
T1C0.0118
; #@! TA.AperFunction,Plated,PTH,ViaDrill
T2C0.0157
; #@! TA.AperFunction,Plated,PTH,ComponentDrill
T3C0.0295
; #@! TA.AperFunction,Plated,PTH,ComponentDrill
T4C0.0390
; #@! TA.AperFunction,Plated,PTH,ComponentDrill
T5C0.0394
; #@! TA.AperFunction,Plated,PTH,ComponentDrill
T6C0.0430
; #@! TA.AperFunction,Plated,PTH,ComponentDrill
T7C0.0500
; #@! TA.AperFunction,Plated,PTH,ComponentDrill
T8C0.0591
%
G90
G05
T1
X8.5276Y-4.4055
X8.5276Y-4.6024
X8.6614Y-3.6811
X8.6614Y-3.8189
X8.8976Y-4.0315
X9.1535Y-2.7283
T2
X3.7421Y-3.0748
X3.7421Y-3.8799
X3.7421Y-4.5748
X3.7421Y-5.3799
X3.7421Y-6.0748
X3.7772Y-3.1299
X3.7772Y-3.8248
X3.7772Y-4.6299
X3.7772Y-5.3248
X3.7772Y-6.1299
X4.0969Y-3.1299
X4.0969Y-3.8248
X4.0969Y-4.6299
X4.0969Y-5.3248
X4.0969Y-6.1299
X4.1319Y-3.0748
X4.1319Y-3.8799
X4.1319Y-4.5748
X4.1319Y-5.3799
X4.1319Y-6.0748
X4.4902Y-3.0748
X4.4902Y-3.8799
X4.4902Y-4.5748
X4.4902Y-5.3799
X4.4902Y-6.0748
X4.5252Y-3.1299
X4.5252Y-3.8248
X4.5252Y-4.6299
X4.5252Y-5.3248
X4.5252Y-6.1299
X4.8449Y-3.1299
X4.8449Y-3.8248
X4.8449Y-4.6299
X4.8449Y-5.3248
X4.8449Y-6.1299
X4.8799Y-3.0748
X4.8799Y-3.8799
X4.8799Y-4.5748
X4.8799Y-5.3799
X4.8799Y-6.0748
X5.2382Y-2.7992
X5.2382Y-3.6043
X5.2382Y-4.2992
X5.2382Y-5.1043
X5.2382Y-5.7992
X5.2732Y-2.8543
X5.2732Y-3.5492
X5.2732Y-4.3543
X5.2732Y-5.0492
X5.2732Y-5.8543
X5.5929Y-2.8543
X5.5929Y-3.5492
X5.5929Y-4.3543
X5.5929Y-5.0492
X5.5929Y-5.8543
X5.628Y-2.7992
X5.628Y-3.6043
X5.628Y-4.2992
X5.628Y-5.1043
X5.628Y-5.7992
X5.9862Y-2.7008
X5.9862Y-3.5059
X5.9862Y-4.2008
X5.9862Y-5.0059
X5.9862Y-5.7008
X6.0213Y-2.7559
X6.0213Y-3.4508
X6.0213Y-4.2559
X6.0213Y-4.9508
X6.0213Y-5.7559
X6.3409Y-2.7559
X6.3409Y-3.4508
X6.3409Y-4.2559
X6.3409Y-4.9508
X6.3409Y-5.7559
X6.376Y-2.7008
X6.376Y-3.5059
X6.376Y-4.2008
X6.376Y-5.0059
X6.376Y-5.7008
X6.7343Y-2.7992
X6.7343Y-3.6043
X6.7343Y-4.2992
X6.7343Y-5.1043
X6.7343Y-5.7992
X6.7693Y-2.8543
X6.7693Y-3.5492
X6.7693Y-4.3543
X6.7693Y-5.0492
X6.7693Y-5.8543
X7.089Y-2.8543
X7.089Y-3.5492
X7.089Y-4.3543
X7.089Y-5.0492
X7.089Y-5.8543
X7.124Y-2.7992
X7.124Y-3.6043
X7.124Y-4.2992
X7.124Y-5.1043
X7.124Y-5.7992
X7.4823Y-2.8976
X7.4823Y-3.7028
X7.4823Y-4.3976
X7.4823Y-5.2028
X7.5173Y-2.9528
X7.5173Y-3.6476
X7.5173Y-4.4528
X7.5173Y-5.1476
X7.5632Y-5.9399
X7.5828Y-6.0022
X7.837Y-2.9528
X7.837Y-3.6476
X7.837Y-4.4528
X7.837Y-5.1476
X7.872Y-2.8976
X7.872Y-3.7028
X7.872Y-4.3976
X7.872Y-5.2028
X7.8916Y-6.0849
X7.9397Y-6.0407
X8.285Y-5.4139
X8.2858Y-6.1335
X8.3053Y-6.1958
X8.3331Y-5.3697
X8.4449Y-3.6024
X8.6141Y-6.2785
X8.6419Y-5.4524
X8.6615Y-5.5147
X8.6622Y-6.2343
T3
X9.0551Y-3.9921
X9.0551Y-4.0709
T4
X3.622Y-2.9524
X3.622Y-3.2524
X3.622Y-3.7024
X3.622Y-4.0024
X3.622Y-4.4524
X3.622Y-4.7524
X3.622Y-5.2024
X3.622Y-5.5024
X3.622Y-5.9524
X3.622Y-6.2524
X4.3701Y-2.9524
X4.3701Y-3.2524
X4.3701Y-3.7024
X4.3701Y-4.0024
X4.3701Y-4.4524
X4.3701Y-4.7524
X4.3701Y-5.2024
X4.3701Y-5.5024
X4.3701Y-5.9524
X4.3701Y-6.2524
X5.1181Y-2.6768
X5.1181Y-2.9768
X5.1181Y-3.4268
X5.1181Y-3.7268
X5.1181Y-4.1768
X5.1181Y-4.4768
X5.1181Y-4.9268
X5.1181Y-5.2268
X5.1181Y-5.6768
X5.1181Y-5.9768
X5.8661Y-2.5783
X5.8661Y-2.8783
X5.8661Y-3.3283
X5.8661Y-3.6283
X5.8661Y-4.0783
X5.8661Y-4.3783
X5.8661Y-4.8283
X5.8661Y-5.1283
X5.8661Y-5.5783
X5.8661Y-5.8783
X6.6142Y-2.6768
X6.6142Y-2.9768
X6.6142Y-3.4268
X6.6142Y-3.7268
X6.6142Y-4.1768
X6.6142Y-4.4768
X6.6142Y-4.9268
X6.6142Y-5.2268
X6.6142Y-5.6768
X6.6142Y-5.9768
X7.3622Y-2.7752
X7.3622Y-3.0752
X7.3622Y-3.5252
X7.3622Y-3.8252
X7.3622Y-4.2752
X7.3622Y-4.5752
X7.3622Y-5.0252
X7.3622Y-5.3252
X7.4013Y-6.0803
X7.4789Y-5.7905
X8.1238Y-6.2739
X8.1373Y-5.501
X8.2015Y-5.9841
X8.2149Y-5.2113
X8.5114Y-4.8583
X8.8114Y-4.8583
T5
X8.3614Y-4.4039
X8.3614Y-4.5024
X8.3614Y-4.6008
X8.9323Y-4.4039
X8.9323Y-4.6008
T6
X8.3614Y-2.4146
X8.3614Y-2.5146
X8.3614Y-2.6146
X8.3614Y-2.7146
X8.3614Y-2.8146
X8.3614Y-2.9146
X8.3614Y-3.0146
X8.3614Y-3.1146
X8.3614Y-3.2146
X8.3614Y-3.3146
X8.3614Y-3.4146
X8.3614Y-3.5146
X8.9614Y-2.4146
X8.9614Y-2.5146
X8.9614Y-2.6146
X8.9614Y-2.7146
X8.9614Y-2.8146
X8.9614Y-2.9146
X8.9614Y-3.0146
X8.9614Y-3.1146
X8.9614Y-3.2146
X8.9614Y-3.3146
X8.9614Y-3.4146
X8.9614Y-3.5146
T7
X3.7402Y-2.7559
X3.7402Y-3.5059
X3.7402Y-4.2559
X3.7402Y-5.0059
X3.7402Y-5.7559
X3.937Y-2.6732
X3.937Y-2.6732
X3.937Y-3.4232
X3.937Y-3.4232
X3.937Y-4.1732
X3.937Y-4.1732
X3.937Y-4.9232
X3.937Y-4.9232
X3.937Y-5.6732
X3.937Y-5.6732
X4.1339Y-2.7559
X4.1339Y-3.5059
X4.1339Y-4.2559
X4.1339Y-5.0059
X4.1339Y-5.7559
X4.4882Y-2.7559
X4.4882Y-3.5059
X4.4882Y-4.2559
X4.4882Y-5.0059
X4.4882Y-5.7559
X4.685Y-2.6732
X4.685Y-2.6732
X4.685Y-3.4232
X4.685Y-3.4232
X4.685Y-4.1732
X4.685Y-4.1732
X4.685Y-4.9232
X4.685Y-4.9232
X4.685Y-5.6732
X4.685Y-5.6732
X4.8819Y-2.7559
X4.8819Y-3.5059
X4.8819Y-4.2559
X4.8819Y-5.0059
X4.8819Y-5.7559
X5.2362Y-2.4803
X5.2362Y-3.2303
X5.2362Y-3.9803
X5.2362Y-4.7303
X5.2362Y-5.4803
X5.4331Y-2.3976
X5.4331Y-2.3976
X5.4331Y-3.1476
X5.4331Y-3.1476
X5.4331Y-3.8976
X5.4331Y-3.8976
X5.4331Y-4.6476
X5.4331Y-4.6476
X5.4331Y-5.3976
X5.4331Y-5.3976
X5.6299Y-2.4803
X5.6299Y-3.2303
X5.6299Y-3.9803
X5.6299Y-4.7303
X5.6299Y-5.4803
X5.9843Y-2.3819
X5.9843Y-3.1319
X5.9843Y-3.8819
X5.9843Y-4.6319
X5.9843Y-5.3819
X6.1811Y-2.2992
X6.1811Y-2.2992
X6.1811Y-3.0492
X6.1811Y-3.0492
X6.1811Y-3.7992
X6.1811Y-3.7992
X6.1811Y-4.5492
X6.1811Y-4.5492
X6.1811Y-5.2992
X6.1811Y-5.2992
X6.378Y-2.3819
X6.378Y-3.1319
X6.378Y-3.8819
X6.378Y-4.6319
X6.378Y-5.3819
X6.7323Y-2.4803
X6.7323Y-3.2303
X6.7323Y-3.9803
X6.7323Y-4.7303
X6.7323Y-5.4803
X6.9291Y-2.3976
X6.9291Y-2.3976
X6.9291Y-3.1476
X6.9291Y-3.1476
X6.9291Y-3.8976
X6.9291Y-3.8976
X6.9291Y-4.6476
X6.9291Y-4.6476
X6.9291Y-5.3976
X6.9291Y-5.3976
X7.126Y-2.4803
X7.126Y-3.2303
X7.126Y-3.9803
X7.126Y-4.7303
X7.126Y-5.4803
X7.4803Y-2.5787
X7.4803Y-3.3287
X7.4803Y-4.0787
X7.4803Y-4.8287
X7.6439Y-5.6313
X7.6772Y-2.4961
X7.6772Y-2.4961
X7.6772Y-3.2461
X7.6772Y-3.2461
X7.6772Y-3.9961
X7.6772Y-3.9961
X7.6772Y-4.7461
X7.6772Y-4.7461
X7.8554Y-5.6024
X7.8554Y-5.6024
X7.874Y-2.5787
X7.874Y-3.3287
X7.874Y-4.0787
X7.874Y-4.8287
X8.0241Y-5.7332
X8.3664Y-5.8249
X8.3799Y-5.0521
X8.5779Y-5.796
X8.5779Y-5.796
X8.5914Y-5.0232
X8.5914Y-5.0232
X8.7467Y-5.9268
X8.7602Y-5.154
T8
G00X8.6311Y-4.2819
M15
G01X8.6823Y-4.2819
M16
G05
G00X8.6311Y-4.7228
M15
G01X8.6823Y-4.7228
M16
G05
M30
