%TF.GenerationSoftware,KiCad,Pcbnew,8.0.6*%
%TF.CreationDate,2025-03-22T19:16:27+01:00*%
%TF.ProjectId,left-finished,6c656674-2d66-4696-9e69-736865642e6b,v1.0.0*%
%TF.SameCoordinates,Original*%
%TF.FileFunction,Copper,L1,Top*%
%TF.FilePolarity,Positive*%
%FSLAX46Y46*%
G04 Gerber Fmt 4.6, Leading zero omitted, Abs format (unit mm)*
G04 Created by KiCad (PCBNEW 8.0.6) date 2025-03-22 19:16:27*
%MOMM*%
%LPD*%
G01*
G04 APERTURE LIST*
G04 Aperture macros list*
%AMRotRect*
0 Rectangle, with rotation*
0 The origin of the aperture is its center*
0 $1 length*
0 $2 width*
0 $3 Rotation angle, in degrees counterclockwise*
0 Add horizontal line*
21,1,$1,$2,0,0,$3*%
%AMFreePoly0*
4,1,6,0.600000,-1.000000,0.000000,-0.400000,-0.600000,-1.000000,-0.600000,0.250000,0.600000,0.250000,0.600000,-1.000000,0.600000,-1.000000,$1*%
%AMFreePoly1*
4,1,6,0.600000,-0.200000,0.600000,-0.400000,-0.600000,-0.400000,-0.600000,-0.200000,0.000000,0.400000,0.600000,-0.200000,0.600000,-0.200000,$1*%
G04 Aperture macros list end*
%TA.AperFunction,SMDPad,CuDef*%
%ADD10R,0.900000X0.900000*%
%TD*%
%TA.AperFunction,WasherPad*%
%ADD11C,1.000000*%
%TD*%
%TA.AperFunction,SMDPad,CuDef*%
%ADD12R,1.250000X0.900000*%
%TD*%
%TA.AperFunction,SMDPad,CuDef*%
%ADD13R,1.800000X1.100000*%
%TD*%
%TA.AperFunction,ComponentPad*%
%ADD14C,2.032000*%
%TD*%
%TA.AperFunction,ComponentPad*%
%ADD15R,1.778000X1.778000*%
%TD*%
%TA.AperFunction,SMDPad,CuDef*%
%ADD16R,1.200000X0.900000*%
%TD*%
%TA.AperFunction,ComponentPad*%
%ADD17C,1.905000*%
%TD*%
%TA.AperFunction,ComponentPad*%
%ADD18C,0.600000*%
%TD*%
%TA.AperFunction,SMDPad,CuDef*%
%ADD19FreePoly0,90.000000*%
%TD*%
%TA.AperFunction,ComponentPad*%
%ADD20O,1.750000X1.200000*%
%TD*%
%TA.AperFunction,SMDPad,CuDef*%
%ADD21FreePoly1,90.000000*%
%TD*%
%TA.AperFunction,ComponentPad*%
%ADD22R,1.752600X1.752600*%
%TD*%
%TA.AperFunction,ComponentPad*%
%ADD23C,1.752600*%
%TD*%
%TA.AperFunction,ComponentPad*%
%ADD24RotRect,1.778000X1.778000X75.000000*%
%TD*%
%TA.AperFunction,SMDPad,CuDef*%
%ADD25RotRect,0.900000X1.200000X75.000000*%
%TD*%
%TA.AperFunction,SMDPad,CuDef*%
%ADD26R,0.635000X1.143000*%
%TD*%
%TA.AperFunction,SMDPad,CuDef*%
%ADD27R,0.900000X1.200000*%
%TD*%
%TA.AperFunction,ComponentPad*%
%ADD28R,3.200000X2.000000*%
%TD*%
%TA.AperFunction,ComponentPad*%
%ADD29C,1.500000*%
%TD*%
%TA.AperFunction,ComponentPad*%
%ADD30R,2.000000X2.000000*%
%TD*%
%TA.AperFunction,ComponentPad*%
%ADD31C,2.000000*%
%TD*%
%TA.AperFunction,SMDPad,CuDef*%
%ADD32R,1.400000X1.000000*%
%TD*%
%TA.AperFunction,SMDPad,CuDef*%
%ADD33RotRect,1.400000X1.000000X345.000000*%
%TD*%
%TA.AperFunction,SMDPad,CuDef*%
%ADD34RotRect,1.400000X1.000000X165.000000*%
%TD*%
%TA.AperFunction,ViaPad*%
%ADD35C,0.800000*%
%TD*%
%TA.AperFunction,Conductor*%
%ADD36C,0.250000*%
%TD*%
G04 APERTURE END LIST*
D10*
%TO.P,T1,*%
%TO.N,*%
X233600000Y-65600000D03*
X231400000Y-65600000D03*
D11*
X232500000Y-67800000D03*
X232500000Y-70800000D03*
D10*
X233600000Y-73000000D03*
X231400000Y-73000000D03*
D12*
%TO.P,T1,1*%
%TO.N,N/C*%
X230425000Y-71550000D03*
%TO.P,T1,2*%
%TO.N,pos*%
X230425000Y-68550000D03*
%TO.P,T1,3*%
%TO.N,RAW*%
X230425000Y-67050000D03*
%TD*%
D13*
%TO.P,B1,1*%
%TO.N,GND*%
X223100000Y-97150000D03*
X216900000Y-97150000D03*
%TO.P,B1,2*%
%TO.N,RST*%
X223100000Y-93450000D03*
X216900000Y-93450000D03*
%TD*%
D14*
%TO.P,S5,1*%
%TO.N,P1*%
X95000000Y-70000000D03*
X105000000Y-70000000D03*
%TO.P,S5,2*%
%TO.N,outer_num*%
X100000000Y-67900000D03*
X100000000Y-67900000D03*
%TD*%
D15*
%TO.P,D22,1*%
%TO.N,P15*%
X168000000Y-132760000D03*
D16*
X168000000Y-130600000D03*
%TO.P,D22,2*%
%TO.N,index_bottom*%
X168000000Y-127300000D03*
D17*
X168000000Y-125140000D03*
%TD*%
D18*
%TO.P,REF\u002A\u002A,1*%
%TO.N,RST*%
X220000000Y-93500000D03*
%TD*%
D14*
%TO.P,S13,1*%
%TO.N,P3*%
X133000000Y-101100000D03*
X143000000Y-101100000D03*
%TO.P,S13,2*%
%TO.N,ring_home*%
X138000000Y-99000000D03*
X138000000Y-99000000D03*
%TD*%
%TO.P,S28,1*%
%TO.N,P6*%
X190000000Y-84550000D03*
X200000000Y-84550000D03*
%TO.P,S28,2*%
%TO.N,inner_top*%
X195000000Y-82450000D03*
X195000000Y-82450000D03*
%TD*%
D15*
%TO.P,D27,1*%
%TO.N,P14*%
X187000000Y-116210000D03*
D16*
X187000000Y-114050000D03*
%TO.P,D27,2*%
%TO.N,inner_home*%
X187000000Y-110750000D03*
D17*
X187000000Y-108590000D03*
%TD*%
D15*
%TO.P,D16,1*%
%TO.N,P18*%
X149000000Y-149310000D03*
D16*
X149000000Y-147150000D03*
%TO.P,D16,2*%
%TO.N,middle_mod*%
X149000000Y-143850000D03*
D17*
X149000000Y-141690000D03*
%TD*%
D19*
%TO.P,JST1,1*%
%TO.N,pos*%
X227184000Y-101400000D03*
%TO.P,JST1,2*%
%TO.N,GND*%
X227184000Y-103400000D03*
D20*
%TO.P,JST1,11*%
%TO.N,JST1_1*%
X230000000Y-101400000D03*
%TO.P,JST1,12*%
%TO.N,JST1_2*%
X230000000Y-103400000D03*
D21*
%TO.P,JST1,21*%
%TO.N,JST1_1*%
X228200000Y-101400000D03*
%TO.P,JST1,22*%
%TO.N,JST1_2*%
X228200000Y-103400000D03*
%TD*%
D14*
%TO.P,S9,1*%
%TO.N,P0*%
X114000000Y-89050000D03*
X124000000Y-89050000D03*
%TO.P,S9,2*%
%TO.N,pinky_top*%
X119000000Y-86950000D03*
X119000000Y-86950000D03*
%TD*%
%TO.P,S26,1*%
%TO.N,P6*%
X190000000Y-122650000D03*
X200000000Y-122650000D03*
%TO.P,S26,2*%
%TO.N,inner_bottom*%
X195000000Y-120550000D03*
X195000000Y-120550000D03*
%TD*%
D18*
%TO.P,REF\u002A\u002A,1*%
%TO.N,GND*%
X220000000Y-97000000D03*
%TD*%
D14*
%TO.P,S14,1*%
%TO.N,P3*%
X133000000Y-82050000D03*
X143000000Y-82050000D03*
%TO.P,S14,2*%
%TO.N,ring_top*%
X138000000Y-79950000D03*
X138000000Y-79950000D03*
%TD*%
D15*
%TO.P,D18,1*%
%TO.N,P14*%
X149000000Y-111210000D03*
D16*
X149000000Y-109050000D03*
%TO.P,D18,2*%
%TO.N,middle_home*%
X149000000Y-105750000D03*
D17*
X149000000Y-103590000D03*
%TD*%
D15*
%TO.P,D24,1*%
%TO.N,P8*%
X168000000Y-94660000D03*
D16*
X168000000Y-92500000D03*
%TO.P,D24,2*%
%TO.N,index_top*%
X168000000Y-89200000D03*
D17*
X168000000Y-87040000D03*
%TD*%
D18*
%TO.P,REF\u002A\u002A,1*%
%TO.N,P10*%
X216600000Y-111900000D03*
%TD*%
D15*
%TO.P,D8,1*%
%TO.N,P14*%
X111000000Y-120710000D03*
D16*
X111000000Y-118550000D03*
%TO.P,D8,2*%
%TO.N,pinky_home*%
X111000000Y-115250000D03*
D17*
X111000000Y-113090000D03*
%TD*%
D15*
%TO.P,D10,1*%
%TO.N,P7*%
X111000000Y-82610000D03*
D16*
X111000000Y-80450000D03*
%TO.P,D10,2*%
%TO.N,pinky_num*%
X111000000Y-77150000D03*
D17*
X111000000Y-74990000D03*
%TD*%
D15*
%TO.P,D13,1*%
%TO.N,P14*%
X130000000Y-113710000D03*
D16*
X130000000Y-111550000D03*
%TO.P,D13,2*%
%TO.N,ring_home*%
X130000000Y-108250000D03*
D17*
X130000000Y-106090000D03*
%TD*%
D15*
%TO.P,D1,1*%
%TO.N,P18*%
X92000000Y-158810000D03*
D16*
X92000000Y-156650000D03*
%TO.P,D1,2*%
%TO.N,outer_mod*%
X92000000Y-153350000D03*
D17*
X92000000Y-151190000D03*
%TD*%
D14*
%TO.P,S18,1*%
%TO.N,P4*%
X152000000Y-98600000D03*
X162000000Y-98600000D03*
%TO.P,S18,2*%
%TO.N,middle_home*%
X157000000Y-96500000D03*
X157000000Y-96500000D03*
%TD*%
D22*
%TO.P,MCU1,1*%
%TO.N,RAW*%
X227620000Y-61330000D03*
D23*
%TO.P,MCU1,2*%
%TO.N,GND*%
X227620000Y-63870000D03*
%TO.P,MCU1,3*%
%TO.N,RST*%
X227620000Y-66410000D03*
%TO.P,MCU1,4*%
%TO.N,VCC*%
X227620000Y-68950000D03*
%TO.P,MCU1,5*%
%TO.N,P21*%
X227620000Y-71490000D03*
%TO.P,MCU1,6*%
%TO.N,P20*%
X227620000Y-74030000D03*
%TO.P,MCU1,7*%
%TO.N,P19*%
X227620000Y-76570000D03*
%TO.P,MCU1,8*%
%TO.N,P18*%
X227620000Y-79110000D03*
%TO.P,MCU1,9*%
%TO.N,P15*%
X227620000Y-81650000D03*
%TO.P,MCU1,10*%
%TO.N,P14*%
X227620000Y-84190000D03*
%TO.P,MCU1,11*%
%TO.N,P16*%
X227620000Y-86730000D03*
%TO.P,MCU1,12*%
%TO.N,P10*%
X227620000Y-89270000D03*
%TO.P,MCU1,13*%
%TO.N,P1*%
X212380000Y-61330000D03*
%TO.P,MCU1,14*%
%TO.N,P0*%
X212380000Y-63870000D03*
%TO.P,MCU1,15*%
%TO.N,GND*%
X212380000Y-66410000D03*
%TO.P,MCU1,16*%
X212380000Y-68950000D03*
%TO.P,MCU1,17*%
%TO.N,P2*%
X212380000Y-71490000D03*
%TO.P,MCU1,18*%
%TO.N,P3*%
X212380000Y-74030000D03*
%TO.P,MCU1,19*%
%TO.N,P4*%
X212380000Y-76570000D03*
%TO.P,MCU1,20*%
%TO.N,P5*%
X212380000Y-79110000D03*
%TO.P,MCU1,21*%
%TO.N,P6*%
X212380000Y-81650000D03*
%TO.P,MCU1,22*%
%TO.N,P7*%
X212380000Y-84190000D03*
%TO.P,MCU1,23*%
%TO.N,P8*%
X212380000Y-86730000D03*
%TO.P,MCU1,24*%
%TO.N,P9*%
X212380000Y-89270000D03*
%TD*%
D14*
%TO.P,S30,1*%
%TO.N,P6*%
X194153883Y-143035387D03*
X203813142Y-145623577D03*
%TO.P,S30,2*%
%TO.N,outer_bottom_thumbs*%
X199527032Y-142301038D03*
X199527032Y-142301038D03*
%TD*%
D15*
%TO.P,D4,1*%
%TO.N,P8*%
X92000000Y-101660000D03*
D16*
X92000000Y-99500000D03*
%TO.P,D4,2*%
%TO.N,outer_top*%
X92000000Y-96200000D03*
D17*
X92000000Y-94040000D03*
%TD*%
D14*
%TO.P,S12,1*%
%TO.N,P3*%
X133000000Y-120150000D03*
X143000000Y-120150000D03*
%TO.P,S12,2*%
%TO.N,ring_bottom*%
X138000000Y-118050000D03*
X138000000Y-118050000D03*
%TD*%
D24*
%TO.P,D31,1*%
%TO.N,P18*%
X206344987Y-159356816D03*
D25*
X206904039Y-157270417D03*
%TO.P,D31,2*%
%TO.N,inner_bottom_thumbs*%
X207758139Y-154082861D03*
D17*
X208317191Y-151996462D03*
%TD*%
D18*
%TO.P,REF\u002A\u002A,1*%
%TO.N,P16*%
X216600000Y-116900000D03*
%TD*%
D14*
%TO.P,S27,1*%
%TO.N,P6*%
X190000000Y-103600000D03*
X200000000Y-103600000D03*
%TO.P,S27,2*%
%TO.N,inner_home*%
X195000000Y-101500000D03*
X195000000Y-101500000D03*
%TD*%
%TO.P,S10,1*%
%TO.N,P0*%
X114000000Y-70000000D03*
X124000000Y-70000000D03*
%TO.P,S10,2*%
%TO.N,pinky_num*%
X119000000Y-67900000D03*
X119000000Y-67900000D03*
%TD*%
D15*
%TO.P,D11,1*%
%TO.N,P18*%
X130000000Y-151810000D03*
D16*
X130000000Y-149650000D03*
%TO.P,D11,2*%
%TO.N,ring_mod*%
X130000000Y-146350000D03*
D17*
X130000000Y-144190000D03*
%TD*%
D14*
%TO.P,S17,1*%
%TO.N,P4*%
X152000000Y-117650000D03*
X162000000Y-117650000D03*
%TO.P,S17,2*%
%TO.N,middle_bottom*%
X157000000Y-115550000D03*
X157000000Y-115550000D03*
%TD*%
%TO.P,S11,1*%
%TO.N,P3*%
X133000000Y-139200000D03*
X143000000Y-139200000D03*
%TO.P,S11,2*%
%TO.N,ring_mod*%
X138000000Y-137100000D03*
X138000000Y-137100000D03*
%TD*%
D26*
%TO.P,J1,1*%
%TO.N,P16*%
X215500380Y-111900000D03*
%TO.P,J1,2*%
%TO.N,scroll-j1*%
X214499620Y-111900000D03*
%TD*%
%TO.P,J2,1*%
%TO.N,P10*%
X215500380Y-116900000D03*
%TO.P,J2,2*%
%TO.N,scroll-j2*%
X214499620Y-116900000D03*
%TD*%
D15*
%TO.P,D21,1*%
%TO.N,P18*%
X168000000Y-151810000D03*
D16*
X168000000Y-149650000D03*
%TO.P,D21,2*%
%TO.N,index_mod*%
X168000000Y-146350000D03*
D17*
X168000000Y-144190000D03*
%TD*%
D14*
%TO.P,S6,1*%
%TO.N,P0*%
X114000000Y-146200000D03*
X124000000Y-146200000D03*
%TO.P,S6,2*%
%TO.N,pinky_mod*%
X119000000Y-144100000D03*
X119000000Y-144100000D03*
%TD*%
D15*
%TO.P,D33,1*%
%TO.N,P14*%
X223810000Y-123400000D03*
D27*
X221650000Y-123400000D03*
%TO.P,D33,2*%
%TO.N,RB_ROW*%
X218350000Y-123400000D03*
D17*
X216190000Y-123400000D03*
%TD*%
D11*
%TO.P,T2,*%
%TO.N,*%
X232500000Y-67800000D03*
X232500000Y-70800000D03*
%TD*%
D14*
%TO.P,S15,1*%
%TO.N,P3*%
X133000000Y-63000000D03*
X143000000Y-63000000D03*
%TO.P,S15,2*%
%TO.N,ring_num*%
X138000000Y-60900000D03*
X138000000Y-60900000D03*
%TD*%
%TO.P,S4,1*%
%TO.N,P1*%
X95000000Y-89050000D03*
X105000000Y-89050000D03*
%TO.P,S4,2*%
%TO.N,outer_top*%
X100000000Y-86950000D03*
X100000000Y-86950000D03*
%TD*%
D15*
%TO.P,D26,1*%
%TO.N,P15*%
X187000000Y-135260000D03*
D16*
X187000000Y-133100000D03*
%TO.P,D26,2*%
%TO.N,inner_bottom*%
X187000000Y-129800000D03*
D17*
X187000000Y-127640000D03*
%TD*%
D14*
%TO.P,S25,1*%
%TO.N,P5*%
X171000000Y-63000000D03*
X181000000Y-63000000D03*
%TO.P,S25,2*%
%TO.N,index_num*%
X176000000Y-60900000D03*
X176000000Y-60900000D03*
%TD*%
D15*
%TO.P,D19,1*%
%TO.N,P8*%
X149000000Y-92160000D03*
D16*
X149000000Y-90000000D03*
%TO.P,D19,2*%
%TO.N,middle_top*%
X149000000Y-86700000D03*
D17*
X149000000Y-84540000D03*
%TD*%
D15*
%TO.P,D3,1*%
%TO.N,P14*%
X92000000Y-120710000D03*
D16*
X92000000Y-118550000D03*
%TO.P,D3,2*%
%TO.N,outer_home*%
X92000000Y-115250000D03*
D17*
X92000000Y-113090000D03*
%TD*%
D15*
%TO.P,D2,1*%
%TO.N,P15*%
X92000000Y-139760000D03*
D16*
X92000000Y-137600000D03*
%TO.P,D2,2*%
%TO.N,outer_bottom*%
X92000000Y-134300000D03*
D17*
X92000000Y-132140000D03*
%TD*%
D18*
%TO.P,REF\u002A\u002A,1*%
%TO.N,pos*%
X232500000Y-69300000D03*
%TD*%
D14*
%TO.P,S20,1*%
%TO.N,P4*%
X152000000Y-60500000D03*
X162000000Y-60500000D03*
%TO.P,S20,2*%
%TO.N,middle_num*%
X157000000Y-58400000D03*
X157000000Y-58400000D03*
%TD*%
D15*
%TO.P,D7,1*%
%TO.N,P15*%
X111000000Y-139760000D03*
D16*
X111000000Y-137600000D03*
%TO.P,D7,2*%
%TO.N,pinky_bottom*%
X111000000Y-134300000D03*
D17*
X111000000Y-132140000D03*
%TD*%
D18*
%TO.P,REF\u002A\u002A,1*%
%TO.N,pos*%
X226000000Y-102400000D03*
%TD*%
D28*
%TO.P,ROT1,*%
%TO.N,*%
X219880000Y-108760000D03*
X219880000Y-119960000D03*
D29*
%TO.P,ROT1,1*%
%TO.N,P9*%
X226880000Y-111860000D03*
%TO.P,ROT1,2*%
%TO.N,RB_ROW*%
X226880000Y-116860000D03*
D30*
%TO.P,ROT1,A*%
%TO.N,scroll-j1*%
X212380000Y-111860000D03*
D31*
%TO.P,ROT1,B*%
%TO.N,scroll-j2*%
X212380000Y-116860000D03*
%TO.P,ROT1,C*%
%TO.N,GND*%
X212380000Y-114360000D03*
%TD*%
D14*
%TO.P,S29,1*%
%TO.N,P6*%
X190000000Y-65500000D03*
X200000000Y-65500000D03*
%TO.P,S29,2*%
%TO.N,inner_num*%
X195000000Y-63400000D03*
X195000000Y-63400000D03*
%TD*%
D15*
%TO.P,D23,1*%
%TO.N,P14*%
X168000000Y-113710000D03*
D16*
X168000000Y-111550000D03*
%TO.P,D23,2*%
%TO.N,index_home*%
X168000000Y-108250000D03*
D17*
X168000000Y-106090000D03*
%TD*%
D14*
%TO.P,S31,1*%
%TO.N,P9*%
X212506474Y-147952949D03*
X222165733Y-150541139D03*
%TO.P,S31,2*%
%TO.N,inner_bottom_thumbs*%
X217879623Y-147218600D03*
X217879623Y-147218600D03*
%TD*%
%TO.P,S2,1*%
%TO.N,P1*%
X95000000Y-127150000D03*
X105000000Y-127150000D03*
%TO.P,S2,2*%
%TO.N,outer_bottom*%
X100000000Y-125050000D03*
X100000000Y-125050000D03*
%TD*%
D15*
%TO.P,D5,1*%
%TO.N,P7*%
X92000000Y-82610000D03*
D16*
X92000000Y-80450000D03*
%TO.P,D5,2*%
%TO.N,outer_num*%
X92000000Y-77150000D03*
D17*
X92000000Y-74990000D03*
%TD*%
D14*
%TO.P,S21,1*%
%TO.N,P5*%
X171000000Y-139200000D03*
X181000000Y-139200000D03*
%TO.P,S21,2*%
%TO.N,index_mod*%
X176000000Y-137100000D03*
X176000000Y-137100000D03*
%TD*%
D15*
%TO.P,D6,1*%
%TO.N,P18*%
X111000000Y-158810000D03*
D16*
X111000000Y-156650000D03*
%TO.P,D6,2*%
%TO.N,pinky_mod*%
X111000000Y-153350000D03*
D17*
X111000000Y-151190000D03*
%TD*%
D15*
%TO.P,D17,1*%
%TO.N,P15*%
X149000000Y-130260000D03*
D16*
X149000000Y-128100000D03*
%TO.P,D17,2*%
%TO.N,middle_bottom*%
X149000000Y-124800000D03*
D17*
X149000000Y-122640000D03*
%TD*%
D14*
%TO.P,S23,1*%
%TO.N,P5*%
X171000000Y-101100000D03*
X181000000Y-101100000D03*
%TO.P,S23,2*%
%TO.N,index_home*%
X176000000Y-99000000D03*
X176000000Y-99000000D03*
%TD*%
D15*
%TO.P,D20,1*%
%TO.N,P7*%
X149000000Y-73110000D03*
D16*
X149000000Y-70950000D03*
%TO.P,D20,2*%
%TO.N,middle_num*%
X149000000Y-67650000D03*
D17*
X149000000Y-65490000D03*
%TD*%
D14*
%TO.P,S1,1*%
%TO.N,P1*%
X95000000Y-146200000D03*
X105000000Y-146200000D03*
%TO.P,S1,2*%
%TO.N,outer_mod*%
X100000000Y-144100000D03*
X100000000Y-144100000D03*
%TD*%
%TO.P,S32,1*%
%TO.N,P9*%
X212848829Y-128322671D03*
X222508088Y-130910861D03*
%TO.P,S32,2*%
%TO.N,inner_top_thumbs*%
X218221978Y-127588322D03*
X218221978Y-127588322D03*
%TD*%
%TO.P,S22,1*%
%TO.N,P5*%
X171000000Y-120150000D03*
X181000000Y-120150000D03*
%TO.P,S22,2*%
%TO.N,index_bottom*%
X176000000Y-118050000D03*
X176000000Y-118050000D03*
%TD*%
%TO.P,S16,1*%
%TO.N,P4*%
X152000000Y-136700000D03*
X162000000Y-136700000D03*
%TO.P,S16,2*%
%TO.N,middle_mod*%
X157000000Y-134600000D03*
X157000000Y-134600000D03*
%TD*%
%TO.P,S3,1*%
%TO.N,P1*%
X95000000Y-108100000D03*
X105000000Y-108100000D03*
%TO.P,S3,2*%
%TO.N,outer_home*%
X100000000Y-106000000D03*
X100000000Y-106000000D03*
%TD*%
%TO.P,S24,1*%
%TO.N,P5*%
X171000000Y-82050000D03*
X181000000Y-82050000D03*
%TO.P,S24,2*%
%TO.N,index_top*%
X176000000Y-79950000D03*
X176000000Y-79950000D03*
%TD*%
%TO.P,S19,1*%
%TO.N,P4*%
X152000000Y-79550000D03*
X162000000Y-79550000D03*
%TO.P,S19,2*%
%TO.N,middle_top*%
X157000000Y-77450000D03*
X157000000Y-77450000D03*
%TD*%
D15*
%TO.P,D15,1*%
%TO.N,P7*%
X130000000Y-75610000D03*
D16*
X130000000Y-73450000D03*
%TO.P,D15,2*%
%TO.N,ring_num*%
X130000000Y-70150000D03*
D17*
X130000000Y-67990000D03*
%TD*%
D15*
%TO.P,D28,1*%
%TO.N,P8*%
X187000000Y-97160000D03*
D16*
X187000000Y-95000000D03*
%TO.P,D28,2*%
%TO.N,inner_top*%
X187000000Y-91700000D03*
D17*
X187000000Y-89540000D03*
%TD*%
D15*
%TO.P,D25,1*%
%TO.N,P7*%
X168000000Y-75610000D03*
D16*
X168000000Y-73450000D03*
%TO.P,D25,2*%
%TO.N,index_num*%
X168000000Y-70150000D03*
D17*
X168000000Y-67990000D03*
%TD*%
D15*
%TO.P,D29,1*%
%TO.N,P7*%
X187000000Y-78110000D03*
D16*
X187000000Y-75950000D03*
%TO.P,D29,2*%
%TO.N,inner_num*%
X187000000Y-72650000D03*
D17*
X187000000Y-70490000D03*
%TD*%
D24*
%TO.P,D30,1*%
%TO.N,P18*%
X187992396Y-154439254D03*
D25*
X188551448Y-152352855D03*
%TO.P,D30,2*%
%TO.N,outer_bottom_thumbs*%
X189405548Y-149165299D03*
D17*
X189964600Y-147078900D03*
%TD*%
D14*
%TO.P,S7,1*%
%TO.N,P0*%
X114000000Y-127150000D03*
X124000000Y-127150000D03*
%TO.P,S7,2*%
%TO.N,pinky_bottom*%
X119000000Y-125050000D03*
X119000000Y-125050000D03*
%TD*%
D15*
%TO.P,D14,1*%
%TO.N,P8*%
X130000000Y-94660000D03*
D16*
X130000000Y-92500000D03*
%TO.P,D14,2*%
%TO.N,ring_top*%
X130000000Y-89200000D03*
D17*
X130000000Y-87040000D03*
%TD*%
D15*
%TO.P,D12,1*%
%TO.N,P15*%
X130000000Y-132760000D03*
D16*
X130000000Y-130600000D03*
%TO.P,D12,2*%
%TO.N,ring_bottom*%
X130000000Y-127300000D03*
D17*
X130000000Y-125140000D03*
%TD*%
D24*
%TO.P,D32,1*%
%TO.N,P15*%
X206687342Y-139726538D03*
D25*
X207246394Y-137640139D03*
%TO.P,D32,2*%
%TO.N,inner_top_thumbs*%
X208100494Y-134452583D03*
D17*
X208659546Y-132366184D03*
%TD*%
D15*
%TO.P,D9,1*%
%TO.N,P8*%
X111000000Y-101660000D03*
D16*
X111000000Y-99500000D03*
%TO.P,D9,2*%
%TO.N,pinky_top*%
X111000000Y-96200000D03*
D17*
X111000000Y-94040000D03*
%TD*%
D14*
%TO.P,S8,1*%
%TO.N,P0*%
X114000000Y-108100000D03*
X124000000Y-108100000D03*
%TO.P,S8,2*%
%TO.N,pinky_home*%
X119000000Y-106000000D03*
X119000000Y-106000000D03*
%TD*%
D32*
%TO.P,LED9,1*%
%TO.N,VCC*%
X140700000Y-71100000D03*
%TO.P,LED9,2*%
%TO.N,led_3*%
X140700000Y-72500000D03*
%TO.P,LED9,3*%
%TO.N,GND*%
X135300000Y-72500000D03*
%TO.P,LED9,4*%
%TO.N,led_4*%
X135300000Y-71100000D03*
%TD*%
%TO.P,LED11,1*%
%TO.N,VCC*%
X159700000Y-106700000D03*
%TO.P,LED11,2*%
%TO.N,led_14*%
X159700000Y-108100000D03*
%TO.P,LED11,3*%
%TO.N,GND*%
X154300000Y-108100000D03*
%TO.P,LED11,4*%
%TO.N,led_15*%
X154300000Y-106700000D03*
%TD*%
%TO.P,LED5,1*%
%TO.N,VCC*%
X121700000Y-116200000D03*
%TO.P,LED5,2*%
%TO.N,led_16*%
X121700000Y-117600000D03*
%TO.P,LED5,3*%
%TO.N,GND*%
X116300000Y-117600000D03*
%TO.P,LED5,4*%
%TO.N,led_17*%
X116300000Y-116200000D03*
%TD*%
%TO.P,LED26,1*%
%TO.N,VCC*%
X154300000Y-127150000D03*
%TO.P,LED26,2*%
%TO.N,led_21*%
X154300000Y-125750000D03*
%TO.P,LED26,3*%
%TO.N,GND*%
X159700000Y-125750000D03*
%TO.P,LED26,4*%
%TO.N,led_22*%
X159700000Y-127150000D03*
%TD*%
%TO.P,LED22,1*%
%TO.N,VCC*%
X116300000Y-136650000D03*
%TO.P,LED22,2*%
%TO.N,led_19*%
X116300000Y-135250000D03*
%TO.P,LED22,3*%
%TO.N,GND*%
X121700000Y-135250000D03*
%TO.P,LED22,4*%
%TO.N,led_20*%
X121700000Y-136650000D03*
%TD*%
%TO.P,LED1,1*%
%TO.N,VCC*%
X102700000Y-154300000D03*
%TO.P,LED1,2*%
%TO.N,led_31*%
X102700000Y-155700000D03*
%TO.P,LED1,3*%
%TO.N,GND*%
X97300000Y-155700000D03*
%TO.P,LED1,4*%
%TO.N,led_32*%
X97300000Y-154300000D03*
%TD*%
%TO.P,LED20,1*%
%TO.N,VCC*%
X97300000Y-136650000D03*
%TO.P,LED20,2*%
%TO.N,led_18*%
X97300000Y-135250000D03*
%TO.P,LED20,3*%
%TO.N,GND*%
X102700000Y-135250000D03*
%TO.P,LED20,4*%
%TO.N,led_19*%
X102700000Y-136650000D03*
%TD*%
%TO.P,LED14,1*%
%TO.N,VCC*%
X178700000Y-109200000D03*
%TO.P,LED14,2*%
%TO.N,led_13*%
X178700000Y-110600000D03*
%TO.P,LED14,3*%
%TO.N,GND*%
X173300000Y-110600000D03*
%TO.P,LED14,4*%
%TO.N,led_14*%
X173300000Y-109200000D03*
%TD*%
%TO.P,LED17,1*%
%TO.N,VCC*%
X197700000Y-73600000D03*
%TO.P,LED17,2*%
%TO.N,P2*%
X197700000Y-75000000D03*
%TO.P,LED17,3*%
%TO.N,GND*%
X192300000Y-75000000D03*
%TO.P,LED17,4*%
%TO.N,led_1*%
X192300000Y-73600000D03*
%TD*%
%TO.P,LED25,1*%
%TO.N,VCC*%
X135300000Y-91550000D03*
%TO.P,LED25,2*%
%TO.N,led_8*%
X135300000Y-90150000D03*
%TO.P,LED25,3*%
%TO.N,GND*%
X140700000Y-90150000D03*
%TO.P,LED25,4*%
%TO.N,led_9*%
X140700000Y-91550000D03*
%TD*%
%TO.P,LED2,1*%
%TO.N,VCC*%
X102700000Y-116200000D03*
%TO.P,LED2,2*%
%TO.N,led_17*%
X102700000Y-117600000D03*
%TO.P,LED2,3*%
%TO.N,GND*%
X97300000Y-117600000D03*
%TO.P,LED2,4*%
%TO.N,led_18*%
X97300000Y-116200000D03*
%TD*%
%TO.P,LED16,1*%
%TO.N,VCC*%
X197700000Y-111700000D03*
%TO.P,LED16,2*%
%TO.N,led_12*%
X197700000Y-113100000D03*
%TO.P,LED16,3*%
%TO.N,GND*%
X192300000Y-113100000D03*
%TO.P,LED16,4*%
%TO.N,led_13*%
X192300000Y-111700000D03*
%TD*%
%TO.P,LED6,1*%
%TO.N,VCC*%
X121700000Y-78100000D03*
%TO.P,LED6,2*%
%TO.N,led_4*%
X121700000Y-79500000D03*
%TO.P,LED6,3*%
%TO.N,GND*%
X116300000Y-79500000D03*
%TO.P,LED6,4*%
%TO.N,led_5*%
X116300000Y-78100000D03*
%TD*%
D33*
%TO.P,LED18,1*%
%TO.N,VCC*%
X199495078Y-152852292D03*
%TO.P,LED18,2*%
%TO.N,led_26*%
X199132731Y-154204589D03*
%TO.P,LED18,3*%
%TO.N,GND*%
X193916732Y-152806966D03*
%TO.P,LED18,4*%
%TO.N,led_27*%
X194279079Y-151454669D03*
%TD*%
D32*
%TO.P,LED30,1*%
%TO.N,VCC*%
X192300000Y-132150000D03*
%TO.P,LED30,2*%
%TO.N,led_23*%
X192300000Y-130750000D03*
%TO.P,LED30,3*%
%TO.N,GND*%
X197700000Y-130750000D03*
%TO.P,LED30,4*%
%TO.N,led_24*%
X197700000Y-132150000D03*
%TD*%
%TO.P,LED12,1*%
%TO.N,VCC*%
X159700000Y-68600000D03*
%TO.P,LED12,2*%
%TO.N,led_2*%
X159700000Y-70000000D03*
%TO.P,LED12,3*%
%TO.N,GND*%
X154300000Y-70000000D03*
%TO.P,LED12,4*%
%TO.N,led_3*%
X154300000Y-68600000D03*
%TD*%
%TO.P,LED29,1*%
%TO.N,VCC*%
X173300000Y-91550000D03*
%TO.P,LED29,2*%
%TO.N,led_10*%
X173300000Y-90150000D03*
%TO.P,LED29,3*%
%TO.N,GND*%
X178700000Y-90150000D03*
%TO.P,LED29,4*%
%TO.N,led_11*%
X178700000Y-91550000D03*
%TD*%
D33*
%TO.P,LED19,1*%
%TO.N,VCC*%
X217847669Y-157769854D03*
%TO.P,LED19,2*%
%TO.N,led_25*%
X217485322Y-159122151D03*
%TO.P,LED19,3*%
%TO.N,GND*%
X212269323Y-157724528D03*
%TO.P,LED19,4*%
%TO.N,led_26*%
X212631670Y-156372231D03*
%TD*%
D32*
%TO.P,LED15,1*%
%TO.N,VCC*%
X178700000Y-71100000D03*
%TO.P,LED15,2*%
%TO.N,led_1*%
X178700000Y-72500000D03*
%TO.P,LED15,3*%
%TO.N,GND*%
X173300000Y-72500000D03*
%TO.P,LED15,4*%
%TO.N,led_2*%
X173300000Y-71100000D03*
%TD*%
%TO.P,LED24,1*%
%TO.N,VCC*%
X135300000Y-129650000D03*
%TO.P,LED24,2*%
%TO.N,led_20*%
X135300000Y-128250000D03*
%TO.P,LED24,3*%
%TO.N,GND*%
X140700000Y-128250000D03*
%TO.P,LED24,4*%
%TO.N,led_21*%
X140700000Y-129650000D03*
%TD*%
D34*
%TO.P,LED32,1*%
%TO.N,VCC*%
X212611678Y-138094251D03*
%TO.P,LED32,2*%
%TO.N,led_24*%
X212974025Y-136741954D03*
%TO.P,LED32,3*%
%TO.N,GND*%
X218190024Y-138139577D03*
%TO.P,LED32,4*%
%TO.N,led_25*%
X217827677Y-139491874D03*
%TD*%
D32*
%TO.P,LED23,1*%
%TO.N,VCC*%
X116300000Y-98550000D03*
%TO.P,LED23,2*%
%TO.N,led_7*%
X116300000Y-97150000D03*
%TO.P,LED23,3*%
%TO.N,GND*%
X121700000Y-97150000D03*
%TO.P,LED23,4*%
%TO.N,led_8*%
X121700000Y-98550000D03*
%TD*%
%TO.P,LED4,1*%
%TO.N,VCC*%
X121700000Y-154300000D03*
%TO.P,LED4,2*%
%TO.N,led_30*%
X121700000Y-155700000D03*
%TO.P,LED4,3*%
%TO.N,GND*%
X116300000Y-155700000D03*
%TO.P,LED4,4*%
%TO.N,led_31*%
X116300000Y-154300000D03*
%TD*%
%TO.P,LED10,1*%
%TO.N,VCC*%
X159700000Y-144800000D03*
%TO.P,LED10,2*%
%TO.N,led_28*%
X159700000Y-146200000D03*
%TO.P,LED10,3*%
%TO.N,GND*%
X154300000Y-146200000D03*
%TO.P,LED10,4*%
%TO.N,led_29*%
X154300000Y-144800000D03*
%TD*%
%TO.P,LED8,1*%
%TO.N,VCC*%
X140700000Y-109200000D03*
%TO.P,LED8,2*%
%TO.N,led_15*%
X140700000Y-110600000D03*
%TO.P,LED8,3*%
%TO.N,GND*%
X135300000Y-110600000D03*
%TO.P,LED8,4*%
%TO.N,led_16*%
X135300000Y-109200000D03*
%TD*%
%TO.P,LED3,1*%
%TO.N,VCC*%
X102700000Y-78100000D03*
%TO.P,LED3,2*%
%TO.N,led_5*%
X102700000Y-79500000D03*
%TO.P,LED3,3*%
%TO.N,GND*%
X97300000Y-79500000D03*
%TO.P,LED3,4*%
%TO.N,led_6*%
X97300000Y-78100000D03*
%TD*%
%TO.P,LED27,1*%
%TO.N,VCC*%
X154300000Y-89050000D03*
%TO.P,LED27,2*%
%TO.N,led_9*%
X154300000Y-87650000D03*
%TO.P,LED27,3*%
%TO.N,GND*%
X159700000Y-87650000D03*
%TO.P,LED27,4*%
%TO.N,led_10*%
X159700000Y-89050000D03*
%TD*%
%TO.P,LED21,1*%
%TO.N,VCC*%
X97300000Y-98550000D03*
%TO.P,LED21,2*%
%TO.N,led_6*%
X97300000Y-97150000D03*
%TO.P,LED21,3*%
%TO.N,GND*%
X102700000Y-97150000D03*
%TO.P,LED21,4*%
%TO.N,led_7*%
X102700000Y-98550000D03*
%TD*%
%TO.P,LED13,1*%
%TO.N,VCC*%
X178700000Y-147300000D03*
%TO.P,LED13,2*%
%TO.N,led_27*%
X178700000Y-148700000D03*
%TO.P,LED13,3*%
%TO.N,GND*%
X173300000Y-148700000D03*
%TO.P,LED13,4*%
%TO.N,led_28*%
X173300000Y-147300000D03*
%TD*%
%TO.P,LED28,1*%
%TO.N,VCC*%
X173300000Y-129650000D03*
%TO.P,LED28,2*%
%TO.N,led_22*%
X173300000Y-128250000D03*
%TO.P,LED28,3*%
%TO.N,GND*%
X178700000Y-128250000D03*
%TO.P,LED28,4*%
%TO.N,led_23*%
X178700000Y-129650000D03*
%TD*%
%TO.P,LED31,1*%
%TO.N,VCC*%
X192300000Y-94050000D03*
%TO.P,LED31,2*%
%TO.N,led_11*%
X192300000Y-92650000D03*
%TO.P,LED31,3*%
%TO.N,GND*%
X197700000Y-92650000D03*
%TO.P,LED31,4*%
%TO.N,led_12*%
X197700000Y-94050000D03*
%TD*%
%TO.P,LED7,1*%
%TO.N,VCC*%
X140700000Y-147300000D03*
%TO.P,LED7,2*%
%TO.N,led_29*%
X140700000Y-148700000D03*
%TO.P,LED7,3*%
%TO.N,GND*%
X135300000Y-148700000D03*
%TO.P,LED7,4*%
%TO.N,led_30*%
X135300000Y-147300000D03*
%TD*%
D35*
%TO.N,VCC*%
X161060000Y-70000000D03*
X114940000Y-135250000D03*
X133940000Y-128250000D03*
X104060000Y-79500000D03*
X104060000Y-155700000D03*
X180060000Y-148700000D03*
X123060000Y-155700000D03*
X123060000Y-79500000D03*
X114940000Y-97150000D03*
X142060000Y-110600000D03*
X190940000Y-92650000D03*
X123060000Y-117600000D03*
X104060000Y-117600000D03*
X214500000Y-91500000D03*
X161060000Y-108100000D03*
X211660365Y-136389960D03*
X199060000Y-113100000D03*
X200446390Y-154556583D03*
X190940000Y-130750000D03*
X142060000Y-72500000D03*
X152940000Y-87650000D03*
X199060000Y-75000000D03*
X95940000Y-135250000D03*
X180060000Y-110600000D03*
X133940000Y-90150000D03*
X152940000Y-125750000D03*
X218798981Y-159474144D03*
X171940000Y-128250000D03*
X95940000Y-97150000D03*
X161060000Y-146200000D03*
X180060000Y-72500000D03*
X171940000Y-90150000D03*
X142060000Y-148700000D03*
%TO.N,led_31*%
X104950000Y-154300000D03*
X114050000Y-154300000D03*
%TO.N,GND*%
X199060000Y-130750000D03*
X180060000Y-90150000D03*
X210955663Y-157372534D03*
X219503683Y-138491571D03*
X171940000Y-72500000D03*
X190940000Y-113100000D03*
X95940000Y-117600000D03*
X123060000Y-135250000D03*
X133940000Y-148700000D03*
X104060000Y-97150000D03*
X95940000Y-79500000D03*
X114940000Y-79500000D03*
X161060000Y-87650000D03*
X133940000Y-110600000D03*
X171940000Y-110600000D03*
X95940000Y-155700000D03*
X192603073Y-152454972D03*
X161060000Y-125750000D03*
X142060000Y-128250000D03*
X199060000Y-92650000D03*
X142060000Y-90150000D03*
X123060000Y-97150000D03*
X152940000Y-70000000D03*
X152940000Y-108100000D03*
X190940000Y-75000000D03*
X104060000Y-135250000D03*
X152940000Y-146200000D03*
X171940000Y-148700000D03*
X114940000Y-117600000D03*
X180060000Y-128250000D03*
X114940000Y-155700000D03*
X133940000Y-72500000D03*
%TO.N,led_32*%
X95050000Y-154300000D03*
%TO.N,led_17*%
X104950000Y-116200000D03*
X114050000Y-116200000D03*
%TO.N,led_18*%
X95050000Y-136650000D03*
X95050000Y-116200000D03*
%TO.N,led_5*%
X114050000Y-78100000D03*
X104950000Y-78100000D03*
%TO.N,led_6*%
X95050000Y-98550000D03*
X95050000Y-78100000D03*
%TO.N,led_30*%
X123950000Y-154300000D03*
X133050000Y-147300000D03*
%TO.N,led_16*%
X123950000Y-116200000D03*
X133050000Y-109200000D03*
%TO.N,led_4*%
X123950000Y-78100000D03*
X133050000Y-71100000D03*
%TO.N,led_29*%
X142950000Y-147300000D03*
X152050000Y-144800000D03*
%TO.N,led_15*%
X152050000Y-106700000D03*
X142950000Y-109200000D03*
%TO.N,led_3*%
X152050000Y-68600000D03*
X142950000Y-71100000D03*
%TO.N,led_28*%
X161950000Y-144800000D03*
X171050000Y-147300000D03*
%TO.N,led_14*%
X161950000Y-106700000D03*
X171050000Y-109200000D03*
%TO.N,led_2*%
X171050000Y-71100000D03*
X161950000Y-68600000D03*
%TO.N,led_27*%
X192105745Y-150872327D03*
X180950000Y-147300000D03*
%TO.N,led_13*%
X190050000Y-111700000D03*
X180950000Y-109200000D03*
%TO.N,led_1*%
X190050000Y-73600000D03*
X180950000Y-71100000D03*
%TO.N,led_12*%
X199950000Y-111700000D03*
X199950000Y-94050000D03*
%TO.N,P2*%
X199950000Y-73600000D03*
%TO.N,led_26*%
X210458336Y-155789889D03*
X201668411Y-153434635D03*
%TO.N,led_25*%
X220001010Y-140074216D03*
X220021002Y-158352197D03*
%TO.N,led_19*%
X104950000Y-136650000D03*
X114050000Y-136650000D03*
%TO.N,led_7*%
X114050000Y-98550000D03*
X104950000Y-98550000D03*
%TO.N,led_20*%
X123950000Y-136650000D03*
X133050000Y-129650000D03*
%TO.N,led_8*%
X133050000Y-91550000D03*
X123950000Y-98550000D03*
%TO.N,led_21*%
X142950000Y-129650000D03*
X152050000Y-127150000D03*
%TO.N,led_9*%
X142950000Y-91550000D03*
X152050000Y-89050000D03*
%TO.N,led_22*%
X171050000Y-129650000D03*
X161950000Y-127150000D03*
%TO.N,led_10*%
X171050000Y-91550000D03*
X161950000Y-89050000D03*
%TO.N,led_23*%
X190050000Y-132150000D03*
X180950000Y-129650000D03*
%TO.N,led_11*%
X180950000Y-91550000D03*
X190050000Y-94050000D03*
%TO.N,led_24*%
X210438344Y-137511907D03*
X199950000Y-132150000D03*
%TD*%
D36*
%TO.N,outer_mod*%
X94900000Y-144100000D02*
X100000000Y-144100000D01*
X92000000Y-151190000D02*
X92000000Y-147000000D01*
X92000000Y-153350000D02*
X92000000Y-151190000D01*
X92000000Y-147000000D02*
X94900000Y-144100000D01*
%TO.N,outer_bottom*%
X92000000Y-132140000D02*
X92000000Y-127626770D01*
X94576770Y-125050000D02*
X100000000Y-125050000D01*
X92000000Y-127626770D02*
X94576770Y-125050000D01*
X92000000Y-132140000D02*
X92000000Y-134300000D01*
%TO.N,outer_home*%
X92000000Y-113090000D02*
X92000000Y-115250000D01*
X94500000Y-106000000D02*
X100000000Y-106000000D01*
X92000000Y-108500000D02*
X94500000Y-106000000D01*
X92000000Y-113090000D02*
X92000000Y-108500000D01*
%TO.N,outer_top*%
X92000000Y-90153539D02*
X95203539Y-86950000D01*
X92000000Y-94040000D02*
X92000000Y-96200000D01*
X92000000Y-94040000D02*
X92000000Y-90153539D01*
X95203539Y-86950000D02*
X100000000Y-86950000D01*
%TO.N,outer_num*%
X92000000Y-74990000D02*
X92000000Y-71103539D01*
X95203539Y-67900000D02*
X100000000Y-67900000D01*
X92000000Y-71103539D02*
X95203539Y-67900000D01*
X92000000Y-74990000D02*
X92000000Y-77150000D01*
%TO.N,pinky_mod*%
X111000000Y-151190000D02*
X111000000Y-147000000D01*
X111000000Y-147000000D02*
X113900000Y-144100000D01*
X111000000Y-151190000D02*
X111000000Y-153350000D01*
X113900000Y-144100000D02*
X119000000Y-144100000D01*
%TO.N,pinky_bottom*%
X111000000Y-132140000D02*
X111000000Y-128000000D01*
X111000000Y-132140000D02*
X111000000Y-134300000D01*
X111000000Y-128000000D02*
X113950000Y-125050000D01*
X113950000Y-125050000D02*
X119000000Y-125050000D01*
%TO.N,pinky_home*%
X111000000Y-113090000D02*
X111000000Y-108500000D01*
X111000000Y-108500000D02*
X113500000Y-106000000D01*
X111000000Y-113090000D02*
X111000000Y-115250000D01*
X113500000Y-106000000D02*
X119000000Y-106000000D01*
%TO.N,pinky_top*%
X111000000Y-94040000D02*
X111000000Y-89750000D01*
X111000000Y-94040000D02*
X111000000Y-96200000D01*
X111000000Y-89750000D02*
X113800000Y-86950000D01*
X113800000Y-86950000D02*
X119000000Y-86950000D01*
%TO.N,pinky_num*%
X111000000Y-71103539D02*
X114203539Y-67900000D01*
X111000000Y-74990000D02*
X111000000Y-77150000D01*
X114203539Y-67900000D02*
X119000000Y-67900000D01*
X111000000Y-74990000D02*
X111000000Y-71103539D01*
%TO.N,ring_mod*%
X130000000Y-140000000D02*
X132900000Y-137100000D01*
X130000000Y-146350000D02*
X130000000Y-144190000D01*
X130000000Y-144190000D02*
X130000000Y-140000000D01*
X132900000Y-137100000D02*
X138000000Y-137100000D01*
%TO.N,ring_bottom*%
X130000000Y-121000000D02*
X132950000Y-118050000D01*
X132950000Y-118050000D02*
X138000000Y-118050000D01*
X130000000Y-125140000D02*
X130000000Y-121000000D01*
X130000000Y-125140000D02*
X130000000Y-127300000D01*
%TO.N,ring_home*%
X132500000Y-99000000D02*
X138000000Y-99000000D01*
X130000000Y-108250000D02*
X130000000Y-106090000D01*
X130000000Y-101500000D02*
X132500000Y-99000000D01*
X130000000Y-106090000D02*
X130000000Y-101500000D01*
%TO.N,ring_top*%
X130000000Y-89200000D02*
X130000000Y-87040000D01*
X133203539Y-79950000D02*
X138000000Y-79950000D01*
X130000000Y-87040000D02*
X130000000Y-83153539D01*
X130000000Y-83153539D02*
X133203539Y-79950000D01*
%TO.N,ring_num*%
X130000000Y-70150000D02*
X130000000Y-67990000D01*
X130000000Y-64103539D02*
X133203539Y-60900000D01*
X133203539Y-60900000D02*
X138000000Y-60900000D01*
X130000000Y-67990000D02*
X130000000Y-64103539D01*
%TO.N,middle_mod*%
X149000000Y-141690000D02*
X149000000Y-137500000D01*
X149000000Y-137500000D02*
X151900000Y-134600000D01*
X149000000Y-141690000D02*
X149000000Y-143850000D01*
X151900000Y-134600000D02*
X157000000Y-134600000D01*
%TO.N,middle_bottom*%
X151700000Y-115550000D02*
X157000000Y-115550000D01*
X149000000Y-118250000D02*
X151700000Y-115550000D01*
X149000000Y-122640000D02*
X149000000Y-124800000D01*
X149000000Y-122640000D02*
X149000000Y-118250000D01*
%TO.N,middle_home*%
X151500000Y-96500000D02*
X157000000Y-96500000D01*
X149000000Y-103590000D02*
X149000000Y-99000000D01*
X149000000Y-105750000D02*
X149000000Y-103590000D01*
X149000000Y-99000000D02*
X151500000Y-96500000D01*
%TO.N,middle_top*%
X149000000Y-84540000D02*
X149000000Y-80653539D01*
X149000000Y-84540000D02*
X149000000Y-86700000D01*
X152203539Y-77450000D02*
X157000000Y-77450000D01*
X149000000Y-80653539D02*
X152203539Y-77450000D01*
%TO.N,middle_num*%
X149000000Y-65490000D02*
X149000000Y-61603539D01*
X149000000Y-61603539D02*
X152203539Y-58400000D01*
X152203539Y-58400000D02*
X157000000Y-58400000D01*
X149000000Y-65490000D02*
X149000000Y-67650000D01*
%TO.N,index_mod*%
X168000000Y-144190000D02*
X168000000Y-146350000D01*
X168000000Y-144190000D02*
X168000000Y-139500000D01*
X170400000Y-137100000D02*
X176000000Y-137100000D01*
X168000000Y-139500000D02*
X170400000Y-137100000D01*
%TO.N,index_bottom*%
X170826769Y-118050000D02*
X176000000Y-118050000D01*
X168000000Y-127300000D02*
X168000000Y-125140000D01*
X168000000Y-125140000D02*
X168000000Y-120876769D01*
X168000000Y-120876769D02*
X170826769Y-118050000D01*
%TO.N,index_home*%
X168000000Y-106090000D02*
X168000000Y-102000000D01*
X171000000Y-99000000D02*
X176000000Y-99000000D01*
X168000000Y-102000000D02*
X171000000Y-99000000D01*
X168000000Y-108250000D02*
X168000000Y-106090000D01*
%TO.N,index_top*%
X168000000Y-87040000D02*
X168000000Y-89200000D01*
X170626770Y-79950000D02*
X176000000Y-79950000D01*
X168000000Y-82576770D02*
X170626770Y-79950000D01*
X168000000Y-87040000D02*
X168000000Y-82576770D01*
%TO.N,index_num*%
X168000000Y-70150000D02*
X168000000Y-67990000D01*
X168000000Y-64103539D02*
X171203539Y-60900000D01*
X171203539Y-60900000D02*
X176000000Y-60900000D01*
X168000000Y-67990000D02*
X168000000Y-64103539D01*
%TO.N,inner_bottom*%
X187000000Y-123500000D02*
X189950000Y-120550000D01*
X187000000Y-127640000D02*
X187000000Y-129800000D01*
X187000000Y-127640000D02*
X187000000Y-123500000D01*
X189950000Y-120550000D02*
X195000000Y-120550000D01*
%TO.N,inner_home*%
X187000000Y-108590000D02*
X187000000Y-104101770D01*
X187000000Y-104101770D02*
X189601770Y-101500000D01*
X189601770Y-101500000D02*
X195000000Y-101500000D01*
X187000000Y-110750000D02*
X187000000Y-108590000D01*
%TO.N,inner_top*%
X187000000Y-89540000D02*
X187000000Y-85000000D01*
X187000000Y-85000000D02*
X189550000Y-82450000D01*
X189550000Y-82450000D02*
X195000000Y-82450000D01*
X187000000Y-89540000D02*
X187000000Y-91700000D01*
%TO.N,inner_num*%
X187000000Y-72650000D02*
X187000000Y-70490000D01*
X187000000Y-70490000D02*
X187000000Y-66603539D01*
X190203539Y-63400000D02*
X195000000Y-63400000D01*
X187000000Y-66603539D02*
X190203539Y-63400000D01*
%TO.N,outer_bottom_thumbs*%
X189964599Y-147078900D02*
X189964599Y-148606249D01*
X189964599Y-147078900D02*
X189964599Y-143535401D01*
X189964599Y-148606249D02*
X189405549Y-149165299D01*
X193000000Y-140500000D02*
X197725994Y-140500000D01*
X197725994Y-140500000D02*
X199527032Y-142301038D01*
X189964599Y-143535401D02*
X193000000Y-140500000D01*
%TO.N,P9*%
X226880000Y-111860000D02*
X212380000Y-97360000D01*
X226880000Y-111860000D02*
X227955000Y-112935000D01*
X227955000Y-112935000D02*
X227955000Y-125463949D01*
X212380000Y-97360000D02*
X212380000Y-89270000D01*
X227955000Y-125463949D02*
X222508088Y-130910861D01*
%TO.N,inner_bottom_thumbs*%
X207758140Y-152555512D02*
X208317190Y-151996462D01*
X208317190Y-151996462D02*
X208317190Y-148182810D01*
X216161023Y-145500000D02*
X217879623Y-147218600D01*
X211000000Y-145500000D02*
X216161023Y-145500000D01*
X207758140Y-154082861D02*
X207758140Y-152555512D01*
X208317190Y-148182810D02*
X211000000Y-145500000D01*
%TO.N,inner_top_thumbs*%
X208659545Y-132366184D02*
X208659545Y-127840455D01*
X209927677Y-126572323D02*
X217205979Y-126572323D01*
X208659545Y-132366184D02*
X208659545Y-133893533D01*
X217205979Y-126572323D02*
X218221978Y-127588322D01*
X208659545Y-127840455D02*
X209927677Y-126572323D01*
X208659545Y-133893533D02*
X208100495Y-134452583D01*
%TO.N,P18*%
X168000000Y-151810000D02*
X151500000Y-151810000D01*
X130000000Y-151810000D02*
X146500000Y-151810000D01*
X188551447Y-152352855D02*
X188551447Y-153880204D01*
X206344988Y-157829467D02*
X206904038Y-157270417D01*
X188551447Y-153880204D02*
X187992397Y-154439254D01*
X188553143Y-155000000D02*
X187992397Y-154439254D01*
X206344988Y-159356816D02*
X200856816Y-159356816D01*
X129476792Y-151810000D02*
X130000000Y-151810000D01*
X194000000Y-155000000D02*
X188553143Y-155000000D01*
X168000000Y-149650000D02*
X168000000Y-151810000D01*
X130000000Y-151810000D02*
X130000000Y-149650000D01*
X200856816Y-159356816D02*
X198500000Y-157000000D01*
X187992397Y-154439254D02*
X185363143Y-151810000D01*
X198500000Y-157000000D02*
X196000000Y-157000000D01*
X111000000Y-156650000D02*
X111000000Y-158810000D01*
X92000000Y-158810000D02*
X92000000Y-156650000D01*
X185363143Y-151810000D02*
X168000000Y-151810000D01*
X122476792Y-158810000D02*
X129476792Y-151810000D01*
X149000000Y-147150000D02*
X149000000Y-149310000D01*
X151500000Y-151810000D02*
X149000000Y-149310000D01*
X206344988Y-159356816D02*
X206344988Y-157829467D01*
X92000000Y-158810000D02*
X122476792Y-158810000D01*
X196000000Y-157000000D02*
X194000000Y-155000000D01*
X146500000Y-151810000D02*
X149000000Y-149310000D01*
%TO.N,P15*%
X151500000Y-132760000D02*
X149000000Y-130260000D01*
X206687343Y-139726538D02*
X191466538Y-139726538D01*
X187000000Y-135260000D02*
X170500000Y-135260000D01*
X207246393Y-137640139D02*
X207246393Y-139167488D01*
X130000000Y-130600000D02*
X130000000Y-132760000D01*
X168000000Y-132760000D02*
X151500000Y-132760000D01*
X187000000Y-133100000D02*
X187000000Y-135260000D01*
X207246393Y-139167488D02*
X206687343Y-139726538D01*
X92000000Y-137600000D02*
X92000000Y-139760000D01*
X149000000Y-128100000D02*
X149000000Y-130260000D01*
X191466538Y-139726538D02*
X187000000Y-135260000D01*
X123000000Y-139760000D02*
X130000000Y-132760000D01*
X130000000Y-132760000D02*
X146500000Y-132760000D01*
X170500000Y-135260000D02*
X168000000Y-132760000D01*
X111000000Y-139760000D02*
X111000000Y-137600000D01*
X92000000Y-139760000D02*
X123000000Y-139760000D01*
X146500000Y-132760000D02*
X149000000Y-130260000D01*
X168000000Y-132760000D02*
X168000000Y-130600000D01*
%TO.N,P14*%
X204677500Y-124677500D02*
X196210000Y-116210000D01*
X146500000Y-113710000D02*
X149000000Y-111210000D01*
X149000000Y-111210000D02*
X149000000Y-109050000D01*
X92000000Y-120710000D02*
X111000000Y-120710000D01*
X151500000Y-113710000D02*
X149000000Y-111210000D01*
X187000000Y-116210000D02*
X187000000Y-114050000D01*
X168000000Y-113710000D02*
X168000000Y-111550000D01*
X222532500Y-124677500D02*
X204677500Y-124677500D01*
X196210000Y-116210000D02*
X187000000Y-116210000D01*
X168000000Y-113710000D02*
X151500000Y-113710000D01*
X111000000Y-118550000D02*
X111000000Y-120710000D01*
X168000000Y-113710000D02*
X184500000Y-113710000D01*
X223810000Y-123400000D02*
X222532500Y-124677500D01*
X130000000Y-113710000D02*
X146500000Y-113710000D01*
X221650000Y-123400000D02*
X223810000Y-123400000D01*
X123000000Y-120710000D02*
X130000000Y-113710000D01*
X92000000Y-120710000D02*
X123000000Y-120710000D01*
X130000000Y-113710000D02*
X130000000Y-111550000D01*
X92000000Y-120710000D02*
X92000000Y-118550000D01*
X184500000Y-113710000D02*
X187000000Y-116210000D01*
%TO.N,P8*%
X168000000Y-94660000D02*
X184500000Y-94660000D01*
X187000000Y-97160000D02*
X187000000Y-95000000D01*
X130000000Y-94660000D02*
X130000000Y-92500000D01*
X146500000Y-94660000D02*
X149000000Y-92160000D01*
X149000000Y-90000000D02*
X149000000Y-92160000D01*
X168000000Y-92500000D02*
X168000000Y-94660000D01*
X123000000Y-101660000D02*
X130000000Y-94660000D01*
X92000000Y-99500000D02*
X92000000Y-101660000D01*
X168000000Y-94660000D02*
X151500000Y-94660000D01*
X92000000Y-101660000D02*
X123000000Y-101660000D01*
X184500000Y-94660000D02*
X187000000Y-97160000D01*
X151500000Y-94660000D02*
X149000000Y-92160000D01*
X130000000Y-94660000D02*
X146500000Y-94660000D01*
X111000000Y-99500000D02*
X111000000Y-101660000D01*
%TO.N,P7*%
X187000000Y-78110000D02*
X187000000Y-75950000D01*
X111000000Y-82610000D02*
X123000000Y-82610000D01*
X92000000Y-82610000D02*
X111000000Y-82610000D01*
X92000000Y-82610000D02*
X92000000Y-80450000D01*
X168000000Y-75610000D02*
X184500000Y-75610000D01*
X168000000Y-75610000D02*
X168000000Y-73450000D01*
X206300000Y-78110000D02*
X212380000Y-84190000D01*
X187000000Y-78110000D02*
X206300000Y-78110000D01*
X151500000Y-75610000D02*
X149000000Y-73110000D01*
X130000000Y-75610000D02*
X146500000Y-75610000D01*
X130000000Y-75610000D02*
X130000000Y-73450000D01*
X184500000Y-75610000D02*
X187000000Y-78110000D01*
X123000000Y-82610000D02*
X130000000Y-75610000D01*
X149000000Y-70950000D02*
X149000000Y-73110000D01*
X146500000Y-75610000D02*
X149000000Y-73110000D01*
X111000000Y-82610000D02*
X111000000Y-80450000D01*
X168000000Y-75610000D02*
X151500000Y-75610000D01*
%TO.N,VCC*%
X140700000Y-109200000D02*
X140700000Y-108450000D01*
X143700000Y-107000000D02*
X150724695Y-107000000D01*
X128772792Y-91500000D02*
X131974695Y-91500000D01*
X178700000Y-70350000D02*
X178400000Y-70050000D01*
X101750000Y-114500000D02*
X95724695Y-114500000D01*
X171050000Y-146000000D02*
X169500000Y-147550000D01*
X123060000Y-78694084D02*
X123060000Y-79500000D01*
X159400000Y-67550000D02*
X150800000Y-67550000D01*
X94749695Y-99275000D02*
X96575000Y-99275000D01*
X190940000Y-93455916D02*
X190940000Y-92650000D01*
X178150000Y-146000000D02*
X171050000Y-146000000D01*
X207476285Y-155339889D02*
X207186396Y-155050000D01*
X140700000Y-109200000D02*
X141500000Y-109200000D01*
X115575000Y-99275000D02*
X116300000Y-98550000D01*
X140700000Y-146550000D02*
X140400000Y-146250000D01*
X127000000Y-72863604D02*
X127000000Y-74375000D01*
X172575000Y-130375000D02*
X173300000Y-129650000D01*
X201000000Y-94500000D02*
X202863604Y-94500000D01*
X116600000Y-99600000D02*
X123925305Y-99600000D01*
X89500000Y-135136396D02*
X90863604Y-136500000D01*
X112874695Y-136500000D02*
X113749695Y-137375000D01*
X135300000Y-91550000D02*
X135300000Y-92300000D01*
X212611678Y-138802416D02*
X214608478Y-140799216D01*
X173300000Y-130400000D02*
X173900000Y-131000000D01*
X104060000Y-116794084D02*
X104060000Y-117600000D01*
X134600000Y-91550000D02*
X133940000Y-90955916D01*
X97600000Y-137700000D02*
X104925305Y-137700000D01*
X161060000Y-145394084D02*
X161060000Y-146200000D01*
X142060000Y-109794084D02*
X142060000Y-110600000D01*
X197700000Y-72850000D02*
X197350000Y-72500000D01*
X152940000Y-126555916D02*
X152940000Y-125750000D01*
X217847669Y-157061689D02*
X217170855Y-156384875D01*
X191275000Y-150147327D02*
X191000000Y-150422327D01*
X178400000Y-108150000D02*
X170900000Y-108150000D01*
X203050000Y-94686396D02*
X203050000Y-108813604D01*
X122800000Y-116200000D02*
X121700000Y-116200000D01*
X190940000Y-131555916D02*
X190940000Y-130750000D01*
X173300000Y-129650000D02*
X172600000Y-129650000D01*
X141400000Y-71100000D02*
X142060000Y-71694084D01*
X112500000Y-154500000D02*
X106175305Y-154500000D01*
X106325305Y-116550000D02*
X105250305Y-115475000D01*
X165825305Y-109550000D02*
X162250305Y-105975000D01*
X93674695Y-116550000D02*
X90813604Y-116550000D01*
X151749695Y-89775000D02*
X153575000Y-89775000D01*
X116300000Y-136650000D02*
X115600000Y-136650000D01*
X95724695Y-114500000D02*
X93674695Y-116550000D01*
X153600000Y-127150000D02*
X152940000Y-126555916D01*
X105250305Y-115475000D02*
X103425000Y-115475000D01*
X102700000Y-116200000D02*
X102700000Y-115450000D01*
X131931802Y-147392893D02*
X131931802Y-147431802D01*
X199060000Y-74194084D02*
X199060000Y-75000000D01*
X203050000Y-108813604D02*
X201363604Y-110500000D01*
X178700000Y-108450000D02*
X178400000Y-108150000D01*
X113749695Y-99275000D02*
X115575000Y-99275000D01*
X210158031Y-155064889D02*
X209883031Y-155339889D01*
X198400000Y-73600000D02*
X199060000Y-74194084D01*
X121250000Y-115000000D02*
X114000000Y-115000000D01*
X185000000Y-150000000D02*
X181575000Y-146575000D01*
X135300000Y-92300000D02*
X135600000Y-92600000D01*
X192300000Y-132382843D02*
X193417157Y-133500000D01*
X128186396Y-129450000D02*
X131824695Y-129450000D01*
X132749695Y-130375000D02*
X134575000Y-130375000D01*
X196639116Y-151000000D02*
X196042813Y-150840221D01*
X178700000Y-109200000D02*
X178700000Y-108450000D01*
X121700000Y-153550000D02*
X121400000Y-153250000D01*
X130450000Y-71550000D02*
X128313604Y-71550000D01*
X121700000Y-77350000D02*
X120925000Y-76575000D01*
X140700000Y-147300000D02*
X141400000Y-147300000D01*
X178700000Y-146550000D02*
X178150000Y-146000000D01*
X123060000Y-116794084D02*
X123060000Y-117600000D01*
X120925000Y-76575000D02*
X114425000Y-76575000D01*
X200400000Y-95100000D02*
X201000000Y-94500000D01*
X102700000Y-77350000D02*
X102400000Y-77050000D01*
X224550000Y-145259602D02*
X224550000Y-154813604D01*
X147050000Y-88950000D02*
X150924695Y-88950000D01*
X159700000Y-68600000D02*
X160400000Y-68600000D01*
X171940000Y-129055916D02*
X171940000Y-128250000D01*
X126500000Y-112500000D02*
X122800000Y-116200000D01*
X150800000Y-67550000D02*
X149350000Y-69000000D01*
X178700000Y-71100000D02*
X179400000Y-71100000D01*
X106125305Y-136500000D02*
X112874695Y-136500000D01*
X189749695Y-132875000D02*
X191575000Y-132875000D01*
X180060000Y-109794084D02*
X180060000Y-110600000D01*
X197700000Y-73600000D02*
X198400000Y-73600000D01*
X89500000Y-117863604D02*
X89500000Y-135136396D01*
X134575000Y-92275000D02*
X135300000Y-91550000D01*
X208500000Y-136598868D02*
X210403631Y-138502499D01*
X131800000Y-108150000D02*
X130400000Y-109550000D01*
X121700000Y-154300000D02*
X122400000Y-154300000D01*
X201950000Y-134950000D02*
X204813604Y-134950000D01*
X104060000Y-78694084D02*
X104060000Y-79500000D01*
X141500000Y-109200000D02*
X143700000Y-107000000D01*
X160400000Y-68600000D02*
X161060000Y-69194084D01*
X158882843Y-105650000D02*
X159700000Y-106467157D01*
X115575000Y-137375000D02*
X116300000Y-136650000D01*
X97300000Y-98550000D02*
X96600000Y-98550000D01*
X217170855Y-156384875D02*
X216735745Y-156384875D01*
X152940000Y-88455916D02*
X152940000Y-87650000D01*
X189749695Y-94775000D02*
X191575000Y-94775000D01*
X132749695Y-92275000D02*
X134575000Y-92275000D01*
X199903326Y-152444044D02*
X199495078Y-152852292D01*
X179425000Y-70375000D02*
X178700000Y-71100000D01*
X154300000Y-127900000D02*
X154900000Y-128500000D01*
X127568198Y-134068198D02*
X127568198Y-130068198D01*
X217847669Y-157769854D02*
X218523817Y-157951028D01*
X189850000Y-110650000D02*
X188500000Y-112000000D01*
X106500000Y-98500000D02*
X112974695Y-98500000D01*
X197700000Y-111700000D02*
X198400000Y-111700000D01*
X211451779Y-137168415D02*
X211660365Y-136389960D01*
X169924695Y-91450000D02*
X170749695Y-92275000D01*
X159150000Y-143500000D02*
X152324695Y-143500000D01*
X94749695Y-137375000D02*
X96575000Y-137375000D01*
X153575000Y-89775000D02*
X154300000Y-89050000D01*
X142800000Y-69000000D02*
X140700000Y-71100000D01*
X102700000Y-154300000D02*
X103400000Y-154300000D01*
X131974695Y-91500000D02*
X132749695Y-92275000D01*
X197400000Y-110650000D02*
X189850000Y-110650000D01*
X226300000Y-70270000D02*
X226300000Y-89722694D01*
X179425000Y-108475000D02*
X178700000Y-109200000D01*
X149350000Y-69000000D02*
X142800000Y-69000000D01*
X121400000Y-153250000D02*
X113750000Y-153250000D01*
X140700000Y-71100000D02*
X140700000Y-70350000D01*
X140700000Y-108450000D02*
X140400000Y-108150000D01*
X215850870Y-155500000D02*
X213326407Y-155500000D01*
X135300000Y-91550000D02*
X134600000Y-91550000D01*
X179400000Y-109200000D02*
X180060000Y-109794084D01*
X201363604Y-110500000D02*
X198900000Y-110500000D01*
X122425000Y-153575000D02*
X121700000Y-154300000D01*
X116600000Y-137700000D02*
X123936396Y-137700000D01*
X140700000Y-109200000D02*
X141400000Y-109200000D01*
X96575000Y-99275000D02*
X97300000Y-98550000D01*
X140400000Y-146250000D02*
X133074695Y-146250000D01*
X192300000Y-94800000D02*
X192600000Y-95100000D01*
X200654977Y-153778127D02*
X200446390Y-154556583D01*
X130400000Y-109550000D02*
X128175900Y-109550000D01*
X173300000Y-91550000D02*
X172600000Y-91550000D01*
X192300000Y-94050000D02*
X191600000Y-94050000D01*
X154300000Y-89800000D02*
X155000000Y-90500000D01*
X112450000Y-116550000D02*
X106325305Y-116550000D01*
X218523817Y-157951028D02*
X219007567Y-158695689D01*
X123925305Y-99600000D02*
X124675000Y-98850305D01*
X182813604Y-131950000D02*
X188824695Y-131950000D01*
X97300000Y-99300000D02*
X97600000Y-99600000D01*
X102400000Y-77050000D02*
X94450000Y-77050000D01*
X127050000Y-150563604D02*
X124038604Y-153575000D01*
X135600000Y-130700000D02*
X143436396Y-130700000D01*
X165725305Y-147550000D02*
X162250305Y-144075000D01*
X179400000Y-147300000D02*
X180060000Y-147894084D01*
X192300000Y-94050000D02*
X192300000Y-94800000D01*
X116300000Y-98550000D02*
X116300000Y-99300000D01*
X103425000Y-115475000D02*
X102700000Y-116200000D01*
X212611678Y-138094251D02*
X212611678Y-138802416D01*
X173300000Y-91550000D02*
X173300000Y-92300000D01*
X197350000Y-72500000D02*
X189000000Y-72500000D01*
X124000000Y-77375000D02*
X123125000Y-77375000D01*
X103500000Y-153500000D02*
X102700000Y-154300000D01*
X135300000Y-129650000D02*
X134600000Y-129650000D01*
X106175305Y-154500000D02*
X105175305Y-153500000D01*
X94450000Y-77050000D02*
X93000000Y-78500000D01*
X104925305Y-137700000D02*
X106125305Y-136500000D01*
X155000000Y-90500000D02*
X162763604Y-90500000D01*
X169824695Y-129450000D02*
X170749695Y-130375000D01*
X128175900Y-109550000D02*
X126500000Y-111225900D01*
X115600000Y-98550000D02*
X114940000Y-97955916D01*
X197700000Y-110950000D02*
X197400000Y-110650000D01*
X220089614Y-140799216D02*
X224550000Y-145259602D01*
X116300000Y-98550000D02*
X115600000Y-98550000D01*
X143400000Y-92600000D02*
X147050000Y-88950000D01*
X217847669Y-157769854D02*
X217847669Y-157061689D01*
X171940000Y-90955916D02*
X171940000Y-90150000D01*
X90813604Y-116550000D02*
X89500000Y-117863604D01*
X207186396Y-155050000D02*
X204686396Y-155050000D01*
X114000000Y-115000000D02*
X112450000Y-116550000D01*
X172600000Y-91550000D02*
X171940000Y-90955916D01*
X142060000Y-147894084D02*
X142060000Y-148700000D01*
X169800000Y-70050000D02*
X168750000Y-71100000D01*
X224522694Y-91500000D02*
X214500000Y-91500000D01*
X194500000Y-150465533D02*
X194181794Y-150147327D01*
X151749695Y-127875000D02*
X153575000Y-127875000D01*
X162763604Y-90500000D02*
X163713604Y-91450000D01*
X103400000Y-78100000D02*
X104060000Y-78694084D01*
X103400000Y-154300000D02*
X104060000Y-154894084D01*
X226300000Y-89722694D02*
X224522694Y-91500000D01*
X224550000Y-154813604D02*
X222001998Y-157361606D01*
X97300000Y-136650000D02*
X96600000Y-136650000D01*
X195668125Y-150465533D02*
X194500000Y-150465533D01*
X89000000Y-97000000D02*
X90500000Y-98500000D01*
X153600000Y-89050000D02*
X152940000Y-88455916D01*
X152074695Y-105650000D02*
X158882843Y-105650000D01*
X140700000Y-70350000D02*
X140350000Y-70000000D01*
X173900000Y-131000000D02*
X181863604Y-131000000D01*
X93000000Y-78500000D02*
X90000000Y-78500000D01*
X105175305Y-153500000D02*
X103500000Y-153500000D01*
X90000000Y-78500000D02*
X89000000Y-79500000D01*
X184775305Y-112000000D02*
X181250305Y-108475000D01*
X133940000Y-90955916D02*
X133940000Y-90150000D01*
X97300000Y-137400000D02*
X97600000Y-137700000D01*
X227620000Y-68950000D02*
X226300000Y-70270000D01*
X212611678Y-138094250D02*
X211935530Y-137913077D01*
X188824695Y-131950000D02*
X189749695Y-132875000D01*
X179400000Y-71100000D02*
X180060000Y-71694084D01*
X154300000Y-127150000D02*
X154300000Y-127900000D01*
X126500000Y-111225900D02*
X126500000Y-112500000D01*
X199495078Y-152144127D02*
X198350951Y-151000000D01*
X131824695Y-129450000D02*
X132749695Y-130375000D01*
X122400000Y-116200000D02*
X123060000Y-116794084D01*
X121700000Y-154300000D02*
X121700000Y-153550000D01*
X121700000Y-115450000D02*
X121250000Y-115000000D01*
X93974695Y-98500000D02*
X94749695Y-99275000D01*
X141400000Y-109200000D02*
X142060000Y-109794084D01*
X204686396Y-155050000D02*
X202080440Y-152444044D01*
X141400000Y-147300000D02*
X142060000Y-147894084D01*
X213326407Y-155500000D02*
X212891296Y-155064889D01*
X218255917Y-157361606D02*
X217847669Y-157769854D01*
X159700000Y-68600000D02*
X159700000Y-67850000D01*
X160400000Y-106700000D02*
X161060000Y-107294084D01*
X143436396Y-130700000D02*
X147068198Y-127068198D01*
X181250305Y-70375000D02*
X179425000Y-70375000D01*
X93874695Y-136500000D02*
X94749695Y-137375000D01*
X184425305Y-73550000D02*
X181250305Y-70375000D01*
X97300000Y-98550000D02*
X97300000Y-99300000D01*
X169500000Y-109550000D02*
X165825305Y-109550000D01*
X191600000Y-94050000D02*
X190940000Y-93455916D01*
X181575000Y-146575000D02*
X179425000Y-146575000D01*
X105375000Y-77375000D02*
X103425000Y-77375000D01*
X196042813Y-150840221D02*
X195668125Y-150465533D01*
X97600000Y-99600000D02*
X105400000Y-99600000D01*
X159700000Y-67850000D02*
X159400000Y-67550000D01*
X212891296Y-155064889D02*
X210158031Y-155064889D01*
X172575000Y-92275000D02*
X173300000Y-91550000D01*
X204813604Y-134950000D02*
X206313604Y-136450000D01*
X114425000Y-76575000D02*
X112500000Y-78500000D01*
X135600000Y-92600000D02*
X143400000Y-92600000D01*
X162500000Y-128500000D02*
X163450000Y-129450000D01*
X181363604Y-92600000D02*
X182813604Y-94050000D01*
X191000000Y-150422327D02*
X189227557Y-150422327D01*
X90863604Y-136500000D02*
X93874695Y-136500000D01*
X95940000Y-97955916D02*
X95940000Y-97150000D01*
X178700000Y-109200000D02*
X179400000Y-109200000D01*
X150924695Y-88950000D02*
X151749695Y-89775000D01*
X123125000Y-77375000D02*
X122400000Y-78100000D01*
X127000000Y-74375000D02*
X124000000Y-77375000D01*
X150774695Y-145050000D02*
X142950000Y-145050000D01*
X123060000Y-154894084D02*
X123060000Y-155700000D01*
X112974695Y-98500000D02*
X113749695Y-99275000D01*
X192300000Y-132150000D02*
X191600000Y-132150000D01*
X128313604Y-71550000D02*
X127000000Y-72863604D01*
X127050000Y-148813604D02*
X127050000Y-150563604D01*
X214608478Y-140799216D02*
X220089614Y-140799216D01*
X199495078Y-152852292D02*
X199495078Y-152144127D01*
X160425000Y-67875000D02*
X159700000Y-68600000D01*
X154300000Y-89050000D02*
X153600000Y-89050000D01*
X113749695Y-137375000D02*
X115575000Y-137375000D01*
X163450000Y-129450000D02*
X169824695Y-129450000D01*
X121700000Y-116200000D02*
X122400000Y-116200000D01*
X140700000Y-71100000D02*
X141400000Y-71100000D01*
X96600000Y-136650000D02*
X95940000Y-136055916D01*
X121700000Y-116200000D02*
X121700000Y-115450000D01*
X159700000Y-144050000D02*
X159150000Y-143500000D01*
X170749695Y-130375000D02*
X172575000Y-130375000D01*
X124675000Y-98850305D02*
X124675000Y-96761396D01*
X212203430Y-138502499D02*
X212611678Y-138094251D01*
X216735745Y-156384875D02*
X215850870Y-155500000D01*
X188500000Y-112000000D02*
X184775305Y-112000000D01*
X160425000Y-144075000D02*
X159700000Y-144800000D01*
X131931802Y-147431802D02*
X128431802Y-147431802D01*
X206313604Y-136450000D02*
X208500000Y-136450000D01*
X199060000Y-112294084D02*
X199060000Y-113100000D01*
X115600000Y-136650000D02*
X114940000Y-136055916D01*
X134600000Y-129650000D02*
X133940000Y-129055916D01*
X173300000Y-129650000D02*
X173300000Y-130400000D01*
X200171226Y-153033466D02*
X200654977Y-153778127D01*
X154300000Y-127150000D02*
X153600000Y-127150000D01*
X189000000Y-72500000D02*
X187950000Y-73550000D01*
X192600000Y-95100000D02*
X200400000Y-95100000D01*
X140350000Y-70000000D02*
X132000000Y-70000000D01*
X124675000Y-96761396D02*
X128000000Y-93436396D01*
X161060000Y-107294084D02*
X161060000Y-108100000D01*
X181863604Y-131000000D02*
X182813604Y-131950000D01*
X222001998Y-157361606D02*
X218255917Y-157361606D01*
X197700000Y-111700000D02*
X197700000Y-110950000D01*
X160425000Y-105975000D02*
X159700000Y-106700000D01*
X159700000Y-144800000D02*
X160400000Y-144800000D01*
X199495078Y-152852292D02*
X200171226Y-153033466D01*
X208500000Y-136450000D02*
X208500000Y-136598868D01*
X191600000Y-132150000D02*
X190940000Y-131555916D01*
X97300000Y-136650000D02*
X97300000Y-137400000D01*
X154300000Y-89050000D02*
X154300000Y-89800000D01*
X191575000Y-94775000D02*
X192300000Y-94050000D01*
X159700000Y-144800000D02*
X159700000Y-144050000D01*
X106500000Y-78500000D02*
X105375000Y-77375000D01*
X132000000Y-70000000D02*
X130450000Y-71550000D01*
X113750000Y-153250000D02*
X112500000Y-154500000D01*
X128000000Y-93436396D02*
X128000000Y-92272792D01*
X140700000Y-147300000D02*
X140700000Y-146550000D01*
X121700000Y-78100000D02*
X121700000Y-77350000D01*
X122400000Y-154300000D02*
X123060000Y-154894084D01*
X122400000Y-78100000D02*
X123060000Y-78694084D01*
X189024695Y-94050000D02*
X189749695Y-94775000D01*
X102700000Y-115450000D02*
X101750000Y-114500000D01*
X162250305Y-67875000D02*
X160425000Y-67875000D01*
X102700000Y-78100000D02*
X103400000Y-78100000D01*
X170900000Y-108150000D02*
X169500000Y-109550000D01*
X194181794Y-150147327D02*
X191275000Y-150147327D01*
X169500000Y-147550000D02*
X165725305Y-147550000D01*
X102700000Y-78100000D02*
X102700000Y-77350000D01*
X180060000Y-147894084D02*
X180060000Y-148700000D01*
X147068198Y-127068198D02*
X150942893Y-127068198D01*
X178700000Y-147300000D02*
X178700000Y-146550000D01*
X96575000Y-137375000D02*
X97300000Y-136650000D01*
X219007567Y-158695689D02*
X218798981Y-159474144D01*
X116300000Y-137400000D02*
X116600000Y-137700000D01*
X202863604Y-94500000D02*
X203050000Y-94686396D01*
X160400000Y-144800000D02*
X161060000Y-145394084D01*
X124038604Y-153575000D02*
X122425000Y-153575000D01*
X202080440Y-152444044D02*
X199903326Y-152444044D01*
X178400000Y-70050000D02*
X169800000Y-70050000D01*
X103425000Y-77375000D02*
X102700000Y-78100000D01*
X112500000Y-78500000D02*
X106500000Y-78500000D01*
X114940000Y-136055916D02*
X114940000Y-135250000D01*
X142950000Y-145050000D02*
X140700000Y-147300000D01*
X133940000Y-129055916D02*
X133940000Y-128250000D01*
X189227557Y-150422327D02*
X188805230Y-150000000D01*
X153575000Y-127875000D02*
X154300000Y-127150000D01*
X90500000Y-98500000D02*
X93974695Y-98500000D01*
X133074695Y-146250000D02*
X131931802Y-147392893D01*
X150942893Y-127068198D02*
X151749695Y-127875000D01*
X102700000Y-116200000D02*
X103400000Y-116200000D01*
X140400000Y-108150000D02*
X131800000Y-108150000D01*
X173600000Y-92600000D02*
X181363604Y-92600000D01*
X116300000Y-136650000D02*
X116300000Y-137400000D01*
X188805230Y-150000000D02*
X185000000Y-150000000D01*
X127568198Y-130068198D02*
X128186396Y-129450000D01*
X168750000Y-71100000D02*
X165475305Y-71100000D01*
X209883031Y-155339889D02*
X207476285Y-155339889D01*
X191575000Y-132875000D02*
X192300000Y-132150000D01*
X135300000Y-129650000D02*
X135300000Y-130400000D01*
X178700000Y-147300000D02*
X179400000Y-147300000D01*
X197700000Y-73600000D02*
X197700000Y-72850000D01*
X134575000Y-130375000D02*
X135300000Y-129650000D01*
X152324695Y-143500000D02*
X150774695Y-145050000D01*
X162250305Y-144075000D02*
X160425000Y-144075000D01*
X181250305Y-108475000D02*
X179425000Y-108475000D01*
X179425000Y-146575000D02*
X178700000Y-147300000D01*
X162250305Y-105975000D02*
X160425000Y-105975000D01*
X122400000Y-78100000D02*
X121700000Y-78100000D01*
X170749695Y-92275000D02*
X172575000Y-92275000D01*
X104060000Y-154894084D02*
X104060000Y-155700000D01*
X89000000Y-79500000D02*
X89000000Y-97000000D01*
X161060000Y-69194084D02*
X161060000Y-70000000D01*
X154900000Y-128500000D02*
X162500000Y-128500000D01*
X200500000Y-133500000D02*
X201950000Y-134950000D01*
X163713604Y-91450000D02*
X169924695Y-91450000D01*
X105400000Y-99600000D02*
X106500000Y-98500000D01*
X172600000Y-129650000D02*
X171940000Y-129055916D01*
X96600000Y-98550000D02*
X95940000Y-97955916D01*
X193417157Y-133500000D02*
X200500000Y-133500000D01*
X123936396Y-137700000D02*
X127568198Y-134068198D01*
X165475305Y-71100000D02*
X162250305Y-67875000D01*
X187950000Y-73550000D02*
X184425305Y-73550000D01*
X142060000Y-71694084D02*
X142060000Y-72500000D01*
X182813604Y-94050000D02*
X189024695Y-94050000D01*
X135300000Y-130400000D02*
X135600000Y-130700000D01*
X198400000Y-111700000D02*
X199060000Y-112294084D01*
X198350951Y-151000000D02*
X196639116Y-151000000D01*
X192300000Y-132150000D02*
X192300000Y-132382843D01*
X150724695Y-107000000D02*
X152074695Y-105650000D01*
X103400000Y-116200000D02*
X104060000Y-116794084D01*
X128000000Y-92272792D02*
X128772792Y-91500000D01*
X198900000Y-110500000D02*
X197700000Y-111700000D01*
X128431802Y-147431802D02*
X127050000Y-148813604D01*
X180060000Y-71694084D02*
X180060000Y-72500000D01*
X210403631Y-138502499D02*
X212203430Y-138502499D01*
X95940000Y-136055916D02*
X95940000Y-135250000D01*
X178700000Y-71100000D02*
X178700000Y-70350000D01*
X211935530Y-137913077D02*
X211451779Y-137168415D01*
X159700000Y-106700000D02*
X160400000Y-106700000D01*
X173300000Y-92300000D02*
X173600000Y-92600000D01*
X159700000Y-106467157D02*
X159700000Y-106700000D01*
X116300000Y-99300000D02*
X116600000Y-99600000D01*
X114940000Y-97955916D02*
X114940000Y-97150000D01*
%TO.N,led_31*%
X113700000Y-154300000D02*
X113000000Y-155000000D01*
X114050000Y-154300000D02*
X113700000Y-154300000D01*
X114050000Y-154300000D02*
X116300000Y-154300000D01*
X103481000Y-156485000D02*
X104529000Y-156485000D01*
X105650000Y-155000000D02*
X104950000Y-154300000D01*
X104950000Y-156060000D02*
X104950000Y-154300000D01*
X113000000Y-155000000D02*
X105650000Y-155000000D01*
X102700000Y-155700000D02*
X103481000Y-156485000D01*
X104529000Y-156485000D02*
X104950000Y-156060000D01*
%TO.N,GND*%
X188699604Y-93000000D02*
X190284604Y-91415000D01*
X133790000Y-110450000D02*
X128686396Y-110450000D01*
X127950000Y-150936396D02*
X125000000Y-153886396D01*
X192603073Y-152454972D02*
X191470428Y-151322327D01*
X225450000Y-144437888D02*
X225450000Y-155186396D01*
X219000000Y-136500000D02*
X219500000Y-137000000D01*
X135300000Y-149450000D02*
X135300000Y-148700000D01*
X179431802Y-150068198D02*
X173918198Y-150068198D01*
X154300000Y-108100000D02*
X152940000Y-108100000D01*
X183325305Y-131000000D02*
X188799604Y-131000000D01*
X144736396Y-69950000D02*
X144000000Y-70686396D01*
X212380000Y-68950000D02*
X213600000Y-70170000D01*
X180650000Y-90150000D02*
X183500000Y-93000000D01*
X181430396Y-74450000D02*
X180715396Y-73735000D01*
X91186396Y-135550000D02*
X93749604Y-135550000D01*
X106550000Y-155450000D02*
X105065000Y-156935000D01*
X135175000Y-111835000D02*
X136000000Y-111835000D01*
X131798364Y-128500000D02*
X133283364Y-127015000D01*
X97300000Y-79500000D02*
X95940000Y-79500000D01*
X218190024Y-138139577D02*
X219503683Y-138491571D01*
X154300000Y-146950000D02*
X154300000Y-146200000D01*
X159215000Y-124515000D02*
X159700000Y-125000000D01*
X173300000Y-148700000D02*
X171940000Y-148700000D01*
X190940000Y-113100000D02*
X190790000Y-112950000D01*
X193916732Y-152806966D02*
X192603073Y-152454972D01*
X216836692Y-160836692D02*
X215742093Y-159742093D01*
X173785000Y-73735000D02*
X173300000Y-73250000D01*
X208476105Y-76235000D02*
X192175000Y-76235000D01*
X95284604Y-95915000D02*
X102825000Y-95915000D01*
X215205500Y-136252837D02*
X216127926Y-136500000D01*
X154300000Y-70000000D02*
X152940000Y-70000000D01*
X135785000Y-149935000D02*
X135300000Y-149450000D01*
X180715396Y-73735000D02*
X173785000Y-73735000D01*
X154300000Y-146200000D02*
X152940000Y-146200000D01*
X97340000Y-119000000D02*
X95940000Y-117600000D01*
X189686396Y-74450000D02*
X181430396Y-74450000D01*
X97785000Y-80735000D02*
X97300000Y-80250000D01*
X131649604Y-90550000D02*
X133284604Y-88915000D01*
X165213604Y-110600000D02*
X163948604Y-109335000D01*
X105950396Y-79500000D02*
X104715396Y-80735000D01*
X127000000Y-92000000D02*
X128450000Y-90550000D01*
X219500000Y-138487888D02*
X219503683Y-138491571D01*
X136000000Y-111835000D02*
X135785000Y-111835000D01*
X223100000Y-101100000D02*
X223100000Y-97150000D01*
X180478604Y-112000000D02*
X173340000Y-112000000D01*
X213581300Y-67611300D02*
X213581300Y-68500000D01*
X133940000Y-110600000D02*
X135175000Y-111835000D01*
X173918198Y-150068198D02*
X173300000Y-149450000D01*
X127450000Y-115100396D02*
X123550396Y-119000000D01*
X213581300Y-68500000D02*
X213581300Y-72124995D01*
X222950000Y-97000000D02*
X223100000Y-97150000D01*
X220000000Y-97000000D02*
X222950000Y-97000000D01*
X104060000Y-135250000D02*
X104310000Y-135500000D01*
X97300000Y-155700000D02*
X95940000Y-155700000D01*
X161060000Y-125750000D02*
X161700000Y-125750000D01*
X170961396Y-71825000D02*
X170786396Y-72000000D01*
X191470428Y-151322327D02*
X188685931Y-151322327D01*
X150000000Y-126000000D02*
X151485000Y-124515000D01*
X133940000Y-72500000D02*
X128636396Y-72500000D01*
X146727208Y-88000000D02*
X150698364Y-88000000D01*
X159700000Y-125000000D02*
X159700000Y-125750000D01*
X188685931Y-151322327D02*
X188313604Y-150950000D01*
X153335000Y-109335000D02*
X152940000Y-108940000D01*
X125000000Y-155650396D02*
X123715396Y-156935000D01*
X123715396Y-156935000D02*
X116785000Y-156935000D01*
X178700000Y-128250000D02*
X180060000Y-128250000D01*
X114940000Y-117600000D02*
X105950396Y-117600000D01*
X209823018Y-156239889D02*
X206789889Y-156239889D01*
X127450000Y-111686396D02*
X127450000Y-115100396D01*
X135300000Y-111350000D02*
X135300000Y-110600000D01*
X133284604Y-88915000D02*
X140825000Y-88915000D01*
X229475000Y-65725000D02*
X227620000Y-63870000D01*
X165213604Y-148700000D02*
X164013604Y-147500000D01*
X133940000Y-148700000D02*
X128436396Y-148700000D01*
X128450000Y-90550000D02*
X131649604Y-90550000D01*
X212877595Y-72828700D02*
X211882405Y-72828700D01*
X105065000Y-156935000D02*
X97785000Y-156935000D01*
X227184000Y-103400000D02*
X225400000Y-103400000D01*
X164013604Y-147500000D02*
X154850000Y-147500000D01*
X212269323Y-158432693D02*
X212269323Y-157724528D01*
X116300000Y-156450000D02*
X116300000Y-155700000D01*
X154300000Y-70750000D02*
X153500000Y-69950000D01*
X171298364Y-127000000D02*
X178810000Y-127000000D01*
X91036396Y-117600000D02*
X90450000Y-118186396D01*
X146863604Y-126000000D02*
X150000000Y-126000000D01*
X173300000Y-149450000D02*
X173300000Y-148700000D01*
X155050000Y-71500000D02*
X154300000Y-70750000D01*
X116300000Y-155700000D02*
X114940000Y-155700000D01*
X144000000Y-70686396D02*
X144000000Y-72450396D01*
X135785000Y-111835000D02*
X135300000Y-111350000D01*
X178825000Y-88915000D02*
X180060000Y-90150000D01*
X199575305Y-130750000D02*
X202825305Y-134000000D01*
X152940000Y-108940000D02*
X152940000Y-108100000D01*
X142060000Y-90150000D02*
X144577208Y-90150000D01*
X89900000Y-96627208D02*
X90872792Y-97600000D01*
X225450000Y-155186396D02*
X219799704Y-160836692D01*
X178700000Y-90150000D02*
X180060000Y-90150000D01*
X197700000Y-92650000D02*
X202286396Y-92650000D01*
X213980382Y-135027719D02*
X215205500Y-136252837D01*
X213600000Y-70170000D02*
X213600000Y-93850000D01*
X173300000Y-72500000D02*
X171940000Y-72500000D01*
X160559604Y-71500000D02*
X155050000Y-71500000D01*
X112799604Y-135500000D02*
X114284604Y-134015000D01*
X143400000Y-148175198D02*
X143400000Y-149250396D01*
X199060000Y-130750000D02*
X199575305Y-130750000D01*
X188313604Y-150950000D02*
X180313604Y-150950000D01*
X142715396Y-149935000D02*
X135785000Y-149935000D01*
X135300000Y-148700000D02*
X133940000Y-148700000D01*
X142715396Y-111835000D02*
X136000000Y-111835000D01*
X123550396Y-119000000D02*
X117000000Y-119000000D01*
X216127926Y-136500000D02*
X219000000Y-136500000D01*
X171284604Y-88915000D02*
X178825000Y-88915000D01*
X142060000Y-128250000D02*
X144613604Y-128250000D01*
X105950396Y-117600000D02*
X104550396Y-119000000D01*
X154300000Y-70750000D02*
X154300000Y-70000000D01*
X133940000Y-110600000D02*
X133790000Y-110450000D01*
X123060000Y-97103604D02*
X127000000Y-93163604D01*
X144577208Y-90150000D02*
X146727208Y-88000000D01*
X152940000Y-108100000D02*
X146450396Y-108100000D01*
X152698364Y-86000000D02*
X159410000Y-86000000D01*
X159700000Y-87650000D02*
X161060000Y-87650000D01*
X95500000Y-79500000D02*
X95400000Y-79400000D01*
X202825305Y-134000000D02*
X205136396Y-134000000D01*
X163948604Y-109335000D02*
X153335000Y-109335000D01*
X143400000Y-149250396D02*
X142715396Y-149935000D01*
X104310000Y-135500000D02*
X112799604Y-135500000D01*
X161059604Y-72000000D02*
X160559604Y-71500000D01*
X213131300Y-68950000D02*
X213581300Y-68500000D01*
X90450000Y-134813604D02*
X91186396Y-135550000D01*
X212269322Y-157724528D02*
X210955663Y-157372534D01*
X180060000Y-90150000D02*
X180650000Y-90150000D01*
X183500000Y-93000000D02*
X188699604Y-93000000D01*
X121700000Y-97150000D02*
X123060000Y-97150000D01*
X116300000Y-80250000D02*
X116300000Y-79500000D01*
X171940000Y-148700000D02*
X165213604Y-148700000D01*
X123715396Y-80735000D02*
X116785000Y-80735000D01*
X116785000Y-156935000D02*
X116300000Y-156450000D01*
X203950000Y-110100396D02*
X199550396Y-114500000D01*
X146450396Y-108100000D02*
X142715396Y-111835000D01*
X128436396Y-148700000D02*
X127950000Y-149186396D01*
X128686396Y-110450000D02*
X127450000Y-111686396D01*
X192300000Y-75000000D02*
X190940000Y-75000000D01*
X116300000Y-79500000D02*
X114940000Y-79500000D01*
X188799604Y-131000000D02*
X190284604Y-129515000D01*
X192300000Y-113100000D02*
X190940000Y-113100000D01*
X123060000Y-135250000D02*
X125113604Y-135250000D01*
X193916732Y-153916732D02*
X193916732Y-152806966D01*
X123060000Y-97150000D02*
X123060000Y-97103604D01*
X114700000Y-155700000D02*
X114450000Y-155450000D01*
X170898183Y-127403833D02*
X171282478Y-127015886D01*
X114940000Y-79500000D02*
X105950396Y-79500000D01*
X90372792Y-79400000D02*
X89900000Y-79872792D01*
X215742093Y-159742093D02*
X212786876Y-158950246D01*
X97300000Y-156450000D02*
X97300000Y-155700000D01*
X171940000Y-72500000D02*
X171265000Y-71825000D01*
X104410000Y-97500000D02*
X112699604Y-97500000D01*
X114450000Y-155450000D02*
X106550000Y-155450000D01*
X151485000Y-124515000D02*
X159215000Y-124515000D01*
X97300000Y-117600000D02*
X91036396Y-117600000D01*
X89900000Y-79872792D02*
X89900000Y-96627208D01*
X104060000Y-97150000D02*
X104410000Y-97500000D01*
X170786396Y-72000000D02*
X161059604Y-72000000D01*
X135175000Y-73735000D02*
X133940000Y-72500000D01*
X195950000Y-155950000D02*
X193916732Y-153916732D01*
X161060000Y-87650000D02*
X162100000Y-87650000D01*
X127950000Y-149186396D02*
X127950000Y-150936396D01*
X213581300Y-72124995D02*
X212877595Y-72828700D01*
X197700000Y-92650000D02*
X199060000Y-92650000D01*
X135300000Y-110600000D02*
X133940000Y-110600000D01*
X209635114Y-135027719D02*
X213980382Y-135027719D01*
X190284604Y-91415000D02*
X197825000Y-91415000D01*
X117000000Y-119000000D02*
X115600000Y-117600000D01*
X212380000Y-68950000D02*
X213131300Y-68950000D01*
X226850000Y-97150000D02*
X229475000Y-94525000D01*
X104715396Y-80735000D02*
X97785000Y-80735000D01*
X219799704Y-160836692D02*
X216836692Y-160836692D01*
X159700000Y-125750000D02*
X161060000Y-125750000D01*
X210955663Y-157372534D02*
X209823018Y-156239889D01*
X225400000Y-103400000D02*
X223100000Y-101100000D01*
X115600000Y-117600000D02*
X114940000Y-117600000D01*
X126431802Y-129931802D02*
X127863604Y-128500000D01*
X152940000Y-146200000D02*
X152690000Y-145950000D01*
X213600000Y-93850000D02*
X216900000Y-97150000D01*
X206789889Y-156239889D02*
X206500000Y-155950000D01*
X154850000Y-147500000D02*
X154300000Y-146950000D01*
X190790000Y-112950000D02*
X181428604Y-112950000D01*
X140700000Y-128250000D02*
X142060000Y-128250000D01*
X212786876Y-158950246D02*
X212269323Y-158432693D01*
X90450000Y-118186396D02*
X90450000Y-134813604D01*
X161700000Y-125750000D02*
X164500000Y-128550000D01*
X190940000Y-75000000D02*
X190265000Y-74325000D01*
X90872792Y-97600000D02*
X93599604Y-97600000D01*
X164950000Y-90500000D02*
X169699604Y-90500000D01*
X140015000Y-127015000D02*
X140700000Y-127700000D01*
X112699604Y-97500000D02*
X114284604Y-95915000D01*
X97300000Y-80250000D02*
X97300000Y-79500000D01*
X140825000Y-88915000D02*
X142060000Y-90150000D01*
X206636396Y-135500000D02*
X209162833Y-135500000D01*
X97785000Y-156935000D02*
X97300000Y-156450000D01*
X144613604Y-128250000D02*
X146863604Y-126000000D01*
X102825000Y-95915000D02*
X104060000Y-97150000D01*
X128636396Y-72500000D02*
X128000000Y-73136396D01*
X211882405Y-72828700D02*
X208476105Y-76235000D01*
X162100000Y-87650000D02*
X164950000Y-90500000D01*
X180313604Y-150950000D02*
X179431802Y-150068198D01*
X192340000Y-114500000D02*
X190940000Y-113100000D01*
X178810000Y-127000000D02*
X180060000Y-128250000D01*
X140700000Y-127700000D02*
X140700000Y-128250000D01*
X114940000Y-155700000D02*
X114700000Y-155700000D01*
X95284604Y-134015000D02*
X101697843Y-134015000D01*
X173340000Y-112000000D02*
X171940000Y-110600000D01*
X135300000Y-72500000D02*
X133940000Y-72500000D01*
X95940000Y-79500000D02*
X95500000Y-79500000D01*
X209162833Y-135500000D02*
X209635114Y-135027719D01*
X219503683Y-138491571D02*
X225450000Y-144437888D01*
X173300000Y-110600000D02*
X171940000Y-110600000D01*
X205136396Y-134000000D02*
X206636396Y-135500000D01*
X116785000Y-80735000D02*
X116300000Y-80250000D01*
X114284604Y-134015000D02*
X121825000Y-134015000D01*
X127000000Y-93163604D02*
X127000000Y-92000000D01*
X189811396Y-74325000D02*
X189686396Y-74450000D01*
X171282478Y-127015886D02*
X171298364Y-127000000D01*
X128000000Y-76450396D02*
X123715396Y-80735000D01*
X95400000Y-79400000D02*
X90372792Y-79400000D01*
X190284604Y-129515000D02*
X197825000Y-129515000D01*
X229475000Y-94525000D02*
X229475000Y-65725000D01*
X102700000Y-135250000D02*
X104060000Y-135250000D01*
X121700000Y-135250000D02*
X123060000Y-135250000D01*
X102700000Y-97150000D02*
X104060000Y-97150000D01*
X202286396Y-92650000D02*
X203950000Y-94313604D01*
X169752016Y-128550000D02*
X170898183Y-127403833D01*
X125000000Y-153886396D02*
X125000000Y-155650396D01*
X180575305Y-128250000D02*
X183325305Y-131000000D01*
X206500000Y-155950000D02*
X195950000Y-155950000D01*
X212380000Y-66410000D02*
X213581300Y-67611300D01*
X216900000Y-97150000D02*
X219850000Y-97150000D01*
X142715396Y-73735000D02*
X135175000Y-73735000D01*
X197825000Y-129515000D02*
X199060000Y-130750000D01*
X133283364Y-127015000D02*
X140015000Y-127015000D01*
X171940000Y-110600000D02*
X165213604Y-110600000D01*
X145625198Y-145950000D02*
X143400000Y-148175198D01*
X153500000Y-69950000D02*
X144736396Y-69950000D01*
X219850000Y-97150000D02*
X220000000Y-97000000D01*
X125113604Y-135250000D02*
X126431802Y-133931802D01*
X140700000Y-90150000D02*
X142060000Y-90150000D01*
X93749604Y-135550000D02*
X95284604Y-134015000D01*
X127863604Y-128500000D02*
X131798364Y-128500000D01*
X121825000Y-95915000D02*
X123060000Y-97150000D01*
X150698364Y-88000000D02*
X152698364Y-86000000D01*
X171265000Y-71825000D02*
X170961396Y-71825000D01*
X197825000Y-91415000D02*
X199060000Y-92650000D01*
X159410000Y-86000000D02*
X161060000Y-87650000D01*
X192175000Y-76235000D02*
X190940000Y-75000000D01*
X197700000Y-130750000D02*
X199060000Y-130750000D01*
X219500000Y-137000000D02*
X219500000Y-138487888D01*
X223100000Y-97150000D02*
X226850000Y-97150000D01*
X199550396Y-114500000D02*
X192340000Y-114500000D01*
X180060000Y-128250000D02*
X180575305Y-128250000D01*
X164500000Y-128550000D02*
X169752016Y-128550000D01*
X104550396Y-119000000D02*
X97340000Y-119000000D01*
X93599604Y-97600000D02*
X95284604Y-95915000D01*
X169699604Y-90500000D02*
X171284604Y-88915000D01*
X101697843Y-134015000D02*
X102700000Y-135017157D01*
X97300000Y-117600000D02*
X95940000Y-117600000D01*
X152690000Y-145950000D02*
X145625198Y-145950000D01*
X116300000Y-117600000D02*
X114940000Y-117600000D01*
X181428604Y-112950000D02*
X180478604Y-112000000D01*
X190265000Y-74325000D02*
X189811396Y-74325000D01*
X102700000Y-135017157D02*
X102700000Y-135250000D01*
X121825000Y-134015000D02*
X123060000Y-135250000D01*
X126431802Y-133931802D02*
X126431802Y-129931802D01*
X128000000Y-73136396D02*
X128000000Y-76450396D01*
X144000000Y-72450396D02*
X142715396Y-73735000D01*
X203950000Y-94313604D02*
X203950000Y-110100396D01*
X114284604Y-95915000D02*
X121825000Y-95915000D01*
X173300000Y-73250000D02*
X173300000Y-72500000D01*
%TO.N,led_32*%
X95050000Y-154300000D02*
X97300000Y-154300000D01*
%TO.N,led_17*%
X105750000Y-117000000D02*
X104950000Y-116200000D01*
X103481000Y-118385000D02*
X104529000Y-118385000D01*
X114050000Y-116200000D02*
X116300000Y-116200000D01*
X114050000Y-116200000D02*
X113800000Y-116200000D01*
X104950000Y-117960000D02*
X104950000Y-116200000D01*
X113000000Y-117000000D02*
X105750000Y-117000000D01*
X104529000Y-118385000D02*
X104950000Y-117960000D01*
X102700000Y-117600000D02*
X103481000Y-118385000D01*
X113800000Y-116200000D02*
X113000000Y-117000000D01*
%TO.N,led_18*%
X95050000Y-134890000D02*
X95050000Y-136650000D01*
X91000000Y-117000000D02*
X90000000Y-118000000D01*
X90000000Y-135000000D02*
X91000000Y-136000000D01*
X95050000Y-116200000D02*
X94800000Y-116200000D01*
X95050000Y-116200000D02*
X97300000Y-116200000D01*
X94400000Y-136000000D02*
X95050000Y-136650000D01*
X94800000Y-116200000D02*
X94000000Y-117000000D01*
X96519000Y-134465000D02*
X95471000Y-134465000D01*
X95471000Y-134465000D02*
X95050000Y-134890000D01*
X91000000Y-136000000D02*
X94400000Y-136000000D01*
X90000000Y-118000000D02*
X90000000Y-135000000D01*
X94000000Y-117000000D02*
X91000000Y-117000000D01*
X97300000Y-135250000D02*
X96519000Y-134465000D01*
%TO.N,led_5*%
X104950000Y-79860000D02*
X104950000Y-78100000D01*
X105850000Y-79000000D02*
X104950000Y-78100000D01*
X102700000Y-79500000D02*
X103481000Y-80285000D01*
X103481000Y-80285000D02*
X104529000Y-80285000D01*
X114050000Y-78100000D02*
X113150000Y-79000000D01*
X114050000Y-78100000D02*
X116300000Y-78100000D01*
X104529000Y-80285000D02*
X104950000Y-79860000D01*
X113150000Y-79000000D02*
X105850000Y-79000000D01*
%TO.N,led_6*%
X89450000Y-79686396D02*
X89450000Y-96813604D01*
X95471000Y-96365000D02*
X95050000Y-96790000D01*
X95050000Y-78100000D02*
X97300000Y-78100000D01*
X95050000Y-78100000D02*
X94200000Y-78950000D01*
X89450000Y-96813604D02*
X90686396Y-98050000D01*
X90686396Y-98050000D02*
X94550000Y-98050000D01*
X95050000Y-96790000D02*
X95050000Y-98550000D01*
X94200000Y-78950000D02*
X90186396Y-78950000D01*
X96519000Y-96365000D02*
X95471000Y-96365000D01*
X90186396Y-78950000D02*
X89450000Y-79686396D01*
X97300000Y-97150000D02*
X96519000Y-96365000D01*
X94550000Y-98050000D02*
X95050000Y-98550000D01*
%TO.N,led_30*%
X127500000Y-149000000D02*
X127500000Y-150750000D01*
X133050000Y-147300000D02*
X135300000Y-147300000D01*
X128500000Y-148000000D02*
X127500000Y-149000000D01*
X133050000Y-147300000D02*
X132700000Y-147300000D01*
X123950000Y-156060000D02*
X123950000Y-154300000D01*
X127500000Y-150750000D02*
X123950000Y-154300000D01*
X121700000Y-155700000D02*
X122481000Y-156485000D01*
X132700000Y-147300000D02*
X132000000Y-148000000D01*
X122481000Y-156485000D02*
X123529000Y-156485000D01*
X132000000Y-148000000D02*
X128500000Y-148000000D01*
X123529000Y-156485000D02*
X123950000Y-156060000D01*
%TO.N,led_16*%
X128500000Y-110000000D02*
X127000000Y-111500000D01*
X122481000Y-118385000D02*
X123529000Y-118385000D01*
X131500000Y-110000000D02*
X128500000Y-110000000D01*
X123950000Y-116050000D02*
X123950000Y-116200000D01*
X127000000Y-113000000D02*
X123950000Y-116050000D01*
X133050000Y-109200000D02*
X132300000Y-109200000D01*
X123529000Y-118385000D02*
X123950000Y-117960000D01*
X123950000Y-117960000D02*
X123950000Y-116200000D01*
X132300000Y-109200000D02*
X131500000Y-110000000D01*
X127000000Y-111500000D02*
X127000000Y-113000000D01*
X121700000Y-117600000D02*
X122481000Y-118385000D01*
X133050000Y-109200000D02*
X135300000Y-109200000D01*
%TO.N,led_4*%
X128500000Y-72000000D02*
X127500000Y-73000000D01*
X131000000Y-72000000D02*
X128500000Y-72000000D01*
X123950000Y-79860000D02*
X123950000Y-78100000D01*
X123529000Y-80285000D02*
X123950000Y-79860000D01*
X121700000Y-79500000D02*
X122481000Y-80285000D01*
X133050000Y-71100000D02*
X135300000Y-71100000D01*
X133050000Y-71100000D02*
X131900000Y-71100000D01*
X131900000Y-71100000D02*
X131000000Y-72000000D01*
X127500000Y-73000000D02*
X127500000Y-74550000D01*
X122481000Y-80285000D02*
X123529000Y-80285000D01*
X127500000Y-74550000D02*
X123950000Y-78100000D01*
%TO.N,led_29*%
X152050000Y-144800000D02*
X154300000Y-144800000D01*
X140700000Y-148700000D02*
X141481000Y-149485000D01*
X142950000Y-149060000D02*
X142950000Y-147300000D01*
X141481000Y-149485000D02*
X142529000Y-149485000D01*
X152050000Y-144800000D02*
X151350000Y-145500000D01*
X151350000Y-145500000D02*
X144750000Y-145500000D01*
X144750000Y-145500000D02*
X142950000Y-147300000D01*
X142529000Y-149485000D02*
X142950000Y-149060000D01*
%TO.N,led_15*%
X152050000Y-106700000D02*
X154300000Y-106700000D01*
X140700000Y-110600000D02*
X141481000Y-111385000D01*
X152050000Y-106700000D02*
X151250000Y-107500000D01*
X141481000Y-111385000D02*
X142529000Y-111385000D01*
X142529000Y-111385000D02*
X142950000Y-110960000D01*
X142950000Y-110960000D02*
X142950000Y-109200000D01*
X151250000Y-107500000D02*
X144650000Y-107500000D01*
X144650000Y-107500000D02*
X142950000Y-109200000D01*
%TO.N,led_3*%
X142529000Y-73285000D02*
X142950000Y-72860000D01*
X142950000Y-72860000D02*
X142950000Y-71100000D01*
X152050000Y-68600000D02*
X154300000Y-68600000D01*
X152050000Y-68600000D02*
X151150000Y-69500000D01*
X151150000Y-69500000D02*
X144550000Y-69500000D01*
X144550000Y-69500000D02*
X142950000Y-71100000D01*
X140700000Y-72500000D02*
X141481000Y-73285000D01*
X141481000Y-73285000D02*
X142529000Y-73285000D01*
%TO.N,led_28*%
X159700000Y-146200000D02*
X160481000Y-146985000D01*
X161950000Y-146560000D02*
X161950000Y-144800000D01*
X165150000Y-148000000D02*
X161950000Y-144800000D01*
X170350000Y-148000000D02*
X165150000Y-148000000D01*
X161529000Y-146985000D02*
X161950000Y-146560000D01*
X171050000Y-147300000D02*
X173300000Y-147300000D01*
X171050000Y-147300000D02*
X170350000Y-148000000D01*
X160481000Y-146985000D02*
X161529000Y-146985000D01*
%TO.N,led_14*%
X159700000Y-108100000D02*
X160481000Y-108885000D01*
X161529000Y-108885000D02*
X161950000Y-108460000D01*
X171050000Y-109200000D02*
X173300000Y-109200000D01*
X171050000Y-109200000D02*
X170250000Y-110000000D01*
X160481000Y-108885000D02*
X161529000Y-108885000D01*
X170250000Y-110000000D02*
X165250000Y-110000000D01*
X161950000Y-108460000D02*
X161950000Y-106700000D01*
X165250000Y-110000000D02*
X161950000Y-106700000D01*
%TO.N,led_2*%
X161529000Y-70785000D02*
X161950000Y-70360000D01*
X170600000Y-71550000D02*
X161246000Y-71550000D01*
X161950000Y-70360000D02*
X161950000Y-68600000D01*
X161246000Y-71550000D02*
X160481000Y-70785000D01*
X171050000Y-71100000D02*
X170600000Y-71550000D01*
X171050000Y-71100000D02*
X173300000Y-71100000D01*
X160481000Y-70785000D02*
X161529000Y-70785000D01*
X159700000Y-70000000D02*
X160481000Y-70785000D01*
%TO.N,led_27*%
X180500000Y-150500000D02*
X178700000Y-148700000D01*
X192105745Y-150872327D02*
X188872327Y-150872327D01*
X178700000Y-148700000D02*
X179481000Y-149485000D01*
X180529000Y-149485000D02*
X180950000Y-149060000D01*
X180950000Y-149060000D02*
X180950000Y-147300000D01*
X188500000Y-150500000D02*
X180500000Y-150500000D01*
X188872327Y-150872327D02*
X188500000Y-150500000D01*
X179481000Y-149485000D02*
X180529000Y-149485000D01*
X192105745Y-150872327D02*
X194279078Y-151454670D01*
%TO.N,led_13*%
X189250000Y-112500000D02*
X181615000Y-112500000D01*
X190050000Y-111700000D02*
X192300000Y-111700000D01*
X179481000Y-111385000D02*
X180500000Y-111385000D01*
X178700000Y-110600000D02*
X179481000Y-111385000D01*
X180950000Y-110960000D02*
X180950000Y-109200000D01*
X180500000Y-111385000D02*
X180529000Y-111385000D01*
X180529000Y-111385000D02*
X180950000Y-110960000D01*
X181615000Y-112500000D02*
X180500000Y-111385000D01*
X190050000Y-111700000D02*
X189250000Y-112500000D01*
%TO.N,led_1*%
X183850000Y-74000000D02*
X180950000Y-71100000D01*
X190050000Y-73600000D02*
X192300000Y-73600000D01*
X178700000Y-72500000D02*
X179481000Y-73285000D01*
X189900000Y-73600000D02*
X189500000Y-74000000D01*
X179481000Y-73285000D02*
X180529000Y-73285000D01*
X180950000Y-72860000D02*
X180950000Y-71100000D01*
X189500000Y-74000000D02*
X183850000Y-74000000D01*
X190050000Y-73600000D02*
X189900000Y-73600000D01*
X180529000Y-73285000D02*
X180950000Y-72860000D01*
%TO.N,led_12*%
X199950000Y-94050000D02*
X197700000Y-94050000D01*
X203500000Y-94500000D02*
X203500000Y-109000000D01*
X199529000Y-113885000D02*
X199950000Y-113460000D01*
X197700000Y-113100000D02*
X198481000Y-113885000D01*
X203500000Y-109000000D02*
X200800000Y-111700000D01*
X198481000Y-113885000D02*
X199529000Y-113885000D01*
X203050000Y-94050000D02*
X203500000Y-94500000D01*
X199950000Y-113460000D02*
X199950000Y-111700000D01*
X200800000Y-111700000D02*
X199950000Y-111700000D01*
X199950000Y-94050000D02*
X203050000Y-94050000D01*
%TO.N,P2*%
X199950000Y-75360000D02*
X199950000Y-73600000D01*
X199529000Y-75785000D02*
X199950000Y-75360000D01*
X198481000Y-75785000D02*
X199529000Y-75785000D01*
X210270000Y-73600000D02*
X199950000Y-73600000D01*
X197700000Y-75000000D02*
X198481000Y-75785000D01*
X212380000Y-71490000D02*
X210270000Y-73600000D01*
%TO.N,led_26*%
X201212890Y-155134665D02*
X201668411Y-153434635D01*
X199132731Y-154204589D02*
X199683946Y-155164978D01*
X207289889Y-155789889D02*
X207000000Y-155500000D01*
X204500000Y-155500000D02*
X202434635Y-153434635D01*
X210458336Y-155789889D02*
X207289889Y-155789889D01*
X200696237Y-155436220D02*
X201212890Y-155134665D01*
X210458336Y-155789889D02*
X212631669Y-156372232D01*
X202434635Y-153434635D02*
X201668411Y-153434635D01*
X207000000Y-155500000D02*
X204500000Y-155500000D01*
X199683946Y-155164978D02*
X200696237Y-155436220D01*
%TO.N,led_25*%
X219048827Y-160353782D02*
X219565480Y-160052227D01*
X225000000Y-155000000D02*
X221647803Y-158352197D01*
X221647803Y-158352197D02*
X220021002Y-158352197D01*
X219565480Y-160052227D02*
X220021002Y-158352197D01*
X218036537Y-160082540D02*
X219048827Y-160353782D01*
X220001010Y-140074216D02*
X217827677Y-139491873D01*
X217485322Y-159122151D02*
X218036537Y-160082540D01*
X225000000Y-145073206D02*
X225000000Y-155000000D01*
X220001010Y-140074216D02*
X225000000Y-145073206D01*
%TO.N,led_19*%
X116300000Y-135250000D02*
X115519000Y-134465000D01*
X115519000Y-134465000D02*
X114471000Y-134465000D01*
X114050000Y-134890000D02*
X114050000Y-136650000D01*
X114471000Y-134465000D02*
X114050000Y-134890000D01*
X104950000Y-136650000D02*
X102700000Y-136650000D01*
X104950000Y-136550000D02*
X105500000Y-136000000D01*
X113400000Y-136000000D02*
X114050000Y-136650000D01*
X104950000Y-136650000D02*
X104950000Y-136550000D01*
X105500000Y-136000000D02*
X113400000Y-136000000D01*
%TO.N,led_7*%
X115519000Y-96365000D02*
X114471000Y-96365000D01*
X113500000Y-98000000D02*
X114050000Y-98550000D01*
X114050000Y-96790000D02*
X114050000Y-98550000D01*
X104950000Y-98550000D02*
X105500000Y-98000000D01*
X114471000Y-96365000D02*
X114050000Y-96790000D01*
X105500000Y-98000000D02*
X113500000Y-98000000D01*
X116300000Y-97150000D02*
X115519000Y-96365000D01*
X104950000Y-98550000D02*
X102700000Y-98550000D01*
%TO.N,led_20*%
X133050000Y-127890000D02*
X133050000Y-129650000D01*
X124350000Y-136650000D02*
X127000000Y-134000000D01*
X128000000Y-129000000D02*
X132400000Y-129000000D01*
X133471000Y-127465000D02*
X133050000Y-127890000D01*
X123950000Y-136650000D02*
X124350000Y-136650000D01*
X127000000Y-130000000D02*
X128000000Y-129000000D01*
X132400000Y-129000000D02*
X133050000Y-129650000D01*
X127000000Y-134000000D02*
X127000000Y-130000000D01*
X123950000Y-136650000D02*
X121700000Y-136650000D01*
X134519000Y-127465000D02*
X133471000Y-127465000D01*
X135300000Y-128250000D02*
X134519000Y-127465000D01*
%TO.N,led_8*%
X128636396Y-91000000D02*
X132500000Y-91000000D01*
X123950000Y-96850000D02*
X127450000Y-93350000D01*
X132500000Y-91000000D02*
X133050000Y-91550000D01*
X123950000Y-98550000D02*
X123950000Y-96850000D01*
X135300000Y-90150000D02*
X134519000Y-89365000D01*
X133471000Y-89365000D02*
X133050000Y-89790000D01*
X134519000Y-89365000D02*
X133471000Y-89365000D01*
X127450000Y-93350000D02*
X127450000Y-92186396D01*
X123950000Y-98550000D02*
X121700000Y-98550000D01*
X133050000Y-89790000D02*
X133050000Y-91550000D01*
X127450000Y-92186396D02*
X128636396Y-91000000D01*
%TO.N,led_21*%
X152050000Y-125390000D02*
X152050000Y-127150000D01*
X143850000Y-129650000D02*
X147000000Y-126500000D01*
X151400000Y-126500000D02*
X152050000Y-127150000D01*
X142950000Y-129650000D02*
X143850000Y-129650000D01*
X142950000Y-129650000D02*
X140700000Y-129650000D01*
X153519000Y-124965000D02*
X152471000Y-124965000D01*
X154300000Y-125750000D02*
X153519000Y-124965000D01*
X152471000Y-124965000D02*
X152050000Y-125390000D01*
X147000000Y-126500000D02*
X151400000Y-126500000D01*
%TO.N,led_9*%
X153519000Y-86865000D02*
X152471000Y-86865000D01*
X143813604Y-91550000D02*
X146863604Y-88500000D01*
X152050000Y-87290000D02*
X152050000Y-89050000D01*
X142950000Y-91550000D02*
X140700000Y-91550000D01*
X152471000Y-86865000D02*
X152050000Y-87290000D01*
X151500000Y-88500000D02*
X152050000Y-89050000D01*
X154300000Y-87650000D02*
X153519000Y-86865000D01*
X142950000Y-91550000D02*
X143813604Y-91550000D01*
X146863604Y-88500000D02*
X151500000Y-88500000D01*
%TO.N,led_22*%
X161950000Y-127150000D02*
X159700000Y-127150000D01*
X173300000Y-128250000D02*
X172519000Y-127465000D01*
X161950000Y-127150000D02*
X163800000Y-129000000D01*
X163800000Y-129000000D02*
X170400000Y-129000000D01*
X170400000Y-129000000D02*
X171050000Y-129650000D01*
X171050000Y-127890000D02*
X171050000Y-129650000D01*
X172519000Y-127465000D02*
X171471000Y-127465000D01*
X171471000Y-127465000D02*
X171050000Y-127890000D01*
%TO.N,led_10*%
X170500000Y-91000000D02*
X171050000Y-91550000D01*
X161950000Y-89050000D02*
X159700000Y-89050000D01*
X163900000Y-91000000D02*
X170500000Y-91000000D01*
X171471000Y-89365000D02*
X171050000Y-89790000D01*
X172519000Y-89365000D02*
X171471000Y-89365000D01*
X171050000Y-89790000D02*
X171050000Y-91550000D01*
X161950000Y-89050000D02*
X163900000Y-91000000D01*
X173300000Y-90150000D02*
X172519000Y-89365000D01*
%TO.N,led_23*%
X180950000Y-129650000D02*
X178700000Y-129650000D01*
X183000000Y-131500000D02*
X189400000Y-131500000D01*
X181150000Y-129650000D02*
X183000000Y-131500000D01*
X180950000Y-129650000D02*
X181150000Y-129650000D01*
X191519000Y-129965000D02*
X190471000Y-129965000D01*
X190050000Y-130390000D02*
X190050000Y-132150000D01*
X192300000Y-130750000D02*
X191519000Y-129965000D01*
X190471000Y-129965000D02*
X190050000Y-130390000D01*
X189400000Y-131500000D02*
X190050000Y-132150000D01*
%TO.N,led_11*%
X190050000Y-92290000D02*
X190050000Y-94050000D01*
X182900000Y-93500000D02*
X189500000Y-93500000D01*
X180950000Y-91550000D02*
X178700000Y-91550000D01*
X190471000Y-91865000D02*
X190050000Y-92290000D01*
X180950000Y-91550000D02*
X182900000Y-93500000D01*
X189500000Y-93500000D02*
X190050000Y-94050000D01*
X191519000Y-91865000D02*
X190471000Y-91865000D01*
X192300000Y-92650000D02*
X191519000Y-91865000D01*
%TO.N,led_24*%
X199950000Y-132150000D02*
X202300000Y-134500000D01*
X212974024Y-136741954D02*
X212422809Y-135781565D01*
X211410519Y-135510322D02*
X210893866Y-135811878D01*
X212422809Y-135781565D02*
X211410519Y-135510322D01*
X210893866Y-135811878D02*
X210438344Y-137511907D01*
X199950000Y-132150000D02*
X197700000Y-132150000D01*
X205000000Y-134500000D02*
X206500000Y-136000000D01*
X202300000Y-134500000D02*
X205000000Y-134500000D01*
X208926437Y-136000000D02*
X210438344Y-137511907D01*
X206500000Y-136000000D02*
X208926437Y-136000000D01*
%TO.N,RAW*%
X230425000Y-64135000D02*
X227620000Y-61330000D01*
X230425000Y-67050000D02*
X230425000Y-64135000D01*
%TO.N,RST*%
X229025000Y-67815000D02*
X227620000Y-66410000D01*
X220050000Y-93450000D02*
X220000000Y-93500000D01*
X223100000Y-93450000D02*
X220050000Y-93450000D01*
X223100000Y-93450000D02*
X225138895Y-93450000D01*
X216900000Y-93450000D02*
X219950000Y-93450000D01*
X229025000Y-89563895D02*
X229025000Y-67815000D01*
X219950000Y-93450000D02*
X220000000Y-93500000D01*
X225138895Y-93450000D02*
X229025000Y-89563895D01*
%TO.N,P16*%
X217225000Y-116275000D02*
X216600000Y-116900000D01*
X215500380Y-111900000D02*
X216125380Y-111275000D01*
X217225000Y-111641116D02*
X217225000Y-116275000D01*
X216858884Y-111275000D02*
X217225000Y-111641116D01*
X216125380Y-111275000D02*
X216858884Y-111275000D01*
%TO.N,P10*%
X216600000Y-111900000D02*
X216600000Y-115800380D01*
X216600000Y-115800380D02*
X215500380Y-116900000D01*
%TO.N,pos*%
X234375000Y-101125000D02*
X234375000Y-71175000D01*
X226000000Y-102400000D02*
X233100000Y-102400000D01*
X233100000Y-102400000D02*
X234375000Y-101125000D01*
X230425000Y-68550000D02*
X231750000Y-68550000D01*
X234375000Y-71175000D02*
X232500000Y-69300000D01*
X227000000Y-101400000D02*
X226000000Y-102400000D01*
X227184000Y-101400000D02*
X227000000Y-101400000D01*
X231750000Y-68550000D02*
X232500000Y-69300000D01*
%TO.N,JST1_1*%
X228200000Y-101400000D02*
X230000000Y-101400000D01*
%TO.N,JST1_2*%
X228200000Y-103400000D02*
X230000000Y-103400000D01*
%TO.N,RB_ROW*%
X221875000Y-121500000D02*
X217500000Y-121500000D01*
X226880000Y-116860000D02*
X226515000Y-116860000D01*
X217500000Y-121500000D02*
X216190000Y-122810000D01*
X226515000Y-116860000D02*
X221875000Y-121500000D01*
X216190000Y-123400000D02*
X218350000Y-123400000D01*
X216190000Y-122810000D02*
X216190000Y-123400000D01*
%TO.N,scroll-j1*%
X214459620Y-111860000D02*
X214499620Y-111900000D01*
X212380000Y-111860000D02*
X214459620Y-111860000D01*
%TO.N,scroll-j2*%
X214459620Y-116860000D02*
X214499620Y-116900000D01*
X212380000Y-116860000D02*
X214459620Y-116860000D01*
%TD*%
M02*
