%TF.GenerationSoftware,KiCad,Pcbnew,8.0.6*%
%TF.CreationDate,2025-03-22T19:16:27+01:00*%
%TF.ProjectId,left-finished,6c656674-2d66-4696-9e69-736865642e6b,v1.0.0*%
%TF.SameCoordinates,Original*%
%TF.FileFunction,Legend,Bot*%
%TF.FilePolarity,Positive*%
%FSLAX46Y46*%
G04 Gerber Fmt 4.6, Leading zero omitted, Abs format (unit mm)*
G04 Created by KiCad (PCBNEW 8.0.6) date 2025-03-22 19:16:27*
%MOMM*%
%LPD*%
G01*
G04 APERTURE LIST*
%ADD10C,0.300000*%
%ADD11C,0.100000*%
%ADD12C,0.120000*%
%ADD13C,0.150000*%
%ADD14C,0.000000*%
%ADD15R,1.752600X1.752600*%
%ADD16C,1.752600*%
G04 APERTURE END LIST*
D10*
X106088346Y-63657971D02*
X106159774Y-63729400D01*
X106159774Y-63729400D02*
X106374060Y-63800828D01*
X106374060Y-63800828D02*
X106516917Y-63800828D01*
X106516917Y-63800828D02*
X106731203Y-63729400D01*
X106731203Y-63729400D02*
X106874060Y-63586542D01*
X106874060Y-63586542D02*
X106945489Y-63443685D01*
X106945489Y-63443685D02*
X107016917Y-63157971D01*
X107016917Y-63157971D02*
X107016917Y-62943685D01*
X107016917Y-62943685D02*
X106945489Y-62657971D01*
X106945489Y-62657971D02*
X106874060Y-62515114D01*
X106874060Y-62515114D02*
X106731203Y-62372257D01*
X106731203Y-62372257D02*
X106516917Y-62300828D01*
X106516917Y-62300828D02*
X106374060Y-62300828D01*
X106374060Y-62300828D02*
X106159774Y-62372257D01*
X106159774Y-62372257D02*
X106088346Y-62443685D01*
X105516917Y-63372257D02*
X104802632Y-63372257D01*
X105659774Y-63800828D02*
X105159774Y-62300828D01*
X105159774Y-62300828D02*
X104659774Y-63800828D01*
X104374060Y-62300828D02*
X103516918Y-62300828D01*
X103945489Y-63800828D02*
X103945489Y-62300828D01*
X101945489Y-63729400D02*
X101731204Y-63800828D01*
X101731204Y-63800828D02*
X101374061Y-63800828D01*
X101374061Y-63800828D02*
X101231204Y-63729400D01*
X101231204Y-63729400D02*
X101159775Y-63657971D01*
X101159775Y-63657971D02*
X101088346Y-63515114D01*
X101088346Y-63515114D02*
X101088346Y-63372257D01*
X101088346Y-63372257D02*
X101159775Y-63229400D01*
X101159775Y-63229400D02*
X101231204Y-63157971D01*
X101231204Y-63157971D02*
X101374061Y-63086542D01*
X101374061Y-63086542D02*
X101659775Y-63015114D01*
X101659775Y-63015114D02*
X101802632Y-62943685D01*
X101802632Y-62943685D02*
X101874061Y-62872257D01*
X101874061Y-62872257D02*
X101945489Y-62729400D01*
X101945489Y-62729400D02*
X101945489Y-62586542D01*
X101945489Y-62586542D02*
X101874061Y-62443685D01*
X101874061Y-62443685D02*
X101802632Y-62372257D01*
X101802632Y-62372257D02*
X101659775Y-62300828D01*
X101659775Y-62300828D02*
X101302632Y-62300828D01*
X101302632Y-62300828D02*
X101088346Y-62372257D01*
X100445490Y-62300828D02*
X100445490Y-63515114D01*
X100445490Y-63515114D02*
X100374061Y-63657971D01*
X100374061Y-63657971D02*
X100302633Y-63729400D01*
X100302633Y-63729400D02*
X100159775Y-63800828D01*
X100159775Y-63800828D02*
X99874061Y-63800828D01*
X99874061Y-63800828D02*
X99731204Y-63729400D01*
X99731204Y-63729400D02*
X99659775Y-63657971D01*
X99659775Y-63657971D02*
X99588347Y-63515114D01*
X99588347Y-63515114D02*
X99588347Y-62300828D01*
X98016918Y-63657971D02*
X98088346Y-63729400D01*
X98088346Y-63729400D02*
X98302632Y-63800828D01*
X98302632Y-63800828D02*
X98445489Y-63800828D01*
X98445489Y-63800828D02*
X98659775Y-63729400D01*
X98659775Y-63729400D02*
X98802632Y-63586542D01*
X98802632Y-63586542D02*
X98874061Y-63443685D01*
X98874061Y-63443685D02*
X98945489Y-63157971D01*
X98945489Y-63157971D02*
X98945489Y-62943685D01*
X98945489Y-62943685D02*
X98874061Y-62657971D01*
X98874061Y-62657971D02*
X98802632Y-62515114D01*
X98802632Y-62515114D02*
X98659775Y-62372257D01*
X98659775Y-62372257D02*
X98445489Y-62300828D01*
X98445489Y-62300828D02*
X98302632Y-62300828D01*
X98302632Y-62300828D02*
X98088346Y-62372257D01*
X98088346Y-62372257D02*
X98016918Y-62443685D01*
X97374061Y-63800828D02*
X97374061Y-62300828D01*
X96516918Y-63800828D02*
X97159775Y-62943685D01*
X96516918Y-62300828D02*
X97374061Y-63157971D01*
X95945489Y-63729400D02*
X95731204Y-63800828D01*
X95731204Y-63800828D02*
X95374061Y-63800828D01*
X95374061Y-63800828D02*
X95231204Y-63729400D01*
X95231204Y-63729400D02*
X95159775Y-63657971D01*
X95159775Y-63657971D02*
X95088346Y-63515114D01*
X95088346Y-63515114D02*
X95088346Y-63372257D01*
X95088346Y-63372257D02*
X95159775Y-63229400D01*
X95159775Y-63229400D02*
X95231204Y-63157971D01*
X95231204Y-63157971D02*
X95374061Y-63086542D01*
X95374061Y-63086542D02*
X95659775Y-63015114D01*
X95659775Y-63015114D02*
X95802632Y-62943685D01*
X95802632Y-62943685D02*
X95874061Y-62872257D01*
X95874061Y-62872257D02*
X95945489Y-62729400D01*
X95945489Y-62729400D02*
X95945489Y-62586542D01*
X95945489Y-62586542D02*
X95874061Y-62443685D01*
X95874061Y-62443685D02*
X95802632Y-62372257D01*
X95802632Y-62372257D02*
X95659775Y-62300828D01*
X95659775Y-62300828D02*
X95302632Y-62300828D01*
X95302632Y-62300828D02*
X95088346Y-62372257D01*
D11*
%TO.C,D22*%
X167600000Y-128700000D02*
X168400000Y-128700000D01*
X168000000Y-128700000D02*
X168000000Y-128200000D01*
X168000000Y-129300000D02*
X167450000Y-129300000D01*
X168000000Y-129300000D02*
X167600000Y-128700000D01*
X168000000Y-129300000D02*
X168550000Y-129300000D01*
X168000000Y-129700000D02*
X168000000Y-129300000D01*
X168400000Y-128700000D02*
X168000000Y-129300000D01*
%TO.C,D27*%
X186600000Y-112150000D02*
X187400000Y-112150000D01*
X187000000Y-112150000D02*
X187000000Y-111650000D01*
X187000000Y-112750000D02*
X186450000Y-112750000D01*
X187000000Y-112750000D02*
X186600000Y-112150000D01*
X187000000Y-112750000D02*
X187550000Y-112750000D01*
X187000000Y-113150000D02*
X187000000Y-112750000D01*
X187400000Y-112150000D02*
X187000000Y-112750000D01*
%TO.C,D16*%
X148600000Y-145250000D02*
X149400000Y-145250000D01*
X149000000Y-145250000D02*
X149000000Y-144750000D01*
X149000000Y-145850000D02*
X148450000Y-145850000D01*
X149000000Y-145850000D02*
X148600000Y-145250000D01*
X149000000Y-145850000D02*
X149550000Y-145850000D01*
X149000000Y-146250000D02*
X149000000Y-145850000D01*
X149400000Y-145250000D02*
X149000000Y-145850000D01*
%TO.C,JST1*%
X222600000Y-100900000D02*
X222600000Y-101900000D01*
X222600000Y-103900000D02*
X222600000Y-102900000D01*
X223100000Y-101400000D02*
X222100000Y-101400000D01*
D12*
X223640000Y-99340000D02*
X224640000Y-99340000D01*
X223640000Y-100260000D02*
X223640000Y-99340000D01*
X223640000Y-104540000D02*
X223640000Y-105460000D01*
X223640000Y-105460000D02*
X224640000Y-105460000D01*
X231460000Y-99340000D02*
X230460000Y-99340000D01*
X231460000Y-100340000D02*
X231460000Y-99340000D01*
X231460000Y-104540000D02*
X231460000Y-105460000D01*
X231460000Y-105460000D02*
X230460000Y-105460000D01*
D11*
%TO.C,D18*%
X148600000Y-107150000D02*
X149400000Y-107150000D01*
X149000000Y-107150000D02*
X149000000Y-106650000D01*
X149000000Y-107750000D02*
X148450000Y-107750000D01*
X149000000Y-107750000D02*
X148600000Y-107150000D01*
X149000000Y-107750000D02*
X149550000Y-107750000D01*
X149000000Y-108150000D02*
X149000000Y-107750000D01*
X149400000Y-107150000D02*
X149000000Y-107750000D01*
%TO.C,D24*%
X167600000Y-90600000D02*
X168400000Y-90600000D01*
X168000000Y-90600000D02*
X168000000Y-90100000D01*
X168000000Y-91200000D02*
X167450000Y-91200000D01*
X168000000Y-91200000D02*
X167600000Y-90600000D01*
X168000000Y-91200000D02*
X168550000Y-91200000D01*
X168000000Y-91600000D02*
X168000000Y-91200000D01*
X168400000Y-90600000D02*
X168000000Y-91200000D01*
%TO.C,D8*%
X110600000Y-116650000D02*
X111400000Y-116650000D01*
X111000000Y-116650000D02*
X111000000Y-116150000D01*
X111000000Y-117250000D02*
X110450000Y-117250000D01*
X111000000Y-117250000D02*
X110600000Y-116650000D01*
X111000000Y-117250000D02*
X111550000Y-117250000D01*
X111000000Y-117650000D02*
X111000000Y-117250000D01*
X111400000Y-116650000D02*
X111000000Y-117250000D01*
%TO.C,D10*%
X110600000Y-78550000D02*
X111400000Y-78550000D01*
X111000000Y-78550000D02*
X111000000Y-78050000D01*
X111000000Y-79150000D02*
X110450000Y-79150000D01*
X111000000Y-79150000D02*
X110600000Y-78550000D01*
X111000000Y-79150000D02*
X111550000Y-79150000D01*
X111000000Y-79550000D02*
X111000000Y-79150000D01*
X111400000Y-78550000D02*
X111000000Y-79150000D01*
%TO.C,D13*%
X129600000Y-109650000D02*
X130400000Y-109650000D01*
X130000000Y-109650000D02*
X130000000Y-109150000D01*
X130000000Y-110250000D02*
X129450000Y-110250000D01*
X130000000Y-110250000D02*
X129600000Y-109650000D01*
X130000000Y-110250000D02*
X130550000Y-110250000D01*
X130000000Y-110650000D02*
X130000000Y-110250000D01*
X130400000Y-109650000D02*
X130000000Y-110250000D01*
%TO.C,D1*%
X91600000Y-154750000D02*
X92400000Y-154750000D01*
X92000000Y-154750000D02*
X92000000Y-154250000D01*
X92000000Y-155350000D02*
X91450000Y-155350000D01*
X92000000Y-155350000D02*
X91600000Y-154750000D01*
X92000000Y-155350000D02*
X92550000Y-155350000D01*
X92000000Y-155750000D02*
X92000000Y-155350000D01*
X92400000Y-154750000D02*
X92000000Y-155350000D01*
D13*
%TO.C,B2*%
X217250000Y-94050000D02*
X218750000Y-92550000D01*
X217250000Y-96550000D02*
X217250000Y-94050000D01*
X217250000Y-96550000D02*
X218750000Y-98050000D01*
X221250000Y-92550000D02*
X218750000Y-92550000D01*
X221250000Y-98050000D02*
X218750000Y-98050000D01*
X222750000Y-94050000D02*
X221250000Y-92550000D01*
X222750000Y-96550000D02*
X221250000Y-98050000D01*
X222750000Y-96550000D02*
X222750000Y-94050000D01*
D11*
%TO.C,D4*%
X91600000Y-97600000D02*
X92400000Y-97600000D01*
X92000000Y-97600000D02*
X92000000Y-97100000D01*
X92000000Y-98200000D02*
X91450000Y-98200000D01*
X92000000Y-98200000D02*
X91600000Y-97600000D01*
X92000000Y-98200000D02*
X92550000Y-98200000D01*
X92000000Y-98600000D02*
X92000000Y-98200000D01*
X92400000Y-97600000D02*
X92000000Y-98200000D01*
%TO.C,D31*%
X207009423Y-155331630D02*
X207782164Y-155538685D01*
X207136975Y-156401083D02*
X207240502Y-156014713D01*
X207240502Y-156014713D02*
X206709243Y-155872363D01*
X207240502Y-156014713D02*
X207009423Y-155331630D01*
X207240502Y-156014713D02*
X207771763Y-156157064D01*
X207395794Y-155435158D02*
X207525203Y-154952195D01*
X207782164Y-155538685D02*
X207240502Y-156014713D01*
%TO.C,D11*%
X129600000Y-147750000D02*
X130400000Y-147750000D01*
X130000000Y-147750000D02*
X130000000Y-147250000D01*
X130000000Y-148350000D02*
X129450000Y-148350000D01*
X130000000Y-148350000D02*
X129600000Y-147750000D01*
X130000000Y-148350000D02*
X130550000Y-148350000D01*
X130000000Y-148750000D02*
X130000000Y-148350000D01*
X130400000Y-147750000D02*
X130000000Y-148350000D01*
%TO.C,D21*%
X167600000Y-147750000D02*
X168400000Y-147750000D01*
X168000000Y-147750000D02*
X168000000Y-147250000D01*
X168000000Y-148350000D02*
X167450000Y-148350000D01*
X168000000Y-148350000D02*
X167600000Y-147750000D01*
X168000000Y-148350000D02*
X168550000Y-148350000D01*
X168000000Y-148750000D02*
X168000000Y-148350000D01*
X168400000Y-147750000D02*
X168000000Y-148350000D01*
%TO.C,D33*%
X219750000Y-123000000D02*
X220350000Y-123400000D01*
X219750000Y-123400000D02*
X219250000Y-123400000D01*
X219750000Y-123800000D02*
X219750000Y-123000000D01*
X220350000Y-123400000D02*
X219750000Y-123800000D01*
X220350000Y-123400000D02*
X220350000Y-122850000D01*
X220350000Y-123400000D02*
X220350000Y-123950000D01*
X220750000Y-123400000D02*
X220350000Y-123400000D01*
D13*
%TO.C,T2*%
X231000000Y-66000000D02*
X231000000Y-72600000D01*
X231000000Y-72600000D02*
X233850000Y-72600000D01*
X233850000Y-66000000D02*
X231000000Y-66000000D01*
X233850000Y-69300000D02*
X233850000Y-66000000D01*
X233850000Y-69300000D02*
X233850000Y-72600000D01*
X233850000Y-71250000D02*
X233850000Y-67350000D01*
D11*
%TO.C,D26*%
X186600000Y-131200000D02*
X187400000Y-131200000D01*
X187000000Y-131200000D02*
X187000000Y-130700000D01*
X187000000Y-131800000D02*
X186450000Y-131800000D01*
X187000000Y-131800000D02*
X186600000Y-131200000D01*
X187000000Y-131800000D02*
X187550000Y-131800000D01*
X187000000Y-132200000D02*
X187000000Y-131800000D01*
X187400000Y-131200000D02*
X187000000Y-131800000D01*
%TO.C,D19*%
X148600000Y-88100000D02*
X149400000Y-88100000D01*
X149000000Y-88100000D02*
X149000000Y-87600000D01*
X149000000Y-88700000D02*
X148450000Y-88700000D01*
X149000000Y-88700000D02*
X148600000Y-88100000D01*
X149000000Y-88700000D02*
X149550000Y-88700000D01*
X149000000Y-89100000D02*
X149000000Y-88700000D01*
X149400000Y-88100000D02*
X149000000Y-88700000D01*
%TO.C,D3*%
X91600000Y-116650000D02*
X92400000Y-116650000D01*
X92000000Y-116650000D02*
X92000000Y-116150000D01*
X92000000Y-117250000D02*
X91450000Y-117250000D01*
X92000000Y-117250000D02*
X91600000Y-116650000D01*
X92000000Y-117250000D02*
X92550000Y-117250000D01*
X92000000Y-117650000D02*
X92000000Y-117250000D01*
X92400000Y-116650000D02*
X92000000Y-117250000D01*
%TO.C,D2*%
X91600000Y-135700000D02*
X92400000Y-135700000D01*
X92000000Y-135700000D02*
X92000000Y-135200000D01*
X92000000Y-136300000D02*
X91450000Y-136300000D01*
X92000000Y-136300000D02*
X91600000Y-135700000D01*
X92000000Y-136300000D02*
X92550000Y-136300000D01*
X92000000Y-136700000D02*
X92000000Y-136300000D01*
X92400000Y-135700000D02*
X92000000Y-136300000D01*
%TO.C,D7*%
X110600000Y-135700000D02*
X111400000Y-135700000D01*
X111000000Y-135700000D02*
X111000000Y-135200000D01*
X111000000Y-136300000D02*
X110450000Y-136300000D01*
X111000000Y-136300000D02*
X110600000Y-135700000D01*
X111000000Y-136300000D02*
X111550000Y-136300000D01*
X111000000Y-136700000D02*
X111000000Y-136300000D01*
X111400000Y-135700000D02*
X111000000Y-136300000D01*
%TO.C,D23*%
X167600000Y-109650000D02*
X168400000Y-109650000D01*
X168000000Y-109650000D02*
X168000000Y-109150000D01*
X168000000Y-110250000D02*
X167450000Y-110250000D01*
X168000000Y-110250000D02*
X167600000Y-109650000D01*
X168000000Y-110250000D02*
X168550000Y-110250000D01*
X168000000Y-110650000D02*
X168000000Y-110250000D01*
X168400000Y-109650000D02*
X168000000Y-110250000D01*
%TO.C,D5*%
X91600000Y-78550000D02*
X92400000Y-78550000D01*
X92000000Y-78550000D02*
X92000000Y-78050000D01*
X92000000Y-79150000D02*
X91450000Y-79150000D01*
X92000000Y-79150000D02*
X91600000Y-78550000D01*
X92000000Y-79150000D02*
X92550000Y-79150000D01*
X92000000Y-79550000D02*
X92000000Y-79150000D01*
X92400000Y-78550000D02*
X92000000Y-79150000D01*
%TO.C,D6*%
X110600000Y-154750000D02*
X111400000Y-154750000D01*
X111000000Y-154750000D02*
X111000000Y-154250000D01*
X111000000Y-155350000D02*
X110450000Y-155350000D01*
X111000000Y-155350000D02*
X110600000Y-154750000D01*
X111000000Y-155350000D02*
X111550000Y-155350000D01*
X111000000Y-155750000D02*
X111000000Y-155350000D01*
X111400000Y-154750000D02*
X111000000Y-155350000D01*
%TO.C,D17*%
X148600000Y-126200000D02*
X149400000Y-126200000D01*
X149000000Y-126200000D02*
X149000000Y-125700000D01*
X149000000Y-126800000D02*
X148450000Y-126800000D01*
X149000000Y-126800000D02*
X148600000Y-126200000D01*
X149000000Y-126800000D02*
X149550000Y-126800000D01*
X149000000Y-127200000D02*
X149000000Y-126800000D01*
X149400000Y-126200000D02*
X149000000Y-126800000D01*
%TO.C,D20*%
X148600000Y-69050000D02*
X149400000Y-69050000D01*
X149000000Y-69050000D02*
X149000000Y-68550000D01*
X149000000Y-69650000D02*
X148450000Y-69650000D01*
X149000000Y-69650000D02*
X148600000Y-69050000D01*
X149000000Y-69650000D02*
X149550000Y-69650000D01*
X149000000Y-70050000D02*
X149000000Y-69650000D01*
X149400000Y-69050000D02*
X149000000Y-69650000D01*
%TO.C,D15*%
X129600000Y-71550000D02*
X130400000Y-71550000D01*
X130000000Y-71550000D02*
X130000000Y-71050000D01*
X130000000Y-72150000D02*
X129450000Y-72150000D01*
X130000000Y-72150000D02*
X129600000Y-71550000D01*
X130000000Y-72150000D02*
X130550000Y-72150000D01*
X130000000Y-72550000D02*
X130000000Y-72150000D01*
X130400000Y-71550000D02*
X130000000Y-72150000D01*
%TO.C,D28*%
X186600000Y-93100000D02*
X187400000Y-93100000D01*
X187000000Y-93100000D02*
X187000000Y-92600000D01*
X187000000Y-93700000D02*
X186450000Y-93700000D01*
X187000000Y-93700000D02*
X186600000Y-93100000D01*
X187000000Y-93700000D02*
X187550000Y-93700000D01*
X187000000Y-94100000D02*
X187000000Y-93700000D01*
X187400000Y-93100000D02*
X187000000Y-93700000D01*
%TO.C,D25*%
X167600000Y-71550000D02*
X168400000Y-71550000D01*
X168000000Y-71550000D02*
X168000000Y-71050000D01*
X168000000Y-72150000D02*
X167450000Y-72150000D01*
X168000000Y-72150000D02*
X167600000Y-71550000D01*
X168000000Y-72150000D02*
X168550000Y-72150000D01*
X168000000Y-72550000D02*
X168000000Y-72150000D01*
X168400000Y-71550000D02*
X168000000Y-72150000D01*
%TO.C,D29*%
X186600000Y-74050000D02*
X187400000Y-74050000D01*
X187000000Y-74050000D02*
X187000000Y-73550000D01*
X187000000Y-74650000D02*
X186450000Y-74650000D01*
X187000000Y-74650000D02*
X186600000Y-74050000D01*
X187000000Y-74650000D02*
X187550000Y-74650000D01*
X187000000Y-75050000D02*
X187000000Y-74650000D01*
X187400000Y-74050000D02*
X187000000Y-74650000D01*
%TO.C,D30*%
X188656832Y-150414068D02*
X189429573Y-150621123D01*
X188784384Y-151483521D02*
X188887911Y-151097151D01*
X188887911Y-151097151D02*
X188356652Y-150954801D01*
X188887911Y-151097151D02*
X188656832Y-150414068D01*
X188887911Y-151097151D02*
X189419172Y-151239502D01*
X189043203Y-150517596D02*
X189172612Y-150034633D01*
X189429573Y-150621123D02*
X188887911Y-151097151D01*
%TO.C,D14*%
X129600000Y-90600000D02*
X130400000Y-90600000D01*
X130000000Y-90600000D02*
X130000000Y-90100000D01*
X130000000Y-91200000D02*
X129450000Y-91200000D01*
X130000000Y-91200000D02*
X129600000Y-90600000D01*
X130000000Y-91200000D02*
X130550000Y-91200000D01*
X130000000Y-91600000D02*
X130000000Y-91200000D01*
X130400000Y-90600000D02*
X130000000Y-91200000D01*
%TO.C,D12*%
X129600000Y-128700000D02*
X130400000Y-128700000D01*
X130000000Y-128700000D02*
X130000000Y-128200000D01*
X130000000Y-129300000D02*
X129450000Y-129300000D01*
X130000000Y-129300000D02*
X129600000Y-128700000D01*
X130000000Y-129300000D02*
X130550000Y-129300000D01*
X130000000Y-129700000D02*
X130000000Y-129300000D01*
X130400000Y-128700000D02*
X130000000Y-129300000D01*
%TO.C,D32*%
X207351778Y-135701352D02*
X208124519Y-135908407D01*
X207479330Y-136770805D02*
X207582857Y-136384435D01*
X207582857Y-136384435D02*
X207051598Y-136242085D01*
X207582857Y-136384435D02*
X207351778Y-135701352D01*
X207582857Y-136384435D02*
X208114118Y-136526786D01*
X207738149Y-135804880D02*
X207867558Y-135321917D01*
X208124519Y-135908407D02*
X207582857Y-136384435D01*
%TO.C,D9*%
X110600000Y-97600000D02*
X111400000Y-97600000D01*
X111000000Y-97600000D02*
X111000000Y-97100000D01*
X111000000Y-98200000D02*
X110450000Y-98200000D01*
X111000000Y-98200000D02*
X110600000Y-97600000D01*
X111000000Y-98200000D02*
X111550000Y-98200000D01*
X111000000Y-98600000D02*
X111000000Y-98200000D01*
X111400000Y-97600000D02*
X111000000Y-98200000D01*
D12*
%TO.C,LED9*%
X134200000Y-70200000D02*
X135800000Y-70200000D01*
X134200000Y-71800000D02*
X134200000Y-70200000D01*
%TO.C,LED11*%
X153200000Y-105800000D02*
X154800000Y-105800000D01*
X153200000Y-107400000D02*
X153200000Y-105800000D01*
%TO.C,LED5*%
X115200000Y-115300000D02*
X116800000Y-115300000D01*
X115200000Y-116900000D02*
X115200000Y-115300000D01*
%TO.C,LED26*%
X160800000Y-126450000D02*
X160800000Y-128050000D01*
X160800000Y-128050000D02*
X159200000Y-128050000D01*
%TO.C,LED22*%
X122800000Y-135950000D02*
X122800000Y-137550000D01*
X122800000Y-137550000D02*
X121200000Y-137550000D01*
%TO.C,LED1*%
X96200000Y-153400000D02*
X97800000Y-153400000D01*
X96200000Y-155000000D02*
X96200000Y-153400000D01*
%TO.C,LED20*%
X103800000Y-135950000D02*
X103800000Y-137550000D01*
X103800000Y-137550000D02*
X102200000Y-137550000D01*
%TO.C,LED14*%
X172200000Y-108300000D02*
X173800000Y-108300000D01*
X172200000Y-109900000D02*
X172200000Y-108300000D01*
%TO.C,LED17*%
X191200000Y-72700000D02*
X192800000Y-72700000D01*
X191200000Y-74300000D02*
X191200000Y-72700000D01*
%TO.C,LED25*%
X141800000Y-90850000D02*
X141800000Y-92450000D01*
X141800000Y-92450000D02*
X140200000Y-92450000D01*
%TO.C,LED2*%
X96200000Y-115300000D02*
X97800000Y-115300000D01*
X96200000Y-116900000D02*
X96200000Y-115300000D01*
D14*
%TO.C,G\u002A\u002A\u002A*%
G36*
X128172203Y-137900000D02*
G01*
X128172257Y-137909472D01*
X128166894Y-137972090D01*
X128153763Y-137970761D01*
X128146425Y-137937893D01*
X128152281Y-137850761D01*
X128154260Y-137843883D01*
X128166435Y-137837961D01*
X128172203Y-137900000D01*
G37*
G36*
X127042466Y-118894418D02*
G01*
X127338645Y-118954482D01*
X127635044Y-119075498D01*
X127750613Y-119138004D01*
X127944302Y-119261686D01*
X128087610Y-119387808D01*
X128198949Y-119531248D01*
X128211373Y-119550937D01*
X128251090Y-119633308D01*
X128235116Y-119659368D01*
X128164490Y-119629044D01*
X128040250Y-119542265D01*
X127809345Y-119379232D01*
X127555248Y-119238199D01*
X127302740Y-119143418D01*
X126999825Y-119086368D01*
X126726195Y-119097390D01*
X126491859Y-119172014D01*
X126302664Y-119304549D01*
X126164458Y-119489306D01*
X126083087Y-119720594D01*
X126064400Y-119992722D01*
X126114244Y-120300000D01*
X126143526Y-120400840D01*
X126227411Y-120608924D01*
X126345302Y-120795754D01*
X126514886Y-120991872D01*
X126528296Y-121005758D01*
X126808394Y-121235198D01*
X127143970Y-121407254D01*
X127534669Y-121521818D01*
X127980131Y-121578785D01*
X128480000Y-121578046D01*
X128625339Y-121572102D01*
X128800619Y-121571085D01*
X128938468Y-121577345D01*
X129017727Y-121590395D01*
X129059951Y-121607911D01*
X129077737Y-121628861D01*
X129037967Y-121655091D01*
X128931822Y-121697611D01*
X128872510Y-121718272D01*
X128701372Y-121765635D01*
X128534096Y-121798880D01*
X128342174Y-121822221D01*
X127867985Y-121836523D01*
X127433055Y-121783934D01*
X127039261Y-121664952D01*
X126688482Y-121480073D01*
X126382596Y-121229795D01*
X126351201Y-121197652D01*
X126132694Y-120921754D01*
X125972239Y-120619272D01*
X125872619Y-120302512D01*
X125836617Y-119983780D01*
X125867013Y-119675382D01*
X125966591Y-119389625D01*
X126077050Y-119222803D01*
X126263799Y-119059499D01*
X126494188Y-118948970D01*
X126757362Y-118893262D01*
X127042466Y-118894418D01*
G37*
G36*
X121817623Y-119226066D02*
G01*
X122145195Y-119299692D01*
X122447030Y-119424131D01*
X122710638Y-119593149D01*
X122923530Y-119800516D01*
X123073214Y-120040000D01*
X123117036Y-120171742D01*
X123155907Y-120385694D01*
X123174789Y-120626682D01*
X123171709Y-120866146D01*
X123144697Y-121075523D01*
X123068839Y-121309441D01*
X122911046Y-121570592D01*
X122686970Y-121795449D01*
X122400908Y-121980704D01*
X122057153Y-122123049D01*
X121660000Y-122219175D01*
X121464786Y-122246430D01*
X121211422Y-122267221D01*
X120957782Y-122274363D01*
X120717160Y-122268624D01*
X120502849Y-122250769D01*
X120328144Y-122221564D01*
X120206338Y-122181776D01*
X120150725Y-122132172D01*
X120152067Y-122100638D01*
X120191693Y-122072711D01*
X120281503Y-122051376D01*
X120431436Y-122034399D01*
X120651430Y-122019544D01*
X120878488Y-122004732D01*
X121219464Y-121974367D01*
X121522782Y-121937273D01*
X121774331Y-121895278D01*
X121960000Y-121850207D01*
X121960155Y-121850159D01*
X122170111Y-121769724D01*
X122375831Y-121664631D01*
X122552735Y-121549056D01*
X122676240Y-121437174D01*
X122751780Y-121332253D01*
X122860837Y-121095761D01*
X122922373Y-120829057D01*
X122936227Y-120550931D01*
X122902235Y-120280178D01*
X122820236Y-120035589D01*
X122690066Y-119835957D01*
X122679329Y-119824293D01*
X122474289Y-119658306D01*
X122214849Y-119529692D01*
X121918218Y-119442190D01*
X121601604Y-119399539D01*
X121282216Y-119405480D01*
X120977261Y-119463751D01*
X120804607Y-119526780D01*
X120660783Y-119619833D01*
X120593099Y-119731996D01*
X120600128Y-119865969D01*
X120680439Y-120024451D01*
X120727404Y-120097728D01*
X120760379Y-120172034D01*
X120738472Y-120192080D01*
X120661286Y-120160687D01*
X120621893Y-120134180D01*
X120523990Y-120024519D01*
X120449708Y-119884709D01*
X120420150Y-119750631D01*
X120435603Y-119662059D01*
X120519512Y-119531406D01*
X120668430Y-119416337D01*
X120873403Y-119321687D01*
X121125479Y-119252292D01*
X121415705Y-119212986D01*
X121476804Y-119209483D01*
X121817623Y-119226066D01*
G37*
G36*
X122745718Y-137903976D02*
G01*
X122802411Y-138001493D01*
X122879490Y-138145990D01*
X122971508Y-138326362D01*
X123073019Y-138531503D01*
X123178573Y-138750305D01*
X123282724Y-138971662D01*
X123380024Y-139184468D01*
X123465025Y-139377616D01*
X123532280Y-139540000D01*
X123657351Y-139866907D01*
X123809707Y-140310033D01*
X123924711Y-140719328D01*
X124003957Y-141110423D01*
X124049039Y-141498950D01*
X124061549Y-141900539D01*
X124043080Y-142330823D01*
X123995226Y-142805433D01*
X123919580Y-143340000D01*
X123856434Y-143773096D01*
X123792987Y-144322321D01*
X123756318Y-144834732D01*
X123745545Y-145332378D01*
X123759784Y-145837308D01*
X123798152Y-146371571D01*
X123815897Y-146578881D01*
X123842957Y-146952501D01*
X123861632Y-147297309D01*
X123871805Y-147604860D01*
X123873357Y-147866709D01*
X123866170Y-148074412D01*
X123850124Y-148219523D01*
X123825103Y-148293598D01*
X123797574Y-148323548D01*
X123743747Y-148358415D01*
X123725143Y-148339154D01*
X123757732Y-148271099D01*
X123783164Y-148218513D01*
X123811982Y-148063743D01*
X123818094Y-147832805D01*
X123801503Y-147525519D01*
X123762209Y-147141703D01*
X123748238Y-147016365D01*
X123724390Y-146771763D01*
X123699913Y-146489551D01*
X123676999Y-146195470D01*
X123657837Y-145915261D01*
X123638244Y-145427073D01*
X123645988Y-144737369D01*
X123693755Y-144066342D01*
X123780260Y-143440000D01*
X123857250Y-142969516D01*
X123914401Y-142521513D01*
X123945192Y-142122418D01*
X123950230Y-141758627D01*
X123930122Y-141416535D01*
X123885475Y-141082539D01*
X123872075Y-141004798D01*
X123841229Y-140840388D01*
X123807787Y-140690209D01*
X123765997Y-140531755D01*
X123710106Y-140342520D01*
X123634362Y-140100000D01*
X123607209Y-140018161D01*
X123526410Y-139796394D01*
X123421600Y-139528193D01*
X123300147Y-139231083D01*
X123169417Y-138922588D01*
X123036779Y-138620232D01*
X122909600Y-138341540D01*
X122795246Y-138104035D01*
X122757962Y-138023800D01*
X122720178Y-137922829D01*
X122711283Y-137866153D01*
X122714860Y-137864548D01*
X122745718Y-137903976D01*
G37*
G36*
X102015779Y-143531447D02*
G01*
X102015917Y-143544176D01*
X102003362Y-143665230D01*
X101969807Y-143848167D01*
X101918270Y-144080670D01*
X101851764Y-144350422D01*
X101773307Y-144645105D01*
X101685912Y-144952403D01*
X101592596Y-145260000D01*
X101580480Y-145298400D01*
X101335292Y-145992772D01*
X101064119Y-146611898D01*
X100766606Y-147156294D01*
X100442401Y-147626475D01*
X100091150Y-148022958D01*
X99712499Y-148346258D01*
X99306095Y-148596890D01*
X99190143Y-148651109D01*
X98954009Y-148744492D01*
X98684681Y-148835689D01*
X98410549Y-148915355D01*
X98160000Y-148974145D01*
X97996728Y-149005520D01*
X97767882Y-149047532D01*
X97532519Y-149089010D01*
X97311908Y-149126296D01*
X97127312Y-149155732D01*
X97000000Y-149173659D01*
X96903836Y-149185089D01*
X96827640Y-149194006D01*
X96805949Y-149191620D01*
X96803285Y-149154685D01*
X96800723Y-149132458D01*
X96740673Y-149125199D01*
X96611275Y-149136860D01*
X96526399Y-149144625D01*
X96382128Y-149146685D01*
X96275630Y-149134651D01*
X96160000Y-149104952D01*
X96260000Y-149076463D01*
X96322336Y-149064435D01*
X96452640Y-149050871D01*
X96601662Y-149043987D01*
X96821760Y-149034540D01*
X97228297Y-148992955D01*
X97657050Y-148923247D01*
X98087606Y-148830060D01*
X98499552Y-148718038D01*
X98872474Y-148591825D01*
X99185959Y-148456065D01*
X99420765Y-148323318D01*
X99797840Y-148046040D01*
X100151399Y-147705475D01*
X100469866Y-147311940D01*
X100524564Y-147230056D01*
X100618704Y-147076053D01*
X100726524Y-146889336D01*
X100838876Y-146686786D01*
X100946611Y-146485284D01*
X101040580Y-146301708D01*
X101111635Y-146152941D01*
X101150626Y-146055861D01*
X101154038Y-146045361D01*
X101185768Y-145960441D01*
X101237522Y-145830802D01*
X101299942Y-145680000D01*
X101369057Y-145504006D01*
X101455737Y-145262693D01*
X101548839Y-144987346D01*
X101641031Y-144700256D01*
X101724983Y-144423711D01*
X101793362Y-144180000D01*
X101797246Y-144165332D01*
X101874088Y-143882982D01*
X101934288Y-143678636D01*
X101977920Y-143552078D01*
X102005059Y-143503087D01*
X102015779Y-143531447D01*
G37*
G36*
X128523062Y-141598271D02*
G01*
X128556653Y-141677312D01*
X128609053Y-141831795D01*
X128783641Y-142411623D01*
X128973457Y-143161444D01*
X129110144Y-143870065D01*
X129192727Y-144532195D01*
X129220228Y-145142543D01*
X129219609Y-145219303D01*
X129179877Y-145812873D01*
X129079437Y-146443498D01*
X128920001Y-147100000D01*
X128843245Y-147373315D01*
X128734693Y-147770682D01*
X128647370Y-148108713D01*
X128579223Y-148397888D01*
X128528201Y-148648687D01*
X128492250Y-148871591D01*
X128469318Y-149077079D01*
X128457351Y-149275631D01*
X128454299Y-149477726D01*
X128454632Y-149509832D01*
X128468400Y-149757935D01*
X128499664Y-150038249D01*
X128544877Y-150332088D01*
X128600493Y-150620764D01*
X128662964Y-150885590D01*
X128728744Y-151107880D01*
X128794285Y-151268947D01*
X128794513Y-151269388D01*
X128840772Y-151395798D01*
X128860000Y-151521346D01*
X128858051Y-151572516D01*
X128839987Y-151632748D01*
X128804330Y-151618959D01*
X128752731Y-151533537D01*
X128686838Y-151378867D01*
X128608301Y-151157334D01*
X128588453Y-151096872D01*
X128456024Y-150645442D01*
X128366585Y-150232145D01*
X128316000Y-149833758D01*
X128300134Y-149427059D01*
X128300278Y-149382740D01*
X128305542Y-149168253D01*
X128320006Y-148959860D01*
X128345881Y-148745821D01*
X128385384Y-148514395D01*
X128440729Y-148253840D01*
X128514129Y-147952417D01*
X128607801Y-147598384D01*
X128723957Y-147180000D01*
X128800277Y-146889263D01*
X128901063Y-146425398D01*
X128978095Y-145962613D01*
X129029011Y-145518835D01*
X129051447Y-145111989D01*
X129043040Y-144760000D01*
X129023445Y-144509149D01*
X129005041Y-144284537D01*
X128989112Y-144109369D01*
X128973910Y-143967488D01*
X128957681Y-143842738D01*
X128938675Y-143718960D01*
X128915142Y-143580000D01*
X128911126Y-143557076D01*
X128869321Y-143333217D01*
X128820611Y-143091357D01*
X128774723Y-142880000D01*
X128768470Y-142852709D01*
X128723272Y-142655409D01*
X128678108Y-142458190D01*
X128641897Y-142300000D01*
X128631659Y-142255071D01*
X128573599Y-141991029D01*
X128533549Y-141791053D01*
X128511670Y-141657417D01*
X128508121Y-141592398D01*
X128523062Y-141598271D01*
G37*
G36*
X132744335Y-141704517D02*
G01*
X132793673Y-141787764D01*
X132812543Y-141830553D01*
X132857477Y-141969999D01*
X132902446Y-142149750D01*
X132941694Y-142342826D01*
X132969465Y-142522248D01*
X132980000Y-142661037D01*
X132978907Y-142725640D01*
X132954136Y-143021218D01*
X132900777Y-143359672D01*
X132824218Y-143717889D01*
X132729848Y-144072758D01*
X132623057Y-144401165D01*
X132509233Y-144680000D01*
X132508872Y-144680770D01*
X132445388Y-144804317D01*
X132357811Y-144959645D01*
X132256647Y-145129811D01*
X132152405Y-145297873D01*
X132055591Y-145446887D01*
X131976713Y-145559910D01*
X131926279Y-145620000D01*
X131910771Y-145634634D01*
X131845485Y-145705355D01*
X131765206Y-145800000D01*
X131732029Y-145838791D01*
X131641860Y-145939859D01*
X131512040Y-146082645D01*
X131351732Y-146257149D01*
X131170095Y-146453369D01*
X130976291Y-146661304D01*
X130734762Y-146922451D01*
X130505447Y-147179345D01*
X130316419Y-147404253D01*
X130158241Y-147609496D01*
X130021475Y-147807396D01*
X129896684Y-148010274D01*
X129774431Y-148230450D01*
X129743319Y-148290255D01*
X129589871Y-148626435D01*
X129451462Y-148994762D01*
X129339190Y-149363272D01*
X129264154Y-149700000D01*
X129248436Y-149792270D01*
X129213849Y-149994374D01*
X129181915Y-150180000D01*
X129170719Y-150261042D01*
X129155013Y-150439646D01*
X129144111Y-150649392D01*
X129139884Y-150860000D01*
X129138684Y-150990343D01*
X129133108Y-151198727D01*
X129124068Y-151384911D01*
X129112751Y-151520000D01*
X129086197Y-151740000D01*
X129032544Y-151608920D01*
X129009128Y-151509674D01*
X128992748Y-151340148D01*
X128985129Y-151120879D01*
X128985780Y-150867265D01*
X128994211Y-150594706D01*
X129009928Y-150318604D01*
X129032443Y-150054358D01*
X129061262Y-149817368D01*
X129095895Y-149623034D01*
X129114830Y-149539616D01*
X129229081Y-149100238D01*
X129362110Y-148700227D01*
X129520829Y-148327752D01*
X129712151Y-147970981D01*
X129942992Y-147618085D01*
X130220264Y-147257231D01*
X130550881Y-146876590D01*
X130941757Y-146464330D01*
X131227928Y-146168139D01*
X131517618Y-145855375D01*
X131759910Y-145575289D01*
X131962301Y-145317653D01*
X132132285Y-145072239D01*
X132277359Y-144828819D01*
X132405017Y-144577166D01*
X132522756Y-144307051D01*
X132533479Y-144280435D01*
X132652864Y-143933834D01*
X132747057Y-143564760D01*
X132814355Y-143188913D01*
X132853052Y-142821995D01*
X132861446Y-142479708D01*
X132837832Y-142177751D01*
X132780507Y-141931827D01*
X132754422Y-141854052D01*
X132724200Y-141743229D01*
X132721007Y-141691528D01*
X132744335Y-141704517D01*
G37*
G36*
X128136220Y-138248477D02*
G01*
X128133428Y-138331700D01*
X128110454Y-138520658D01*
X128067914Y-138760277D01*
X128009620Y-139034921D01*
X127939380Y-139328959D01*
X127861006Y-139626755D01*
X127778308Y-139912676D01*
X127695097Y-140171088D01*
X127615181Y-140386358D01*
X127523100Y-140609195D01*
X127361957Y-140983653D01*
X127202557Y-141330323D01*
X127033446Y-141672844D01*
X126843174Y-142034857D01*
X126620288Y-142440000D01*
X126558165Y-142551423D01*
X126459458Y-142729647D01*
X126372840Y-142887380D01*
X126311870Y-143000000D01*
X126283790Y-143052285D01*
X126207191Y-143193212D01*
X126113310Y-143364481D01*
X126016423Y-143540000D01*
X125890352Y-143771644D01*
X125706435Y-144122003D01*
X125517943Y-144493618D01*
X125332185Y-144871330D01*
X125156472Y-145239983D01*
X124998111Y-145584417D01*
X124864413Y-145889475D01*
X124762687Y-146140000D01*
X124758269Y-146151567D01*
X124701592Y-146299240D01*
X124653234Y-146424035D01*
X124623246Y-146500000D01*
X124547689Y-146693414D01*
X124458666Y-146943521D01*
X124364898Y-147232539D01*
X124259813Y-147580000D01*
X124239689Y-147647829D01*
X124176338Y-147855902D01*
X124117634Y-148041211D01*
X124069381Y-148185711D01*
X124037385Y-148271357D01*
X124032509Y-148282723D01*
X123995266Y-148386079D01*
X123980000Y-148459474D01*
X123968404Y-148522328D01*
X123933503Y-148618286D01*
X123898317Y-148686169D01*
X123876619Y-148709951D01*
X123875784Y-148708061D01*
X123880874Y-148655070D01*
X123901927Y-148544154D01*
X123935109Y-148392252D01*
X123976584Y-148216300D01*
X124022517Y-148033237D01*
X124069073Y-147860000D01*
X124136608Y-147621531D01*
X124276764Y-147145748D01*
X124407646Y-146730882D01*
X124533337Y-146364799D01*
X124657920Y-146035362D01*
X124785478Y-145730435D01*
X124807904Y-145678404D01*
X124845247Y-145585715D01*
X124860000Y-145539297D01*
X124864847Y-145522156D01*
X124897846Y-145442020D01*
X124956761Y-145310642D01*
X125035352Y-145141386D01*
X125127375Y-144947617D01*
X125226587Y-144742700D01*
X125326748Y-144540000D01*
X125459600Y-144279570D01*
X125623742Y-143967136D01*
X125800745Y-143637668D01*
X125978554Y-143313365D01*
X126145116Y-143016426D01*
X126288375Y-142769052D01*
X126302042Y-142745826D01*
X126376247Y-142615309D01*
X126438375Y-142500000D01*
X126460744Y-142457376D01*
X126529034Y-142332125D01*
X126603555Y-142200000D01*
X126610343Y-142188189D01*
X126944904Y-141575685D01*
X127242709Y-140969539D01*
X127496370Y-140385670D01*
X127698502Y-139840000D01*
X127718072Y-139781048D01*
X127780122Y-139588163D01*
X127833508Y-139408951D01*
X127883008Y-139224972D01*
X127933399Y-139017782D01*
X127989458Y-138768939D01*
X128055962Y-138460000D01*
X128089233Y-138311208D01*
X128114826Y-138219182D01*
X128130045Y-138199438D01*
X128136220Y-138248477D01*
G37*
G36*
X130974537Y-109530783D02*
G01*
X131285452Y-109573046D01*
X131622069Y-109647775D01*
X131972607Y-109753231D01*
X132325288Y-109887676D01*
X132442968Y-109950129D01*
X132607978Y-110067148D01*
X132780973Y-110215135D01*
X132949788Y-110381156D01*
X133102262Y-110552275D01*
X133226230Y-110715555D01*
X133309531Y-110858061D01*
X133340000Y-110966857D01*
X133346543Y-111006820D01*
X133380000Y-111040000D01*
X133402350Y-111045949D01*
X133417039Y-111101587D01*
X133383961Y-111217206D01*
X133302723Y-111394606D01*
X133150346Y-111628872D01*
X132925536Y-111842385D01*
X132652602Y-111996558D01*
X132340000Y-112085324D01*
X132282541Y-112091563D01*
X132139409Y-112098853D01*
X131945957Y-112103035D01*
X131720162Y-112103786D01*
X131480000Y-112100783D01*
X131304203Y-112096845D01*
X131090991Y-112089731D01*
X130924328Y-112078784D01*
X130784055Y-112061229D01*
X130650015Y-112034294D01*
X130502049Y-111995206D01*
X130320000Y-111941190D01*
X130168819Y-111893842D01*
X129960173Y-111823350D01*
X129778608Y-111756148D01*
X129633966Y-111696394D01*
X129536089Y-111648243D01*
X129494820Y-111615852D01*
X129520000Y-111603376D01*
X129581578Y-111606776D01*
X129675793Y-111622846D01*
X129808627Y-111654794D01*
X129992543Y-111705650D01*
X130240000Y-111778446D01*
X130721608Y-111899496D01*
X131250705Y-111977617D01*
X131753608Y-111992595D01*
X132220000Y-111943571D01*
X132420883Y-111900096D01*
X132676239Y-111813162D01*
X132879971Y-111692789D01*
X133048298Y-111528459D01*
X133197441Y-111309653D01*
X133197985Y-111308717D01*
X133259598Y-111199035D01*
X133283541Y-111134827D01*
X133272744Y-111092797D01*
X133230136Y-111049653D01*
X133218474Y-111038553D01*
X133148226Y-110961649D01*
X133051517Y-110846561D01*
X132945645Y-110713715D01*
X132938116Y-110704031D01*
X132757758Y-110486999D01*
X132591244Y-110322501D01*
X132417515Y-110192194D01*
X132215513Y-110077734D01*
X132172184Y-110056547D01*
X132010826Y-109985653D01*
X131833442Y-109916798D01*
X131662229Y-109857787D01*
X131519382Y-109816425D01*
X131427097Y-109800516D01*
X131420604Y-109800878D01*
X131408452Y-109829355D01*
X131457181Y-109905501D01*
X131480373Y-109937579D01*
X131568990Y-110120698D01*
X131628963Y-110346763D01*
X131656738Y-110588544D01*
X131648757Y-110818809D01*
X131601464Y-111010327D01*
X131546241Y-111112776D01*
X131401601Y-111260064D01*
X131208781Y-111353025D01*
X130977957Y-111387629D01*
X130719303Y-111359843D01*
X130568372Y-111318546D01*
X130294509Y-111194322D01*
X130079747Y-111021662D01*
X129927874Y-110804085D01*
X129842679Y-110545112D01*
X129814542Y-110390224D01*
X129727271Y-110510675D01*
X129715770Y-110526451D01*
X129626308Y-110645697D01*
X129533266Y-110765562D01*
X129513048Y-110792722D01*
X129437432Y-110909771D01*
X129348035Y-111064047D01*
X129260155Y-111229562D01*
X129232993Y-111282833D01*
X129137490Y-111459132D01*
X129069706Y-111564946D01*
X129030922Y-111599901D01*
X129022421Y-111563621D01*
X129045484Y-111455735D01*
X129101393Y-111275867D01*
X129117669Y-111229261D01*
X129196864Y-111032771D01*
X129288490Y-110841158D01*
X129380454Y-110678249D01*
X129460665Y-110567875D01*
X129499000Y-110521576D01*
X129574844Y-110420309D01*
X129659387Y-110300000D01*
X129742077Y-110185587D01*
X129897834Y-109996687D01*
X130062073Y-109823955D01*
X130217896Y-109684654D01*
X130348407Y-109596047D01*
X130476931Y-109550602D01*
X130701103Y-109522722D01*
X130974537Y-109530783D01*
G37*
G36*
X117156999Y-141461711D02*
G01*
X117192223Y-141488253D01*
X117308694Y-141612164D01*
X117438418Y-141793812D01*
X117573479Y-142019308D01*
X117705955Y-142274765D01*
X117827927Y-142546291D01*
X117931477Y-142820000D01*
X117998122Y-143017783D01*
X118057084Y-143202613D01*
X118099494Y-143358547D01*
X118128056Y-143503734D01*
X118145473Y-143656323D01*
X118154447Y-143834465D01*
X118157684Y-144056307D01*
X118157886Y-144340000D01*
X118157165Y-144550746D01*
X118153925Y-144792551D01*
X118146620Y-144986509D01*
X118133636Y-145151426D01*
X118113357Y-145306109D01*
X118084165Y-145469365D01*
X118044445Y-145660000D01*
X118035053Y-145703298D01*
X117993257Y-145892357D01*
X117957399Y-146048896D01*
X117931034Y-146157670D01*
X117917717Y-146203433D01*
X117908833Y-146237831D01*
X117890058Y-146337664D01*
X117865239Y-146485237D01*
X117837364Y-146663433D01*
X117806594Y-146894937D01*
X117773373Y-147433756D01*
X117802743Y-147940171D01*
X117897237Y-148429537D01*
X118059388Y-148917210D01*
X118291727Y-149418546D01*
X118308102Y-149449779D01*
X118436585Y-149685850D01*
X118561192Y-149892801D01*
X118689509Y-150077034D01*
X118829122Y-150244949D01*
X118987619Y-150402949D01*
X119172586Y-150557435D01*
X119391610Y-150714807D01*
X119652277Y-150881467D01*
X119962173Y-151063817D01*
X120328885Y-151268257D01*
X120760000Y-151501189D01*
X120855589Y-151552459D01*
X121017416Y-151639743D01*
X121152935Y-151713423D01*
X121240000Y-151761490D01*
X121400023Y-151852037D01*
X121575091Y-151952555D01*
X121709366Y-152031974D01*
X121820000Y-152100314D01*
X121847198Y-152117474D01*
X121963396Y-152190343D01*
X122113458Y-152284035D01*
X122271890Y-152382627D01*
X122338338Y-152424461D01*
X122472799Y-152512762D01*
X122574991Y-152584848D01*
X122626788Y-152628178D01*
X122647652Y-152656736D01*
X122647115Y-152672141D01*
X122611900Y-152663529D01*
X122535129Y-152627627D01*
X122409929Y-152561160D01*
X122229422Y-152460856D01*
X121986733Y-152323441D01*
X121936716Y-152295017D01*
X121622472Y-152117838D01*
X121321875Y-151950648D01*
X121046030Y-151799486D01*
X120806041Y-151670395D01*
X120613012Y-151569417D01*
X120478048Y-151502593D01*
X120376613Y-151451586D01*
X120202310Y-151355983D01*
X120001038Y-151239672D01*
X119795256Y-151115957D01*
X119607424Y-150998144D01*
X119460000Y-150899535D01*
X119353676Y-150825180D01*
X119175375Y-150702514D01*
X119011903Y-150592042D01*
X118901579Y-150508398D01*
X118760649Y-150376743D01*
X118654543Y-150249972D01*
X118598144Y-150168758D01*
X118534462Y-150081768D01*
X118499304Y-150040000D01*
X118478469Y-150015876D01*
X118423987Y-149934219D01*
X118353072Y-149817119D01*
X118277471Y-149685244D01*
X118208929Y-149559264D01*
X118159190Y-149459851D01*
X118140000Y-149407673D01*
X118137623Y-149391370D01*
X118100763Y-149360000D01*
X118066456Y-149329548D01*
X118035247Y-149250000D01*
X118009010Y-149165901D01*
X117973848Y-149095134D01*
X117935385Y-149023419D01*
X117883021Y-148887544D01*
X117825508Y-148710336D01*
X117768677Y-148511100D01*
X117718360Y-148309142D01*
X117680391Y-148123766D01*
X117643130Y-147860542D01*
X117623092Y-147391158D01*
X117663054Y-146900000D01*
X117666827Y-146872567D01*
X117684426Y-146752847D01*
X117704906Y-146629852D01*
X117730767Y-146491133D01*
X117764506Y-146324239D01*
X117808623Y-146116719D01*
X117865616Y-145856123D01*
X117937983Y-145530000D01*
X118027548Y-145028264D01*
X118074945Y-144403682D01*
X118048199Y-143797877D01*
X117947557Y-143215199D01*
X117773271Y-142660000D01*
X117768820Y-142648665D01*
X117667465Y-142412194D01*
X117550092Y-142170985D01*
X117427514Y-141945027D01*
X117310545Y-141754309D01*
X117210000Y-141618823D01*
X117206094Y-141614362D01*
X117107594Y-141496004D01*
X117066792Y-141431741D01*
X117083367Y-141420626D01*
X117156999Y-141461711D01*
G37*
G36*
X118992182Y-140639107D02*
G01*
X119075112Y-140788645D01*
X119101019Y-140852354D01*
X119168625Y-141006663D01*
X119247215Y-141175015D01*
X119328123Y-141339966D01*
X119402683Y-141484076D01*
X119462229Y-141589901D01*
X119498096Y-141640000D01*
X119519593Y-141666892D01*
X119572229Y-141747674D01*
X119639101Y-141859374D01*
X119689089Y-141944306D01*
X119750453Y-142044084D01*
X119787983Y-142099374D01*
X119806776Y-142122954D01*
X119888108Y-142233360D01*
X120001342Y-142394752D01*
X120138216Y-142594789D01*
X120290469Y-142821127D01*
X120449839Y-143061427D01*
X120608064Y-143303346D01*
X120756882Y-143534542D01*
X120888031Y-143742673D01*
X120935763Y-143823986D01*
X121070285Y-144100123D01*
X121194517Y-144423877D01*
X121230539Y-144548553D01*
X121281511Y-144844680D01*
X121300412Y-145167597D01*
X121286216Y-145485570D01*
X121237898Y-145766865D01*
X121202155Y-145913388D01*
X121146062Y-146180250D01*
X121096244Y-146460274D01*
X121056257Y-146730837D01*
X121029657Y-146969317D01*
X121020000Y-147153091D01*
X121020257Y-147181546D01*
X121032938Y-147399795D01*
X121062019Y-147664966D01*
X121103746Y-147950859D01*
X121154365Y-148231270D01*
X121210120Y-148480000D01*
X121243408Y-148613069D01*
X121271118Y-148728515D01*
X121284951Y-148792245D01*
X121285878Y-148797507D01*
X121312615Y-148899756D01*
X121363883Y-149060620D01*
X121434387Y-149265811D01*
X121518834Y-149501036D01*
X121611929Y-149752006D01*
X121708377Y-150004430D01*
X121802884Y-150244017D01*
X121890156Y-150456478D01*
X121964898Y-150627522D01*
X122004930Y-150716754D01*
X122044634Y-150810681D01*
X122060000Y-150855118D01*
X122060510Y-150857892D01*
X122083552Y-150915713D01*
X122140136Y-151043032D01*
X122229258Y-151237652D01*
X122349913Y-151497374D01*
X122501095Y-151820000D01*
X122505414Y-151829240D01*
X122560463Y-151951814D01*
X122630186Y-152112834D01*
X122700576Y-152280000D01*
X122716168Y-152317620D01*
X122775312Y-152459932D01*
X122821808Y-152571208D01*
X122846699Y-152630000D01*
X122854195Y-152651183D01*
X122849924Y-152680000D01*
X122824157Y-152649788D01*
X122768760Y-152562936D01*
X122692467Y-152434174D01*
X122603586Y-152278300D01*
X122510426Y-152110113D01*
X122421293Y-151944411D01*
X122344497Y-151795994D01*
X122288343Y-151679660D01*
X122283816Y-151669659D01*
X122225283Y-151542467D01*
X122143539Y-151367266D01*
X122048790Y-151165847D01*
X121951244Y-150960000D01*
X121850835Y-150744162D01*
X121741700Y-150500833D01*
X121641567Y-150269480D01*
X121563606Y-150080000D01*
X121521754Y-149973827D01*
X121458503Y-149813541D01*
X121408161Y-149686175D01*
X121378929Y-149612488D01*
X121363245Y-149571196D01*
X121316633Y-149438403D01*
X121258177Y-149263469D01*
X121195509Y-149069811D01*
X121136260Y-148880848D01*
X121088064Y-148720000D01*
X121046973Y-148569069D01*
X120949892Y-148113831D01*
X120887709Y-147650956D01*
X120861787Y-147199624D01*
X120873483Y-146779016D01*
X120924159Y-146408313D01*
X120929698Y-146381594D01*
X120961225Y-146225631D01*
X120986057Y-146096535D01*
X120999229Y-146020000D01*
X121013260Y-145944141D01*
X121040605Y-145816917D01*
X121075071Y-145667517D01*
X121095121Y-145574305D01*
X121135986Y-145218093D01*
X121124156Y-144867217D01*
X121060004Y-144549429D01*
X121015325Y-144421888D01*
X120916503Y-144188504D01*
X120794568Y-143937766D01*
X120663892Y-143698616D01*
X120538850Y-143500000D01*
X120515526Y-143466228D01*
X120416579Y-143319222D01*
X120325965Y-143180000D01*
X120277754Y-143105987D01*
X120179617Y-142961234D01*
X120080192Y-142820000D01*
X119798348Y-142416734D01*
X119512997Y-141977072D01*
X119271247Y-141567607D01*
X119077940Y-141196596D01*
X118937918Y-140872295D01*
X118888990Y-140756033D01*
X118829564Y-140664849D01*
X118766286Y-140629332D01*
X118735277Y-140623364D01*
X118706263Y-140608155D01*
X118750090Y-140582723D01*
X118772456Y-140573759D01*
X118891327Y-140567498D01*
X118992182Y-140639107D01*
G37*
G36*
X114158411Y-110921665D02*
G01*
X114293415Y-111073529D01*
X114404070Y-111197322D01*
X114518059Y-111330354D01*
X114685942Y-111551729D01*
X114824309Y-111766550D01*
X114926240Y-111962471D01*
X114984817Y-112127147D01*
X114993118Y-112248233D01*
X114945958Y-112345340D01*
X114840854Y-112442155D01*
X114707029Y-112501310D01*
X114663046Y-112512062D01*
X114553832Y-112539838D01*
X114420000Y-112574615D01*
X114295510Y-112602503D01*
X114104533Y-112635474D01*
X113920000Y-112658584D01*
X113912270Y-112659332D01*
X113759641Y-112679140D01*
X113556316Y-112712002D01*
X113327900Y-112753522D01*
X113100000Y-112799308D01*
X113034531Y-112813201D01*
X112818539Y-112858618D01*
X112659673Y-112889279D01*
X112540951Y-112906171D01*
X112445392Y-112910281D01*
X112356018Y-112902594D01*
X112255846Y-112884098D01*
X112127897Y-112855778D01*
X111888010Y-112787829D01*
X111539990Y-112648934D01*
X111173532Y-112461926D01*
X110806400Y-112235146D01*
X110752505Y-112198167D01*
X110579756Y-112072246D01*
X110410930Y-111939527D01*
X110258284Y-111810638D01*
X110134076Y-111696208D01*
X110050562Y-111606866D01*
X110020000Y-111553239D01*
X110020132Y-111549669D01*
X110051915Y-111522769D01*
X110131132Y-111544721D01*
X110245480Y-111612305D01*
X110398951Y-111719121D01*
X110751315Y-111959573D01*
X111053172Y-112156325D01*
X111313425Y-112313500D01*
X111540982Y-112435224D01*
X111744747Y-112525621D01*
X111933625Y-112588815D01*
X112116524Y-112628930D01*
X112302347Y-112650090D01*
X112500000Y-112656421D01*
X112541930Y-112656123D01*
X112761679Y-112645606D01*
X112980933Y-112622906D01*
X113160000Y-112591904D01*
X113339049Y-112554415D01*
X113557414Y-112515090D01*
X113760000Y-112484169D01*
X113816853Y-112476450D01*
X114078917Y-112437595D01*
X114327969Y-112395752D01*
X114547403Y-112354035D01*
X114720612Y-112315555D01*
X114830989Y-112283426D01*
X114940295Y-112241868D01*
X114810148Y-112060102D01*
X114760406Y-111991213D01*
X114627670Y-111811695D01*
X114484711Y-111623262D01*
X114339835Y-111436340D01*
X114201347Y-111261354D01*
X114077553Y-111108730D01*
X113976758Y-110988892D01*
X113907268Y-110912266D01*
X113877388Y-110889278D01*
X113876691Y-110890605D01*
X113877582Y-110941212D01*
X113889131Y-111047535D01*
X113909138Y-111188815D01*
X113924318Y-111296342D01*
X113933942Y-111436190D01*
X113922087Y-111552977D01*
X113887226Y-111681035D01*
X113862070Y-111751570D01*
X113798652Y-111895858D01*
X113735198Y-112006744D01*
X113622402Y-112133974D01*
X113478186Y-112248846D01*
X113330684Y-112329600D01*
X113203999Y-112360197D01*
X113113872Y-112353080D01*
X112905156Y-112296070D01*
X112691754Y-112192260D01*
X112501964Y-112053992D01*
X112466706Y-112020737D01*
X112334625Y-111854154D01*
X112240531Y-111648694D01*
X112179956Y-111391941D01*
X112148432Y-111071476D01*
X112146233Y-111027085D01*
X112141933Y-110862380D01*
X112147555Y-110780000D01*
X113740000Y-110780000D01*
X113760000Y-110800000D01*
X113780000Y-110780000D01*
X113760000Y-110760000D01*
X113740000Y-110780000D01*
X112147555Y-110780000D01*
X112149683Y-110748812D01*
X112172608Y-110662977D01*
X112213829Y-110581476D01*
X112233512Y-110547837D01*
X112270729Y-110475262D01*
X112267366Y-110445649D01*
X112224914Y-110440000D01*
X112180967Y-110443728D01*
X112033387Y-110483413D01*
X111848894Y-110558634D01*
X111646250Y-110659589D01*
X111444218Y-110776475D01*
X111261561Y-110899489D01*
X111117040Y-111018828D01*
X111078617Y-111045028D01*
X110981868Y-111096548D01*
X110857040Y-111154559D01*
X110761891Y-111196455D01*
X110644827Y-111249269D01*
X110571563Y-111283922D01*
X110570629Y-111284388D01*
X110496564Y-111308313D01*
X110370695Y-111337425D01*
X110219728Y-111365527D01*
X110121997Y-111380409D01*
X109975473Y-111393856D01*
X109902047Y-111383612D01*
X109902102Y-111348849D01*
X109976018Y-111288740D01*
X110124177Y-111202458D01*
X110346958Y-111089176D01*
X110363241Y-111081193D01*
X110566575Y-110976710D01*
X110761416Y-110868745D01*
X110926360Y-110769582D01*
X111040000Y-110691502D01*
X111186842Y-110581594D01*
X111557856Y-110353728D01*
X111924269Y-110203174D01*
X112291377Y-110128641D01*
X112664473Y-110128840D01*
X113048853Y-110202484D01*
X113289613Y-110279298D01*
X113575823Y-110407041D01*
X113814099Y-110566472D01*
X114022536Y-110768102D01*
X114027519Y-110773751D01*
X114033049Y-110780000D01*
X114158411Y-110921665D01*
G37*
G36*
X124136882Y-115517048D02*
G01*
X124494703Y-115531877D01*
X124816396Y-115559570D01*
X125080543Y-115600111D01*
X125172457Y-115619217D01*
X125321002Y-115651774D01*
X125454486Y-115684636D01*
X125591018Y-115723038D01*
X125748708Y-115772220D01*
X125945666Y-115837418D01*
X126200000Y-115923869D01*
X126247690Y-115939981D01*
X126458322Y-116007829D01*
X126673436Y-116072886D01*
X126853155Y-116122996D01*
X126859926Y-116124765D01*
X127020765Y-116173865D01*
X127163995Y-116229340D01*
X127259330Y-116279522D01*
X127270190Y-116287163D01*
X127351971Y-116338849D01*
X127400943Y-116360000D01*
X127401195Y-116360005D01*
X127448303Y-116379941D01*
X127542778Y-116431148D01*
X127664442Y-116502698D01*
X127684275Y-116515526D01*
X127793816Y-116599468D01*
X127945191Y-116728843D01*
X128127918Y-116893519D01*
X128331513Y-117083368D01*
X128545492Y-117288261D01*
X128759374Y-117498067D01*
X128962674Y-117702658D01*
X129144910Y-117891903D01*
X129295599Y-118055673D01*
X129404257Y-118183839D01*
X129500763Y-118317079D01*
X129691527Y-118645423D01*
X129871876Y-119044148D01*
X130039418Y-119506992D01*
X130191766Y-120027696D01*
X130326528Y-120600000D01*
X130342824Y-120690461D01*
X130366026Y-120874811D01*
X130383680Y-121086319D01*
X130395480Y-121309727D01*
X130401121Y-121529782D01*
X130400298Y-121731228D01*
X130392706Y-121898810D01*
X130378038Y-122017273D01*
X130355989Y-122071360D01*
X130313325Y-122115923D01*
X130259521Y-122200000D01*
X130186334Y-122321592D01*
X130047187Y-122516144D01*
X129865751Y-122745035D01*
X129651764Y-122997636D01*
X129414963Y-123263317D01*
X129165086Y-123531449D01*
X128911870Y-123791403D01*
X128665053Y-124032549D01*
X128434372Y-124244258D01*
X128229564Y-124415900D01*
X128199881Y-124439561D01*
X128088029Y-124536038D01*
X128009584Y-124615509D01*
X127980000Y-124662691D01*
X127973599Y-124677984D01*
X127918445Y-124738838D01*
X127818963Y-124825677D01*
X127690000Y-124925067D01*
X127636837Y-124963652D01*
X127468196Y-125084016D01*
X127298421Y-125202629D01*
X127140740Y-125310511D01*
X127008376Y-125398686D01*
X126914558Y-125458175D01*
X126872509Y-125480000D01*
X126872216Y-125480018D01*
X126831493Y-125501866D01*
X126743858Y-125557045D01*
X126627806Y-125633923D01*
X126508035Y-125713357D01*
X126411507Y-125774634D01*
X126359962Y-125803923D01*
X126347202Y-125809365D01*
X126223113Y-125880698D01*
X126057005Y-125998868D01*
X125860344Y-126153957D01*
X125644596Y-126336046D01*
X125421228Y-126535215D01*
X125201706Y-126741545D01*
X124997497Y-126945118D01*
X124820066Y-127136013D01*
X124773904Y-127185486D01*
X124662808Y-127289415D01*
X124565856Y-127362754D01*
X124543235Y-127375393D01*
X124447968Y-127408244D01*
X124371402Y-127407880D01*
X124340000Y-127373090D01*
X124347429Y-127335977D01*
X124401478Y-127228454D01*
X124499325Y-127085126D01*
X124630816Y-126917983D01*
X124785797Y-126739018D01*
X124954114Y-126560220D01*
X125125611Y-126393582D01*
X125290136Y-126251093D01*
X125304335Y-126239711D01*
X125475963Y-126103196D01*
X125625342Y-125987608D01*
X125765484Y-125884136D01*
X125909402Y-125783965D01*
X126070108Y-125678286D01*
X126260616Y-125558285D01*
X126493937Y-125415150D01*
X126783085Y-125240069D01*
X126848004Y-125200885D01*
X127027085Y-125092787D01*
X127181950Y-124999299D01*
X127297842Y-124929328D01*
X127360000Y-124891787D01*
X127421777Y-124856904D01*
X127530000Y-124802707D01*
X127587957Y-124769161D01*
X127620053Y-124730990D01*
X127624346Y-124722824D01*
X127672956Y-124669319D01*
X127767138Y-124577504D01*
X127896169Y-124457643D01*
X128049331Y-124320000D01*
X128152958Y-124227726D01*
X128624952Y-123792356D01*
X129043370Y-123380162D01*
X129405108Y-122994577D01*
X129707064Y-122639029D01*
X129946134Y-122316949D01*
X130119216Y-122031768D01*
X130235309Y-121810033D01*
X130185172Y-121355016D01*
X130169500Y-121221470D01*
X130138295Y-120985776D01*
X130104686Y-120760398D01*
X130073662Y-120580000D01*
X130067338Y-120546935D01*
X130036696Y-120384299D01*
X130011405Y-120246346D01*
X129996418Y-120160000D01*
X129989322Y-120118460D01*
X129934958Y-119882073D01*
X129854861Y-119614220D01*
X129756221Y-119333159D01*
X129646226Y-119057150D01*
X129532065Y-118804450D01*
X129420927Y-118593318D01*
X129320000Y-118442012D01*
X129255073Y-118365894D01*
X129146316Y-118242930D01*
X129005255Y-118085931D01*
X128843033Y-117907226D01*
X128670791Y-117719150D01*
X128499671Y-117534034D01*
X128382384Y-117410718D01*
X127960969Y-117015989D01*
X127535402Y-116694028D01*
X127098590Y-116439293D01*
X127061545Y-116420811D01*
X126883296Y-116334392D01*
X126730473Y-116264257D01*
X126618303Y-116217196D01*
X126562013Y-116200000D01*
X126541553Y-116198254D01*
X126449486Y-116179237D01*
X126331398Y-116146025D01*
X126227910Y-116114532D01*
X126039984Y-116059848D01*
X125820058Y-115997752D01*
X125594183Y-115935577D01*
X125388412Y-115880655D01*
X125374837Y-115877190D01*
X125186173Y-115838964D01*
X124942068Y-115802422D01*
X124665036Y-115769927D01*
X124377591Y-115743843D01*
X124102248Y-115726533D01*
X123861521Y-115720361D01*
X123442624Y-115734631D01*
X122915007Y-115790755D01*
X122413370Y-115885963D01*
X121961453Y-116016554D01*
X121957103Y-116018075D01*
X121834196Y-116059069D01*
X121670430Y-116111282D01*
X121500000Y-116163801D01*
X121472713Y-116172087D01*
X121324399Y-116218686D01*
X121205624Y-116258475D01*
X121140000Y-116283597D01*
X121118086Y-116294052D01*
X121028607Y-116336000D01*
X120895961Y-116397727D01*
X120740000Y-116469983D01*
X120402453Y-116640413D01*
X120099932Y-116823679D01*
X119854255Y-117007418D01*
X119676364Y-117184281D01*
X119578487Y-117304671D01*
X119480991Y-117429237D01*
X119393150Y-117549473D01*
X119308377Y-117676172D01*
X119220087Y-117820124D01*
X119121694Y-117992124D01*
X119006615Y-118202963D01*
X118868262Y-118463434D01*
X118700051Y-118784330D01*
X118686969Y-118810180D01*
X118598912Y-119023940D01*
X118514127Y-119293914D01*
X118438467Y-119599477D01*
X118377786Y-119920000D01*
X118350097Y-120092892D01*
X118320660Y-120275608D01*
X118297221Y-120420000D01*
X118248135Y-120730136D01*
X118212981Y-120987506D01*
X118194753Y-121191191D01*
X118194226Y-121353837D01*
X118212175Y-121488092D01*
X118249374Y-121606602D01*
X118306597Y-121722014D01*
X118384619Y-121846976D01*
X118393014Y-121859247D01*
X118470400Y-121959447D01*
X118591667Y-122104394D01*
X118746934Y-122283171D01*
X118926322Y-122484856D01*
X119119950Y-122698530D01*
X119317939Y-122913273D01*
X119510408Y-123118166D01*
X119687477Y-123302288D01*
X119839267Y-123454719D01*
X120031933Y-123629325D01*
X120414775Y-123919381D01*
X120871973Y-124206460D01*
X121400000Y-124488229D01*
X121552248Y-124563361D01*
X121723014Y-124646252D01*
X121854335Y-124707163D01*
X121965048Y-124754405D01*
X122073991Y-124796287D01*
X122200000Y-124841118D01*
X122362839Y-124898942D01*
X122707723Y-125032025D01*
X122988892Y-125160625D01*
X123216851Y-125292337D01*
X123402108Y-125434749D01*
X123555168Y-125595455D01*
X123686537Y-125782046D01*
X123806721Y-126002114D01*
X123882901Y-126158788D01*
X124040677Y-126502337D01*
X124161382Y-126795674D01*
X124243476Y-127034525D01*
X124285417Y-127214613D01*
X124285667Y-127331664D01*
X124283084Y-127341536D01*
X124242588Y-127425721D01*
X124186718Y-127435798D01*
X124114875Y-127371014D01*
X124026458Y-127230621D01*
X123920870Y-127013866D01*
X123797510Y-126720000D01*
X123791758Y-126705557D01*
X123658077Y-126377659D01*
X123539599Y-126114113D01*
X123425421Y-125904225D01*
X123304637Y-125737300D01*
X123166345Y-125602646D01*
X122999639Y-125489565D01*
X122793616Y-125387366D01*
X122537371Y-125285352D01*
X122220000Y-125172831D01*
X122165048Y-125153435D01*
X121938815Y-125066928D01*
X121689999Y-124963457D01*
X121438153Y-124851877D01*
X121202834Y-124741041D01*
X121003598Y-124639805D01*
X120860000Y-124557025D01*
X120857345Y-124555314D01*
X120770470Y-124501365D01*
X120642452Y-124424048D01*
X120500000Y-124339498D01*
X120427053Y-124295350D01*
X120113567Y-124080977D01*
X119799720Y-123831075D01*
X119510648Y-123566726D01*
X119271484Y-123309015D01*
X119211560Y-123237965D01*
X119055315Y-123058993D01*
X118895942Y-122883471D01*
X118760000Y-122740900D01*
X118669822Y-122648822D01*
X118387521Y-122339409D01*
X118170214Y-122061689D01*
X118014149Y-121809843D01*
X117915580Y-121578051D01*
X117870756Y-121360494D01*
X117868700Y-121329424D01*
X117872526Y-121153150D01*
X117895708Y-120923579D01*
X117936436Y-120660000D01*
X118003953Y-120285093D01*
X118069013Y-119936561D01*
X118126886Y-119647187D01*
X118180539Y-119406573D01*
X118232939Y-119204320D01*
X118287054Y-119030029D01*
X118345851Y-118873302D01*
X118412296Y-118723741D01*
X118489357Y-118570945D01*
X118580000Y-118404518D01*
X118607267Y-118355338D01*
X118671630Y-118238760D01*
X118755590Y-118086364D01*
X118847984Y-117918397D01*
X118954301Y-117738928D01*
X119167106Y-117432672D01*
X119407985Y-117137504D01*
X119658845Y-116874923D01*
X119901593Y-116666429D01*
X119923886Y-116649895D01*
X120275108Y-116425430D01*
X120691937Y-116220554D01*
X121178768Y-116033342D01*
X121740000Y-115861870D01*
X121870457Y-115824659D01*
X122031456Y-115775314D01*
X122154450Y-115733886D01*
X122203532Y-115717851D01*
X122341888Y-115680307D01*
X122518610Y-115638392D01*
X122707391Y-115598543D01*
X122772684Y-115586643D01*
X123060835Y-115549879D01*
X123398530Y-115526034D01*
X123764352Y-115515095D01*
X124136882Y-115517048D01*
G37*
G36*
X102240557Y-143500257D02*
G01*
X102268069Y-143558846D01*
X102305281Y-143662135D01*
X102345636Y-143789021D01*
X102382579Y-143918401D01*
X102409552Y-144029171D01*
X102420000Y-144100229D01*
X102424747Y-144150930D01*
X102441039Y-144267913D01*
X102466192Y-144428608D01*
X102497345Y-144614020D01*
X102514712Y-144716745D01*
X102597497Y-145323342D01*
X102644689Y-145933209D01*
X102659208Y-146581842D01*
X102641185Y-147219853D01*
X102581432Y-147856296D01*
X102477971Y-148444039D01*
X102328878Y-148993795D01*
X102132229Y-149516279D01*
X102091937Y-149608384D01*
X101992937Y-149823801D01*
X101903870Y-150002613D01*
X101831206Y-150132216D01*
X101781412Y-150200000D01*
X101764754Y-150220387D01*
X101713035Y-150293728D01*
X101644152Y-150397414D01*
X101643809Y-150397943D01*
X101479683Y-150625821D01*
X101261139Y-150890958D01*
X100998068Y-151183090D01*
X100700362Y-151491954D01*
X100377913Y-151807287D01*
X100040613Y-152118826D01*
X99698354Y-152416305D01*
X99560000Y-152532611D01*
X99893354Y-152505090D01*
X99960056Y-152498684D01*
X100400734Y-152410541D01*
X100830600Y-152244794D01*
X101246462Y-152003250D01*
X101645126Y-151687716D01*
X102023398Y-151300000D01*
X102048426Y-151271207D01*
X102146033Y-151160278D01*
X102220421Y-151077847D01*
X102257128Y-151040000D01*
X102266072Y-151032151D01*
X102330331Y-150956591D01*
X102427224Y-150824082D01*
X102550392Y-150644602D01*
X102693477Y-150428127D01*
X102850118Y-150184633D01*
X103013957Y-149924099D01*
X103178634Y-149656500D01*
X103337789Y-149391814D01*
X103485065Y-149140018D01*
X103614100Y-148911087D01*
X103641141Y-148861896D01*
X103772551Y-148621448D01*
X103870152Y-148438935D01*
X103938548Y-148304336D01*
X103982342Y-148207630D01*
X104006139Y-148138797D01*
X104014541Y-148087816D01*
X104012153Y-148044666D01*
X104009742Y-148026012D01*
X104017147Y-147956158D01*
X104068186Y-147937142D01*
X104107102Y-147946126D01*
X104140000Y-147993067D01*
X104146105Y-148013634D01*
X104190698Y-148092630D01*
X104269085Y-148207864D01*
X104370000Y-148342235D01*
X104449353Y-148445309D01*
X104647840Y-148715682D01*
X104859084Y-149017746D01*
X105067240Y-149328093D01*
X105256462Y-149623314D01*
X105410905Y-149880000D01*
X105431474Y-149915592D01*
X105497088Y-150028179D01*
X105589310Y-150185733D01*
X105698916Y-150372509D01*
X105816684Y-150572762D01*
X105874263Y-150670778D01*
X105992860Y-150873941D01*
X106100652Y-151060198D01*
X106187651Y-151212241D01*
X106243864Y-151312762D01*
X106279373Y-151377230D01*
X106353487Y-151507450D01*
X106412804Y-151606483D01*
X106453898Y-151673205D01*
X106528309Y-151797157D01*
X106608480Y-151933182D01*
X106627484Y-151965375D01*
X106724956Y-152114147D01*
X106795800Y-152189360D01*
X106841105Y-152192228D01*
X106844123Y-152166786D01*
X106830492Y-152070273D01*
X106797046Y-151910583D01*
X106745723Y-151695712D01*
X106678462Y-151433659D01*
X106597199Y-151132422D01*
X106503871Y-150800000D01*
X106468663Y-150676103D01*
X106412493Y-150476460D01*
X106363419Y-150300000D01*
X106333978Y-150195710D01*
X106283001Y-150023088D01*
X106238284Y-149880000D01*
X106214425Y-149803122D01*
X106166606Y-149637990D01*
X106108558Y-149429118D01*
X106045718Y-149196696D01*
X105983523Y-148960911D01*
X105927409Y-148741950D01*
X105882812Y-148560000D01*
X105863592Y-148482437D01*
X105816250Y-148309227D01*
X105770420Y-148160000D01*
X105743547Y-148070125D01*
X105711596Y-147937509D01*
X105686229Y-147805771D01*
X105670563Y-147694116D01*
X105667714Y-147621749D01*
X105680801Y-147607875D01*
X105706427Y-147654421D01*
X105749222Y-147755488D01*
X105799025Y-147887875D01*
X105799543Y-147889324D01*
X105851882Y-148012375D01*
X105932736Y-148165972D01*
X106046171Y-148356677D01*
X106196253Y-148591053D01*
X106387049Y-148875661D01*
X106622623Y-149217064D01*
X106739496Y-149380706D01*
X106893777Y-149589894D01*
X107069500Y-149823159D01*
X107256836Y-150067852D01*
X107445954Y-150311323D01*
X107627025Y-150540924D01*
X107790218Y-150744003D01*
X107925705Y-150907911D01*
X108023654Y-151020000D01*
X108054785Y-151054322D01*
X108161393Y-151176586D01*
X108304519Y-151344935D01*
X108474628Y-151547780D01*
X108662185Y-151773534D01*
X108857656Y-152010607D01*
X109051506Y-152247412D01*
X109234200Y-152472360D01*
X109396203Y-152673862D01*
X109527982Y-152840331D01*
X109620000Y-152960178D01*
X109674593Y-153032849D01*
X109782980Y-153174324D01*
X109876458Y-153293236D01*
X110052494Y-153520425D01*
X110277033Y-153834921D01*
X110481892Y-154149698D01*
X110661552Y-154454691D01*
X110810496Y-154739833D01*
X110923207Y-154995060D01*
X110994166Y-155210304D01*
X111017857Y-155375501D01*
X111016656Y-155429266D01*
X111011141Y-155473581D01*
X110997169Y-155461308D01*
X110970135Y-155385698D01*
X110925435Y-155240000D01*
X110892798Y-155135027D01*
X110840746Y-154987119D01*
X110781382Y-154849262D01*
X110706667Y-154706573D01*
X110608561Y-154544169D01*
X110479026Y-154347166D01*
X110310021Y-154100680D01*
X110223171Y-153978036D01*
X110078650Y-153780823D01*
X109910868Y-153557542D01*
X109728686Y-153319486D01*
X109540963Y-153077949D01*
X109356560Y-152844225D01*
X109184337Y-152629608D01*
X109033155Y-152445391D01*
X108911874Y-152302870D01*
X108829354Y-152213336D01*
X108799892Y-152181788D01*
X108720617Y-152089969D01*
X108615590Y-151963525D01*
X108499521Y-151820000D01*
X108430917Y-151734776D01*
X108313795Y-151592443D01*
X108213594Y-151474412D01*
X108146546Y-151400000D01*
X108145192Y-151398605D01*
X108081232Y-151327201D01*
X107981435Y-151209630D01*
X107859201Y-151061895D01*
X107727927Y-150900000D01*
X107711175Y-150879143D01*
X107589891Y-150729274D01*
X107487356Y-150604453D01*
X107413932Y-150517192D01*
X107379983Y-150480000D01*
X107346049Y-150441758D01*
X107275139Y-150352476D01*
X107178438Y-150226735D01*
X107066754Y-150078850D01*
X106950894Y-149923134D01*
X106841667Y-149773902D01*
X106749878Y-149645467D01*
X106695950Y-149569528D01*
X106619976Y-149465590D01*
X106569250Y-149400000D01*
X106563180Y-149392561D01*
X106504254Y-149311785D01*
X106419420Y-149187523D01*
X106322555Y-149040999D01*
X106227538Y-148893439D01*
X106148246Y-148766066D01*
X106098557Y-148680106D01*
X106069853Y-148632984D01*
X106039468Y-148614481D01*
X106029171Y-148655534D01*
X106040387Y-148744813D01*
X106074543Y-148870986D01*
X106113118Y-148992627D01*
X106166185Y-149166400D01*
X106217520Y-149340000D01*
X106253708Y-149464465D01*
X106311090Y-149660952D01*
X106375910Y-149882235D01*
X106439882Y-150100000D01*
X106506196Y-150325475D01*
X106599188Y-150642643D01*
X106673985Y-150899991D01*
X106733406Y-151108036D01*
X106780267Y-151277298D01*
X106817389Y-151418294D01*
X106847588Y-151541544D01*
X106873684Y-151657566D01*
X106898494Y-151776879D01*
X106924837Y-151910000D01*
X106950044Y-152042518D01*
X106970791Y-152172800D01*
X106975022Y-152254553D01*
X106963172Y-152305027D01*
X106935673Y-152341470D01*
X106887346Y-152372944D01*
X106810925Y-152378657D01*
X106805998Y-152376464D01*
X106739324Y-152318004D01*
X106642722Y-152198300D01*
X106522429Y-152026226D01*
X106384683Y-151810651D01*
X106235719Y-151560448D01*
X106186697Y-151475507D01*
X106101063Y-151327638D01*
X106032169Y-151209318D01*
X105991584Y-151140448D01*
X105949995Y-151067828D01*
X105892509Y-150960000D01*
X105873224Y-150923835D01*
X105813272Y-150817213D01*
X105730693Y-150674247D01*
X105637357Y-150515609D01*
X105581201Y-150420638D01*
X105498946Y-150279975D01*
X105437169Y-150172364D01*
X105406161Y-150115609D01*
X105399211Y-150102021D01*
X105353069Y-150021667D01*
X105289729Y-149918953D01*
X105241413Y-149842104D01*
X105154952Y-149702469D01*
X105067235Y-149558953D01*
X105009453Y-149464172D01*
X104902978Y-149291207D01*
X104807235Y-149137424D01*
X104755111Y-149056253D01*
X104657546Y-148909947D01*
X104547184Y-148749220D01*
X104433616Y-148587527D01*
X104326433Y-148438322D01*
X104235228Y-148315062D01*
X104169593Y-148231202D01*
X104139120Y-148200197D01*
X104116653Y-148229227D01*
X104065489Y-148316564D01*
X103994068Y-148448214D01*
X103910304Y-148610000D01*
X103851223Y-148725284D01*
X103735702Y-148945845D01*
X103619870Y-149161958D01*
X103521629Y-149340000D01*
X103483108Y-149408433D01*
X103404576Y-149549454D01*
X103344277Y-149659783D01*
X103312877Y-149720000D01*
X103295097Y-149753822D01*
X103232615Y-149860360D01*
X103136207Y-150017244D01*
X103012372Y-150213961D01*
X102867613Y-150440000D01*
X102762645Y-150597829D01*
X102524421Y-150927407D01*
X102269456Y-151246987D01*
X102008639Y-151544457D01*
X101752864Y-151807708D01*
X101513020Y-152024628D01*
X101300000Y-152183108D01*
X100964693Y-152371321D01*
X100554949Y-152539820D01*
X100143137Y-152647171D01*
X99747006Y-152687609D01*
X99498858Y-152680210D01*
X99163038Y-152641328D01*
X98835620Y-152574038D01*
X98540106Y-152483425D01*
X98300000Y-152374573D01*
X98269586Y-152357083D01*
X98234211Y-152331501D01*
X98261585Y-152326578D01*
X98360000Y-152337143D01*
X98411526Y-152344705D01*
X98565698Y-152375536D01*
X98720000Y-152414967D01*
X98839167Y-152443883D01*
X99020643Y-152476770D01*
X99200285Y-152499774D01*
X99480569Y-152526167D01*
X100161449Y-151833083D01*
X100255440Y-151736880D01*
X100464649Y-151519278D01*
X100665838Y-151305662D01*
X100846851Y-151109160D01*
X100995531Y-150942897D01*
X101099722Y-150820000D01*
X101177086Y-150724318D01*
X101275688Y-150604009D01*
X101347972Y-150517838D01*
X101382147Y-150480000D01*
X101393114Y-150470240D01*
X101463512Y-150383134D01*
X101557183Y-150240079D01*
X101666314Y-150055200D01*
X101783091Y-149842625D01*
X101899701Y-149616482D01*
X102008330Y-149390898D01*
X102101164Y-149180000D01*
X102111929Y-149152974D01*
X102171032Y-148976700D01*
X102235115Y-148748157D01*
X102298894Y-148489780D01*
X102357085Y-148224004D01*
X102404406Y-147973266D01*
X102435573Y-147760000D01*
X102457133Y-147565692D01*
X102489492Y-147238347D01*
X102511856Y-146941405D01*
X102524229Y-146659185D01*
X102526616Y-146376004D01*
X102519021Y-146076178D01*
X102501448Y-145744023D01*
X102473903Y-145363858D01*
X102436390Y-144920000D01*
X102421525Y-144784854D01*
X102395032Y-144585091D01*
X102361443Y-144354488D01*
X102324529Y-144117970D01*
X102288064Y-143900465D01*
X102255820Y-143726896D01*
X102240345Y-143640737D01*
X102228602Y-143541281D01*
X102231896Y-143494771D01*
X102240557Y-143500257D01*
G37*
G36*
X110913650Y-97426794D02*
G01*
X110837570Y-97512254D01*
X110730688Y-97650000D01*
X110420977Y-98075980D01*
X110084016Y-98594548D01*
X109780026Y-99132667D01*
X109497769Y-99710486D01*
X109226009Y-100348153D01*
X109212457Y-100381953D01*
X109104360Y-100650741D01*
X108985300Y-100945666D01*
X108868812Y-101233245D01*
X108768433Y-101480000D01*
X108721350Y-101596324D01*
X108647967Y-101782907D01*
X108578191Y-101968869D01*
X108507591Y-102167086D01*
X108431737Y-102390433D01*
X108346198Y-102651784D01*
X108246543Y-102964014D01*
X108128341Y-103340000D01*
X108078098Y-103491710D01*
X107996970Y-103720214D01*
X107899695Y-103982241D01*
X107794357Y-104256074D01*
X107689041Y-104520000D01*
X107615412Y-104702382D01*
X107490741Y-105017134D01*
X107362616Y-105346606D01*
X107242478Y-105661290D01*
X107141765Y-105931677D01*
X107101354Y-106041097D01*
X106991378Y-106331205D01*
X106872372Y-106636476D01*
X106756201Y-106926703D01*
X106654731Y-107171677D01*
X106580048Y-107353133D01*
X106463289Y-107660154D01*
X106358234Y-107964555D01*
X106269129Y-108252278D01*
X106200223Y-108509268D01*
X106155764Y-108721469D01*
X106140000Y-108874824D01*
X106137675Y-108932360D01*
X106116750Y-109096830D01*
X106081145Y-109256484D01*
X106044864Y-109382603D01*
X105993308Y-109562978D01*
X105942995Y-109740000D01*
X105934931Y-109768418D01*
X105797496Y-110239411D01*
X105640079Y-110757510D01*
X105468475Y-111304942D01*
X105288475Y-111863932D01*
X105105871Y-112416707D01*
X104926456Y-112945493D01*
X104756021Y-113432515D01*
X104600359Y-113860000D01*
X104534576Y-114036955D01*
X104409673Y-114377872D01*
X104297692Y-114690096D01*
X104202666Y-114962167D01*
X104128628Y-115182621D01*
X104079610Y-115340000D01*
X104023622Y-115535670D01*
X103939368Y-115839310D01*
X103872076Y-116099254D01*
X103817033Y-116336400D01*
X103769528Y-116571642D01*
X103724850Y-116825877D01*
X103678289Y-117120000D01*
X103653806Y-117296620D01*
X103609973Y-117723034D01*
X103576126Y-118223958D01*
X103552294Y-118796098D01*
X103538507Y-119436160D01*
X103534793Y-120140849D01*
X103541183Y-120906872D01*
X103557705Y-121730934D01*
X103584388Y-122609742D01*
X103621263Y-123540000D01*
X103627544Y-123694779D01*
X103637277Y-123970149D01*
X103647823Y-124303222D01*
X103658821Y-124681023D01*
X103669913Y-125090576D01*
X103680736Y-125518907D01*
X103690931Y-125953040D01*
X103700138Y-126380000D01*
X103712100Y-126915089D01*
X103725897Y-127416709D01*
X103741333Y-127854586D01*
X103759003Y-128237114D01*
X103779503Y-128572686D01*
X103803425Y-128869697D01*
X103831366Y-129136540D01*
X103863920Y-129381609D01*
X103901681Y-129613297D01*
X103945244Y-129840000D01*
X104000780Y-130108975D01*
X104052197Y-130352123D01*
X104096612Y-130550741D01*
X104138668Y-130722745D01*
X104183007Y-130886054D01*
X104234273Y-131058586D01*
X104297108Y-131258258D01*
X104376154Y-131502987D01*
X104424852Y-131649395D01*
X104535484Y-131958109D01*
X104640567Y-132220000D01*
X104678567Y-132309067D01*
X104737218Y-132448022D01*
X104800609Y-132599295D01*
X104803213Y-132605525D01*
X104840704Y-132693339D01*
X104885512Y-132794451D01*
X104941576Y-132917247D01*
X105012831Y-133070114D01*
X105103214Y-133261437D01*
X105216660Y-133499601D01*
X105357105Y-133792993D01*
X105528487Y-134150000D01*
X105575455Y-134241092D01*
X105628332Y-134326874D01*
X105661511Y-134360000D01*
X105661896Y-134359980D01*
X105681383Y-134321971D01*
X105701655Y-134225129D01*
X105718384Y-134090000D01*
X105723815Y-134031953D01*
X105742054Y-133845397D01*
X105763960Y-133629455D01*
X105785917Y-133420000D01*
X105791496Y-133359697D01*
X105803457Y-133185455D01*
X105815973Y-132951178D01*
X105828477Y-132670180D01*
X105840400Y-132355774D01*
X105851172Y-132021276D01*
X105860226Y-131680000D01*
X105867307Y-131411293D01*
X105881033Y-131006103D01*
X105897291Y-130637534D01*
X105915511Y-130316430D01*
X105935127Y-130053637D01*
X105955570Y-129860000D01*
X105981242Y-129663174D01*
X106016376Y-129385963D01*
X106051873Y-129098929D01*
X106082996Y-128840000D01*
X106140731Y-128417828D01*
X106239572Y-127873790D01*
X106358175Y-127380000D01*
X106412778Y-127185759D01*
X106474368Y-126973248D01*
X106535096Y-126769297D01*
X106589787Y-126591024D01*
X106633269Y-126455552D01*
X106660367Y-126380000D01*
X106673838Y-126348567D01*
X106718764Y-126242949D01*
X106771725Y-126117781D01*
X106795321Y-126067463D01*
X106888869Y-125906167D01*
X107021543Y-125708754D01*
X107181694Y-125490728D01*
X107357676Y-125267596D01*
X107537842Y-125054861D01*
X107710543Y-124868029D01*
X107888170Y-124696631D01*
X108110903Y-124513991D01*
X108359635Y-124347796D01*
X108660000Y-124179455D01*
X108950794Y-124024335D01*
X109316395Y-123818891D01*
X109636821Y-123623468D01*
X109929366Y-123426838D01*
X110211327Y-123217774D01*
X110500000Y-122985049D01*
X110667466Y-122843845D01*
X110908156Y-122632691D01*
X111122493Y-122430917D01*
X111318564Y-122228575D01*
X111504456Y-122015714D01*
X111688256Y-121782386D01*
X111878051Y-121518641D01*
X112081928Y-121214531D01*
X112307973Y-120860107D01*
X112564274Y-120445418D01*
X112570814Y-120434789D01*
X112728461Y-120202805D01*
X112927507Y-119944689D01*
X113153837Y-119676009D01*
X113393337Y-119412334D01*
X113631893Y-119169231D01*
X113855389Y-118962268D01*
X114049711Y-118807013D01*
X114128611Y-118759735D01*
X114159758Y-118759334D01*
X114145410Y-118796374D01*
X114089873Y-118859970D01*
X113997449Y-118939234D01*
X113959621Y-118971652D01*
X113861704Y-119066861D01*
X113731398Y-119201952D01*
X113581127Y-119363930D01*
X113423311Y-119539803D01*
X113336589Y-119638771D01*
X113152368Y-119855937D01*
X112994484Y-120055692D01*
X112846791Y-120259955D01*
X112693143Y-120490646D01*
X112517396Y-120769683D01*
X112482553Y-120825898D01*
X112273539Y-121158428D01*
X112093041Y-121435070D01*
X111932025Y-121667983D01*
X111781461Y-121869326D01*
X111632314Y-122051256D01*
X111475554Y-122225932D01*
X111302148Y-122405513D01*
X111234161Y-122473565D01*
X110810715Y-122875368D01*
X110397611Y-123224591D01*
X109972814Y-123537653D01*
X109514289Y-123830976D01*
X109000000Y-124120978D01*
X108990974Y-124125805D01*
X108807629Y-124224011D01*
X108675282Y-124295794D01*
X108575139Y-124351951D01*
X108488407Y-124403278D01*
X108396292Y-124460574D01*
X108280000Y-124534636D01*
X108100658Y-124660369D01*
X107780289Y-124942533D01*
X107507829Y-125260000D01*
X107441728Y-125349178D01*
X107317363Y-125513399D01*
X107200725Y-125663875D01*
X107136606Y-125746284D01*
X107044339Y-125872577D01*
X106967642Y-125993586D01*
X106900369Y-126123044D01*
X106836372Y-126274683D01*
X106769503Y-126462233D01*
X106693615Y-126699428D01*
X106602560Y-127000000D01*
X106565741Y-127123912D01*
X106478245Y-127428716D01*
X106409728Y-127690194D01*
X106355117Y-127932205D01*
X106309337Y-128178605D01*
X106267315Y-128453251D01*
X106223976Y-128780000D01*
X106211351Y-128879866D01*
X106160553Y-129287259D01*
X106119461Y-129629988D01*
X106087077Y-129920000D01*
X106062401Y-130169243D01*
X106044432Y-130389665D01*
X106032171Y-130593212D01*
X106024620Y-130791833D01*
X106020777Y-130997476D01*
X106019643Y-131222087D01*
X106018953Y-131392384D01*
X106007710Y-131966992D01*
X105983459Y-132523381D01*
X105947165Y-133049279D01*
X105899794Y-133532413D01*
X105842314Y-133960510D01*
X105775688Y-134321300D01*
X105727135Y-134542600D01*
X105927587Y-134941300D01*
X105993123Y-135074932D01*
X106069673Y-135240154D01*
X106127314Y-135375323D01*
X106157003Y-135460000D01*
X106185968Y-135580000D01*
X106072984Y-135453971D01*
X106050799Y-135428066D01*
X105944542Y-135283412D01*
X105813372Y-135079919D01*
X105663458Y-134828920D01*
X105500968Y-134541749D01*
X105332068Y-134229740D01*
X105162928Y-133904227D01*
X104999716Y-133576543D01*
X104848598Y-133258023D01*
X104715744Y-132960000D01*
X104651668Y-132810856D01*
X104582639Y-132651186D01*
X104528925Y-132528062D01*
X104498570Y-132460000D01*
X104459596Y-132372040D01*
X104373939Y-132155991D01*
X104281109Y-131897174D01*
X104184930Y-131608697D01*
X104089232Y-131303669D01*
X103997840Y-130995198D01*
X103914583Y-130696393D01*
X103843288Y-130420362D01*
X103787782Y-130180213D01*
X103751892Y-129989057D01*
X103739446Y-129860000D01*
X103727989Y-129816833D01*
X103682560Y-129781537D01*
X103588200Y-129747405D01*
X103429959Y-129707045D01*
X103245735Y-129662700D01*
X103028535Y-129608725D01*
X102840000Y-129560282D01*
X102677774Y-129519428D01*
X102459714Y-129468104D01*
X102260000Y-129424392D01*
X101927464Y-129354561D01*
X101387268Y-129235559D01*
X100892093Y-129118124D01*
X100419987Y-128996736D01*
X99948995Y-128865880D01*
X99457163Y-128720039D01*
X99421432Y-128709196D01*
X99262072Y-128663395D01*
X99167179Y-128644871D01*
X99127036Y-128655329D01*
X99131931Y-128696471D01*
X99172149Y-128770000D01*
X99203519Y-128831090D01*
X99265321Y-128989107D01*
X99332367Y-129198469D01*
X99399632Y-129441715D01*
X99462088Y-129701379D01*
X99514707Y-129960000D01*
X99545113Y-130131103D01*
X99593735Y-130432397D01*
X99633336Y-130725334D01*
X99665186Y-131024637D01*
X99690553Y-131345031D01*
X99710705Y-131701240D01*
X99726912Y-132107988D01*
X99740441Y-132580000D01*
X99750778Y-132965216D01*
X99766618Y-133440770D01*
X99785020Y-133859204D01*
X99806910Y-134233814D01*
X99833213Y-134577901D01*
X99864856Y-134904761D01*
X99902763Y-135227695D01*
X99947860Y-135560000D01*
X99987944Y-135898926D01*
X100017605Y-136294668D01*
X100032772Y-136701439D01*
X100033444Y-137101298D01*
X100019615Y-137476304D01*
X99991281Y-137808518D01*
X99948438Y-138080000D01*
X99874668Y-138437478D01*
X99801383Y-138828895D01*
X99750274Y-139154448D01*
X99720344Y-139420000D01*
X99718172Y-139445943D01*
X99705842Y-139589031D01*
X99688118Y-139790677D01*
X99666481Y-140034185D01*
X99642413Y-140302857D01*
X99617397Y-140580000D01*
X99607357Y-140691193D01*
X99585017Y-140941883D01*
X99565756Y-141162509D01*
X99550635Y-141340670D01*
X99540712Y-141463967D01*
X99537049Y-141520000D01*
X99536559Y-141534485D01*
X99522683Y-141653539D01*
X99491892Y-141835188D01*
X99447012Y-142066995D01*
X99390869Y-142336527D01*
X99326291Y-142631346D01*
X99256103Y-142939017D01*
X99183132Y-143247106D01*
X99110206Y-143543175D01*
X99040149Y-143814790D01*
X98975790Y-144049515D01*
X98919954Y-144234915D01*
X98896585Y-144307055D01*
X98786844Y-144642326D01*
X98681119Y-144959927D01*
X98584374Y-145245187D01*
X98501574Y-145483435D01*
X98437685Y-145660000D01*
X98434981Y-145667220D01*
X98378805Y-145819827D01*
X98330854Y-145954464D01*
X98301251Y-146042735D01*
X98272784Y-146122406D01*
X98227105Y-146222735D01*
X98211452Y-146253700D01*
X98164302Y-146355240D01*
X98100437Y-146498516D01*
X98029080Y-146663023D01*
X97924544Y-146897712D01*
X97677076Y-147390575D01*
X97410519Y-147844406D01*
X97133200Y-148245621D01*
X96853448Y-148580638D01*
X96803036Y-148634174D01*
X96650559Y-148787991D01*
X96523072Y-148896487D01*
X96400701Y-148972708D01*
X96263569Y-149029698D01*
X96091799Y-149080501D01*
X96082637Y-149082938D01*
X95919991Y-149125552D01*
X95819141Y-149149020D01*
X95765350Y-149155074D01*
X95743882Y-149145446D01*
X95740000Y-149121871D01*
X95754113Y-149100471D01*
X95825231Y-149052710D01*
X95937054Y-148997220D01*
X96067828Y-148944375D01*
X96195801Y-148904546D01*
X96199654Y-148903508D01*
X96295309Y-148851792D01*
X96425772Y-148747334D01*
X96579873Y-148601830D01*
X96746442Y-148426977D01*
X96914311Y-148234470D01*
X97072309Y-148036006D01*
X97209268Y-147843281D01*
X97370235Y-147584832D01*
X97609108Y-147150850D01*
X97842057Y-146669553D01*
X98059456Y-146160000D01*
X98093876Y-146074062D01*
X98162115Y-145904987D01*
X98221212Y-145760000D01*
X98234335Y-145727879D01*
X98367865Y-145382885D01*
X98511853Y-144981794D01*
X98659590Y-144544413D01*
X98804365Y-144090546D01*
X98939468Y-143640000D01*
X98943992Y-143624375D01*
X98991179Y-143461974D01*
X99033577Y-143316931D01*
X99062490Y-143219000D01*
X99066749Y-143204646D01*
X99104345Y-143072067D01*
X99150840Y-142900778D01*
X99201981Y-142707340D01*
X99253517Y-142508316D01*
X99301196Y-142320271D01*
X99340767Y-142159768D01*
X99367977Y-142043369D01*
X99378576Y-141987639D01*
X99376172Y-141977314D01*
X99340000Y-141980000D01*
X99333350Y-141983187D01*
X99307733Y-141958975D01*
X99304114Y-141868005D01*
X99322098Y-141718829D01*
X99361288Y-141520000D01*
X99364125Y-141506952D01*
X99389453Y-141359058D01*
X99415680Y-141158851D01*
X99439867Y-140930956D01*
X99459079Y-140700000D01*
X99478602Y-140429675D01*
X99512333Y-140006616D01*
X99547025Y-139637963D01*
X99584831Y-139307408D01*
X99627904Y-138998643D01*
X99678397Y-138695358D01*
X99738463Y-138381247D01*
X99810256Y-138040000D01*
X99825875Y-137953289D01*
X99850350Y-137733555D01*
X99867252Y-137459051D01*
X99876585Y-137146172D01*
X99878350Y-136811314D01*
X99872553Y-136470872D01*
X99859194Y-136141242D01*
X99838278Y-135838819D01*
X99809807Y-135580000D01*
X99805910Y-135551887D01*
X99768994Y-135269098D01*
X99737619Y-134991830D01*
X99710961Y-134707866D01*
X99688195Y-134404988D01*
X99668499Y-134070980D01*
X99651046Y-133693624D01*
X99635015Y-133260703D01*
X99619579Y-132760000D01*
X99603349Y-132263479D01*
X99579790Y-131725859D01*
X99551333Y-131252121D01*
X99517240Y-130833464D01*
X99476776Y-130461091D01*
X99429206Y-130126203D01*
X99373795Y-129820000D01*
X99335611Y-129640096D01*
X99273348Y-129374777D01*
X99208462Y-129125774D01*
X99146471Y-128913908D01*
X99092891Y-128760000D01*
X99067605Y-128688256D01*
X99059268Y-128641980D01*
X99059526Y-128641142D01*
X99044829Y-128622408D01*
X98987294Y-128595454D01*
X98878291Y-128557240D01*
X98709189Y-128504725D01*
X98471358Y-128434867D01*
X98359582Y-128401678D01*
X98165476Y-128340458D01*
X97993575Y-128282115D01*
X97871358Y-128235766D01*
X97807019Y-128208573D01*
X97676497Y-128153512D01*
X97580000Y-128112935D01*
X97512583Y-128084356D01*
X97387825Y-128028095D01*
X97274925Y-127969633D01*
X97165378Y-127902125D01*
X97050677Y-127818730D01*
X96922317Y-127712603D01*
X96771793Y-127576901D01*
X96590599Y-127404781D01*
X96370230Y-127189400D01*
X96102179Y-126923914D01*
X96061585Y-126883633D01*
X95790877Y-126617197D01*
X95503574Y-126337708D01*
X95214255Y-126059143D01*
X94937500Y-125795479D01*
X94687889Y-125560694D01*
X94480000Y-125368765D01*
X94294309Y-125198467D01*
X93980688Y-124905894D01*
X93659918Y-124601176D01*
X93340301Y-124292550D01*
X93030135Y-123988254D01*
X92737722Y-123696524D01*
X92471361Y-123425597D01*
X92239353Y-123183709D01*
X92049998Y-122979098D01*
X91911596Y-122820000D01*
X91802995Y-122688542D01*
X91688521Y-122550537D01*
X91598283Y-122442364D01*
X91545571Y-122380000D01*
X91529698Y-122360922D01*
X91461639Y-122271885D01*
X91373338Y-122149803D01*
X91275989Y-122010982D01*
X91180786Y-121871728D01*
X91098924Y-121748348D01*
X91041597Y-121657148D01*
X91020000Y-121614434D01*
X91009899Y-121586681D01*
X90964863Y-121523149D01*
X90922938Y-121461287D01*
X90853090Y-121340032D01*
X90765537Y-121177624D01*
X90668636Y-120990240D01*
X90570741Y-120794056D01*
X90480209Y-120605250D01*
X90405396Y-120440000D01*
X90345556Y-120301836D01*
X90286429Y-120164522D01*
X90243682Y-120063160D01*
X90208467Y-119976271D01*
X90171933Y-119882377D01*
X90125231Y-119760000D01*
X90049907Y-119553598D01*
X89958516Y-119277211D01*
X89865838Y-118965879D01*
X89767570Y-118605007D01*
X89659411Y-118180000D01*
X89627770Y-118051790D01*
X89572338Y-117816452D01*
X89536980Y-117633273D01*
X89527262Y-117538596D01*
X89624264Y-117538596D01*
X89722132Y-117830140D01*
X89775755Y-117991587D01*
X89806179Y-118091146D01*
X89815436Y-118140540D01*
X89805913Y-118152560D01*
X89780000Y-118140000D01*
X89755889Y-118135810D01*
X89741634Y-118183352D01*
X89756136Y-118288207D01*
X89798746Y-118440000D01*
X89893474Y-118727689D01*
X89979072Y-118985795D01*
X90049092Y-119194236D01*
X90108252Y-119366915D01*
X90161268Y-119517736D01*
X90212856Y-119660601D01*
X90291468Y-119864793D01*
X90409846Y-120147093D01*
X90534722Y-120422670D01*
X90650804Y-120656741D01*
X90679749Y-120711912D01*
X90745992Y-120839417D01*
X90816770Y-120976741D01*
X90851165Y-121043199D01*
X90902565Y-121138657D01*
X90957566Y-121233828D01*
X91026306Y-121345460D01*
X91118926Y-121490305D01*
X91245562Y-121685110D01*
X91454809Y-121985735D01*
X91767108Y-122385128D01*
X92142882Y-122821201D01*
X92583080Y-123294973D01*
X93088654Y-123807461D01*
X93660555Y-124359684D01*
X94299735Y-124952658D01*
X94450130Y-125090425D01*
X94718308Y-125338698D01*
X94993798Y-125596546D01*
X95259888Y-125848215D01*
X95499869Y-126077951D01*
X95697030Y-126270000D01*
X95736530Y-126308913D01*
X95909537Y-126477632D01*
X96061911Y-126623527D01*
X96184660Y-126738171D01*
X96268790Y-126813138D01*
X96305307Y-126840000D01*
X96329430Y-126852193D01*
X96375058Y-126909746D01*
X96418208Y-126971807D01*
X96512883Y-127087055D01*
X96642756Y-127233601D01*
X96795803Y-127397943D01*
X96960000Y-127566581D01*
X97042998Y-127641488D01*
X97274141Y-127799527D01*
X97580122Y-127955752D01*
X97962233Y-128110713D01*
X98421762Y-128264960D01*
X98960000Y-128419042D01*
X99078271Y-128451206D01*
X99276205Y-128506649D01*
X99460000Y-128559699D01*
X99620176Y-128606212D01*
X99827049Y-128665103D01*
X100020000Y-128718989D01*
X100197342Y-128768064D01*
X100377618Y-128818306D01*
X100520000Y-128858341D01*
X100667242Y-128898961D01*
X101005797Y-128986291D01*
X101358010Y-129070419D01*
X101680000Y-129140663D01*
X101881842Y-129183537D01*
X102224274Y-129262027D01*
X102562842Y-129345781D01*
X102860000Y-129425726D01*
X102868211Y-129428075D01*
X103021250Y-129475092D01*
X103208027Y-129536666D01*
X103390000Y-129600116D01*
X103438437Y-129617577D01*
X103581983Y-129665890D01*
X103664485Y-129677907D01*
X103697354Y-129646010D01*
X103692007Y-129562580D01*
X103659855Y-129420000D01*
X103648661Y-129364479D01*
X103624954Y-129192502D01*
X103601484Y-128953037D01*
X103578706Y-128654572D01*
X103557075Y-128305591D01*
X103537045Y-127914583D01*
X103519070Y-127490033D01*
X103503606Y-127040428D01*
X103491107Y-126574255D01*
X103482026Y-126100000D01*
X103472342Y-125492425D01*
X103461995Y-124914856D01*
X103451196Y-124390984D01*
X103439595Y-123907290D01*
X103426840Y-123450252D01*
X103412579Y-123006349D01*
X103396460Y-122562062D01*
X103378133Y-122103869D01*
X103377108Y-122079010D01*
X103361241Y-121617070D01*
X103350036Y-121132383D01*
X103343485Y-120639609D01*
X103341580Y-120153406D01*
X103344310Y-119688434D01*
X103351669Y-119259352D01*
X103363647Y-118880820D01*
X103380235Y-118567495D01*
X103382120Y-118539980D01*
X103403740Y-118227292D01*
X103421540Y-117979502D01*
X103436837Y-117782759D01*
X103450954Y-117623214D01*
X103465209Y-117487015D01*
X103480924Y-117360313D01*
X103499417Y-117229258D01*
X103522009Y-117080000D01*
X103546254Y-116929461D01*
X103713639Y-116110200D01*
X103940717Y-115278576D01*
X104220711Y-114460000D01*
X104269404Y-114330695D01*
X104335598Y-114153828D01*
X104400315Y-113980000D01*
X104404262Y-113969370D01*
X104459829Y-113821344D01*
X104507810Y-113696182D01*
X104538206Y-113620000D01*
X104549238Y-113593412D01*
X104604296Y-113451400D01*
X104680147Y-113245519D01*
X104773346Y-112985232D01*
X104880450Y-112680000D01*
X104929906Y-112538488D01*
X104987969Y-112374061D01*
X105033874Y-112245999D01*
X105060635Y-112173926D01*
X105065771Y-112160523D01*
X105100899Y-112061456D01*
X105155423Y-111901087D01*
X105225381Y-111691423D01*
X105306807Y-111444475D01*
X105395737Y-111172249D01*
X105488207Y-110886755D01*
X105580252Y-110600000D01*
X105656610Y-110361560D01*
X105741271Y-110098260D01*
X105822318Y-109847139D01*
X105889433Y-109640227D01*
X105930298Y-109508625D01*
X105982907Y-109318964D01*
X106021593Y-109154444D01*
X106040040Y-109040227D01*
X106066318Y-108820311D01*
X106143847Y-108445432D01*
X106267807Y-108012257D01*
X106438757Y-107518912D01*
X106657253Y-106963520D01*
X106747062Y-106741069D01*
X106855810Y-106462802D01*
X106964000Y-106178323D01*
X107057810Y-105923520D01*
X107136650Y-105705671D01*
X107232000Y-105447289D01*
X107325273Y-105201829D01*
X107424847Y-104947670D01*
X107539098Y-104663188D01*
X107676402Y-104326762D01*
X107745675Y-104151814D01*
X107844382Y-103887956D01*
X107941822Y-103613842D01*
X108024475Y-103366762D01*
X108105586Y-103114325D01*
X108223083Y-102754453D01*
X108327828Y-102443482D01*
X108426091Y-102164209D01*
X108524140Y-101899428D01*
X108628247Y-101631936D01*
X108744679Y-101344528D01*
X108879709Y-101020000D01*
X108948843Y-100854683D01*
X109060047Y-100586290D01*
X109163191Y-100334457D01*
X109252480Y-100113459D01*
X109322123Y-99937566D01*
X109366327Y-99821052D01*
X109415929Y-99697364D01*
X109520092Y-99473536D01*
X109655058Y-99209455D01*
X109812167Y-98920210D01*
X109982758Y-98620896D01*
X110158170Y-98326603D01*
X110329742Y-98052423D01*
X110488813Y-97813450D01*
X110626722Y-97624774D01*
X110697028Y-97531175D01*
X110756958Y-97441750D01*
X110780000Y-97393397D01*
X110756596Y-97381595D01*
X110668025Y-97379248D01*
X110527152Y-97389002D01*
X110348556Y-97408811D01*
X110146817Y-97436629D01*
X109936513Y-97470410D01*
X109732223Y-97508107D01*
X109548526Y-97547675D01*
X109400000Y-97587068D01*
X109175468Y-97660717D01*
X108685897Y-97849803D01*
X108168019Y-98084747D01*
X107640000Y-98357595D01*
X107438324Y-98470769D01*
X107123200Y-98661068D01*
X106834016Y-98856616D01*
X106558767Y-99067437D01*
X106285449Y-99303555D01*
X106002058Y-99574994D01*
X105696590Y-99891778D01*
X105357041Y-100263930D01*
X105260557Y-100371181D01*
X105070295Y-100580441D01*
X104856706Y-100813258D01*
X104639459Y-101048223D01*
X104438225Y-101263930D01*
X104281550Y-101433247D01*
X104114346Y-101619044D01*
X103967178Y-101787803D01*
X103851839Y-101925972D01*
X103780127Y-102020000D01*
X103717346Y-102109787D01*
X103640754Y-102213232D01*
X103589147Y-102275612D01*
X103534436Y-102340998D01*
X103467847Y-102435612D01*
X103346718Y-102617106D01*
X103114973Y-102931741D01*
X102858605Y-103246760D01*
X102590345Y-103548118D01*
X102322923Y-103821772D01*
X102069068Y-104053680D01*
X101841510Y-104229796D01*
X101721058Y-104311626D01*
X101490206Y-104464992D01*
X101323189Y-104570159D01*
X101220000Y-104627133D01*
X101217646Y-104628243D01*
X101151287Y-104664329D01*
X101040973Y-104728419D01*
X100909296Y-104807404D01*
X100892717Y-104817468D01*
X100770826Y-104889658D01*
X100679564Y-104940666D01*
X100637608Y-104960000D01*
X100622635Y-104964632D01*
X100568312Y-105001601D01*
X100554111Y-105012605D01*
X100478219Y-105064895D01*
X100360414Y-105142023D01*
X100219484Y-105231601D01*
X99913071Y-105430911D01*
X99530377Y-105695833D01*
X99140000Y-105981715D01*
X99047553Y-106050957D01*
X98879808Y-106175690D01*
X98684021Y-106320582D01*
X98481351Y-106470012D01*
X98292958Y-106608359D01*
X98140000Y-106720000D01*
X98127414Y-106729141D01*
X97643405Y-107084036D01*
X97178793Y-107431100D01*
X96743033Y-107763057D01*
X96345579Y-108072629D01*
X95995886Y-108352540D01*
X95703409Y-108595511D01*
X95482086Y-108784622D01*
X95195614Y-109032322D01*
X94954458Y-109245897D01*
X94748575Y-109435154D01*
X94567922Y-109609903D01*
X94402456Y-109779952D01*
X94242131Y-109955113D01*
X94076905Y-110145192D01*
X93896735Y-110360000D01*
X93868581Y-110393945D01*
X93761057Y-110523174D01*
X93669944Y-110632082D01*
X93612520Y-110700000D01*
X93556506Y-110768334D01*
X93469257Y-110878597D01*
X93371898Y-111004248D01*
X93296504Y-111101313D01*
X93179130Y-111250590D01*
X93034093Y-111433868D01*
X92872904Y-111636602D01*
X92707075Y-111844248D01*
X92549256Y-112041445D01*
X92387129Y-112244128D01*
X92240322Y-112427756D01*
X92120400Y-112577868D01*
X92038923Y-112680000D01*
X91929421Y-112819562D01*
X91777915Y-113018040D01*
X91622122Y-113227143D01*
X91469589Y-113436269D01*
X91327864Y-113634817D01*
X91204495Y-113812185D01*
X91107030Y-113957771D01*
X91043016Y-114060974D01*
X91020000Y-114111192D01*
X91011255Y-114138979D01*
X90961958Y-114198375D01*
X90954857Y-114205735D01*
X90908683Y-114274763D01*
X90838648Y-114396750D01*
X90752771Y-114556236D01*
X90659071Y-114737762D01*
X90565567Y-114925871D01*
X90480280Y-115105103D01*
X90411228Y-115260000D01*
X90387556Y-115317668D01*
X90327503Y-115471184D01*
X90254020Y-115665051D01*
X90175638Y-115876392D01*
X90100889Y-116082333D01*
X90038301Y-116260000D01*
X89997449Y-116375866D01*
X89939932Y-116535247D01*
X89879470Y-116700000D01*
X89825515Y-116853431D01*
X89756388Y-117067164D01*
X89699988Y-117259298D01*
X89624264Y-117538596D01*
X89527262Y-117538596D01*
X89521744Y-117484832D01*
X89526679Y-117353706D01*
X89551832Y-117222473D01*
X89597253Y-117073711D01*
X89662989Y-116890000D01*
X89694766Y-116803230D01*
X89761203Y-116621385D01*
X89823654Y-116450000D01*
X89860509Y-116349057D01*
X89916354Y-116197285D01*
X89960000Y-116080000D01*
X89989966Y-115999753D01*
X90043995Y-115853698D01*
X90100428Y-115700000D01*
X90206565Y-115418271D01*
X90365370Y-115033278D01*
X90531951Y-114678696D01*
X90715947Y-114337011D01*
X90927001Y-113990711D01*
X91174752Y-113622283D01*
X91468840Y-113214216D01*
X91479552Y-113199722D01*
X91708434Y-112892141D01*
X91898187Y-112641760D01*
X92055061Y-112440430D01*
X92185309Y-112280000D01*
X92189332Y-112275166D01*
X92264611Y-112183069D01*
X92378095Y-112042364D01*
X92519250Y-111866190D01*
X92677547Y-111667688D01*
X92842455Y-111460000D01*
X92878401Y-111414663D01*
X93029971Y-111224331D01*
X93163485Y-111057988D01*
X93271075Y-110925345D01*
X93344877Y-110836112D01*
X93377025Y-110800000D01*
X93399160Y-110775910D01*
X93462108Y-110698281D01*
X93553141Y-110581566D01*
X93661028Y-110440000D01*
X93840199Y-110214454D01*
X94152708Y-109862081D01*
X94524422Y-109484756D01*
X94957387Y-109080656D01*
X95453653Y-108647955D01*
X96015267Y-108184828D01*
X96644277Y-107689451D01*
X97342732Y-107160000D01*
X97560619Y-106997560D01*
X97809488Y-106812016D01*
X98052352Y-106630943D01*
X98269833Y-106468788D01*
X98442554Y-106340000D01*
X98620619Y-106207425D01*
X98821882Y-106057967D01*
X99008535Y-105919720D01*
X99155845Y-105811025D01*
X99194340Y-105782853D01*
X99442108Y-105606333D01*
X99724072Y-105412013D01*
X100020537Y-105212978D01*
X100311809Y-105022316D01*
X100578195Y-104853113D01*
X100800000Y-104718457D01*
X101004591Y-104597959D01*
X101272487Y-104436883D01*
X101490863Y-104299981D01*
X101672343Y-104178702D01*
X101829549Y-104064492D01*
X101975106Y-103948800D01*
X102121638Y-103823074D01*
X102149972Y-103797610D01*
X102337776Y-103612566D01*
X102552272Y-103378386D01*
X102779868Y-103110949D01*
X103006974Y-102826131D01*
X103220000Y-102539811D01*
X103236094Y-102517344D01*
X103875819Y-101688510D01*
X104562001Y-100920947D01*
X104655679Y-100823358D01*
X104844786Y-100625189D01*
X105030018Y-100429743D01*
X105194112Y-100255265D01*
X105319805Y-100120000D01*
X105530219Y-99894409D01*
X105876308Y-99541411D01*
X106200895Y-99237591D01*
X106518026Y-98971467D01*
X106841748Y-98731555D01*
X107186106Y-98506374D01*
X107565146Y-98284441D01*
X107763136Y-98178078D01*
X108043545Y-98037819D01*
X108338375Y-97899710D01*
X108626688Y-97773188D01*
X108887544Y-97667693D01*
X109100000Y-97592662D01*
X109231004Y-97551537D01*
X109402391Y-97497306D01*
X109540000Y-97453311D01*
X109628919Y-97430974D01*
X109800265Y-97399968D01*
X110023992Y-97367356D01*
X110284822Y-97335004D01*
X110567477Y-97304778D01*
X110856680Y-97278546D01*
X111137153Y-97258174D01*
X111279297Y-97247262D01*
X111502488Y-97225717D01*
X111746785Y-97198530D01*
X111980000Y-97169100D01*
X111982398Y-97168776D01*
X112406308Y-97125616D01*
X112891195Y-97100598D01*
X113420353Y-97093191D01*
X113977073Y-97102862D01*
X114544648Y-97129080D01*
X115106369Y-97171313D01*
X115645529Y-97229028D01*
X116145420Y-97301696D01*
X116181932Y-97307784D01*
X116374164Y-97338183D01*
X116558575Y-97365039D01*
X116699689Y-97383140D01*
X116759026Y-97390928D01*
X116935857Y-97423205D01*
X117094269Y-97462765D01*
X117149290Y-97478339D01*
X117279846Y-97507711D01*
X117376485Y-97519567D01*
X117420351Y-97523034D01*
X117539907Y-97544086D01*
X117676485Y-97577811D01*
X117897057Y-97638014D01*
X118467253Y-97774430D01*
X119064430Y-97893041D01*
X119663803Y-97989664D01*
X120240588Y-98060113D01*
X120770000Y-98100202D01*
X120858380Y-98104251D01*
X121049418Y-98111203D01*
X121177079Y-98111551D01*
X121253383Y-98104497D01*
X121290349Y-98089242D01*
X121300000Y-98064988D01*
X121300283Y-98055301D01*
X121325271Y-97990872D01*
X121370516Y-97981848D01*
X121407358Y-98035975D01*
X121432233Y-98080903D01*
X121505722Y-98114804D01*
X121634243Y-98118917D01*
X121827940Y-98094660D01*
X121863925Y-98088368D01*
X121940768Y-98063413D01*
X121974850Y-98011093D01*
X121988446Y-97905100D01*
X122001013Y-97740000D01*
X122056838Y-97909999D01*
X122073420Y-97959967D01*
X122102968Y-98045714D01*
X122116332Y-98079321D01*
X122121968Y-98078175D01*
X122199682Y-98058044D01*
X122334166Y-98019983D01*
X122508331Y-97969081D01*
X122705087Y-97910426D01*
X122907343Y-97849106D01*
X123098011Y-97790209D01*
X123260000Y-97738823D01*
X123263164Y-97737799D01*
X123513444Y-97657215D01*
X123719698Y-97592153D01*
X123902195Y-97536777D01*
X124081205Y-97485251D01*
X124276997Y-97431740D01*
X124509839Y-97370406D01*
X124800000Y-97295414D01*
X124945896Y-97258441D01*
X125372264Y-97158355D01*
X125772089Y-97078925D01*
X126160485Y-97018759D01*
X126552565Y-96976465D01*
X126963442Y-96950648D01*
X127408232Y-96939917D01*
X127902046Y-96942878D01*
X128460000Y-96958140D01*
X128518653Y-96960223D01*
X128903865Y-96975464D01*
X129226325Y-96992604D01*
X129501194Y-97014127D01*
X129743633Y-97042520D01*
X129968802Y-97080266D01*
X130191863Y-97129851D01*
X130427976Y-97193760D01*
X130692301Y-97274479D01*
X131000000Y-97374492D01*
X131000650Y-97374708D01*
X131064340Y-97398973D01*
X131160000Y-97438137D01*
X131246042Y-97472095D01*
X131494078Y-97555178D01*
X131781736Y-97636362D01*
X132080916Y-97708627D01*
X132363518Y-97764950D01*
X132601442Y-97798311D01*
X132641527Y-97802185D01*
X132842442Y-97824513D01*
X133038040Y-97852379D01*
X133249029Y-97889352D01*
X133496114Y-97939001D01*
X133800000Y-98004894D01*
X133950389Y-98041912D01*
X134295633Y-98147534D01*
X134665857Y-98283614D01*
X135035047Y-98439512D01*
X135377188Y-98604588D01*
X135666264Y-98768201D01*
X135724123Y-98804262D01*
X135864811Y-98890879D01*
X136006264Y-98976919D01*
X136076232Y-99020334D01*
X136220797Y-99115558D01*
X136340000Y-99200508D01*
X136418905Y-99260272D01*
X136549196Y-99358459D01*
X136707692Y-99477582D01*
X136875715Y-99603589D01*
X136880001Y-99606799D01*
X137152695Y-99816267D01*
X137396011Y-100015696D01*
X137630127Y-100222939D01*
X137875218Y-100455844D01*
X138151461Y-100732263D01*
X138213261Y-100796060D01*
X138401590Y-101004471D01*
X138567832Y-101215518D01*
X138721328Y-101443898D01*
X138871418Y-101704307D01*
X139027444Y-102011442D01*
X139198746Y-102380000D01*
X139198798Y-102380115D01*
X139414107Y-102852598D01*
X139604597Y-103258365D01*
X139774239Y-103605338D01*
X139927005Y-103901438D01*
X140066866Y-104154588D01*
X140197794Y-104372709D01*
X140230761Y-104424372D01*
X140499580Y-104796837D01*
X140813591Y-105151159D01*
X141177722Y-105490943D01*
X141596901Y-105819793D01*
X142076055Y-106141315D01*
X142620111Y-106459115D01*
X143233997Y-106776796D01*
X143922641Y-107097965D01*
X144103438Y-107179777D01*
X144505085Y-107374009D01*
X144859753Y-107567480D01*
X145189253Y-107773452D01*
X145515399Y-108005188D01*
X145860000Y-108275950D01*
X146097165Y-108477227D01*
X146464297Y-108813545D01*
X146857359Y-109199594D01*
X147266041Y-109625153D01*
X147680029Y-110080000D01*
X147818169Y-110235602D01*
X147963170Y-110398436D01*
X148084406Y-110534046D01*
X148172131Y-110631533D01*
X148216597Y-110680000D01*
X148237282Y-110702186D01*
X148322083Y-110798465D01*
X148442455Y-110939487D01*
X148587832Y-111112504D01*
X148747649Y-111304769D01*
X148911339Y-111503533D01*
X149068339Y-111696048D01*
X149208081Y-111869566D01*
X149320000Y-112011339D01*
X149386707Y-112097605D01*
X149761118Y-112596045D01*
X150119184Y-113096401D01*
X150453015Y-113586824D01*
X150754721Y-114055464D01*
X151016412Y-114490473D01*
X151230196Y-114880000D01*
X151251100Y-114920996D01*
X151447678Y-115366553D01*
X151591379Y-115813017D01*
X151680622Y-116249802D01*
X151713828Y-116666324D01*
X151689416Y-117051997D01*
X151605807Y-117396235D01*
X151597328Y-117419787D01*
X151433456Y-117802211D01*
X151212048Y-118215332D01*
X150941627Y-118646384D01*
X150630717Y-119082598D01*
X150287842Y-119511203D01*
X149921524Y-119919433D01*
X149919031Y-119922049D01*
X149774046Y-120073715D01*
X149589663Y-120265878D01*
X149381840Y-120481946D01*
X149166533Y-120705328D01*
X148959702Y-120919433D01*
X148953857Y-120925476D01*
X148747849Y-121139738D01*
X148535399Y-121362835D01*
X148332094Y-121578254D01*
X148153522Y-121769480D01*
X148015271Y-121920000D01*
X147873171Y-122076813D01*
X147735618Y-122228434D01*
X147620412Y-122355249D01*
X147543219Y-122440000D01*
X147522005Y-122463966D01*
X147431612Y-122573438D01*
X147311516Y-122725720D01*
X147174433Y-122904140D01*
X147033080Y-123092027D01*
X146900174Y-123272708D01*
X146788432Y-123429512D01*
X146758564Y-123477440D01*
X146690827Y-123599396D01*
X146604116Y-123764679D01*
X146507246Y-123955594D01*
X146409034Y-124154447D01*
X146318293Y-124343543D01*
X146243841Y-124505187D01*
X146194491Y-124621685D01*
X146180816Y-124656925D01*
X146135039Y-124773504D01*
X146073523Y-124929125D01*
X146005658Y-125100000D01*
X145923961Y-125306822D01*
X145763173Y-125726825D01*
X145634349Y-126085044D01*
X145535286Y-126388474D01*
X145463778Y-126644112D01*
X145417623Y-126858955D01*
X145394617Y-127040000D01*
X145390105Y-127105041D01*
X145385728Y-127198090D01*
X145386126Y-127288258D01*
X145392804Y-127387174D01*
X145407263Y-127506467D01*
X145431008Y-127657767D01*
X145465540Y-127852703D01*
X145512364Y-128102904D01*
X145572983Y-128420000D01*
X145604009Y-128588509D01*
X145648451Y-128849583D01*
X145693390Y-129132901D01*
X145736818Y-129424023D01*
X145776728Y-129708508D01*
X145811109Y-129971915D01*
X145837956Y-130199802D01*
X145855259Y-130377729D01*
X145861010Y-130491255D01*
X145873698Y-130571954D01*
X145910000Y-130621799D01*
X145927167Y-130638284D01*
X145953196Y-130724511D01*
X145965017Y-130870544D01*
X145975374Y-130984207D01*
X146004479Y-131162476D01*
X146047435Y-131369527D01*
X146099437Y-131580000D01*
X146151449Y-131773098D01*
X146199736Y-131952681D01*
X146237907Y-132094972D01*
X146260598Y-132180000D01*
X146281426Y-132253696D01*
X146336347Y-132430004D01*
X146408152Y-132646989D01*
X146489991Y-132885164D01*
X146575017Y-133125039D01*
X146656380Y-133347129D01*
X146727232Y-133531945D01*
X146780725Y-133660000D01*
X146807363Y-133725714D01*
X146860332Y-133879180D01*
X146922470Y-134078824D01*
X146987896Y-134305485D01*
X147050731Y-134540000D01*
X147052563Y-134547137D01*
X147136117Y-134886529D01*
X147200733Y-135187332D01*
X147247042Y-135464218D01*
X147275675Y-135731859D01*
X147287266Y-136004926D01*
X147282446Y-136298092D01*
X147261847Y-136626028D01*
X147226100Y-137003407D01*
X147175838Y-137444899D01*
X147166698Y-137525206D01*
X147153219Y-137676910D01*
X147146598Y-137827800D01*
X147147046Y-137993959D01*
X147154775Y-138191472D01*
X147169996Y-138436424D01*
X147192920Y-138744899D01*
X147203048Y-138875768D01*
X147242807Y-139401669D01*
X147275128Y-139852323D01*
X147300178Y-140231301D01*
X147318122Y-140542175D01*
X147329127Y-140788517D01*
X147333358Y-140973898D01*
X147330983Y-141101891D01*
X147322167Y-141176068D01*
X147307075Y-141200000D01*
X147306380Y-141199956D01*
X147296964Y-141189893D01*
X147286570Y-141157776D01*
X147274386Y-141097213D01*
X147259602Y-141001815D01*
X147241404Y-140865190D01*
X147218982Y-140680948D01*
X147191524Y-140442699D01*
X147158217Y-140144051D01*
X147118251Y-139778615D01*
X147070813Y-139340000D01*
X147001838Y-138700000D01*
X146968763Y-139100000D01*
X146958828Y-139241848D01*
X146947030Y-139630692D01*
X146954368Y-140031916D01*
X146979582Y-140422738D01*
X147021408Y-140780375D01*
X147078585Y-141082044D01*
X147126267Y-141277077D01*
X147176162Y-141470393D01*
X147222934Y-141630379D01*
X147274008Y-141778184D01*
X147336808Y-141934956D01*
X147418761Y-142121845D01*
X147527293Y-142360000D01*
X147546406Y-142400659D01*
X147628578Y-142563425D01*
X147734782Y-142761179D01*
X147858089Y-142982230D01*
X147991569Y-143214888D01*
X148128293Y-143447466D01*
X148261331Y-143668272D01*
X148383754Y-143865618D01*
X148488632Y-144027814D01*
X148569036Y-144143171D01*
X148618037Y-144200000D01*
X148629959Y-144213025D01*
X148676912Y-144280307D01*
X148738583Y-144380000D01*
X148762635Y-144419816D01*
X148837867Y-144535283D01*
X148900511Y-144620000D01*
X148940766Y-144672388D01*
X148987116Y-144754854D01*
X148996000Y-144808237D01*
X148961965Y-144815218D01*
X148923725Y-144792300D01*
X148828053Y-144701459D01*
X148703740Y-144555107D01*
X148557081Y-144362695D01*
X148394368Y-144133674D01*
X148221897Y-143877495D01*
X148045960Y-143603608D01*
X147872852Y-143321464D01*
X147708866Y-143040514D01*
X147560297Y-142770209D01*
X147433438Y-142520000D01*
X147427126Y-142506810D01*
X147278132Y-142166488D01*
X147134844Y-141788565D01*
X147009693Y-141408063D01*
X146915112Y-141060000D01*
X146889646Y-140911109D01*
X146866993Y-140682335D01*
X146850623Y-140403457D01*
X146840549Y-140090156D01*
X146836784Y-139758112D01*
X146839339Y-139423007D01*
X146848227Y-139100521D01*
X146863459Y-138806334D01*
X146885049Y-138556127D01*
X146913009Y-138365581D01*
X146920787Y-138324134D01*
X146951514Y-138098622D01*
X146972360Y-137839757D01*
X146980055Y-137585581D01*
X146981848Y-137467809D01*
X146993619Y-137227499D01*
X147013953Y-136992447D01*
X147040000Y-136800000D01*
X147041919Y-136788987D01*
X147083811Y-136444542D01*
X147097415Y-136082291D01*
X147082736Y-135733115D01*
X147039780Y-135427896D01*
X147026059Y-135362513D01*
X146953790Y-135026767D01*
X146893224Y-134762155D01*
X146842801Y-134562093D01*
X146800962Y-134420000D01*
X146795817Y-134404300D01*
X146759961Y-134292519D01*
X146707975Y-134128183D01*
X146646019Y-133930830D01*
X146580253Y-133720000D01*
X146562410Y-133662773D01*
X146499170Y-133462550D01*
X146442600Y-133287215D01*
X146398299Y-133153966D01*
X146371867Y-133080000D01*
X146368767Y-133072192D01*
X146334442Y-132977730D01*
X146286662Y-132837914D01*
X146234768Y-132680000D01*
X146198950Y-132568499D01*
X146102288Y-132263402D01*
X146024539Y-132009005D01*
X145960385Y-131786388D01*
X145904508Y-131576628D01*
X145851590Y-131360806D01*
X145796314Y-131120000D01*
X145793718Y-131108448D01*
X145749499Y-130923446D01*
X145711172Y-130801342D01*
X145670689Y-130727110D01*
X145620000Y-130685725D01*
X145551056Y-130662160D01*
X145520246Y-130653506D01*
X145357210Y-130584293D01*
X145153926Y-130470033D01*
X144923571Y-130320129D01*
X144679324Y-130143980D01*
X144434362Y-129950989D01*
X144201863Y-129750556D01*
X143995006Y-129552082D01*
X143930373Y-129484406D01*
X143775835Y-129313909D01*
X143605419Y-129116345D01*
X143425892Y-128900520D01*
X143244021Y-128675237D01*
X143066573Y-128449300D01*
X142900315Y-128231511D01*
X142752015Y-128030676D01*
X142628439Y-127855598D01*
X142536354Y-127715080D01*
X142482527Y-127617926D01*
X142473726Y-127572941D01*
X142501035Y-127590541D01*
X142572163Y-127662696D01*
X142679711Y-127782383D01*
X142816815Y-127941618D01*
X142976607Y-128132413D01*
X143152223Y-128346785D01*
X143336796Y-128576748D01*
X143433023Y-128695485D01*
X143688037Y-128991775D01*
X143961606Y-129287438D01*
X144240718Y-129569580D01*
X144512361Y-129825311D01*
X144763520Y-130041735D01*
X144981183Y-130205962D01*
X145032571Y-130240618D01*
X145220920Y-130362145D01*
X145392205Y-130464628D01*
X145534282Y-130541396D01*
X145635007Y-130585777D01*
X145682235Y-130591098D01*
X145685516Y-130577593D01*
X145682363Y-130500306D01*
X145667255Y-130372351D01*
X145642195Y-130212647D01*
X145636275Y-130177833D01*
X145604377Y-129968187D01*
X145576934Y-129754482D01*
X145559340Y-129578014D01*
X145530613Y-129283878D01*
X145469699Y-128852978D01*
X145381139Y-128361573D01*
X145263793Y-127802821D01*
X145231612Y-127646727D01*
X145192031Y-127369755D01*
X145185104Y-127113122D01*
X145212455Y-126854303D01*
X145275708Y-126570770D01*
X145376489Y-126240000D01*
X145422485Y-126104463D01*
X145467281Y-125978352D01*
X145497482Y-125900000D01*
X145522436Y-125838660D01*
X145568376Y-125719723D01*
X145620700Y-125580000D01*
X145662349Y-125469900D01*
X145727259Y-125306154D01*
X145782730Y-125174414D01*
X145798990Y-125136749D01*
X145849411Y-125007419D01*
X145882562Y-124904036D01*
X145908903Y-124829199D01*
X145944432Y-124777261D01*
X145959969Y-124761373D01*
X145980001Y-124693090D01*
X145980202Y-124689444D01*
X146001788Y-124618340D01*
X146054135Y-124492350D01*
X146130340Y-124325359D01*
X146223503Y-124131254D01*
X146326724Y-123923920D01*
X146433100Y-123717242D01*
X146535733Y-123525105D01*
X146627720Y-123361396D01*
X146702160Y-123240000D01*
X146826858Y-123061835D01*
X147045478Y-122779193D01*
X147318726Y-122453487D01*
X147648343Y-122082719D01*
X148036071Y-121664893D01*
X148483651Y-121198012D01*
X148566902Y-121112311D01*
X148914255Y-120754218D01*
X149212566Y-120445409D01*
X149467584Y-120179483D01*
X149685052Y-119950042D01*
X149870719Y-119750685D01*
X150030330Y-119575013D01*
X150169632Y-119416627D01*
X150294371Y-119269128D01*
X150410294Y-119126114D01*
X150523146Y-118981188D01*
X150638674Y-118827950D01*
X150762625Y-118660000D01*
X150848147Y-118538680D01*
X151034474Y-118245757D01*
X151212998Y-117929961D01*
X151368612Y-117618855D01*
X151486207Y-117340000D01*
X151494283Y-117316442D01*
X151533454Y-117134652D01*
X151556244Y-116901581D01*
X151562683Y-116640405D01*
X151552806Y-116374300D01*
X151526643Y-116126439D01*
X151484228Y-115920000D01*
X151428653Y-115736915D01*
X151205538Y-115157622D01*
X150907908Y-114571168D01*
X150533763Y-113973460D01*
X150493574Y-113913228D01*
X150440703Y-113828016D01*
X150420001Y-113785322D01*
X150401379Y-113749451D01*
X150343541Y-113658837D01*
X150254519Y-113525955D01*
X150142510Y-113362570D01*
X150015713Y-113180452D01*
X149882324Y-112991368D01*
X149750543Y-112807086D01*
X149628567Y-112639374D01*
X149524594Y-112500000D01*
X149445646Y-112396677D01*
X149054768Y-111897953D01*
X148645030Y-111394607D01*
X148224395Y-110895497D01*
X147800823Y-110409485D01*
X147382277Y-109945429D01*
X146976717Y-109512191D01*
X146592106Y-109118629D01*
X146236406Y-108773604D01*
X145917577Y-108485976D01*
X145723222Y-108321296D01*
X145499460Y-108140409D01*
X145285829Y-107980552D01*
X145070272Y-107834472D01*
X144840731Y-107694919D01*
X144585151Y-107554639D01*
X144291472Y-107406382D01*
X143947639Y-107242895D01*
X143541593Y-107056927D01*
X143319662Y-106953982D01*
X142851367Y-106720592D01*
X142397084Y-106473145D01*
X141967133Y-106218184D01*
X141571833Y-105962248D01*
X141221505Y-105711879D01*
X140926468Y-105473618D01*
X140697043Y-105254005D01*
X140545181Y-105079103D01*
X140350345Y-104829591D01*
X140163221Y-104566046D01*
X140007101Y-104320000D01*
X139998583Y-104305463D01*
X139920149Y-104171978D01*
X139855569Y-104062676D01*
X139818098Y-104000000D01*
X139811021Y-103988101D01*
X139754203Y-103881899D01*
X139674446Y-103721393D01*
X139579403Y-103522767D01*
X139476724Y-103302204D01*
X139374063Y-103075887D01*
X139279071Y-102860000D01*
X139250241Y-102793808D01*
X139157070Y-102585596D01*
X139052076Y-102357450D01*
X138942671Y-102124863D01*
X138836269Y-101903331D01*
X138740284Y-101708347D01*
X138662129Y-101555405D01*
X138609218Y-101460000D01*
X138556733Y-101379355D01*
X138370846Y-101135180D01*
X138130673Y-100863409D01*
X137846681Y-100573985D01*
X137529331Y-100276851D01*
X137189089Y-99981949D01*
X136836418Y-99699221D01*
X136481783Y-99438610D01*
X136393282Y-99375909D01*
X136283018Y-99295516D01*
X136210704Y-99240000D01*
X136201832Y-99232885D01*
X136111804Y-99168943D01*
X136002657Y-99100000D01*
X135975868Y-99084115D01*
X135861320Y-99015915D01*
X135712078Y-98926806D01*
X135553386Y-98831855D01*
X135302409Y-98691241D01*
X134978580Y-98531131D01*
X134641140Y-98383475D01*
X134310038Y-98256394D01*
X134005224Y-98158008D01*
X133746648Y-98096438D01*
X133684324Y-98084438D01*
X133535735Y-98052163D01*
X133381597Y-98015254D01*
X133290083Y-97993275D01*
X133181019Y-97970685D01*
X133121597Y-97963248D01*
X133117037Y-97975632D01*
X133163398Y-98003852D01*
X133239359Y-98037320D01*
X133321017Y-98065586D01*
X133384468Y-98078195D01*
X133420942Y-98085090D01*
X133513905Y-98116494D01*
X133633024Y-98164953D01*
X133758157Y-98221257D01*
X133869161Y-98276194D01*
X133945893Y-98320554D01*
X133968209Y-98345125D01*
X133941504Y-98349033D01*
X133873896Y-98323804D01*
X133821203Y-98298957D01*
X133687961Y-98248540D01*
X133509489Y-98189138D01*
X133305519Y-98126931D01*
X133095779Y-98068096D01*
X132900000Y-98018812D01*
X132729660Y-97978152D01*
X132510551Y-97923981D01*
X132317449Y-97874464D01*
X132160759Y-97839170D01*
X131972951Y-97808441D01*
X131817449Y-97794552D01*
X131729675Y-97789996D01*
X131680199Y-97780974D01*
X131700000Y-97770135D01*
X131716604Y-97765493D01*
X131720758Y-97746622D01*
X131666882Y-97714797D01*
X131548716Y-97666880D01*
X131360000Y-97599733D01*
X131212766Y-97548620D01*
X131010473Y-97477160D01*
X130830673Y-97412339D01*
X130700000Y-97363684D01*
X130693249Y-97361122D01*
X130566219Y-97320470D01*
X130398960Y-97276714D01*
X130206224Y-97232581D01*
X130002760Y-97190797D01*
X129803322Y-97154087D01*
X129622660Y-97125178D01*
X129475526Y-97106795D01*
X129376672Y-97101665D01*
X129340849Y-97112514D01*
X129369619Y-97139562D01*
X129455452Y-97203520D01*
X129587854Y-97296528D01*
X129756246Y-97411162D01*
X129950050Y-97540000D01*
X130081217Y-97626977D01*
X130322088Y-97789783D01*
X130561144Y-97954735D01*
X130776555Y-98106705D01*
X130946491Y-98230564D01*
X131076152Y-98331702D01*
X131341695Y-98557548D01*
X131634856Y-98826568D01*
X131944450Y-99127022D01*
X132259292Y-99447172D01*
X132568200Y-99775280D01*
X132859990Y-100099607D01*
X133123476Y-100408414D01*
X133347476Y-100689964D01*
X133520805Y-100932517D01*
X133595683Y-101045174D01*
X133710231Y-101215186D01*
X133818698Y-101374035D01*
X133825754Y-101384287D01*
X133903733Y-101499711D01*
X133959005Y-101585327D01*
X133980000Y-101623258D01*
X133982338Y-101629943D01*
X134015385Y-101690786D01*
X134082153Y-101803886D01*
X134175786Y-101957772D01*
X134289427Y-102140974D01*
X134295733Y-102151207D01*
X134350899Y-102246560D01*
X134412745Y-102360000D01*
X134436435Y-102404379D01*
X134511306Y-102541409D01*
X134588827Y-102680000D01*
X134630453Y-102754065D01*
X134712068Y-102901018D01*
X134809378Y-103077560D01*
X134909293Y-103260000D01*
X134972969Y-103376685D01*
X135086017Y-103583828D01*
X135194053Y-103781770D01*
X135280424Y-103940000D01*
X135312192Y-103998111D01*
X135412810Y-104181562D01*
X135525850Y-104387026D01*
X135632340Y-104580000D01*
X135680494Y-104667136D01*
X135838901Y-104954782D01*
X135974701Y-105203376D01*
X136101037Y-105437067D01*
X136231051Y-105680000D01*
X136257222Y-105728903D01*
X136330980Y-105864557D01*
X136388931Y-105968021D01*
X136420335Y-106020000D01*
X136429215Y-106033625D01*
X136475590Y-106115267D01*
X136550462Y-106254172D01*
X136648493Y-106439927D01*
X136764347Y-106662117D01*
X136892685Y-106910329D01*
X137028171Y-107174150D01*
X137165467Y-107443166D01*
X137299236Y-107706963D01*
X137424140Y-107955128D01*
X137534843Y-108177247D01*
X137626006Y-108362908D01*
X137692293Y-108501695D01*
X137725306Y-108573950D01*
X137796680Y-108733744D01*
X137888888Y-108942773D01*
X137995598Y-109186458D01*
X138110481Y-109450223D01*
X138227209Y-109719488D01*
X138339451Y-109979676D01*
X138440878Y-110216210D01*
X138525161Y-110414510D01*
X138585970Y-110560000D01*
X138590706Y-110571517D01*
X138688341Y-110807937D01*
X138765976Y-110993320D01*
X138833021Y-111149922D01*
X138898886Y-111300000D01*
X138926151Y-111362083D01*
X138987010Y-111502313D01*
X139061980Y-111676306D01*
X139140672Y-111860000D01*
X139142690Y-111864725D01*
X139215035Y-112033609D01*
X139281148Y-112186325D01*
X139345150Y-112331684D01*
X139411162Y-112478498D01*
X139483303Y-112635578D01*
X139565695Y-112811738D01*
X139662458Y-113015788D01*
X139777713Y-113256540D01*
X139915580Y-113542807D01*
X140080179Y-113883401D01*
X140275633Y-114287133D01*
X140331355Y-114401438D01*
X140428700Y-114594966D01*
X140501751Y-114728247D01*
X140555993Y-114810062D01*
X140596914Y-114849198D01*
X140630000Y-114854437D01*
X140709671Y-114843942D01*
X140805140Y-114877995D01*
X140893553Y-114975260D01*
X140984617Y-115143652D01*
X141021122Y-115228629D01*
X141111679Y-115489326D01*
X141200842Y-115812429D01*
X141217029Y-115883230D01*
X141286121Y-116185432D01*
X141365028Y-116595834D01*
X141435073Y-117031131D01*
X141493767Y-117478819D01*
X141538621Y-117926395D01*
X141544227Y-117992574D01*
X141562933Y-118207203D01*
X141585895Y-118464434D01*
X141610719Y-118737590D01*
X141635010Y-119000000D01*
X141648882Y-119148355D01*
X141695039Y-119644736D01*
X141734033Y-120069135D01*
X141766383Y-120427555D01*
X141792610Y-120725995D01*
X141813236Y-120970459D01*
X141828780Y-121166946D01*
X141839764Y-121321460D01*
X141846707Y-121440000D01*
X141853825Y-121566546D01*
X141867187Y-121773460D01*
X141883541Y-122005473D01*
X141900810Y-122232178D01*
X141911121Y-122373428D01*
X141937186Y-122952334D01*
X141942967Y-123582320D01*
X141942015Y-123627693D01*
X141929112Y-124242732D01*
X141896268Y-124912918D01*
X141845086Y-125572225D01*
X141776212Y-126200000D01*
X141717059Y-126654931D01*
X141637262Y-127242304D01*
X141562082Y-127760134D01*
X141490306Y-128214408D01*
X141420717Y-128611118D01*
X141352099Y-128956254D01*
X141283237Y-129255804D01*
X141212915Y-129515760D01*
X141139917Y-129742111D01*
X141063027Y-129940847D01*
X140981031Y-130117958D01*
X140934695Y-130213308D01*
X140895154Y-130317984D01*
X140887373Y-130399344D01*
X140905751Y-130484678D01*
X140910877Y-130502191D01*
X140925230Y-130596556D01*
X140909642Y-130698725D01*
X140860093Y-130840000D01*
X140827240Y-130922927D01*
X140756649Y-131101241D01*
X140693856Y-131260000D01*
X140639806Y-131401518D01*
X140575071Y-131583121D01*
X140502669Y-131799108D01*
X140419122Y-132060141D01*
X140320953Y-132376884D01*
X140204685Y-132760000D01*
X140133375Y-132995989D01*
X140063226Y-133226732D01*
X140001563Y-133428163D01*
X139953216Y-133584510D01*
X139923013Y-133680000D01*
X139909596Y-133722641D01*
X139868523Y-133870535D01*
X139840390Y-133996633D01*
X139838371Y-134007933D01*
X139816855Y-134106557D01*
X139797739Y-134163659D01*
X139787683Y-134187076D01*
X139771333Y-134238245D01*
X139746488Y-134325396D01*
X139710899Y-134456839D01*
X139662316Y-134640881D01*
X139598489Y-134885832D01*
X139517170Y-135200000D01*
X139497795Y-135276875D01*
X139438594Y-135533814D01*
X139382913Y-135805682D01*
X139333984Y-136073985D01*
X139295035Y-136320229D01*
X139269298Y-136525917D01*
X139260000Y-136672556D01*
X139256672Y-136746167D01*
X139235825Y-136913601D01*
X139202188Y-137077375D01*
X139149859Y-137280887D01*
X139095102Y-137503480D01*
X139059352Y-137667615D01*
X139041052Y-137784051D01*
X139038646Y-137863552D01*
X139050577Y-137916879D01*
X139075289Y-137954793D01*
X139080495Y-137960605D01*
X139132460Y-138033057D01*
X139127852Y-138063492D01*
X139067378Y-138043948D01*
X139052851Y-138036981D01*
X139018337Y-138035274D01*
X138989668Y-138071692D01*
X138959515Y-138159644D01*
X138920547Y-138312540D01*
X138919877Y-138315315D01*
X138873383Y-138496878D01*
X138822800Y-138678048D01*
X138778961Y-138820000D01*
X138778960Y-138820001D01*
X138732529Y-138961853D01*
X138675574Y-139141482D01*
X138620424Y-139320000D01*
X138587533Y-139427559D01*
X138465426Y-139815225D01*
X138347156Y-140173173D01*
X138236847Y-140489488D01*
X138138619Y-140752256D01*
X138056595Y-140949564D01*
X138033469Y-141001902D01*
X137995141Y-141095485D01*
X137980000Y-141143518D01*
X137979959Y-141145326D01*
X137976209Y-141163828D01*
X137962953Y-141199905D01*
X137935363Y-141264559D01*
X137888615Y-141368792D01*
X137817881Y-141523604D01*
X137718335Y-141740000D01*
X137705777Y-141767271D01*
X137619002Y-141957616D01*
X137561677Y-142091037D01*
X137529786Y-142181391D01*
X137519311Y-142242535D01*
X137526236Y-142288325D01*
X137546544Y-142332618D01*
X137568093Y-142374607D01*
X137571066Y-142397716D01*
X137525583Y-142364299D01*
X137481278Y-142333540D01*
X137443684Y-142324299D01*
X137436148Y-142336404D01*
X137398710Y-142406060D01*
X137338851Y-142522134D01*
X137265344Y-142667731D01*
X137221854Y-142751879D01*
X137131951Y-142918234D01*
X137018444Y-143122608D01*
X136889124Y-143351498D01*
X136751783Y-143591401D01*
X136614212Y-143828816D01*
X136484204Y-144050241D01*
X136369551Y-144242172D01*
X136278044Y-144391108D01*
X136217475Y-144483547D01*
X136212212Y-144490996D01*
X136161038Y-144570862D01*
X136140000Y-144617794D01*
X136139863Y-144619525D01*
X136116151Y-144670302D01*
X136064058Y-144751619D01*
X136055777Y-144763569D01*
X135991773Y-144859468D01*
X135904819Y-144993307D01*
X135811246Y-145140000D01*
X135769406Y-145206149D01*
X135583880Y-145497830D01*
X135386846Y-145805400D01*
X135196241Y-146100930D01*
X135030000Y-146356488D01*
X135013765Y-146381532D01*
X134935696Y-146509359D01*
X134880763Y-146611631D01*
X134860000Y-146668124D01*
X134866967Y-146696263D01*
X134921776Y-146717996D01*
X135023274Y-146695229D01*
X135162066Y-146633131D01*
X135328760Y-146536868D01*
X135513959Y-146411609D01*
X135708271Y-146262521D01*
X135902300Y-146094771D01*
X135964368Y-146038019D01*
X136110913Y-145905188D01*
X136290451Y-145743459D01*
X136485856Y-145568243D01*
X136680000Y-145394953D01*
X136866526Y-145225859D01*
X137145152Y-144964549D01*
X137439625Y-144679956D01*
X137737318Y-144384796D01*
X138025606Y-144091784D01*
X138291860Y-143813637D01*
X138523455Y-143563071D01*
X138707764Y-143352803D01*
X138798020Y-143245575D01*
X138970986Y-143040092D01*
X139151933Y-142825135D01*
X139313842Y-142632803D01*
X139419837Y-142507558D01*
X139581734Y-142318150D01*
X139737786Y-142137464D01*
X139865308Y-141991867D01*
X139883250Y-141971562D01*
X140024354Y-141808858D01*
X140169160Y-141637665D01*
X140288959Y-141491867D01*
X140422493Y-141327581D01*
X140600621Y-141117597D01*
X140737437Y-140969470D01*
X140831051Y-140885315D01*
X140835796Y-140881899D01*
X140881484Y-140852735D01*
X140883988Y-140870996D01*
X140846071Y-140948260D01*
X140845595Y-140949183D01*
X140806388Y-141074153D01*
X140819696Y-141218648D01*
X140836913Y-141332244D01*
X140833911Y-141583954D01*
X140785588Y-141893124D01*
X140691490Y-142262255D01*
X140551160Y-142693849D01*
X140523699Y-142771222D01*
X140456671Y-142954623D01*
X140390174Y-143126108D01*
X140315597Y-143306771D01*
X140224328Y-143517703D01*
X140107758Y-143780000D01*
X140044790Y-143915722D01*
X139940587Y-144129489D01*
X139817783Y-144373218D01*
X139685273Y-144629907D01*
X139551952Y-144882554D01*
X139426715Y-145114157D01*
X139318457Y-145307714D01*
X139236071Y-145446224D01*
X139208831Y-145490299D01*
X139159535Y-145576372D01*
X139140000Y-145620824D01*
X139139875Y-145622309D01*
X139116688Y-145671035D01*
X139065587Y-145751619D01*
X139053732Y-145769311D01*
X138990418Y-145869412D01*
X138906268Y-146007765D01*
X138816165Y-146160000D01*
X138784823Y-146213506D01*
X138705355Y-146347146D01*
X138643170Y-146448874D01*
X138609618Y-146500000D01*
X138565612Y-146558146D01*
X138487424Y-146669148D01*
X138409416Y-146786858D01*
X138343065Y-146893252D01*
X138299849Y-146970305D01*
X138291245Y-146999993D01*
X138303419Y-146999159D01*
X138386018Y-146986325D01*
X138517242Y-146961579D01*
X138674672Y-146929570D01*
X138835887Y-146894946D01*
X138978470Y-146862356D01*
X139080000Y-146836449D01*
X139120075Y-146825206D01*
X139205827Y-146803024D01*
X139240000Y-146797330D01*
X139241181Y-146797496D01*
X139286990Y-146783427D01*
X139386031Y-146748566D01*
X139520000Y-146699320D01*
X139554048Y-146686522D01*
X140179258Y-146420356D01*
X140741164Y-146115922D01*
X141250146Y-145765227D01*
X141716584Y-145360277D01*
X142150855Y-144893079D01*
X142563341Y-144355640D01*
X142599912Y-144302235D01*
X142678499Y-144183715D01*
X142780272Y-144027602D01*
X142897821Y-143845532D01*
X143023738Y-143649144D01*
X143150611Y-143450073D01*
X143271032Y-143259957D01*
X143377592Y-143090432D01*
X143462879Y-142953136D01*
X143519485Y-142859706D01*
X143540000Y-142821778D01*
X143556356Y-142790788D01*
X143606805Y-142704267D01*
X143683192Y-142576421D01*
X143777198Y-142421296D01*
X144014395Y-142032258D01*
X144095590Y-142286129D01*
X144269375Y-142775289D01*
X144511294Y-143315798D01*
X144797033Y-143820000D01*
X144933673Y-144035913D01*
X145102688Y-144298698D01*
X145249305Y-144518896D01*
X145384701Y-144711782D01*
X145520050Y-144892634D01*
X145666530Y-145076728D01*
X145835317Y-145279343D01*
X146037586Y-145515755D01*
X146091090Y-145577576D01*
X146390675Y-145912525D01*
X146668510Y-146201138D01*
X146942714Y-146461568D01*
X147231404Y-146711969D01*
X147375012Y-146827923D01*
X147532450Y-146948958D01*
X147689176Y-147064544D01*
X147832741Y-147165896D01*
X147950698Y-147244232D01*
X148030600Y-147290765D01*
X148060001Y-147296713D01*
X148043146Y-147258481D01*
X147997068Y-147179859D01*
X147939479Y-147090763D01*
X147888258Y-147020000D01*
X147852096Y-146968589D01*
X147782154Y-146863812D01*
X147687690Y-146719974D01*
X147577914Y-146551320D01*
X147462039Y-146372097D01*
X147349274Y-146196552D01*
X147248831Y-146038931D01*
X147169920Y-145913481D01*
X147121753Y-145834449D01*
X147073513Y-145751457D01*
X146902517Y-145454862D01*
X146764971Y-145211225D01*
X146654287Y-145008254D01*
X146563877Y-144833657D01*
X146487153Y-144675142D01*
X146417529Y-144520416D01*
X146368193Y-144407224D01*
X146301884Y-144255818D01*
X146251011Y-144140530D01*
X146223772Y-144080000D01*
X146216711Y-144063075D01*
X146183720Y-143969766D01*
X146133537Y-143816810D01*
X146070132Y-143616674D01*
X145997475Y-143381823D01*
X145919536Y-143124725D01*
X145890519Y-143045079D01*
X145788063Y-142849417D01*
X145644233Y-142644725D01*
X145625541Y-142621081D01*
X145512654Y-142472484D01*
X145410546Y-142329447D01*
X145339339Y-142220000D01*
X145245137Y-142060000D01*
X145337443Y-142140000D01*
X145337549Y-142140092D01*
X145408637Y-142212285D01*
X145506180Y-142324486D01*
X145609094Y-142452446D01*
X145623293Y-142470718D01*
X145709981Y-142576356D01*
X145775534Y-142646448D01*
X145806703Y-142666630D01*
X145808051Y-142663981D01*
X145806832Y-142607848D01*
X145791623Y-142497694D01*
X145765169Y-142354184D01*
X145763702Y-142346899D01*
X145731086Y-142152879D01*
X145702307Y-141928192D01*
X145683442Y-141720000D01*
X145661512Y-141380000D01*
X145761529Y-141780000D01*
X145824468Y-142039553D01*
X145893459Y-142340080D01*
X145955498Y-142626227D01*
X146003587Y-142866581D01*
X146020120Y-142904031D01*
X146092511Y-142999530D01*
X146211779Y-143128040D01*
X146367354Y-143280002D01*
X146548671Y-143445861D01*
X146745162Y-143616059D01*
X146946258Y-143781039D01*
X147141394Y-143931245D01*
X147320000Y-144057118D01*
X147544419Y-144204677D01*
X147743353Y-144331616D01*
X147919794Y-144438083D01*
X148096167Y-144537106D01*
X148294898Y-144641710D01*
X148538411Y-144764924D01*
X148540197Y-144765819D01*
X148697901Y-144848219D01*
X148819262Y-144918236D01*
X148892339Y-144968491D01*
X148905190Y-144991603D01*
X148867819Y-144987803D01*
X148765268Y-144951747D01*
X148613998Y-144885656D01*
X148425642Y-144795741D01*
X148211838Y-144688212D01*
X147984220Y-144569280D01*
X147754423Y-144445155D01*
X147534083Y-144322048D01*
X147334836Y-144206169D01*
X147168316Y-144103729D01*
X147046159Y-144020938D01*
X146980000Y-143964007D01*
X146964075Y-143949091D01*
X146896815Y-143895307D01*
X146800000Y-143822830D01*
X146790182Y-143815610D01*
X146675299Y-143726540D01*
X146532377Y-143610153D01*
X146390001Y-143489676D01*
X146286296Y-143401815D01*
X146207744Y-143343695D01*
X146159683Y-143325831D01*
X146141896Y-143353926D01*
X146154167Y-143433686D01*
X146196281Y-143570816D01*
X146268021Y-143771019D01*
X146369173Y-144040000D01*
X146384360Y-144079449D01*
X146453844Y-144250736D01*
X146534583Y-144439359D01*
X146616388Y-144622395D01*
X146689073Y-144776916D01*
X146742449Y-144880000D01*
X146743771Y-144882298D01*
X146780979Y-144949992D01*
X146842024Y-145063662D01*
X146914383Y-145200000D01*
X147034268Y-145419672D01*
X147190764Y-145694224D01*
X147367806Y-145995775D01*
X147553354Y-146304084D01*
X147735366Y-146598906D01*
X147901802Y-146860000D01*
X147985302Y-146991088D01*
X148073928Y-147135814D01*
X148138502Y-147247356D01*
X148154191Y-147274840D01*
X148225187Y-147378819D01*
X148289465Y-147447356D01*
X148330772Y-147490431D01*
X148365983Y-147572564D01*
X148367614Y-147607910D01*
X148352697Y-147622498D01*
X148299224Y-147579297D01*
X148236332Y-147534778D01*
X148120662Y-147468039D01*
X147983659Y-147398629D01*
X147980334Y-147397050D01*
X147843671Y-147325312D01*
X147681498Y-147230343D01*
X147512928Y-147124514D01*
X147357075Y-147020194D01*
X147233054Y-146929754D01*
X147159979Y-146865564D01*
X147134969Y-146840517D01*
X147057162Y-146768094D01*
X146943950Y-146665603D01*
X146810153Y-146546559D01*
X146598992Y-146351152D01*
X146237008Y-145979736D01*
X145867396Y-145559748D01*
X145503068Y-145107484D01*
X145156934Y-144639240D01*
X144841903Y-144171313D01*
X144570886Y-143720000D01*
X144506358Y-143597892D01*
X144415946Y-143409258D01*
X144323502Y-143200240D01*
X144234122Y-142984120D01*
X144152900Y-142774179D01*
X144084931Y-142583698D01*
X144035312Y-142425960D01*
X144009136Y-142314245D01*
X144011498Y-142261835D01*
X144015845Y-142256320D01*
X143996667Y-142241259D01*
X143983729Y-142251920D01*
X143934883Y-142319285D01*
X143859652Y-142438315D01*
X143765526Y-142596949D01*
X143660000Y-142783129D01*
X143623675Y-142848566D01*
X143501387Y-143068189D01*
X143404720Y-143240027D01*
X143323366Y-143381883D01*
X143247021Y-143511561D01*
X143165378Y-143646864D01*
X143068132Y-143805596D01*
X143037659Y-143855017D01*
X142804618Y-144223018D01*
X142593996Y-144535017D01*
X142395198Y-144805514D01*
X142197629Y-145049008D01*
X141990692Y-145280000D01*
X141672048Y-145620000D01*
X141691011Y-146141074D01*
X141697242Y-146366796D01*
X141695708Y-146548789D01*
X141683983Y-146698847D01*
X141660109Y-146841448D01*
X141622123Y-147001066D01*
X141569709Y-147186528D01*
X141432427Y-147554295D01*
X141254271Y-147887314D01*
X141023555Y-148205568D01*
X140728596Y-148529036D01*
X140694964Y-148562825D01*
X140522632Y-148734529D01*
X140384335Y-148867863D01*
X140261497Y-148979113D01*
X140135545Y-149084566D01*
X139987905Y-149200507D01*
X139800000Y-149343223D01*
X139739266Y-149388716D01*
X139417234Y-149621381D01*
X139084483Y-149849173D01*
X138764707Y-150056217D01*
X138481599Y-150226636D01*
X138412393Y-150264014D01*
X138274794Y-150334634D01*
X138096773Y-150423812D01*
X137896035Y-150522878D01*
X137690285Y-150623160D01*
X137497226Y-150715986D01*
X137334563Y-150792684D01*
X137220000Y-150844582D01*
X137121734Y-150889616D01*
X137016604Y-150944496D01*
X136960000Y-150982950D01*
X136929782Y-151010812D01*
X136846933Y-151078830D01*
X136740000Y-151161447D01*
X136447337Y-151388885D01*
X135935512Y-151823419D01*
X135462091Y-152273088D01*
X135046516Y-152720000D01*
X134926221Y-152858650D01*
X134791662Y-153010944D01*
X134693331Y-153116113D01*
X134622113Y-153182353D01*
X134568895Y-153217862D01*
X134524563Y-153230835D01*
X134480000Y-153229470D01*
X134429289Y-153207619D01*
X134408949Y-153150448D01*
X134425513Y-153053432D01*
X134480961Y-152911565D01*
X134577273Y-152719841D01*
X134716432Y-152473253D01*
X134900417Y-152166794D01*
X134941180Y-152100147D01*
X135068275Y-151889535D01*
X135155047Y-151737263D01*
X135203432Y-151636012D01*
X135215370Y-151578461D01*
X135192799Y-151557293D01*
X135137657Y-151565186D01*
X135051883Y-151594822D01*
X134988967Y-151616583D01*
X134864035Y-151656182D01*
X134720000Y-151699261D01*
X134620245Y-151728708D01*
X134429466Y-151786865D01*
X134260000Y-151840480D01*
X134128013Y-151882866D01*
X133940435Y-151942060D01*
X133760000Y-151998091D01*
X133393653Y-152116346D01*
X132992334Y-152257474D01*
X132611504Y-152402740D01*
X132280000Y-152541555D01*
X132063365Y-152638831D01*
X131827881Y-152748503D01*
X131653274Y-152836017D01*
X131531763Y-152905574D01*
X131455568Y-152961377D01*
X131416909Y-153007626D01*
X131414369Y-153012329D01*
X131362349Y-153093172D01*
X131278283Y-153210279D01*
X131179095Y-153340000D01*
X131113287Y-153426137D01*
X130994642Y-153589319D01*
X130857505Y-153784532D01*
X130711168Y-153997904D01*
X130564921Y-154215565D01*
X130428054Y-154423642D01*
X130309857Y-154608264D01*
X130219622Y-154755561D01*
X130166638Y-154851662D01*
X130149807Y-154883905D01*
X130088282Y-154966784D01*
X130032322Y-155000000D01*
X130004103Y-154993317D01*
X129985091Y-154957265D01*
X129981789Y-154875003D01*
X129991710Y-154730000D01*
X129999490Y-154654359D01*
X130081014Y-154246038D01*
X130223447Y-153848929D01*
X130230969Y-153832096D01*
X130279717Y-153718221D01*
X130294279Y-153663138D01*
X130274387Y-153654540D01*
X130219774Y-153680121D01*
X130173709Y-153707188D01*
X130027894Y-153809618D01*
X129840669Y-153957405D01*
X129621681Y-154141590D01*
X129380576Y-154353211D01*
X129127001Y-154583306D01*
X128870604Y-154822914D01*
X128621030Y-155063073D01*
X128387927Y-155294823D01*
X128180942Y-155509202D01*
X128009722Y-155697247D01*
X127883913Y-155850000D01*
X127875510Y-155860952D01*
X127769946Y-155966292D01*
X127670434Y-156000000D01*
X127644080Y-155999643D01*
X127617516Y-155994037D01*
X127610814Y-155975181D01*
X127629166Y-155935013D01*
X127677767Y-155865471D01*
X127761810Y-155758496D01*
X127886488Y-155606026D01*
X128056995Y-155400000D01*
X128244872Y-155184534D01*
X128566622Y-154850230D01*
X128933633Y-154501739D01*
X129330795Y-154152693D01*
X129742996Y-153816721D01*
X130155125Y-153507454D01*
X130265482Y-153428526D01*
X130414101Y-153323704D01*
X130512002Y-153259392D01*
X130568364Y-153231774D01*
X130592369Y-153237039D01*
X130593198Y-153271373D01*
X130580030Y-153330963D01*
X130564913Y-153384519D01*
X130518315Y-153518750D01*
X130461181Y-153660000D01*
X130424494Y-153743707D01*
X130353502Y-153906881D01*
X130305281Y-154020966D01*
X130272960Y-154103094D01*
X130249666Y-154170395D01*
X130228529Y-154240000D01*
X130227225Y-154244476D01*
X130192733Y-154370756D01*
X130166337Y-154480000D01*
X130155245Y-154536772D01*
X130162034Y-154552772D01*
X130203920Y-154500000D01*
X130216881Y-154481794D01*
X130276792Y-154393148D01*
X130360611Y-154265520D01*
X130454435Y-154120000D01*
X130550964Y-153976533D01*
X130685189Y-153788679D01*
X130835218Y-153587179D01*
X130983047Y-153396667D01*
X131002676Y-153371938D01*
X131133125Y-153204161D01*
X131248892Y-153049743D01*
X131338029Y-152924908D01*
X131388593Y-152845879D01*
X131402338Y-152822693D01*
X131458117Y-152758191D01*
X131547471Y-152692157D01*
X131684094Y-152615522D01*
X131881681Y-152519211D01*
X132042973Y-152444797D01*
X132189040Y-152380004D01*
X132294522Y-152336135D01*
X132343631Y-152320000D01*
X132374827Y-152313867D01*
X132450543Y-152281337D01*
X132532519Y-152243018D01*
X132684694Y-152182145D01*
X132887435Y-152106886D01*
X133127037Y-152021995D01*
X133389799Y-151932227D01*
X133662016Y-151842337D01*
X133929984Y-151757082D01*
X134180000Y-151681215D01*
X134187852Y-151678902D01*
X134358567Y-151627828D01*
X134520653Y-151578064D01*
X134640000Y-151540076D01*
X134721665Y-151514133D01*
X134878990Y-151466868D01*
X135040000Y-151420902D01*
X135151464Y-151388952D01*
X135283925Y-151348028D01*
X135371883Y-151317292D01*
X135385624Y-151311836D01*
X135507393Y-151279524D01*
X135568192Y-151297890D01*
X135565434Y-151363687D01*
X135496534Y-151473673D01*
X135486853Y-151486684D01*
X135429677Y-151571861D01*
X135343673Y-151706738D01*
X135238001Y-151876316D01*
X135121824Y-152065598D01*
X135004303Y-152259586D01*
X134894599Y-152443283D01*
X134801876Y-152601691D01*
X134735293Y-152719811D01*
X134674671Y-152821983D01*
X134619593Y-152900490D01*
X134593684Y-152939408D01*
X134587559Y-152980891D01*
X134590911Y-152980906D01*
X134633995Y-152946518D01*
X134716669Y-152864622D01*
X134828710Y-152745670D01*
X134959899Y-152600114D01*
X135054444Y-152495095D01*
X135355001Y-152181235D01*
X135677223Y-151870105D01*
X135998762Y-151582755D01*
X136297271Y-151340238D01*
X136306303Y-151333325D01*
X136452279Y-151214980D01*
X136590997Y-151092119D01*
X136693551Y-150990268D01*
X136700503Y-150982772D01*
X136798977Y-150896822D01*
X136929366Y-150805527D01*
X137068246Y-150722929D01*
X137192195Y-150663072D01*
X137277788Y-150640000D01*
X137288672Y-150636598D01*
X137358087Y-150605915D01*
X137477531Y-150549294D01*
X137632276Y-150474036D01*
X137807593Y-150387442D01*
X137988752Y-150296815D01*
X138161026Y-150209456D01*
X138309685Y-150132668D01*
X138420000Y-150073751D01*
X138443760Y-150060350D01*
X138573286Y-149982325D01*
X138748256Y-149871835D01*
X138952541Y-149739416D01*
X139170013Y-149595605D01*
X139384543Y-149450938D01*
X139580000Y-149315952D01*
X139753177Y-149187670D01*
X139955736Y-149026006D01*
X140168059Y-148847367D01*
X140375396Y-148664755D01*
X140562998Y-148491167D01*
X140716116Y-148339604D01*
X140820000Y-148223064D01*
X140820433Y-148222513D01*
X140920509Y-148095896D01*
X141010054Y-147984038D01*
X141069731Y-147911098D01*
X141096356Y-147875439D01*
X141171961Y-147748231D01*
X141258373Y-147577153D01*
X141345281Y-147384541D01*
X141422371Y-147192726D01*
X141479332Y-147024043D01*
X141491761Y-146977699D01*
X141523798Y-146799727D01*
X141541582Y-146576128D01*
X141546653Y-146290107D01*
X141546604Y-146274349D01*
X141544131Y-146084471D01*
X141538755Y-145926195D01*
X141531230Y-145815652D01*
X141522309Y-145768975D01*
X141485304Y-145774136D01*
X141421498Y-145822910D01*
X141363182Y-145878989D01*
X141304803Y-145928555D01*
X141229819Y-145983650D01*
X141121261Y-146056736D01*
X140962159Y-146160276D01*
X140880726Y-146212268D01*
X140306659Y-146538703D01*
X139737479Y-146790189D01*
X139164741Y-146969994D01*
X138580000Y-147081381D01*
X138545280Y-147086043D01*
X138313252Y-147123605D01*
X138147742Y-147165171D01*
X138036783Y-147214541D01*
X137968407Y-147275512D01*
X137873668Y-147373139D01*
X137700000Y-147459596D01*
X137657073Y-147469941D01*
X137641150Y-147460282D01*
X137673346Y-147415254D01*
X137758118Y-147324491D01*
X137916236Y-147160000D01*
X137758118Y-147156956D01*
X137600000Y-147153913D01*
X137740000Y-147100000D01*
X137752031Y-147095474D01*
X137871075Y-147059470D01*
X137968079Y-147043043D01*
X137984471Y-147040914D01*
X138076546Y-146983816D01*
X138185439Y-146850000D01*
X138241728Y-146768619D01*
X138304454Y-146681721D01*
X138338236Y-146640000D01*
X138343708Y-146633874D01*
X138384987Y-146575445D01*
X138453149Y-146471668D01*
X138536651Y-146340000D01*
X138554616Y-146311286D01*
X138645943Y-146166594D01*
X138726455Y-146040927D01*
X138780487Y-145958772D01*
X138795985Y-145935420D01*
X138865627Y-145822959D01*
X138937370Y-145698772D01*
X138951351Y-145673651D01*
X139033844Y-145528355D01*
X139112658Y-145393186D01*
X139144333Y-145339163D01*
X139225561Y-145196789D01*
X139305236Y-145053186D01*
X139346962Y-144976582D01*
X139429675Y-144824711D01*
X139527899Y-144644347D01*
X139628287Y-144460000D01*
X139900980Y-143935902D01*
X140281420Y-143100581D01*
X140596620Y-142260000D01*
X140641750Y-142106518D01*
X140689435Y-141903810D01*
X140730252Y-141690506D01*
X140760504Y-141488509D01*
X140776493Y-141319722D01*
X140774522Y-141206045D01*
X140765903Y-141165512D01*
X140746416Y-141151451D01*
X140706407Y-141189287D01*
X140633491Y-141286045D01*
X140544360Y-141407410D01*
X140342733Y-141673289D01*
X140157507Y-141905744D01*
X140002050Y-142087801D01*
X139982083Y-142110198D01*
X139886981Y-142219480D01*
X139759359Y-142368685D01*
X139613457Y-142541097D01*
X139463515Y-142720000D01*
X139400639Y-142795259D01*
X139268774Y-142952042D01*
X139157398Y-143083053D01*
X139076700Y-143176352D01*
X139036866Y-143220000D01*
X139027402Y-143229640D01*
X138970503Y-143292683D01*
X138876250Y-143400146D01*
X138755191Y-143539946D01*
X138617873Y-143700000D01*
X138583272Y-143740317D01*
X138278051Y-144081516D01*
X137931856Y-144443957D01*
X137538523Y-144833766D01*
X137091888Y-145257072D01*
X136585788Y-145720000D01*
X136581475Y-145723886D01*
X136239066Y-146028831D01*
X135947068Y-146280505D01*
X135700034Y-146482803D01*
X135492518Y-146639615D01*
X135319070Y-146754836D01*
X135174246Y-146832356D01*
X135052596Y-146876070D01*
X134948675Y-146889868D01*
X134917113Y-146886761D01*
X134816449Y-146844393D01*
X134734101Y-146771078D01*
X134700000Y-146690779D01*
X134701382Y-146679012D01*
X134726321Y-146612696D01*
X134784423Y-146501131D01*
X134878142Y-146340199D01*
X135009935Y-146125779D01*
X135182253Y-145853752D01*
X135397553Y-145520000D01*
X135640719Y-145141275D01*
X135949446Y-144648949D01*
X136250325Y-144156880D01*
X136535641Y-143678048D01*
X136797683Y-143225435D01*
X137028739Y-142812021D01*
X137221095Y-142450788D01*
X137294082Y-142303168D01*
X137331518Y-142207800D01*
X137337059Y-142150535D01*
X137315049Y-142115890D01*
X137288453Y-142086138D01*
X137260000Y-142008902D01*
X137261170Y-141985864D01*
X137279284Y-141971800D01*
X137333892Y-142014471D01*
X137362149Y-142037550D01*
X137395481Y-142045538D01*
X137430584Y-142014481D01*
X137478164Y-141933240D01*
X137548925Y-141790671D01*
X137578035Y-141730578D01*
X137671201Y-141534875D01*
X137749173Y-141363135D01*
X137826562Y-141182473D01*
X137917980Y-140960000D01*
X137975125Y-140821027D01*
X138027397Y-140697046D01*
X138061397Y-140620000D01*
X138065891Y-140610093D01*
X138101888Y-140520940D01*
X138154698Y-140381513D01*
X138216799Y-140212662D01*
X138280670Y-140035236D01*
X138338791Y-139870084D01*
X138383641Y-139738055D01*
X138407698Y-139660000D01*
X138419278Y-139619971D01*
X138455578Y-139510097D01*
X138502072Y-139380000D01*
X138531054Y-139300492D01*
X138623355Y-139028490D01*
X138704851Y-138760347D01*
X138772744Y-138507934D01*
X138824237Y-138283124D01*
X138856535Y-138097789D01*
X138866840Y-137963803D01*
X138852355Y-137893037D01*
X138823962Y-137868877D01*
X138728737Y-137810833D01*
X138587850Y-137736581D01*
X138418917Y-137654562D01*
X138239553Y-137573215D01*
X138067376Y-137500983D01*
X137920000Y-137446305D01*
X137853270Y-137427280D01*
X137691945Y-137391388D01*
X137482832Y-137352602D01*
X137245620Y-137314472D01*
X137000000Y-137280543D01*
X136852211Y-137261439D01*
X136606038Y-137227651D01*
X136378412Y-137194151D01*
X136189633Y-137163972D01*
X136060000Y-137140146D01*
X135998664Y-137127235D01*
X135816935Y-137088990D01*
X135605987Y-137044604D01*
X135400000Y-137001269D01*
X135313450Y-136982875D01*
X135100990Y-136936486D01*
X134898427Y-136890789D01*
X134740000Y-136853454D01*
X134609237Y-136821597D01*
X134454496Y-136784275D01*
X134340000Y-136757077D01*
X134029499Y-136678636D01*
X133710661Y-136583627D01*
X133360000Y-136463969D01*
X133287638Y-136437742D01*
X132850299Y-136261581D01*
X132466937Y-136070313D01*
X132120619Y-135852183D01*
X131794412Y-135595437D01*
X131471384Y-135288319D01*
X131134603Y-134919076D01*
X131019038Y-134785093D01*
X130832218Y-134566658D01*
X130681213Y-134386514D01*
X130554657Y-134230518D01*
X130441184Y-134084524D01*
X130329428Y-133934388D01*
X130208023Y-133765964D01*
X130112384Y-133633860D01*
X129980600Y-133457067D01*
X129859413Y-133299816D01*
X129766362Y-133185174D01*
X129718853Y-133128805D01*
X129590541Y-132964136D01*
X129521064Y-132849253D01*
X129509320Y-132781944D01*
X129554205Y-132760000D01*
X129555571Y-132760067D01*
X129605726Y-132793316D01*
X129682807Y-132875662D01*
X129770709Y-132990000D01*
X129859567Y-133112185D01*
X129950124Y-133229762D01*
X130015941Y-133307723D01*
X130047502Y-133344046D01*
X130128882Y-133451136D01*
X130211632Y-133573246D01*
X130230233Y-133601457D01*
X130322368Y-133727496D01*
X130441864Y-133877742D01*
X130567720Y-134025522D01*
X130665239Y-134135621D01*
X130819865Y-134310410D01*
X130987432Y-134500008D01*
X131145526Y-134679066D01*
X131441550Y-135005234D01*
X131715881Y-135284839D01*
X131969913Y-135516165D01*
X132215155Y-135708968D01*
X132463119Y-135873002D01*
X132725314Y-136018022D01*
X132784869Y-136047142D01*
X132998956Y-136141023D01*
X133256633Y-136242575D01*
X133532779Y-136342570D01*
X133802274Y-136431780D01*
X134040000Y-136500979D01*
X134091051Y-136514315D01*
X134328281Y-136574902D01*
X134609091Y-136644991D01*
X134906180Y-136717870D01*
X135192250Y-136786828D01*
X135440000Y-136845154D01*
X135475865Y-136853459D01*
X135690528Y-136903429D01*
X135912843Y-136955530D01*
X136100000Y-136999736D01*
X136218864Y-137025487D01*
X136424554Y-137064221D01*
X136655302Y-137102905D01*
X136880000Y-137136102D01*
X136962466Y-137147460D01*
X137341520Y-137205987D01*
X137657905Y-137268115D01*
X137926111Y-137338104D01*
X138160631Y-137420216D01*
X138375954Y-137518709D01*
X138586571Y-137637845D01*
X138698212Y-137704511D01*
X138818138Y-137765664D01*
X138893492Y-137782830D01*
X138936362Y-137757777D01*
X138958834Y-137692272D01*
X138964725Y-137663460D01*
X138990149Y-137549709D01*
X139026738Y-137393579D01*
X139068695Y-137220000D01*
X139081960Y-137164385D01*
X139125732Y-136934060D01*
X139146412Y-136706666D01*
X139148162Y-136441425D01*
X139148218Y-136241933D01*
X139163365Y-136008323D01*
X139195322Y-135841425D01*
X139202368Y-135818240D01*
X139242404Y-135678956D01*
X139290845Y-135502033D01*
X139338743Y-135320000D01*
X139385697Y-135139160D01*
X139457714Y-134867181D01*
X139533415Y-134586374D01*
X139608059Y-134313996D01*
X139676906Y-134067303D01*
X139735217Y-133863552D01*
X139778250Y-133720000D01*
X139801713Y-133644797D01*
X139860055Y-133455248D01*
X139913122Y-133280000D01*
X139931595Y-133218946D01*
X140007087Y-132978049D01*
X140100080Y-132690766D01*
X140203203Y-132379210D01*
X140309090Y-132065489D01*
X140410370Y-131771716D01*
X140499675Y-131520000D01*
X140564895Y-131338725D01*
X140626032Y-131166546D01*
X140673318Y-131030968D01*
X140699963Y-130951266D01*
X140734981Y-130863412D01*
X140796845Y-130752366D01*
X140848529Y-130653467D01*
X140849987Y-130550475D01*
X140796230Y-130420000D01*
X140780846Y-130389931D01*
X140746830Y-130317158D01*
X140704635Y-130217906D01*
X140649340Y-130080048D01*
X140576024Y-129891455D01*
X140479767Y-129640000D01*
X140389907Y-129405578D01*
X140281943Y-129127680D01*
X140187001Y-128887586D01*
X140110000Y-128697702D01*
X140055855Y-128570435D01*
X140032833Y-128518002D01*
X139994958Y-128425990D01*
X139980000Y-128380361D01*
X139964105Y-128338986D01*
X139920273Y-128240161D01*
X139855249Y-128098846D01*
X139775783Y-127929925D01*
X139712494Y-127796613D01*
X139604116Y-127568075D01*
X139498302Y-127344688D01*
X139410949Y-127160000D01*
X139397338Y-127131274D01*
X139352363Y-127037419D01*
X139297838Y-126925239D01*
X139230821Y-126788834D01*
X139148372Y-126622301D01*
X139047549Y-126419741D01*
X138925411Y-126175252D01*
X138779017Y-125882935D01*
X138605427Y-125536887D01*
X138401699Y-125131209D01*
X138164891Y-124660000D01*
X138142048Y-124615640D01*
X138091507Y-124525221D01*
X138060070Y-124480000D01*
X138047190Y-124463893D01*
X138003310Y-124391682D01*
X137946556Y-124286306D01*
X137945840Y-124284913D01*
X137817473Y-124056493D01*
X137646083Y-123783182D01*
X137442124Y-123479425D01*
X137216044Y-123159670D01*
X136978296Y-122838364D01*
X136739331Y-122529952D01*
X136509599Y-122248882D01*
X136299551Y-122009601D01*
X135838256Y-121510396D01*
X135368259Y-121005844D01*
X134944211Y-120555491D01*
X134562811Y-120155940D01*
X134220758Y-119803798D01*
X133914752Y-119495670D01*
X133641491Y-119228161D01*
X133397674Y-118997876D01*
X133180000Y-118801421D01*
X133042011Y-118680039D01*
X132850738Y-118511332D01*
X132668152Y-118349847D01*
X132520000Y-118218331D01*
X132508080Y-118207736D01*
X132350178Y-118070616D01*
X132185887Y-117932971D01*
X132026389Y-117803570D01*
X131882869Y-117691185D01*
X131766509Y-117604587D01*
X131688491Y-117552546D01*
X131660000Y-117543834D01*
X131661746Y-117549668D01*
X131693062Y-117608871D01*
X131757601Y-117718432D01*
X131847497Y-117865224D01*
X131954888Y-118036119D01*
X132001219Y-118109415D01*
X132291505Y-118588769D01*
X132554304Y-119057908D01*
X132783209Y-119504428D01*
X132971815Y-119915926D01*
X133113717Y-120280000D01*
X133157585Y-120403390D01*
X133218897Y-120571120D01*
X133281965Y-120740000D01*
X133340200Y-120899116D01*
X133401613Y-121076597D01*
X133447686Y-121220000D01*
X133464436Y-121276011D01*
X133515452Y-121446510D01*
X133561413Y-121600000D01*
X133565528Y-121613754D01*
X133624234Y-121813772D01*
X133684747Y-122025890D01*
X133742185Y-122232339D01*
X133791666Y-122415352D01*
X133828305Y-122557162D01*
X133847220Y-122640000D01*
X133859830Y-122704306D01*
X133887377Y-122833294D01*
X133920374Y-122980000D01*
X133974926Y-123225609D01*
X134055936Y-123636372D01*
X134125206Y-124057136D01*
X134184519Y-124501891D01*
X134235658Y-124984627D01*
X134280407Y-125519333D01*
X134320547Y-126120000D01*
X134343712Y-126536149D01*
X134367508Y-127110624D01*
X134376292Y-127599126D01*
X134376708Y-127622269D01*
X134370471Y-128080784D01*
X134347955Y-128495869D01*
X134308321Y-128877227D01*
X134250727Y-129234556D01*
X134174333Y-129577559D01*
X134078297Y-129915936D01*
X133961780Y-130259389D01*
X133918008Y-130377915D01*
X133852600Y-130548915D01*
X133796432Y-130688843D01*
X133758246Y-130775534D01*
X133756087Y-130779884D01*
X133716402Y-130869370D01*
X133700000Y-130924815D01*
X133684072Y-130970783D01*
X133639990Y-131073731D01*
X133574555Y-131218146D01*
X133494568Y-131388669D01*
X133484969Y-131408794D01*
X133402231Y-131577021D01*
X133328456Y-131709870D01*
X133250204Y-131825383D01*
X133154032Y-131941606D01*
X133026498Y-132076583D01*
X132854163Y-132248357D01*
X132754150Y-132345981D01*
X132502053Y-132580782D01*
X132283351Y-132762045D01*
X132085737Y-132896295D01*
X131896903Y-132990060D01*
X131704541Y-133049865D01*
X131496343Y-133082238D01*
X131260000Y-133093704D01*
X131234788Y-133093987D01*
X131047831Y-133092312D01*
X130915055Y-133080665D01*
X130813449Y-133055641D01*
X130720000Y-133013839D01*
X130631769Y-132973299D01*
X130472735Y-132914150D01*
X130308954Y-132865165D01*
X130198055Y-132830800D01*
X130009441Y-132753294D01*
X129847252Y-132666364D01*
X129636597Y-132531610D01*
X129498299Y-132647385D01*
X129434260Y-132695546D01*
X129276763Y-132795921D01*
X129069976Y-132913972D01*
X128829410Y-133041794D01*
X128570576Y-133171484D01*
X128308983Y-133295136D01*
X128060143Y-133404846D01*
X127839565Y-133492710D01*
X127771056Y-133518198D01*
X127617494Y-133576042D01*
X127462705Y-133635026D01*
X127373193Y-133668526D01*
X127099459Y-133759554D01*
X126817428Y-133834502D01*
X126516903Y-133894635D01*
X126187689Y-133941217D01*
X125819588Y-133975513D01*
X125402404Y-133998787D01*
X124925940Y-134012305D01*
X124380000Y-134017329D01*
X124298670Y-134017449D01*
X123843830Y-134015856D01*
X123457118Y-134009690D01*
X123128400Y-133998166D01*
X122847542Y-133980497D01*
X122604407Y-133955895D01*
X122388862Y-133923576D01*
X122190771Y-133882751D01*
X122000000Y-133832636D01*
X121907399Y-133805409D01*
X121785055Y-133767492D01*
X121650941Y-133723199D01*
X121489259Y-133667139D01*
X121284211Y-133593919D01*
X121020000Y-133498147D01*
X120905745Y-133454030D01*
X120673977Y-133353635D01*
X120433773Y-133238405D01*
X120213131Y-133122050D01*
X120040047Y-133018279D01*
X119818771Y-132871404D01*
X119569386Y-133026674D01*
X119484433Y-133079488D01*
X119360584Y-133155451D01*
X119253155Y-133218593D01*
X119147300Y-133276627D01*
X119028169Y-133337265D01*
X118880914Y-133408220D01*
X118690687Y-133497204D01*
X118442639Y-133611931D01*
X118427990Y-133618698D01*
X118025204Y-133808476D01*
X117685516Y-133978310D01*
X117397630Y-134136429D01*
X117150251Y-134291064D01*
X116932082Y-134450443D01*
X116731828Y-134622796D01*
X116538192Y-134816354D01*
X116339879Y-135039345D01*
X116125593Y-135300000D01*
X115964422Y-135496335D01*
X115713464Y-135788312D01*
X115432855Y-136102128D01*
X115130758Y-136429518D01*
X114815335Y-136762217D01*
X114494752Y-137091960D01*
X114177170Y-137410482D01*
X113870753Y-137709519D01*
X113583664Y-137980804D01*
X113324067Y-138216074D01*
X113100125Y-138407063D01*
X112920000Y-138545506D01*
X112859456Y-138586925D01*
X112662918Y-138709703D01*
X112450020Y-138829050D01*
X112241276Y-138934411D01*
X112057199Y-139015230D01*
X111918304Y-139060951D01*
X111900361Y-139065154D01*
X111774762Y-139099026D01*
X111640000Y-139140449D01*
X111569453Y-139160869D01*
X111421482Y-139197505D01*
X111236874Y-139238852D01*
X111040000Y-139279271D01*
X110901353Y-139306583D01*
X110700364Y-139346875D01*
X110524310Y-139382936D01*
X110400000Y-139409317D01*
X110371601Y-139414411D01*
X110246604Y-139428139D01*
X110062058Y-139441360D01*
X109832850Y-139453255D01*
X109573869Y-139463007D01*
X109300000Y-139469796D01*
X109096646Y-139473128D01*
X108824482Y-139475449D01*
X108605694Y-139473347D01*
X108423902Y-139466043D01*
X108262730Y-139452763D01*
X108105797Y-139432729D01*
X107936727Y-139405165D01*
X107776241Y-139374647D01*
X107570571Y-139329173D01*
X107391486Y-139282854D01*
X107265246Y-139242067D01*
X107177980Y-139208248D01*
X107083814Y-139173477D01*
X107040650Y-139160000D01*
X107040558Y-139177237D01*
X107063413Y-139255518D01*
X107108906Y-139384948D01*
X107172111Y-139552222D01*
X107248104Y-139744035D01*
X107331961Y-139947082D01*
X107366026Y-140024251D01*
X107487808Y-140261364D01*
X107626251Y-140485782D01*
X107767536Y-140676384D01*
X107897844Y-140812047D01*
X107920920Y-140832447D01*
X107991555Y-140910567D01*
X108020000Y-140969417D01*
X108026439Y-141002953D01*
X108070000Y-141077000D01*
X108099942Y-141121623D01*
X108070000Y-141148333D01*
X108049171Y-141161324D01*
X108020000Y-141225203D01*
X108016418Y-141248880D01*
X107992836Y-141342036D01*
X107951772Y-141484625D01*
X107898576Y-141659529D01*
X107838601Y-141849634D01*
X107777196Y-142037825D01*
X107719712Y-142206985D01*
X107671499Y-142340000D01*
X107666966Y-142351945D01*
X107582174Y-142609017D01*
X107497030Y-142924094D01*
X107415129Y-143278023D01*
X107340063Y-143651653D01*
X107275425Y-144025831D01*
X107224806Y-144381406D01*
X107191801Y-144699225D01*
X107180000Y-144960137D01*
X107187386Y-145187372D01*
X107227623Y-145593834D01*
X107298944Y-146037768D01*
X107396894Y-146499064D01*
X107517018Y-146957615D01*
X107654862Y-147393311D01*
X107805973Y-147786045D01*
X107809466Y-147794283D01*
X107845272Y-147891214D01*
X107860000Y-147954828D01*
X107885668Y-148034184D01*
X107966750Y-148163596D01*
X108097558Y-148332650D01*
X108272259Y-148535066D01*
X108485020Y-148764566D01*
X108730008Y-149014871D01*
X109001389Y-149279702D01*
X109293331Y-149552780D01*
X109600000Y-149827827D01*
X109666376Y-149886094D01*
X109858655Y-150054946D01*
X110046800Y-150220245D01*
X110212145Y-150365589D01*
X110336022Y-150474574D01*
X110388725Y-150520553D01*
X110555562Y-150662848D01*
X110741775Y-150818218D01*
X110916022Y-150960409D01*
X111003724Y-151031469D01*
X111150603Y-151152835D01*
X111275071Y-151258485D01*
X111356967Y-151331453D01*
X111364974Y-151338935D01*
X111482223Y-151436774D01*
X111600884Y-151520546D01*
X111641170Y-151552250D01*
X111744783Y-151670100D01*
X111879222Y-151860249D01*
X112043918Y-152121926D01*
X112065365Y-152157386D01*
X112202677Y-152383629D01*
X112346064Y-152618759D01*
X112479756Y-152836961D01*
X112587982Y-153012423D01*
X112646845Y-153108473D01*
X112761425Y-153300796D01*
X112867184Y-153484435D01*
X112947035Y-153630000D01*
X112988526Y-153706415D01*
X113061395Y-153822732D01*
X113110540Y-153873765D01*
X113132792Y-153857019D01*
X113124977Y-153770000D01*
X113122891Y-153758923D01*
X113105584Y-153655953D01*
X113082492Y-153506892D01*
X113058016Y-153340000D01*
X113054398Y-153315031D01*
X113026832Y-153144651D01*
X112997924Y-152993154D01*
X112973373Y-152890782D01*
X112970980Y-152882622D01*
X112953013Y-152783893D01*
X112959806Y-152720314D01*
X112966245Y-152717221D01*
X113021722Y-152740919D01*
X113123617Y-152809887D01*
X113262960Y-152916834D01*
X113430781Y-153054465D01*
X113618111Y-153215491D01*
X113815981Y-153392616D01*
X114015420Y-153578550D01*
X114143891Y-153707282D01*
X114305065Y-153900677D01*
X114408553Y-154078225D01*
X114452427Y-154171205D01*
X114523440Y-154306661D01*
X114583178Y-154404462D01*
X114592802Y-154418789D01*
X114647234Y-154510441D01*
X114725932Y-154652477D01*
X114819866Y-154828352D01*
X114920005Y-155021525D01*
X114951710Y-155083567D01*
X115043607Y-155261649D01*
X115105823Y-155376597D01*
X115143252Y-155434921D01*
X115160786Y-155443136D01*
X115163320Y-155407754D01*
X115155747Y-155335287D01*
X115144721Y-155258709D01*
X115112967Y-155083186D01*
X115075787Y-154914226D01*
X115052968Y-154816382D01*
X115029213Y-154697567D01*
X115020000Y-154626021D01*
X115022877Y-154620147D01*
X115063321Y-154639612D01*
X115144846Y-154707794D01*
X115258919Y-154815945D01*
X115397005Y-154955315D01*
X115550570Y-155117155D01*
X115711080Y-155292715D01*
X115870000Y-155473247D01*
X116018797Y-155650000D01*
X116021748Y-155653602D01*
X116148481Y-155813069D01*
X116223693Y-155919799D01*
X116250694Y-155979148D01*
X116232791Y-155996472D01*
X116195037Y-155975429D01*
X116109806Y-155901796D01*
X115990121Y-155784218D01*
X115845431Y-155632044D01*
X115685183Y-155454623D01*
X115543585Y-155295767D01*
X115407550Y-155146746D01*
X115297987Y-155030624D01*
X115223559Y-154956566D01*
X115192928Y-154933739D01*
X115191162Y-154954982D01*
X115206863Y-155034718D01*
X115240345Y-155149459D01*
X115269469Y-155258654D01*
X115291471Y-155419141D01*
X115289149Y-155561132D01*
X115263380Y-155665125D01*
X115215041Y-155711617D01*
X115182595Y-155698581D01*
X115131899Y-155639003D01*
X115061317Y-155525734D01*
X114966804Y-155352234D01*
X114844317Y-155111962D01*
X114801041Y-155025503D01*
X114648577Y-154724451D01*
X114523189Y-154484452D01*
X114419451Y-154296378D01*
X114331937Y-154151102D01*
X114255223Y-154039497D01*
X114183883Y-153952434D01*
X114112490Y-153880786D01*
X114111578Y-153879951D01*
X113846709Y-153637781D01*
X113634945Y-153444970D01*
X113470355Y-153296924D01*
X113347010Y-153189046D01*
X113258980Y-153116743D01*
X113200333Y-153075419D01*
X113165140Y-153060479D01*
X113147470Y-153067328D01*
X113141393Y-153091371D01*
X113140978Y-153128012D01*
X113141512Y-153143507D01*
X113153713Y-153252698D01*
X113176681Y-153380000D01*
X113205400Y-153522618D01*
X113237930Y-153756223D01*
X113236962Y-153921678D01*
X113202615Y-154021933D01*
X113162190Y-154070862D01*
X113125303Y-154074062D01*
X113066606Y-154020000D01*
X113050004Y-154000582D01*
X112986538Y-153908082D01*
X112905996Y-153773927D01*
X112821774Y-153620000D01*
X112793731Y-153566556D01*
X112708603Y-153408009D01*
X112632333Y-153270848D01*
X112578691Y-153180000D01*
X112507780Y-153064848D01*
X112438489Y-152946710D01*
X112388072Y-152861045D01*
X112279087Y-152689579D01*
X112154884Y-152506257D01*
X112029605Y-152331163D01*
X111917394Y-152184382D01*
X111832395Y-152086000D01*
X111792912Y-152043571D01*
X111726322Y-151956855D01*
X111700000Y-151897991D01*
X111699023Y-151892647D01*
X111657175Y-151835176D01*
X111557346Y-151735114D01*
X111404699Y-151597015D01*
X111204396Y-151425428D01*
X110961598Y-151224906D01*
X110681469Y-151000000D01*
X110484416Y-150840241D01*
X110189738Y-150592308D01*
X109868521Y-150313868D01*
X109537571Y-150019892D01*
X109213695Y-149725350D01*
X108913702Y-149445213D01*
X108654398Y-149194452D01*
X108603445Y-149144235D01*
X108468325Y-149013615D01*
X108359317Y-148911973D01*
X108286512Y-148848565D01*
X108260000Y-148832650D01*
X108274073Y-148872305D01*
X108320474Y-148973622D01*
X108393564Y-149123828D01*
X108487450Y-149311446D01*
X108596237Y-149524997D01*
X108714030Y-149753003D01*
X108834933Y-149983985D01*
X108953053Y-150206463D01*
X109062493Y-150408961D01*
X109157361Y-150580000D01*
X109289019Y-150810965D01*
X109474105Y-151127783D01*
X109662364Y-151439553D01*
X109864619Y-151763818D01*
X110091694Y-152118120D01*
X110354414Y-152520000D01*
X110432634Y-152638041D01*
X110688728Y-153012538D01*
X110913691Y-153321631D01*
X111106529Y-153564121D01*
X111266248Y-153738811D01*
X111391856Y-153844503D01*
X111482359Y-153880000D01*
X111545796Y-153887722D01*
X111580000Y-153912000D01*
X111562603Y-153959121D01*
X111491546Y-154016070D01*
X111395070Y-154040000D01*
X111385681Y-154039677D01*
X111291381Y-154008639D01*
X111174595Y-153925309D01*
X111033522Y-153787352D01*
X110866360Y-153592431D01*
X110671307Y-153338210D01*
X110446561Y-153022352D01*
X110190320Y-152642522D01*
X109900782Y-152196383D01*
X109576147Y-151681598D01*
X109471114Y-151512224D01*
X109396535Y-151389367D01*
X109347057Y-151303733D01*
X109313568Y-151240000D01*
X109306499Y-151226428D01*
X109262281Y-151147322D01*
X109192599Y-151026402D01*
X109109055Y-150883869D01*
X109016729Y-150723066D01*
X108900910Y-150513187D01*
X108771935Y-150273152D01*
X108634900Y-150013028D01*
X108494901Y-149742879D01*
X108357035Y-149472772D01*
X108226397Y-149212772D01*
X108108084Y-148972947D01*
X108007192Y-148763361D01*
X107928816Y-148594080D01*
X107878054Y-148475172D01*
X107860000Y-148416701D01*
X107848621Y-148396766D01*
X107796251Y-148325052D01*
X107711058Y-148215341D01*
X107603795Y-148081690D01*
X107496434Y-147946434D01*
X107386247Y-147792785D01*
X107325475Y-147681059D01*
X107309794Y-147602692D01*
X107334880Y-147549120D01*
X107342272Y-147542808D01*
X107392731Y-147544533D01*
X107463413Y-147615253D01*
X107474299Y-147628836D01*
X107532223Y-147691871D01*
X107563307Y-147710027D01*
X107564088Y-147708246D01*
X107555471Y-147657503D01*
X107525970Y-147554126D01*
X107481155Y-147417920D01*
X107392925Y-147150460D01*
X107203753Y-146435437D01*
X107089823Y-145734811D01*
X107050943Y-145039768D01*
X107086919Y-144341495D01*
X107197561Y-143631176D01*
X107382675Y-142900000D01*
X107412183Y-142802729D01*
X107469800Y-142619003D01*
X107529960Y-142433235D01*
X107586165Y-142265057D01*
X107631915Y-142134101D01*
X107660714Y-142060000D01*
X107664870Y-142050855D01*
X107708961Y-141942005D01*
X107762451Y-141796804D01*
X107812590Y-141650915D01*
X107846628Y-141540000D01*
X107846818Y-141539288D01*
X107878371Y-141445873D01*
X107923977Y-141333954D01*
X107961188Y-141239795D01*
X107970749Y-141148080D01*
X107925950Y-141072798D01*
X107818617Y-140987024D01*
X107725607Y-140910440D01*
X107549302Y-140708998D01*
X107372726Y-140436367D01*
X107199308Y-140098162D01*
X107032478Y-139700000D01*
X107010140Y-139640601D01*
X106931797Y-139423217D01*
X106845701Y-139173227D01*
X106756781Y-138906060D01*
X106669965Y-138637145D01*
X106590183Y-138381911D01*
X106522363Y-138155786D01*
X106471433Y-137974200D01*
X106442323Y-137852581D01*
X106427381Y-137784489D01*
X106397098Y-137658716D01*
X106360105Y-137512581D01*
X106358981Y-137508242D01*
X106314896Y-137337454D01*
X106262546Y-137133650D01*
X106213019Y-136940000D01*
X106138021Y-136657432D01*
X106056529Y-136385769D01*
X105969047Y-136138790D01*
X105865268Y-135887682D01*
X105734882Y-135603633D01*
X105680544Y-135487554D01*
X105593508Y-135291457D01*
X105541207Y-135156586D01*
X105524333Y-135085300D01*
X105543579Y-135079958D01*
X105599638Y-135142920D01*
X105722374Y-135324518D01*
X105861195Y-135566687D01*
X105999692Y-135839131D01*
X106126438Y-136118039D01*
X106230003Y-136379599D01*
X106298959Y-136600000D01*
X106343021Y-136775530D01*
X106404863Y-137018906D01*
X106469265Y-137269643D01*
X106532534Y-137513588D01*
X106590976Y-137736587D01*
X106640898Y-137924486D01*
X106678605Y-138063131D01*
X106700405Y-138138368D01*
X106708998Y-138165355D01*
X106744453Y-138280830D01*
X106791515Y-138437679D01*
X106842389Y-138610000D01*
X106866120Y-138689788D01*
X106912056Y-138829379D01*
X106949936Y-138911547D01*
X106987483Y-138950542D01*
X107032421Y-138960612D01*
X107040849Y-138960724D01*
X107089370Y-138969517D01*
X107064561Y-138996334D01*
X107050254Y-139019294D01*
X107089924Y-139062077D01*
X107195119Y-139112645D01*
X107357813Y-139167989D01*
X107569981Y-139225099D01*
X107823599Y-139280967D01*
X107906203Y-139297017D01*
X108068307Y-139324736D01*
X108226888Y-139344916D01*
X108398648Y-139358709D01*
X108600286Y-139367271D01*
X108848503Y-139371754D01*
X109160000Y-139373314D01*
X109337956Y-139373264D01*
X109611370Y-139371101D01*
X109830619Y-139365311D01*
X110012405Y-139354772D01*
X110173430Y-139338364D01*
X110330394Y-139314968D01*
X110500000Y-139283465D01*
X110835485Y-139214707D01*
X111220707Y-139128964D01*
X111553831Y-139046684D01*
X111828062Y-138969675D01*
X112036602Y-138899744D01*
X112172657Y-138838697D01*
X112236788Y-138805621D01*
X112340000Y-138759591D01*
X112358402Y-138751936D01*
X112537395Y-138658915D01*
X112748051Y-138518451D01*
X112993358Y-138327988D01*
X113276307Y-138084972D01*
X113599885Y-137786848D01*
X113967081Y-137431062D01*
X114380883Y-137015059D01*
X114747356Y-136635649D01*
X115128727Y-136226999D01*
X115464338Y-135851419D01*
X115748880Y-135514867D01*
X115977047Y-135223302D01*
X115977715Y-135222403D01*
X116351293Y-134780704D01*
X116771926Y-134395400D01*
X117231025Y-134073396D01*
X117720000Y-133821600D01*
X117838678Y-133769715D01*
X117957171Y-133715489D01*
X118029458Y-133679455D01*
X118074118Y-133659451D01*
X118166880Y-133640000D01*
X118231776Y-133621915D01*
X118317422Y-133566598D01*
X118362128Y-133533691D01*
X118475106Y-133468771D01*
X118607904Y-133406388D01*
X118621417Y-133400642D01*
X118746649Y-133341452D01*
X118903333Y-133260025D01*
X119076859Y-133164853D01*
X119252615Y-133064426D01*
X119415991Y-132967236D01*
X119552376Y-132881774D01*
X119647159Y-132816531D01*
X119685728Y-132780000D01*
X119679813Y-132737327D01*
X119638568Y-132662248D01*
X119628272Y-132648711D01*
X119588312Y-132608917D01*
X119545366Y-132616173D01*
X119469923Y-132672225D01*
X119462521Y-132678032D01*
X119334487Y-132763379D01*
X119158065Y-132863353D01*
X118957781Y-132965408D01*
X118758163Y-133056995D01*
X118583738Y-133125568D01*
X118498585Y-133151269D01*
X118379095Y-133174961D01*
X118231671Y-133189834D01*
X118038993Y-133197489D01*
X117783738Y-133199527D01*
X117709194Y-133199189D01*
X117360703Y-133187413D01*
X117065285Y-133155682D01*
X116801504Y-133099683D01*
X116547921Y-133015103D01*
X116283098Y-132897629D01*
X116129292Y-132818065D01*
X116000987Y-132734252D01*
X115898099Y-132637835D01*
X115794034Y-132507606D01*
X115784296Y-132494311D01*
X115701152Y-132374690D01*
X115642321Y-132279312D01*
X115620000Y-132227788D01*
X115619707Y-132224005D01*
X115590272Y-132163224D01*
X115527313Y-132082188D01*
X115514407Y-132067593D01*
X115466436Y-132004069D01*
X115419489Y-131921812D01*
X115366907Y-131806557D01*
X115302034Y-131644041D01*
X115218209Y-131420000D01*
X115184865Y-131329428D01*
X115135763Y-131195641D01*
X115095816Y-131084939D01*
X115060333Y-130983108D01*
X115024622Y-130875934D01*
X114983991Y-130749203D01*
X114933748Y-130588701D01*
X114869203Y-130380214D01*
X114785664Y-130109528D01*
X114750521Y-129992274D01*
X114692280Y-129787952D01*
X114641684Y-129600000D01*
X114607808Y-129471807D01*
X114560039Y-129298915D01*
X114519439Y-129160000D01*
X114514788Y-129144631D01*
X114478203Y-129011932D01*
X114431809Y-128825240D01*
X114374172Y-128578434D01*
X114303856Y-128265394D01*
X114219427Y-127880000D01*
X114207081Y-127821714D01*
X114137767Y-127440456D01*
X114073548Y-126998474D01*
X114015731Y-126512144D01*
X113965622Y-125997843D01*
X113924527Y-125471950D01*
X113893753Y-124950842D01*
X113874606Y-124450896D01*
X113868393Y-123988489D01*
X113872797Y-123764388D01*
X114123112Y-123764388D01*
X114126557Y-124326123D01*
X114141696Y-124931236D01*
X114156715Y-125322214D01*
X114190104Y-125908200D01*
X114236609Y-126445143D01*
X114298683Y-126951918D01*
X114378779Y-127447401D01*
X114479350Y-127950470D01*
X114602850Y-128480000D01*
X114740882Y-129024082D01*
X114937726Y-129750241D01*
X115130977Y-130403824D01*
X115320066Y-130983028D01*
X115504426Y-131486052D01*
X115683489Y-131911093D01*
X115724426Y-132003677D01*
X115764500Y-132102965D01*
X115780000Y-132154235D01*
X115809285Y-132239344D01*
X115885991Y-132352868D01*
X115993253Y-132475482D01*
X116114205Y-132587907D01*
X116231981Y-132670864D01*
X116317097Y-132717258D01*
X116455158Y-132784352D01*
X116592405Y-132836362D01*
X116748911Y-132879332D01*
X116944752Y-132919306D01*
X117200000Y-132962329D01*
X117458825Y-133000956D01*
X117693795Y-133026925D01*
X117886535Y-133033836D01*
X118055945Y-133021276D01*
X118220923Y-132988831D01*
X118400370Y-132936089D01*
X118425404Y-132927873D01*
X118627301Y-132857204D01*
X118800501Y-132785163D01*
X118968189Y-132700112D01*
X119153553Y-132590411D01*
X119234580Y-132538121D01*
X119660000Y-132538121D01*
X119662037Y-132543319D01*
X119677048Y-132556570D01*
X119714745Y-132581347D01*
X119784509Y-132623238D01*
X119895719Y-132687833D01*
X120057757Y-132780718D01*
X120280000Y-132907483D01*
X120374618Y-132959536D01*
X120515694Y-133030575D01*
X120682314Y-133106777D01*
X120886935Y-133193560D01*
X121142012Y-133296337D01*
X121460000Y-133420526D01*
X121504184Y-133437259D01*
X121795911Y-133535250D01*
X122121006Y-133627212D01*
X122440000Y-133701814D01*
X122548405Y-133720782D01*
X122685367Y-133737250D01*
X122854134Y-133750356D01*
X123064343Y-133760560D01*
X123325632Y-133768325D01*
X123647639Y-133774111D01*
X124040000Y-133778379D01*
X124388354Y-133780364D01*
X124890198Y-133778612D01*
X125326169Y-133770155D01*
X125704861Y-133754312D01*
X126034871Y-133730401D01*
X126324795Y-133697740D01*
X126583227Y-133655647D01*
X126818764Y-133603441D01*
X127040000Y-133540440D01*
X127103694Y-133520344D01*
X127255562Y-133472736D01*
X127380000Y-133434098D01*
X127458714Y-133408392D01*
X127635447Y-133345384D01*
X127837987Y-133268699D01*
X128036212Y-133189861D01*
X128200000Y-133120392D01*
X128294566Y-133078220D01*
X128444711Y-133011312D01*
X128626845Y-132930179D01*
X128820000Y-132844166D01*
X129005990Y-132759663D01*
X129182956Y-132676105D01*
X129326378Y-132605152D01*
X129416331Y-132556417D01*
X129552661Y-132473476D01*
X129096331Y-132177467D01*
X129054042Y-132150010D01*
X128887588Y-132041430D01*
X128747312Y-131949143D01*
X128646891Y-131882186D01*
X128600000Y-131849591D01*
X128582011Y-131836505D01*
X128490833Y-131778837D01*
X128351213Y-131696448D01*
X128179536Y-131598500D01*
X127992189Y-131494159D01*
X127805560Y-131392588D01*
X127636035Y-131302953D01*
X127500000Y-131234416D01*
X127396787Y-131184691D01*
X127122869Y-131053706D01*
X126896359Y-130946930D01*
X126723333Y-130867178D01*
X126609865Y-130817263D01*
X126562031Y-130800000D01*
X126546602Y-130796216D01*
X126469751Y-130767194D01*
X126347491Y-130716033D01*
X126198137Y-130650505D01*
X126040000Y-130578385D01*
X125916368Y-130521799D01*
X125746335Y-130450680D01*
X125594813Y-130400952D01*
X125442110Y-130368923D01*
X125268534Y-130350900D01*
X125054395Y-130343190D01*
X124780000Y-130342101D01*
X124160892Y-130368158D01*
X123494425Y-130457521D01*
X122875285Y-130610576D01*
X122302696Y-130827473D01*
X122200504Y-130877893D01*
X122023225Y-130975989D01*
X121821956Y-131095889D01*
X121615579Y-131225638D01*
X121422974Y-131353280D01*
X121263022Y-131466861D01*
X121154604Y-131554426D01*
X121107364Y-131596423D01*
X120994662Y-131690458D01*
X120857177Y-131800251D01*
X120709405Y-131914784D01*
X120565836Y-132023041D01*
X120440965Y-132114007D01*
X120349285Y-132176665D01*
X120305287Y-132200000D01*
X120289849Y-132203932D01*
X120220657Y-132244873D01*
X120130732Y-132315943D01*
X120110709Y-132332521D01*
X119973615Y-132418649D01*
X119829340Y-132477485D01*
X119782074Y-132490812D01*
X119694665Y-132519698D01*
X119660000Y-132538121D01*
X119234580Y-132538121D01*
X119379782Y-132444417D01*
X119474274Y-132382243D01*
X119618209Y-132288451D01*
X119732949Y-132214798D01*
X119799782Y-132173362D01*
X119825454Y-132158787D01*
X119933346Y-132101145D01*
X120067987Y-132032582D01*
X120209822Y-131962643D01*
X120339293Y-131900870D01*
X120436843Y-131856808D01*
X120482916Y-131840000D01*
X120520570Y-131818439D01*
X120607820Y-131755663D01*
X120730771Y-131661609D01*
X120876041Y-131546271D01*
X120979952Y-131463171D01*
X121304004Y-131216309D01*
X121599452Y-131013349D01*
X121885131Y-130841921D01*
X122179870Y-130689650D01*
X122252443Y-130654856D01*
X122388002Y-130591380D01*
X122503959Y-130541593D01*
X122616607Y-130500371D01*
X122742240Y-130462593D01*
X122897154Y-130423138D01*
X123097643Y-130376883D01*
X123360000Y-130318707D01*
X123422448Y-130305399D01*
X123757287Y-130246879D01*
X124113773Y-130202946D01*
X124472116Y-130174802D01*
X124812527Y-130163650D01*
X125115215Y-130170692D01*
X125360390Y-130197132D01*
X125365090Y-130197954D01*
X125508808Y-130226526D01*
X125621545Y-130255086D01*
X125679255Y-130277569D01*
X125691476Y-130285479D01*
X125769807Y-130321127D01*
X125880000Y-130360500D01*
X125959349Y-130387754D01*
X126155434Y-130463946D01*
X126400168Y-130566898D01*
X126679035Y-130689841D01*
X126977523Y-130826010D01*
X127281115Y-130968636D01*
X127575298Y-131110953D01*
X127845558Y-131246194D01*
X128077379Y-131367592D01*
X128256249Y-131468379D01*
X128313318Y-131502536D01*
X128407086Y-131559010D01*
X128494896Y-131612723D01*
X128587165Y-131670322D01*
X128694310Y-131738456D01*
X128826749Y-131823771D01*
X128994899Y-131932915D01*
X129209177Y-132072536D01*
X129480000Y-132249282D01*
X129609575Y-132332539D01*
X129844419Y-132473476D01*
X129991343Y-132561650D01*
X130344916Y-132749279D01*
X130660667Y-132890567D01*
X130928970Y-132980655D01*
X131000831Y-132999135D01*
X131111823Y-133023495D01*
X131205536Y-133031972D01*
X131305670Y-133023596D01*
X131435924Y-132997399D01*
X131620000Y-132952411D01*
X131681504Y-132935976D01*
X131864940Y-132870182D01*
X132039593Y-132776095D01*
X132224717Y-132642063D01*
X132439569Y-132456433D01*
X132596589Y-132308536D01*
X132838564Y-132060156D01*
X133046199Y-131820703D01*
X133209094Y-131602490D01*
X133316846Y-131417833D01*
X133360591Y-131319678D01*
X133434982Y-131142510D01*
X133523139Y-130925114D01*
X133617628Y-130686497D01*
X133711019Y-130445669D01*
X133795880Y-130221638D01*
X133864778Y-130033412D01*
X133910283Y-129900000D01*
X133942641Y-129793398D01*
X134049776Y-129365065D01*
X134128362Y-128903829D01*
X134182395Y-128387484D01*
X134183300Y-128375828D01*
X134195542Y-128195090D01*
X134204101Y-128011062D01*
X134208794Y-127815242D01*
X134209436Y-127599126D01*
X134205845Y-127354209D01*
X134197836Y-127071989D01*
X134185228Y-126743962D01*
X134167836Y-126361624D01*
X134145476Y-125916471D01*
X134117967Y-125400000D01*
X134112758Y-125316148D01*
X134083193Y-124985679D01*
X134038192Y-124607528D01*
X133981194Y-124204790D01*
X133915636Y-123800560D01*
X133844956Y-123417931D01*
X133772593Y-123080000D01*
X133767140Y-123056701D01*
X133719969Y-122855209D01*
X133671734Y-122649247D01*
X133632081Y-122480000D01*
X133597301Y-122338228D01*
X133501938Y-121988793D01*
X133385329Y-121600675D01*
X133254041Y-121193307D01*
X133114636Y-120786122D01*
X132973679Y-120398553D01*
X132837733Y-120050035D01*
X132713362Y-119760000D01*
X132657697Y-119640508D01*
X132523251Y-119365027D01*
X132381621Y-119089727D01*
X132245587Y-118839108D01*
X132127930Y-118637672D01*
X132092527Y-118580156D01*
X132007861Y-118441749D01*
X131922640Y-118301598D01*
X131899662Y-118264623D01*
X131826506Y-118150344D01*
X131719474Y-117985464D01*
X131585406Y-117780341D01*
X131431148Y-117545334D01*
X131263540Y-117290801D01*
X131089428Y-117027098D01*
X130915653Y-116764585D01*
X130749058Y-116513619D01*
X130596487Y-116284558D01*
X130464783Y-116087760D01*
X130360788Y-115933583D01*
X130291346Y-115832385D01*
X130189746Y-115689183D01*
X129982307Y-115405909D01*
X129758560Y-115110160D01*
X129528842Y-114814956D01*
X129303491Y-114533318D01*
X129092847Y-114278265D01*
X128907246Y-114062819D01*
X128757029Y-113900000D01*
X128344745Y-113475071D01*
X127881467Y-112989909D01*
X127463317Y-112543007D01*
X127093116Y-112137464D01*
X126773688Y-111776381D01*
X126507856Y-111462860D01*
X126298444Y-111200000D01*
X126250990Y-111141042D01*
X126146171Y-111018165D01*
X126007846Y-110861007D01*
X125848412Y-110683606D01*
X125680266Y-110500000D01*
X125629239Y-110444795D01*
X125367919Y-110160227D01*
X125153241Y-109921603D01*
X124977704Y-109718953D01*
X124833807Y-109542302D01*
X124714048Y-109381678D01*
X124610927Y-109227109D01*
X124516942Y-109068621D01*
X124424592Y-108896242D01*
X124326376Y-108700000D01*
X124289411Y-108624109D01*
X124218822Y-108475244D01*
X124153992Y-108330876D01*
X124091179Y-108180910D01*
X124026640Y-108015254D01*
X123956630Y-107823811D01*
X123877408Y-107596490D01*
X123785229Y-107323194D01*
X123676352Y-106993830D01*
X123547032Y-106598303D01*
X123503712Y-106465326D01*
X123382132Y-106091118D01*
X123282560Y-105782526D01*
X123202614Y-105531697D01*
X123139913Y-105330779D01*
X123092076Y-105171918D01*
X123056722Y-105047263D01*
X123031470Y-104948960D01*
X123013938Y-104869156D01*
X123001745Y-104800000D01*
X122978593Y-104654526D01*
X122941875Y-104430114D01*
X122896656Y-104158008D01*
X122845722Y-103854719D01*
X122791860Y-103536761D01*
X122737857Y-103220646D01*
X122686500Y-102922888D01*
X122640575Y-102660000D01*
X122588340Y-102362922D01*
X122534352Y-102053512D01*
X122490851Y-101800315D01*
X122455792Y-101590829D01*
X122427127Y-101412556D01*
X122402810Y-101252993D01*
X122380796Y-101099641D01*
X122359039Y-100940000D01*
X122323195Y-100676155D01*
X122265626Y-100264666D01*
X122202866Y-99827516D01*
X122139370Y-99395647D01*
X122079597Y-99000000D01*
X122068450Y-98926802D01*
X122039482Y-98731137D01*
X122013966Y-98551744D01*
X121996402Y-98420000D01*
X121987013Y-98347386D01*
X121980919Y-98305650D01*
X122141378Y-98305650D01*
X122158395Y-98434972D01*
X122197315Y-98627384D01*
X122225447Y-98770089D01*
X122255607Y-98943246D01*
X122275246Y-99080000D01*
X122282950Y-99142924D01*
X122303135Y-99295033D01*
X122329313Y-99483050D01*
X122357774Y-99680000D01*
X122361681Y-99706581D01*
X122392175Y-99917621D01*
X122428477Y-100173461D01*
X122466371Y-100444216D01*
X122501643Y-100700000D01*
X122558847Y-101108434D01*
X122628703Y-101574837D01*
X122701304Y-102020994D01*
X122781860Y-102480000D01*
X122796399Y-102561035D01*
X122840140Y-102811120D01*
X122884551Y-103072417D01*
X122921956Y-103300000D01*
X122956659Y-103515100D01*
X123032801Y-103971167D01*
X123104185Y-104369112D01*
X123174484Y-104723848D01*
X123247372Y-105050288D01*
X123326522Y-105363345D01*
X123415609Y-105677932D01*
X123518306Y-106008961D01*
X123638286Y-106371346D01*
X123779224Y-106780000D01*
X123816544Y-106889347D01*
X123875159Y-107066892D01*
X123930532Y-107240000D01*
X123965683Y-107345341D01*
X124027595Y-107518141D01*
X124102582Y-107719071D01*
X124182668Y-107927431D01*
X124259875Y-108122520D01*
X124326225Y-108283637D01*
X124373741Y-108390082D01*
X124522326Y-108684637D01*
X124680310Y-108972187D01*
X124836274Y-109221634D01*
X125003748Y-109452884D01*
X125196261Y-109685846D01*
X125427343Y-109940428D01*
X125576970Y-110100619D01*
X125880947Y-110429682D01*
X126139212Y-110714699D01*
X126349016Y-110952576D01*
X126507609Y-111140216D01*
X126612242Y-111274525D01*
X126720731Y-111420357D01*
X126870706Y-111607428D01*
X127046704Y-111811382D01*
X127259596Y-112044735D01*
X127520251Y-112320000D01*
X127841956Y-112656222D01*
X128233278Y-113068495D01*
X128578158Y-113436773D01*
X128882581Y-113768138D01*
X129152532Y-114069672D01*
X129393996Y-114348457D01*
X129612958Y-114611574D01*
X129815404Y-114866105D01*
X130007318Y-115119131D01*
X130194686Y-115377734D01*
X130383493Y-115648997D01*
X130579723Y-115940000D01*
X130642018Y-116033537D01*
X130762746Y-116214781D01*
X130867839Y-116372512D01*
X130947729Y-116492371D01*
X130992850Y-116560000D01*
X131011373Y-116587731D01*
X131078434Y-116688201D01*
X131169324Y-116824432D01*
X131269842Y-116975138D01*
X131379979Y-117131679D01*
X131494117Y-117264395D01*
X131624971Y-117378291D01*
X131800000Y-117500584D01*
X131872775Y-117548955D01*
X132016039Y-117647319D01*
X132131813Y-117730878D01*
X132200170Y-117785445D01*
X132222612Y-117805517D01*
X132310563Y-117880105D01*
X132433582Y-117981423D01*
X132572387Y-118093515D01*
X132628156Y-118138427D01*
X132770310Y-118255552D01*
X132892911Y-118360034D01*
X132974258Y-118433515D01*
X133025198Y-118481659D01*
X133130653Y-118579486D01*
X133273293Y-118710739D01*
X133441096Y-118864364D01*
X133622041Y-119029305D01*
X133723216Y-119122429D01*
X133946049Y-119333537D01*
X134173651Y-119555934D01*
X134384361Y-119768298D01*
X134556523Y-119949305D01*
X134709885Y-120114140D01*
X134904931Y-120321030D01*
X135122372Y-120549616D01*
X135345229Y-120782051D01*
X135556523Y-121000487D01*
X135580950Y-121025632D01*
X135779841Y-121232373D01*
X135976111Y-121439580D01*
X136156367Y-121632901D01*
X136307215Y-121797987D01*
X136415258Y-121920487D01*
X136462367Y-121975771D01*
X136601210Y-122138776D01*
X136735094Y-122296042D01*
X136840546Y-122420000D01*
X137035646Y-122658440D01*
X137396267Y-123145854D01*
X137762266Y-123700854D01*
X138135395Y-124326304D01*
X138517406Y-125025065D01*
X138910051Y-125800000D01*
X138987450Y-125958293D01*
X139157243Y-126306999D01*
X139322256Y-126647752D01*
X139477394Y-126969917D01*
X139617559Y-127262859D01*
X139737655Y-127515943D01*
X139832586Y-127718535D01*
X139897255Y-127860000D01*
X139927095Y-127926922D01*
X139997576Y-128084759D01*
X140058086Y-128220000D01*
X140085890Y-128284376D01*
X140147344Y-128433256D01*
X140224865Y-128626006D01*
X140311003Y-128843877D01*
X140398308Y-129068124D01*
X140479330Y-129280000D01*
X140499255Y-129332212D01*
X140554129Y-129473655D01*
X140611779Y-129620000D01*
X140638564Y-129690536D01*
X140687289Y-129834853D01*
X140718729Y-129949541D01*
X140720271Y-129956632D01*
X140748526Y-130049483D01*
X140778002Y-130098764D01*
X140780595Y-130099863D01*
X140813150Y-130069469D01*
X140858247Y-129973962D01*
X140912346Y-129825242D01*
X140971908Y-129635210D01*
X141033393Y-129415769D01*
X141093262Y-129178820D01*
X141147976Y-128936263D01*
X141193995Y-128700000D01*
X141203714Y-128644883D01*
X141347203Y-127798497D01*
X141467630Y-127015587D01*
X141565657Y-126283995D01*
X141641945Y-125591566D01*
X141697156Y-124926143D01*
X141731951Y-124275571D01*
X141746992Y-123627693D01*
X141742941Y-122970353D01*
X141720459Y-122291395D01*
X141680208Y-121578662D01*
X141622849Y-120820000D01*
X141601397Y-120561721D01*
X141553635Y-119971358D01*
X141509384Y-119399480D01*
X141466143Y-118813292D01*
X141421408Y-118180000D01*
X141412319Y-118059337D01*
X141383279Y-117740841D01*
X141346099Y-117395890D01*
X141303947Y-117051066D01*
X141259991Y-116732950D01*
X141217399Y-116468124D01*
X141213199Y-116447841D01*
X141186881Y-116360147D01*
X141139671Y-116236860D01*
X141069229Y-116072952D01*
X140973215Y-115863395D01*
X140849289Y-115603162D01*
X140695111Y-115287224D01*
X140522995Y-114940106D01*
X140620000Y-114940106D01*
X140620129Y-114941238D01*
X140639726Y-114990271D01*
X140687902Y-115094937D01*
X140757797Y-115240666D01*
X140842554Y-115412889D01*
X140896658Y-115520813D01*
X140999103Y-115718832D01*
X141069933Y-115844742D01*
X141109645Y-115899292D01*
X141118734Y-115883230D01*
X141097698Y-115797301D01*
X141083762Y-115749681D01*
X141043626Y-115607756D01*
X141002905Y-115458907D01*
X140955703Y-115300784D01*
X140876281Y-115104355D01*
X140793439Y-114978219D01*
X140709844Y-114927217D01*
X140653407Y-114924923D01*
X140620000Y-114940106D01*
X140522995Y-114940106D01*
X140508342Y-114910554D01*
X140286642Y-114468124D01*
X140277950Y-114450841D01*
X139864383Y-113618201D01*
X139493500Y-112850219D01*
X139165569Y-112147473D01*
X138880862Y-111510540D01*
X138639647Y-110940000D01*
X138613649Y-110877262D01*
X138551069Y-110728944D01*
X138471115Y-110541373D01*
X138382839Y-110335621D01*
X138295292Y-110132761D01*
X138217523Y-109953863D01*
X138158584Y-109820000D01*
X138155395Y-109812840D01*
X138092698Y-109671014D01*
X138015324Y-109494579D01*
X137939268Y-109320000D01*
X137826465Y-109065045D01*
X137601311Y-108577817D01*
X137344583Y-108045082D01*
X137063331Y-107480886D01*
X136764602Y-106899276D01*
X136455444Y-106314298D01*
X136142907Y-105740000D01*
X136121698Y-105701593D01*
X136021188Y-105518669D01*
X135932857Y-105356501D01*
X135865598Y-105231481D01*
X135828301Y-105160000D01*
X135815099Y-105133865D01*
X135755846Y-105022617D01*
X135687455Y-104900000D01*
X135671947Y-104872713D01*
X135601359Y-104746442D01*
X135512940Y-104586210D01*
X135422156Y-104420000D01*
X135397208Y-104374077D01*
X135303631Y-104202144D01*
X135215731Y-104041064D01*
X135149730Y-103920577D01*
X135128195Y-103881261D01*
X135053260Y-103743333D01*
X134961716Y-103573775D01*
X134868691Y-103400577D01*
X134836566Y-103340914D01*
X134721294Y-103130176D01*
X134595123Y-102903288D01*
X134480099Y-102700000D01*
X134418901Y-102592721D01*
X134337650Y-102448793D01*
X134276497Y-102338629D01*
X134245372Y-102280000D01*
X134234703Y-102257968D01*
X134216171Y-102222692D01*
X134187445Y-102172589D01*
X134140621Y-102094315D01*
X134067797Y-101974523D01*
X133961072Y-101799869D01*
X133960129Y-101798328D01*
X133849825Y-101619864D01*
X133739388Y-101444384D01*
X133639278Y-101288208D01*
X133559957Y-101167658D01*
X133511885Y-101099054D01*
X133483949Y-101061096D01*
X133420563Y-100972204D01*
X133341074Y-100859054D01*
X133193123Y-100656554D01*
X132928424Y-100324503D01*
X132615948Y-99961272D01*
X132264910Y-99577460D01*
X131884524Y-99183664D01*
X131825666Y-99124356D01*
X131602131Y-98900631D01*
X131412071Y-98714910D01*
X131242929Y-98556974D01*
X131082152Y-98416601D01*
X130917183Y-98283570D01*
X130735468Y-98147659D01*
X130524450Y-97998649D01*
X130271575Y-97826317D01*
X129964286Y-97620443D01*
X129132546Y-97065298D01*
X127726273Y-97062649D01*
X127576038Y-97062308D01*
X127240295Y-97061398D01*
X126966694Y-97061412D01*
X126742382Y-97063573D01*
X126554507Y-97069104D01*
X126390216Y-97079226D01*
X126236656Y-97095163D01*
X126080976Y-97118136D01*
X125910323Y-97149369D01*
X125711845Y-97190084D01*
X125472688Y-97241504D01*
X125180000Y-97304850D01*
X125007649Y-97344262D01*
X124807521Y-97394164D01*
X124640000Y-97439974D01*
X124523712Y-97473594D01*
X124324855Y-97529595D01*
X124140000Y-97580201D01*
X124069451Y-97599964D01*
X123889038Y-97654456D01*
X123681814Y-97720757D01*
X123480000Y-97788686D01*
X123362820Y-97828802D01*
X123187339Y-97886961D01*
X123040871Y-97933274D01*
X122946606Y-97960283D01*
X122824636Y-97993905D01*
X122706606Y-98032271D01*
X122647151Y-98051451D01*
X122516692Y-98087101D01*
X122370000Y-98122107D01*
X122273490Y-98144797D01*
X122193750Y-98175704D01*
X122151438Y-98224275D01*
X122141378Y-98305650D01*
X121980919Y-98305650D01*
X121973545Y-98255148D01*
X121965799Y-98218406D01*
X121934633Y-98219393D01*
X121843309Y-98224189D01*
X121713834Y-98231765D01*
X121467668Y-98246719D01*
X121441813Y-98753359D01*
X121434712Y-98884921D01*
X121425400Y-99029798D01*
X121413905Y-99171831D01*
X121398850Y-99322728D01*
X121378854Y-99494199D01*
X121352538Y-99697952D01*
X121318522Y-99945697D01*
X121275426Y-100249143D01*
X121221870Y-100620000D01*
X121221305Y-100623900D01*
X121181462Y-100903440D01*
X121147087Y-101158443D01*
X121117715Y-101397619D01*
X121092880Y-101629682D01*
X121072117Y-101863342D01*
X121054962Y-102107310D01*
X121040949Y-102370298D01*
X121029612Y-102661017D01*
X121020488Y-102988179D01*
X121013111Y-103360496D01*
X121007015Y-103786678D01*
X121001736Y-104275437D01*
X120996808Y-104835484D01*
X120993635Y-105192137D01*
X120986855Y-105797301D01*
X120978890Y-106326847D01*
X120969671Y-106783624D01*
X120959126Y-107170480D01*
X120947182Y-107490262D01*
X120933768Y-107745819D01*
X120918813Y-107940000D01*
X120917129Y-107957598D01*
X120891689Y-108227859D01*
X120864706Y-108521159D01*
X120839299Y-108803279D01*
X120818584Y-109040000D01*
X120787738Y-109347556D01*
X120747212Y-109665357D01*
X120700260Y-109970586D01*
X120649340Y-110249800D01*
X120596910Y-110489556D01*
X120545428Y-110676412D01*
X120497351Y-110796926D01*
X120495446Y-110800502D01*
X120462439Y-110873451D01*
X120412382Y-110994708D01*
X120355323Y-111140000D01*
X120298600Y-111278244D01*
X120183677Y-111529623D01*
X120044669Y-111810289D01*
X119893357Y-112097441D01*
X119741521Y-112368278D01*
X119600944Y-112600000D01*
X119544638Y-112681759D01*
X119395544Y-112870191D01*
X119209351Y-113081297D01*
X119002968Y-113297663D01*
X118793307Y-113501871D01*
X118597277Y-113676505D01*
X118431789Y-113804148D01*
X118197241Y-113974480D01*
X117887740Y-114223318D01*
X117542382Y-114523109D01*
X117168594Y-114867602D01*
X117082760Y-114947900D01*
X116903219Y-115110648D01*
X116733199Y-115258475D01*
X116588598Y-115377720D01*
X116485319Y-115454718D01*
X116452354Y-115476789D01*
X116334785Y-115560766D01*
X116233667Y-115646214D01*
X116141897Y-115743315D01*
X116052368Y-115862250D01*
X115957977Y-116013204D01*
X115851618Y-116206359D01*
X115726187Y-116451896D01*
X115574580Y-116760000D01*
X115483948Y-116946158D01*
X115366370Y-117188284D01*
X115261893Y-117404132D01*
X115176023Y-117582301D01*
X115114262Y-117711390D01*
X115082115Y-117780000D01*
X115033834Y-117897210D01*
X114951060Y-118131466D01*
X114864505Y-118409942D01*
X114780256Y-118711570D01*
X114704399Y-119015279D01*
X114643022Y-119300000D01*
X114527688Y-119909076D01*
X114415519Y-120546412D01*
X114323484Y-121132316D01*
X114250377Y-121680330D01*
X114194992Y-122204000D01*
X114156123Y-122716870D01*
X114132565Y-123232485D01*
X114123112Y-123764388D01*
X113872797Y-123764388D01*
X113876421Y-123580000D01*
X113888728Y-123327796D01*
X113929023Y-122745468D01*
X113985530Y-122137030D01*
X114055342Y-121528976D01*
X114135551Y-120947801D01*
X114223248Y-120420000D01*
X114244682Y-120303295D01*
X114288337Y-120065242D01*
X114331075Y-119831799D01*
X114366114Y-119640000D01*
X114395268Y-119490283D01*
X114450546Y-119232448D01*
X114516379Y-118945607D01*
X114586372Y-118656655D01*
X114654129Y-118392487D01*
X114713256Y-118180000D01*
X114748488Y-118064682D01*
X114803640Y-117900746D01*
X114866921Y-117735767D01*
X114945575Y-117552289D01*
X115046845Y-117332853D01*
X115177975Y-117060000D01*
X115205961Y-117002421D01*
X115319328Y-116768852D01*
X115433309Y-116533585D01*
X115536023Y-116321161D01*
X115615588Y-116156119D01*
X115671220Y-116046250D01*
X115807086Y-115824578D01*
X115970220Y-115624161D01*
X116176050Y-115427423D01*
X116440000Y-115216786D01*
X116455903Y-115204733D01*
X116598456Y-115089363D01*
X116773824Y-114938057D01*
X116961256Y-114769080D01*
X117140000Y-114600695D01*
X117190347Y-114552729D01*
X117394570Y-114367696D01*
X117631215Y-114164410D01*
X117874840Y-113964379D01*
X118100000Y-113789115D01*
X118182369Y-113726811D01*
X118578867Y-113410019D01*
X118911032Y-113111774D01*
X119187458Y-112823244D01*
X119416740Y-112535597D01*
X119607472Y-112240000D01*
X119742625Y-111997762D01*
X119884471Y-111729779D01*
X120022044Y-111457689D01*
X120146313Y-111199783D01*
X120248245Y-110974348D01*
X120318808Y-110799673D01*
X120404444Y-110529352D01*
X120500006Y-110117109D01*
X120577255Y-109635465D01*
X120637009Y-109080000D01*
X120654703Y-108878817D01*
X120683189Y-108566063D01*
X120712929Y-108250286D01*
X120741313Y-107959070D01*
X120765730Y-107720000D01*
X120780494Y-107557008D01*
X120794319Y-107346005D01*
X120806188Y-107091924D01*
X120816272Y-106788612D01*
X120824741Y-106429916D01*
X120831766Y-106009684D01*
X120837516Y-105521763D01*
X120842163Y-104960000D01*
X120842509Y-104910152D01*
X120846742Y-104349865D01*
X120851588Y-103858653D01*
X120857770Y-103426429D01*
X120866013Y-103043105D01*
X120877040Y-102698593D01*
X120891574Y-102382805D01*
X120910341Y-102085652D01*
X120934062Y-101797048D01*
X120963463Y-101506903D01*
X120999267Y-101205131D01*
X121042198Y-100881642D01*
X121092979Y-100526349D01*
X121152335Y-100129164D01*
X121220988Y-99680000D01*
X121244842Y-99511437D01*
X121277989Y-99234823D01*
X121305574Y-98956353D01*
X121323318Y-98716327D01*
X121348802Y-98252655D01*
X120874401Y-98228017D01*
X120513758Y-98203852D01*
X120040630Y-98155254D01*
X119548381Y-98085052D01*
X119023321Y-97990979D01*
X118451758Y-97870767D01*
X117820000Y-97722148D01*
X117441862Y-97633778D01*
X116493979Y-97447210D01*
X115480000Y-97294180D01*
X115390739Y-97283726D01*
X115125559Y-97261301D01*
X114805920Y-97243511D01*
X114445256Y-97230362D01*
X114056999Y-97221858D01*
X113654580Y-97218005D01*
X113251431Y-97218806D01*
X112860985Y-97224268D01*
X112496674Y-97234394D01*
X112171929Y-97249190D01*
X111900182Y-97268661D01*
X111694867Y-97292811D01*
X111567780Y-97311859D01*
X111378436Y-97336675D01*
X111217590Y-97353686D01*
X111110412Y-97359999D01*
X111038408Y-97363087D01*
X110975179Y-97381209D01*
X110958728Y-97393397D01*
X110913650Y-97426794D01*
G37*
D12*
%TO.C,LED16*%
X191200000Y-110800000D02*
X192800000Y-110800000D01*
X191200000Y-112400000D02*
X191200000Y-110800000D01*
%TO.C,LED6*%
X115200000Y-77200000D02*
X116800000Y-77200000D01*
X115200000Y-78800000D02*
X115200000Y-77200000D01*
%TO.C,LED18*%
X193035387Y-151846117D02*
X193449497Y-150300635D01*
X193449497Y-150300635D02*
X194994979Y-150714746D01*
%TO.C,LED30*%
X198800000Y-131450000D02*
X198800000Y-133050000D01*
X198800000Y-133050000D02*
X197200000Y-133050000D01*
%TO.C,LED12*%
X153200000Y-67700000D02*
X154800000Y-67700000D01*
X153200000Y-69300000D02*
X153200000Y-67700000D01*
%TO.C,LED29*%
X179800000Y-90850000D02*
X179800000Y-92450000D01*
X179800000Y-92450000D02*
X178200000Y-92450000D01*
%TO.C,LED19*%
X211387978Y-156763679D02*
X211802088Y-155218197D01*
X211802088Y-155218197D02*
X213347570Y-155632308D01*
%TO.C,LED15*%
X172200000Y-70200000D02*
X173800000Y-70200000D01*
X172200000Y-71800000D02*
X172200000Y-70200000D01*
%TO.C,LED24*%
X141800000Y-128950000D02*
X141800000Y-130550000D01*
X141800000Y-130550000D02*
X140200000Y-130550000D01*
%TO.C,LED32*%
X218657259Y-140645908D02*
X217111777Y-140231797D01*
X219071369Y-139100426D02*
X218657259Y-140645908D01*
%TO.C,LED23*%
X122800000Y-97850000D02*
X122800000Y-99450000D01*
X122800000Y-99450000D02*
X121200000Y-99450000D01*
%TO.C,LED4*%
X115200000Y-153400000D02*
X116800000Y-153400000D01*
X115200000Y-155000000D02*
X115200000Y-153400000D01*
%TO.C,LED10*%
X153200000Y-143900000D02*
X154800000Y-143900000D01*
X153200000Y-145500000D02*
X153200000Y-143900000D01*
%TO.C,LED8*%
X134200000Y-108300000D02*
X135800000Y-108300000D01*
X134200000Y-109900000D02*
X134200000Y-108300000D01*
%TO.C,LED3*%
X96200000Y-77200000D02*
X97800000Y-77200000D01*
X96200000Y-78800000D02*
X96200000Y-77200000D01*
%TO.C,LED27*%
X160800000Y-88350000D02*
X160800000Y-89950000D01*
X160800000Y-89950000D02*
X159200000Y-89950000D01*
%TO.C,LED21*%
X103800000Y-97850000D02*
X103800000Y-99450000D01*
X103800000Y-99450000D02*
X102200000Y-99450000D01*
%TO.C,LED13*%
X172200000Y-146400000D02*
X173800000Y-146400000D01*
X172200000Y-148000000D02*
X172200000Y-146400000D01*
%TO.C,LED28*%
X179800000Y-128950000D02*
X179800000Y-130550000D01*
X179800000Y-130550000D02*
X178200000Y-130550000D01*
%TO.C,LED31*%
X198800000Y-93350000D02*
X198800000Y-94950000D01*
X198800000Y-94950000D02*
X197200000Y-94950000D01*
%TO.C,LED7*%
X134200000Y-146400000D02*
X135800000Y-146400000D01*
X134200000Y-148000000D02*
X134200000Y-146400000D01*
%TD*%
D15*
%TO.C,MCU1*%
X227620000Y-61330000D03*
D16*
X227620000Y-63870000D03*
X227620000Y-66410000D03*
X227620000Y-68950000D03*
X227620000Y-71490000D03*
X227620000Y-74030000D03*
X227620000Y-76570000D03*
X227620000Y-79110000D03*
X227620000Y-81650000D03*
X227620000Y-84190000D03*
X227620000Y-86730000D03*
X227620000Y-89270000D03*
X212380000Y-61330000D03*
X212380000Y-63870000D03*
X212380000Y-66410000D03*
X212380000Y-68950000D03*
X212380000Y-71490000D03*
X212380000Y-74030000D03*
X212380000Y-76570000D03*
X212380000Y-79110000D03*
X212380000Y-81650000D03*
X212380000Y-84190000D03*
X212380000Y-86730000D03*
X212380000Y-89270000D03*
%TD*%
M02*
