%TF.GenerationSoftware,KiCad,Pcbnew,8.0.6*%
%TF.CreationDate,2025-03-22T19:16:27+01:00*%
%TF.ProjectId,left-finished,6c656674-2d66-4696-9e69-736865642e6b,v1.0.0*%
%TF.SameCoordinates,Original*%
%TF.FileFunction,Legend,Top*%
%TF.FilePolarity,Positive*%
%FSLAX46Y46*%
G04 Gerber Fmt 4.6, Leading zero omitted, Abs format (unit mm)*
G04 Created by KiCad (PCBNEW 8.0.6) date 2025-03-22 19:16:27*
%MOMM*%
%LPD*%
G01*
G04 APERTURE LIST*
%ADD10C,0.300000*%
%ADD11C,0.150000*%
%ADD12C,0.100000*%
%ADD13C,0.120000*%
%ADD14C,0.000000*%
%ADD15C,2.500000*%
%ADD16R,1.752600X1.752600*%
%ADD17C,1.752600*%
G04 APERTURE END LIST*
D10*
X95911653Y-63657971D02*
X95840225Y-63729400D01*
X95840225Y-63729400D02*
X95625939Y-63800828D01*
X95625939Y-63800828D02*
X95483082Y-63800828D01*
X95483082Y-63800828D02*
X95268796Y-63729400D01*
X95268796Y-63729400D02*
X95125939Y-63586542D01*
X95125939Y-63586542D02*
X95054510Y-63443685D01*
X95054510Y-63443685D02*
X94983082Y-63157971D01*
X94983082Y-63157971D02*
X94983082Y-62943685D01*
X94983082Y-62943685D02*
X95054510Y-62657971D01*
X95054510Y-62657971D02*
X95125939Y-62515114D01*
X95125939Y-62515114D02*
X95268796Y-62372257D01*
X95268796Y-62372257D02*
X95483082Y-62300828D01*
X95483082Y-62300828D02*
X95625939Y-62300828D01*
X95625939Y-62300828D02*
X95840225Y-62372257D01*
X95840225Y-62372257D02*
X95911653Y-62443685D01*
X96483082Y-63372257D02*
X97197368Y-63372257D01*
X96340225Y-63800828D02*
X96840225Y-62300828D01*
X96840225Y-62300828D02*
X97340225Y-63800828D01*
X97625939Y-62300828D02*
X98483082Y-62300828D01*
X98054510Y-63800828D02*
X98054510Y-62300828D01*
X100054510Y-63729400D02*
X100268796Y-63800828D01*
X100268796Y-63800828D02*
X100625938Y-63800828D01*
X100625938Y-63800828D02*
X100768796Y-63729400D01*
X100768796Y-63729400D02*
X100840224Y-63657971D01*
X100840224Y-63657971D02*
X100911653Y-63515114D01*
X100911653Y-63515114D02*
X100911653Y-63372257D01*
X100911653Y-63372257D02*
X100840224Y-63229400D01*
X100840224Y-63229400D02*
X100768796Y-63157971D01*
X100768796Y-63157971D02*
X100625938Y-63086542D01*
X100625938Y-63086542D02*
X100340224Y-63015114D01*
X100340224Y-63015114D02*
X100197367Y-62943685D01*
X100197367Y-62943685D02*
X100125938Y-62872257D01*
X100125938Y-62872257D02*
X100054510Y-62729400D01*
X100054510Y-62729400D02*
X100054510Y-62586542D01*
X100054510Y-62586542D02*
X100125938Y-62443685D01*
X100125938Y-62443685D02*
X100197367Y-62372257D01*
X100197367Y-62372257D02*
X100340224Y-62300828D01*
X100340224Y-62300828D02*
X100697367Y-62300828D01*
X100697367Y-62300828D02*
X100911653Y-62372257D01*
X101554509Y-62300828D02*
X101554509Y-63515114D01*
X101554509Y-63515114D02*
X101625938Y-63657971D01*
X101625938Y-63657971D02*
X101697367Y-63729400D01*
X101697367Y-63729400D02*
X101840224Y-63800828D01*
X101840224Y-63800828D02*
X102125938Y-63800828D01*
X102125938Y-63800828D02*
X102268795Y-63729400D01*
X102268795Y-63729400D02*
X102340224Y-63657971D01*
X102340224Y-63657971D02*
X102411652Y-63515114D01*
X102411652Y-63515114D02*
X102411652Y-62300828D01*
X103983081Y-63657971D02*
X103911653Y-63729400D01*
X103911653Y-63729400D02*
X103697367Y-63800828D01*
X103697367Y-63800828D02*
X103554510Y-63800828D01*
X103554510Y-63800828D02*
X103340224Y-63729400D01*
X103340224Y-63729400D02*
X103197367Y-63586542D01*
X103197367Y-63586542D02*
X103125938Y-63443685D01*
X103125938Y-63443685D02*
X103054510Y-63157971D01*
X103054510Y-63157971D02*
X103054510Y-62943685D01*
X103054510Y-62943685D02*
X103125938Y-62657971D01*
X103125938Y-62657971D02*
X103197367Y-62515114D01*
X103197367Y-62515114D02*
X103340224Y-62372257D01*
X103340224Y-62372257D02*
X103554510Y-62300828D01*
X103554510Y-62300828D02*
X103697367Y-62300828D01*
X103697367Y-62300828D02*
X103911653Y-62372257D01*
X103911653Y-62372257D02*
X103983081Y-62443685D01*
X104625938Y-63800828D02*
X104625938Y-62300828D01*
X105483081Y-63800828D02*
X104840224Y-62943685D01*
X105483081Y-62300828D02*
X104625938Y-63157971D01*
X106054510Y-63729400D02*
X106268796Y-63800828D01*
X106268796Y-63800828D02*
X106625938Y-63800828D01*
X106625938Y-63800828D02*
X106768796Y-63729400D01*
X106768796Y-63729400D02*
X106840224Y-63657971D01*
X106840224Y-63657971D02*
X106911653Y-63515114D01*
X106911653Y-63515114D02*
X106911653Y-63372257D01*
X106911653Y-63372257D02*
X106840224Y-63229400D01*
X106840224Y-63229400D02*
X106768796Y-63157971D01*
X106768796Y-63157971D02*
X106625938Y-63086542D01*
X106625938Y-63086542D02*
X106340224Y-63015114D01*
X106340224Y-63015114D02*
X106197367Y-62943685D01*
X106197367Y-62943685D02*
X106125938Y-62872257D01*
X106125938Y-62872257D02*
X106054510Y-62729400D01*
X106054510Y-62729400D02*
X106054510Y-62586542D01*
X106054510Y-62586542D02*
X106125938Y-62443685D01*
X106125938Y-62443685D02*
X106197367Y-62372257D01*
X106197367Y-62372257D02*
X106340224Y-62300828D01*
X106340224Y-62300828D02*
X106697367Y-62300828D01*
X106697367Y-62300828D02*
X106911653Y-62372257D01*
D11*
X223828571Y-87092295D02*
X223828571Y-86292295D01*
X223828571Y-86292295D02*
X224133333Y-86292295D01*
X224133333Y-86292295D02*
X224209523Y-86330390D01*
X224209523Y-86330390D02*
X224247618Y-86368485D01*
X224247618Y-86368485D02*
X224285714Y-86444676D01*
X224285714Y-86444676D02*
X224285714Y-86558961D01*
X224285714Y-86558961D02*
X224247618Y-86635152D01*
X224247618Y-86635152D02*
X224209523Y-86673247D01*
X224209523Y-86673247D02*
X224133333Y-86711342D01*
X224133333Y-86711342D02*
X223828571Y-86711342D01*
X225047618Y-87092295D02*
X224590475Y-87092295D01*
X224819047Y-87092295D02*
X224819047Y-86292295D01*
X224819047Y-86292295D02*
X224742856Y-86406580D01*
X224742856Y-86406580D02*
X224666666Y-86482771D01*
X224666666Y-86482771D02*
X224590475Y-86520866D01*
X225733333Y-86292295D02*
X225580952Y-86292295D01*
X225580952Y-86292295D02*
X225504761Y-86330390D01*
X225504761Y-86330390D02*
X225466666Y-86368485D01*
X225466666Y-86368485D02*
X225390476Y-86482771D01*
X225390476Y-86482771D02*
X225352380Y-86635152D01*
X225352380Y-86635152D02*
X225352380Y-86939914D01*
X225352380Y-86939914D02*
X225390476Y-87016104D01*
X225390476Y-87016104D02*
X225428571Y-87054200D01*
X225428571Y-87054200D02*
X225504761Y-87092295D01*
X225504761Y-87092295D02*
X225657142Y-87092295D01*
X225657142Y-87092295D02*
X225733333Y-87054200D01*
X225733333Y-87054200D02*
X225771428Y-87016104D01*
X225771428Y-87016104D02*
X225809523Y-86939914D01*
X225809523Y-86939914D02*
X225809523Y-86749438D01*
X225809523Y-86749438D02*
X225771428Y-86673247D01*
X225771428Y-86673247D02*
X225733333Y-86635152D01*
X225733333Y-86635152D02*
X225657142Y-86597057D01*
X225657142Y-86597057D02*
X225504761Y-86597057D01*
X225504761Y-86597057D02*
X225428571Y-86635152D01*
X225428571Y-86635152D02*
X225390476Y-86673247D01*
X225390476Y-86673247D02*
X225352380Y-86749438D01*
X223828571Y-74392295D02*
X223828571Y-73592295D01*
X223828571Y-73592295D02*
X224133333Y-73592295D01*
X224133333Y-73592295D02*
X224209523Y-73630390D01*
X224209523Y-73630390D02*
X224247618Y-73668485D01*
X224247618Y-73668485D02*
X224285714Y-73744676D01*
X224285714Y-73744676D02*
X224285714Y-73858961D01*
X224285714Y-73858961D02*
X224247618Y-73935152D01*
X224247618Y-73935152D02*
X224209523Y-73973247D01*
X224209523Y-73973247D02*
X224133333Y-74011342D01*
X224133333Y-74011342D02*
X223828571Y-74011342D01*
X224590475Y-73668485D02*
X224628571Y-73630390D01*
X224628571Y-73630390D02*
X224704761Y-73592295D01*
X224704761Y-73592295D02*
X224895237Y-73592295D01*
X224895237Y-73592295D02*
X224971428Y-73630390D01*
X224971428Y-73630390D02*
X225009523Y-73668485D01*
X225009523Y-73668485D02*
X225047618Y-73744676D01*
X225047618Y-73744676D02*
X225047618Y-73820866D01*
X225047618Y-73820866D02*
X225009523Y-73935152D01*
X225009523Y-73935152D02*
X224552380Y-74392295D01*
X224552380Y-74392295D02*
X225047618Y-74392295D01*
X225542857Y-73592295D02*
X225619047Y-73592295D01*
X225619047Y-73592295D02*
X225695238Y-73630390D01*
X225695238Y-73630390D02*
X225733333Y-73668485D01*
X225733333Y-73668485D02*
X225771428Y-73744676D01*
X225771428Y-73744676D02*
X225809523Y-73897057D01*
X225809523Y-73897057D02*
X225809523Y-74087533D01*
X225809523Y-74087533D02*
X225771428Y-74239914D01*
X225771428Y-74239914D02*
X225733333Y-74316104D01*
X225733333Y-74316104D02*
X225695238Y-74354200D01*
X225695238Y-74354200D02*
X225619047Y-74392295D01*
X225619047Y-74392295D02*
X225542857Y-74392295D01*
X225542857Y-74392295D02*
X225466666Y-74354200D01*
X225466666Y-74354200D02*
X225428571Y-74316104D01*
X225428571Y-74316104D02*
X225390476Y-74239914D01*
X225390476Y-74239914D02*
X225352380Y-74087533D01*
X225352380Y-74087533D02*
X225352380Y-73897057D01*
X225352380Y-73897057D02*
X225390476Y-73744676D01*
X225390476Y-73744676D02*
X225428571Y-73668485D01*
X225428571Y-73668485D02*
X225466666Y-73630390D01*
X225466666Y-73630390D02*
X225542857Y-73592295D01*
X214228571Y-74392295D02*
X214228571Y-73592295D01*
X214228571Y-73592295D02*
X214533333Y-73592295D01*
X214533333Y-73592295D02*
X214609523Y-73630390D01*
X214609523Y-73630390D02*
X214647618Y-73668485D01*
X214647618Y-73668485D02*
X214685714Y-73744676D01*
X214685714Y-73744676D02*
X214685714Y-73858961D01*
X214685714Y-73858961D02*
X214647618Y-73935152D01*
X214647618Y-73935152D02*
X214609523Y-73973247D01*
X214609523Y-73973247D02*
X214533333Y-74011342D01*
X214533333Y-74011342D02*
X214228571Y-74011342D01*
X215180952Y-73592295D02*
X215257142Y-73592295D01*
X215257142Y-73592295D02*
X215333333Y-73630390D01*
X215333333Y-73630390D02*
X215371428Y-73668485D01*
X215371428Y-73668485D02*
X215409523Y-73744676D01*
X215409523Y-73744676D02*
X215447618Y-73897057D01*
X215447618Y-73897057D02*
X215447618Y-74087533D01*
X215447618Y-74087533D02*
X215409523Y-74239914D01*
X215409523Y-74239914D02*
X215371428Y-74316104D01*
X215371428Y-74316104D02*
X215333333Y-74354200D01*
X215333333Y-74354200D02*
X215257142Y-74392295D01*
X215257142Y-74392295D02*
X215180952Y-74392295D01*
X215180952Y-74392295D02*
X215104761Y-74354200D01*
X215104761Y-74354200D02*
X215066666Y-74316104D01*
X215066666Y-74316104D02*
X215028571Y-74239914D01*
X215028571Y-74239914D02*
X214990475Y-74087533D01*
X214990475Y-74087533D02*
X214990475Y-73897057D01*
X214990475Y-73897057D02*
X215028571Y-73744676D01*
X215028571Y-73744676D02*
X215066666Y-73668485D01*
X215066666Y-73668485D02*
X215104761Y-73630390D01*
X215104761Y-73630390D02*
X215180952Y-73592295D01*
X215714285Y-73592295D02*
X216209523Y-73592295D01*
X216209523Y-73592295D02*
X215942857Y-73897057D01*
X215942857Y-73897057D02*
X216057142Y-73897057D01*
X216057142Y-73897057D02*
X216133333Y-73935152D01*
X216133333Y-73935152D02*
X216171428Y-73973247D01*
X216171428Y-73973247D02*
X216209523Y-74049438D01*
X216209523Y-74049438D02*
X216209523Y-74239914D01*
X216209523Y-74239914D02*
X216171428Y-74316104D01*
X216171428Y-74316104D02*
X216133333Y-74354200D01*
X216133333Y-74354200D02*
X216057142Y-74392295D01*
X216057142Y-74392295D02*
X215828571Y-74392295D01*
X215828571Y-74392295D02*
X215752380Y-74354200D01*
X215752380Y-74354200D02*
X215714285Y-74316104D01*
X223828571Y-82012295D02*
X223828571Y-81212295D01*
X223828571Y-81212295D02*
X224133333Y-81212295D01*
X224133333Y-81212295D02*
X224209523Y-81250390D01*
X224209523Y-81250390D02*
X224247618Y-81288485D01*
X224247618Y-81288485D02*
X224285714Y-81364676D01*
X224285714Y-81364676D02*
X224285714Y-81478961D01*
X224285714Y-81478961D02*
X224247618Y-81555152D01*
X224247618Y-81555152D02*
X224209523Y-81593247D01*
X224209523Y-81593247D02*
X224133333Y-81631342D01*
X224133333Y-81631342D02*
X223828571Y-81631342D01*
X225047618Y-82012295D02*
X224590475Y-82012295D01*
X224819047Y-82012295D02*
X224819047Y-81212295D01*
X224819047Y-81212295D02*
X224742856Y-81326580D01*
X224742856Y-81326580D02*
X224666666Y-81402771D01*
X224666666Y-81402771D02*
X224590475Y-81440866D01*
X225771428Y-81212295D02*
X225390476Y-81212295D01*
X225390476Y-81212295D02*
X225352380Y-81593247D01*
X225352380Y-81593247D02*
X225390476Y-81555152D01*
X225390476Y-81555152D02*
X225466666Y-81517057D01*
X225466666Y-81517057D02*
X225657142Y-81517057D01*
X225657142Y-81517057D02*
X225733333Y-81555152D01*
X225733333Y-81555152D02*
X225771428Y-81593247D01*
X225771428Y-81593247D02*
X225809523Y-81669438D01*
X225809523Y-81669438D02*
X225809523Y-81859914D01*
X225809523Y-81859914D02*
X225771428Y-81936104D01*
X225771428Y-81936104D02*
X225733333Y-81974200D01*
X225733333Y-81974200D02*
X225657142Y-82012295D01*
X225657142Y-82012295D02*
X225466666Y-82012295D01*
X225466666Y-82012295D02*
X225390476Y-81974200D01*
X225390476Y-81974200D02*
X225352380Y-81936104D01*
X223733333Y-68512295D02*
X224000000Y-69312295D01*
X224000000Y-69312295D02*
X224266666Y-68512295D01*
X224990476Y-69236104D02*
X224952380Y-69274200D01*
X224952380Y-69274200D02*
X224838095Y-69312295D01*
X224838095Y-69312295D02*
X224761904Y-69312295D01*
X224761904Y-69312295D02*
X224647618Y-69274200D01*
X224647618Y-69274200D02*
X224571428Y-69198009D01*
X224571428Y-69198009D02*
X224533333Y-69121819D01*
X224533333Y-69121819D02*
X224495237Y-68969438D01*
X224495237Y-68969438D02*
X224495237Y-68855152D01*
X224495237Y-68855152D02*
X224533333Y-68702771D01*
X224533333Y-68702771D02*
X224571428Y-68626580D01*
X224571428Y-68626580D02*
X224647618Y-68550390D01*
X224647618Y-68550390D02*
X224761904Y-68512295D01*
X224761904Y-68512295D02*
X224838095Y-68512295D01*
X224838095Y-68512295D02*
X224952380Y-68550390D01*
X224952380Y-68550390D02*
X224990476Y-68588485D01*
X225790476Y-69236104D02*
X225752380Y-69274200D01*
X225752380Y-69274200D02*
X225638095Y-69312295D01*
X225638095Y-69312295D02*
X225561904Y-69312295D01*
X225561904Y-69312295D02*
X225447618Y-69274200D01*
X225447618Y-69274200D02*
X225371428Y-69198009D01*
X225371428Y-69198009D02*
X225333333Y-69121819D01*
X225333333Y-69121819D02*
X225295237Y-68969438D01*
X225295237Y-68969438D02*
X225295237Y-68855152D01*
X225295237Y-68855152D02*
X225333333Y-68702771D01*
X225333333Y-68702771D02*
X225371428Y-68626580D01*
X225371428Y-68626580D02*
X225447618Y-68550390D01*
X225447618Y-68550390D02*
X225561904Y-68512295D01*
X225561904Y-68512295D02*
X225638095Y-68512295D01*
X225638095Y-68512295D02*
X225752380Y-68550390D01*
X225752380Y-68550390D02*
X225790476Y-68588485D01*
X223828571Y-71852295D02*
X223828571Y-71052295D01*
X223828571Y-71052295D02*
X224133333Y-71052295D01*
X224133333Y-71052295D02*
X224209523Y-71090390D01*
X224209523Y-71090390D02*
X224247618Y-71128485D01*
X224247618Y-71128485D02*
X224285714Y-71204676D01*
X224285714Y-71204676D02*
X224285714Y-71318961D01*
X224285714Y-71318961D02*
X224247618Y-71395152D01*
X224247618Y-71395152D02*
X224209523Y-71433247D01*
X224209523Y-71433247D02*
X224133333Y-71471342D01*
X224133333Y-71471342D02*
X223828571Y-71471342D01*
X224590475Y-71128485D02*
X224628571Y-71090390D01*
X224628571Y-71090390D02*
X224704761Y-71052295D01*
X224704761Y-71052295D02*
X224895237Y-71052295D01*
X224895237Y-71052295D02*
X224971428Y-71090390D01*
X224971428Y-71090390D02*
X225009523Y-71128485D01*
X225009523Y-71128485D02*
X225047618Y-71204676D01*
X225047618Y-71204676D02*
X225047618Y-71280866D01*
X225047618Y-71280866D02*
X225009523Y-71395152D01*
X225009523Y-71395152D02*
X224552380Y-71852295D01*
X224552380Y-71852295D02*
X225047618Y-71852295D01*
X225809523Y-71852295D02*
X225352380Y-71852295D01*
X225580952Y-71852295D02*
X225580952Y-71052295D01*
X225580952Y-71052295D02*
X225504761Y-71166580D01*
X225504761Y-71166580D02*
X225428571Y-71242771D01*
X225428571Y-71242771D02*
X225352380Y-71280866D01*
X214228571Y-87092295D02*
X214228571Y-86292295D01*
X214228571Y-86292295D02*
X214533333Y-86292295D01*
X214533333Y-86292295D02*
X214609523Y-86330390D01*
X214609523Y-86330390D02*
X214647618Y-86368485D01*
X214647618Y-86368485D02*
X214685714Y-86444676D01*
X214685714Y-86444676D02*
X214685714Y-86558961D01*
X214685714Y-86558961D02*
X214647618Y-86635152D01*
X214647618Y-86635152D02*
X214609523Y-86673247D01*
X214609523Y-86673247D02*
X214533333Y-86711342D01*
X214533333Y-86711342D02*
X214228571Y-86711342D01*
X215180952Y-86292295D02*
X215257142Y-86292295D01*
X215257142Y-86292295D02*
X215333333Y-86330390D01*
X215333333Y-86330390D02*
X215371428Y-86368485D01*
X215371428Y-86368485D02*
X215409523Y-86444676D01*
X215409523Y-86444676D02*
X215447618Y-86597057D01*
X215447618Y-86597057D02*
X215447618Y-86787533D01*
X215447618Y-86787533D02*
X215409523Y-86939914D01*
X215409523Y-86939914D02*
X215371428Y-87016104D01*
X215371428Y-87016104D02*
X215333333Y-87054200D01*
X215333333Y-87054200D02*
X215257142Y-87092295D01*
X215257142Y-87092295D02*
X215180952Y-87092295D01*
X215180952Y-87092295D02*
X215104761Y-87054200D01*
X215104761Y-87054200D02*
X215066666Y-87016104D01*
X215066666Y-87016104D02*
X215028571Y-86939914D01*
X215028571Y-86939914D02*
X214990475Y-86787533D01*
X214990475Y-86787533D02*
X214990475Y-86597057D01*
X214990475Y-86597057D02*
X215028571Y-86444676D01*
X215028571Y-86444676D02*
X215066666Y-86368485D01*
X215066666Y-86368485D02*
X215104761Y-86330390D01*
X215104761Y-86330390D02*
X215180952Y-86292295D01*
X215904761Y-86635152D02*
X215828571Y-86597057D01*
X215828571Y-86597057D02*
X215790476Y-86558961D01*
X215790476Y-86558961D02*
X215752380Y-86482771D01*
X215752380Y-86482771D02*
X215752380Y-86444676D01*
X215752380Y-86444676D02*
X215790476Y-86368485D01*
X215790476Y-86368485D02*
X215828571Y-86330390D01*
X215828571Y-86330390D02*
X215904761Y-86292295D01*
X215904761Y-86292295D02*
X216057142Y-86292295D01*
X216057142Y-86292295D02*
X216133333Y-86330390D01*
X216133333Y-86330390D02*
X216171428Y-86368485D01*
X216171428Y-86368485D02*
X216209523Y-86444676D01*
X216209523Y-86444676D02*
X216209523Y-86482771D01*
X216209523Y-86482771D02*
X216171428Y-86558961D01*
X216171428Y-86558961D02*
X216133333Y-86597057D01*
X216133333Y-86597057D02*
X216057142Y-86635152D01*
X216057142Y-86635152D02*
X215904761Y-86635152D01*
X215904761Y-86635152D02*
X215828571Y-86673247D01*
X215828571Y-86673247D02*
X215790476Y-86711342D01*
X215790476Y-86711342D02*
X215752380Y-86787533D01*
X215752380Y-86787533D02*
X215752380Y-86939914D01*
X215752380Y-86939914D02*
X215790476Y-87016104D01*
X215790476Y-87016104D02*
X215828571Y-87054200D01*
X215828571Y-87054200D02*
X215904761Y-87092295D01*
X215904761Y-87092295D02*
X216057142Y-87092295D01*
X216057142Y-87092295D02*
X216133333Y-87054200D01*
X216133333Y-87054200D02*
X216171428Y-87016104D01*
X216171428Y-87016104D02*
X216209523Y-86939914D01*
X216209523Y-86939914D02*
X216209523Y-86787533D01*
X216209523Y-86787533D02*
X216171428Y-86711342D01*
X216171428Y-86711342D02*
X216133333Y-86673247D01*
X216133333Y-86673247D02*
X216057142Y-86635152D01*
X223828571Y-79472295D02*
X223828571Y-78672295D01*
X223828571Y-78672295D02*
X224133333Y-78672295D01*
X224133333Y-78672295D02*
X224209523Y-78710390D01*
X224209523Y-78710390D02*
X224247618Y-78748485D01*
X224247618Y-78748485D02*
X224285714Y-78824676D01*
X224285714Y-78824676D02*
X224285714Y-78938961D01*
X224285714Y-78938961D02*
X224247618Y-79015152D01*
X224247618Y-79015152D02*
X224209523Y-79053247D01*
X224209523Y-79053247D02*
X224133333Y-79091342D01*
X224133333Y-79091342D02*
X223828571Y-79091342D01*
X225047618Y-79472295D02*
X224590475Y-79472295D01*
X224819047Y-79472295D02*
X224819047Y-78672295D01*
X224819047Y-78672295D02*
X224742856Y-78786580D01*
X224742856Y-78786580D02*
X224666666Y-78862771D01*
X224666666Y-78862771D02*
X224590475Y-78900866D01*
X225504761Y-79015152D02*
X225428571Y-78977057D01*
X225428571Y-78977057D02*
X225390476Y-78938961D01*
X225390476Y-78938961D02*
X225352380Y-78862771D01*
X225352380Y-78862771D02*
X225352380Y-78824676D01*
X225352380Y-78824676D02*
X225390476Y-78748485D01*
X225390476Y-78748485D02*
X225428571Y-78710390D01*
X225428571Y-78710390D02*
X225504761Y-78672295D01*
X225504761Y-78672295D02*
X225657142Y-78672295D01*
X225657142Y-78672295D02*
X225733333Y-78710390D01*
X225733333Y-78710390D02*
X225771428Y-78748485D01*
X225771428Y-78748485D02*
X225809523Y-78824676D01*
X225809523Y-78824676D02*
X225809523Y-78862771D01*
X225809523Y-78862771D02*
X225771428Y-78938961D01*
X225771428Y-78938961D02*
X225733333Y-78977057D01*
X225733333Y-78977057D02*
X225657142Y-79015152D01*
X225657142Y-79015152D02*
X225504761Y-79015152D01*
X225504761Y-79015152D02*
X225428571Y-79053247D01*
X225428571Y-79053247D02*
X225390476Y-79091342D01*
X225390476Y-79091342D02*
X225352380Y-79167533D01*
X225352380Y-79167533D02*
X225352380Y-79319914D01*
X225352380Y-79319914D02*
X225390476Y-79396104D01*
X225390476Y-79396104D02*
X225428571Y-79434200D01*
X225428571Y-79434200D02*
X225504761Y-79472295D01*
X225504761Y-79472295D02*
X225657142Y-79472295D01*
X225657142Y-79472295D02*
X225733333Y-79434200D01*
X225733333Y-79434200D02*
X225771428Y-79396104D01*
X225771428Y-79396104D02*
X225809523Y-79319914D01*
X225809523Y-79319914D02*
X225809523Y-79167533D01*
X225809523Y-79167533D02*
X225771428Y-79091342D01*
X225771428Y-79091342D02*
X225733333Y-79053247D01*
X225733333Y-79053247D02*
X225657142Y-79015152D01*
X214228571Y-71852295D02*
X214228571Y-71052295D01*
X214228571Y-71052295D02*
X214533333Y-71052295D01*
X214533333Y-71052295D02*
X214609523Y-71090390D01*
X214609523Y-71090390D02*
X214647618Y-71128485D01*
X214647618Y-71128485D02*
X214685714Y-71204676D01*
X214685714Y-71204676D02*
X214685714Y-71318961D01*
X214685714Y-71318961D02*
X214647618Y-71395152D01*
X214647618Y-71395152D02*
X214609523Y-71433247D01*
X214609523Y-71433247D02*
X214533333Y-71471342D01*
X214533333Y-71471342D02*
X214228571Y-71471342D01*
X215180952Y-71052295D02*
X215257142Y-71052295D01*
X215257142Y-71052295D02*
X215333333Y-71090390D01*
X215333333Y-71090390D02*
X215371428Y-71128485D01*
X215371428Y-71128485D02*
X215409523Y-71204676D01*
X215409523Y-71204676D02*
X215447618Y-71357057D01*
X215447618Y-71357057D02*
X215447618Y-71547533D01*
X215447618Y-71547533D02*
X215409523Y-71699914D01*
X215409523Y-71699914D02*
X215371428Y-71776104D01*
X215371428Y-71776104D02*
X215333333Y-71814200D01*
X215333333Y-71814200D02*
X215257142Y-71852295D01*
X215257142Y-71852295D02*
X215180952Y-71852295D01*
X215180952Y-71852295D02*
X215104761Y-71814200D01*
X215104761Y-71814200D02*
X215066666Y-71776104D01*
X215066666Y-71776104D02*
X215028571Y-71699914D01*
X215028571Y-71699914D02*
X214990475Y-71547533D01*
X214990475Y-71547533D02*
X214990475Y-71357057D01*
X214990475Y-71357057D02*
X215028571Y-71204676D01*
X215028571Y-71204676D02*
X215066666Y-71128485D01*
X215066666Y-71128485D02*
X215104761Y-71090390D01*
X215104761Y-71090390D02*
X215180952Y-71052295D01*
X215752380Y-71128485D02*
X215790476Y-71090390D01*
X215790476Y-71090390D02*
X215866666Y-71052295D01*
X215866666Y-71052295D02*
X216057142Y-71052295D01*
X216057142Y-71052295D02*
X216133333Y-71090390D01*
X216133333Y-71090390D02*
X216171428Y-71128485D01*
X216171428Y-71128485D02*
X216209523Y-71204676D01*
X216209523Y-71204676D02*
X216209523Y-71280866D01*
X216209523Y-71280866D02*
X216171428Y-71395152D01*
X216171428Y-71395152D02*
X215714285Y-71852295D01*
X215714285Y-71852295D02*
X216209523Y-71852295D01*
X223828571Y-76932295D02*
X223828571Y-76132295D01*
X223828571Y-76132295D02*
X224133333Y-76132295D01*
X224133333Y-76132295D02*
X224209523Y-76170390D01*
X224209523Y-76170390D02*
X224247618Y-76208485D01*
X224247618Y-76208485D02*
X224285714Y-76284676D01*
X224285714Y-76284676D02*
X224285714Y-76398961D01*
X224285714Y-76398961D02*
X224247618Y-76475152D01*
X224247618Y-76475152D02*
X224209523Y-76513247D01*
X224209523Y-76513247D02*
X224133333Y-76551342D01*
X224133333Y-76551342D02*
X223828571Y-76551342D01*
X225047618Y-76932295D02*
X224590475Y-76932295D01*
X224819047Y-76932295D02*
X224819047Y-76132295D01*
X224819047Y-76132295D02*
X224742856Y-76246580D01*
X224742856Y-76246580D02*
X224666666Y-76322771D01*
X224666666Y-76322771D02*
X224590475Y-76360866D01*
X225428571Y-76932295D02*
X225580952Y-76932295D01*
X225580952Y-76932295D02*
X225657142Y-76894200D01*
X225657142Y-76894200D02*
X225695238Y-76856104D01*
X225695238Y-76856104D02*
X225771428Y-76741819D01*
X225771428Y-76741819D02*
X225809523Y-76589438D01*
X225809523Y-76589438D02*
X225809523Y-76284676D01*
X225809523Y-76284676D02*
X225771428Y-76208485D01*
X225771428Y-76208485D02*
X225733333Y-76170390D01*
X225733333Y-76170390D02*
X225657142Y-76132295D01*
X225657142Y-76132295D02*
X225504761Y-76132295D01*
X225504761Y-76132295D02*
X225428571Y-76170390D01*
X225428571Y-76170390D02*
X225390476Y-76208485D01*
X225390476Y-76208485D02*
X225352380Y-76284676D01*
X225352380Y-76284676D02*
X225352380Y-76475152D01*
X225352380Y-76475152D02*
X225390476Y-76551342D01*
X225390476Y-76551342D02*
X225428571Y-76589438D01*
X225428571Y-76589438D02*
X225504761Y-76627533D01*
X225504761Y-76627533D02*
X225657142Y-76627533D01*
X225657142Y-76627533D02*
X225733333Y-76589438D01*
X225733333Y-76589438D02*
X225771428Y-76551342D01*
X225771428Y-76551342D02*
X225809523Y-76475152D01*
X223828571Y-84552295D02*
X223828571Y-83752295D01*
X223828571Y-83752295D02*
X224133333Y-83752295D01*
X224133333Y-83752295D02*
X224209523Y-83790390D01*
X224209523Y-83790390D02*
X224247618Y-83828485D01*
X224247618Y-83828485D02*
X224285714Y-83904676D01*
X224285714Y-83904676D02*
X224285714Y-84018961D01*
X224285714Y-84018961D02*
X224247618Y-84095152D01*
X224247618Y-84095152D02*
X224209523Y-84133247D01*
X224209523Y-84133247D02*
X224133333Y-84171342D01*
X224133333Y-84171342D02*
X223828571Y-84171342D01*
X225047618Y-84552295D02*
X224590475Y-84552295D01*
X224819047Y-84552295D02*
X224819047Y-83752295D01*
X224819047Y-83752295D02*
X224742856Y-83866580D01*
X224742856Y-83866580D02*
X224666666Y-83942771D01*
X224666666Y-83942771D02*
X224590475Y-83980866D01*
X225733333Y-84018961D02*
X225733333Y-84552295D01*
X225542857Y-83714200D02*
X225352380Y-84285628D01*
X225352380Y-84285628D02*
X225847619Y-84285628D01*
X214228571Y-89632295D02*
X214228571Y-88832295D01*
X214228571Y-88832295D02*
X214533333Y-88832295D01*
X214533333Y-88832295D02*
X214609523Y-88870390D01*
X214609523Y-88870390D02*
X214647618Y-88908485D01*
X214647618Y-88908485D02*
X214685714Y-88984676D01*
X214685714Y-88984676D02*
X214685714Y-89098961D01*
X214685714Y-89098961D02*
X214647618Y-89175152D01*
X214647618Y-89175152D02*
X214609523Y-89213247D01*
X214609523Y-89213247D02*
X214533333Y-89251342D01*
X214533333Y-89251342D02*
X214228571Y-89251342D01*
X215180952Y-88832295D02*
X215257142Y-88832295D01*
X215257142Y-88832295D02*
X215333333Y-88870390D01*
X215333333Y-88870390D02*
X215371428Y-88908485D01*
X215371428Y-88908485D02*
X215409523Y-88984676D01*
X215409523Y-88984676D02*
X215447618Y-89137057D01*
X215447618Y-89137057D02*
X215447618Y-89327533D01*
X215447618Y-89327533D02*
X215409523Y-89479914D01*
X215409523Y-89479914D02*
X215371428Y-89556104D01*
X215371428Y-89556104D02*
X215333333Y-89594200D01*
X215333333Y-89594200D02*
X215257142Y-89632295D01*
X215257142Y-89632295D02*
X215180952Y-89632295D01*
X215180952Y-89632295D02*
X215104761Y-89594200D01*
X215104761Y-89594200D02*
X215066666Y-89556104D01*
X215066666Y-89556104D02*
X215028571Y-89479914D01*
X215028571Y-89479914D02*
X214990475Y-89327533D01*
X214990475Y-89327533D02*
X214990475Y-89137057D01*
X214990475Y-89137057D02*
X215028571Y-88984676D01*
X215028571Y-88984676D02*
X215066666Y-88908485D01*
X215066666Y-88908485D02*
X215104761Y-88870390D01*
X215104761Y-88870390D02*
X215180952Y-88832295D01*
X215828571Y-89632295D02*
X215980952Y-89632295D01*
X215980952Y-89632295D02*
X216057142Y-89594200D01*
X216057142Y-89594200D02*
X216095238Y-89556104D01*
X216095238Y-89556104D02*
X216171428Y-89441819D01*
X216171428Y-89441819D02*
X216209523Y-89289438D01*
X216209523Y-89289438D02*
X216209523Y-88984676D01*
X216209523Y-88984676D02*
X216171428Y-88908485D01*
X216171428Y-88908485D02*
X216133333Y-88870390D01*
X216133333Y-88870390D02*
X216057142Y-88832295D01*
X216057142Y-88832295D02*
X215904761Y-88832295D01*
X215904761Y-88832295D02*
X215828571Y-88870390D01*
X215828571Y-88870390D02*
X215790476Y-88908485D01*
X215790476Y-88908485D02*
X215752380Y-88984676D01*
X215752380Y-88984676D02*
X215752380Y-89175152D01*
X215752380Y-89175152D02*
X215790476Y-89251342D01*
X215790476Y-89251342D02*
X215828571Y-89289438D01*
X215828571Y-89289438D02*
X215904761Y-89327533D01*
X215904761Y-89327533D02*
X216057142Y-89327533D01*
X216057142Y-89327533D02*
X216133333Y-89289438D01*
X216133333Y-89289438D02*
X216171428Y-89251342D01*
X216171428Y-89251342D02*
X216209523Y-89175152D01*
X224190476Y-63470390D02*
X224114286Y-63432295D01*
X224114286Y-63432295D02*
X224000000Y-63432295D01*
X224000000Y-63432295D02*
X223885714Y-63470390D01*
X223885714Y-63470390D02*
X223809524Y-63546580D01*
X223809524Y-63546580D02*
X223771429Y-63622771D01*
X223771429Y-63622771D02*
X223733333Y-63775152D01*
X223733333Y-63775152D02*
X223733333Y-63889438D01*
X223733333Y-63889438D02*
X223771429Y-64041819D01*
X223771429Y-64041819D02*
X223809524Y-64118009D01*
X223809524Y-64118009D02*
X223885714Y-64194200D01*
X223885714Y-64194200D02*
X224000000Y-64232295D01*
X224000000Y-64232295D02*
X224076191Y-64232295D01*
X224076191Y-64232295D02*
X224190476Y-64194200D01*
X224190476Y-64194200D02*
X224228572Y-64156104D01*
X224228572Y-64156104D02*
X224228572Y-63889438D01*
X224228572Y-63889438D02*
X224076191Y-63889438D01*
X224571429Y-64232295D02*
X224571429Y-63432295D01*
X224571429Y-63432295D02*
X225028572Y-64232295D01*
X225028572Y-64232295D02*
X225028572Y-63432295D01*
X225409524Y-64232295D02*
X225409524Y-63432295D01*
X225409524Y-63432295D02*
X225600000Y-63432295D01*
X225600000Y-63432295D02*
X225714286Y-63470390D01*
X225714286Y-63470390D02*
X225790476Y-63546580D01*
X225790476Y-63546580D02*
X225828571Y-63622771D01*
X225828571Y-63622771D02*
X225866667Y-63775152D01*
X225866667Y-63775152D02*
X225866667Y-63889438D01*
X225866667Y-63889438D02*
X225828571Y-64041819D01*
X225828571Y-64041819D02*
X225790476Y-64118009D01*
X225790476Y-64118009D02*
X225714286Y-64194200D01*
X225714286Y-64194200D02*
X225600000Y-64232295D01*
X225600000Y-64232295D02*
X225409524Y-64232295D01*
X214228571Y-76932295D02*
X214228571Y-76132295D01*
X214228571Y-76132295D02*
X214533333Y-76132295D01*
X214533333Y-76132295D02*
X214609523Y-76170390D01*
X214609523Y-76170390D02*
X214647618Y-76208485D01*
X214647618Y-76208485D02*
X214685714Y-76284676D01*
X214685714Y-76284676D02*
X214685714Y-76398961D01*
X214685714Y-76398961D02*
X214647618Y-76475152D01*
X214647618Y-76475152D02*
X214609523Y-76513247D01*
X214609523Y-76513247D02*
X214533333Y-76551342D01*
X214533333Y-76551342D02*
X214228571Y-76551342D01*
X215180952Y-76132295D02*
X215257142Y-76132295D01*
X215257142Y-76132295D02*
X215333333Y-76170390D01*
X215333333Y-76170390D02*
X215371428Y-76208485D01*
X215371428Y-76208485D02*
X215409523Y-76284676D01*
X215409523Y-76284676D02*
X215447618Y-76437057D01*
X215447618Y-76437057D02*
X215447618Y-76627533D01*
X215447618Y-76627533D02*
X215409523Y-76779914D01*
X215409523Y-76779914D02*
X215371428Y-76856104D01*
X215371428Y-76856104D02*
X215333333Y-76894200D01*
X215333333Y-76894200D02*
X215257142Y-76932295D01*
X215257142Y-76932295D02*
X215180952Y-76932295D01*
X215180952Y-76932295D02*
X215104761Y-76894200D01*
X215104761Y-76894200D02*
X215066666Y-76856104D01*
X215066666Y-76856104D02*
X215028571Y-76779914D01*
X215028571Y-76779914D02*
X214990475Y-76627533D01*
X214990475Y-76627533D02*
X214990475Y-76437057D01*
X214990475Y-76437057D02*
X215028571Y-76284676D01*
X215028571Y-76284676D02*
X215066666Y-76208485D01*
X215066666Y-76208485D02*
X215104761Y-76170390D01*
X215104761Y-76170390D02*
X215180952Y-76132295D01*
X216133333Y-76398961D02*
X216133333Y-76932295D01*
X215942857Y-76094200D02*
X215752380Y-76665628D01*
X215752380Y-76665628D02*
X216247619Y-76665628D01*
X224361905Y-66772295D02*
X224095238Y-66391342D01*
X223904762Y-66772295D02*
X223904762Y-65972295D01*
X223904762Y-65972295D02*
X224209524Y-65972295D01*
X224209524Y-65972295D02*
X224285714Y-66010390D01*
X224285714Y-66010390D02*
X224323809Y-66048485D01*
X224323809Y-66048485D02*
X224361905Y-66124676D01*
X224361905Y-66124676D02*
X224361905Y-66238961D01*
X224361905Y-66238961D02*
X224323809Y-66315152D01*
X224323809Y-66315152D02*
X224285714Y-66353247D01*
X224285714Y-66353247D02*
X224209524Y-66391342D01*
X224209524Y-66391342D02*
X223904762Y-66391342D01*
X224666666Y-66734200D02*
X224780952Y-66772295D01*
X224780952Y-66772295D02*
X224971428Y-66772295D01*
X224971428Y-66772295D02*
X225047619Y-66734200D01*
X225047619Y-66734200D02*
X225085714Y-66696104D01*
X225085714Y-66696104D02*
X225123809Y-66619914D01*
X225123809Y-66619914D02*
X225123809Y-66543723D01*
X225123809Y-66543723D02*
X225085714Y-66467533D01*
X225085714Y-66467533D02*
X225047619Y-66429438D01*
X225047619Y-66429438D02*
X224971428Y-66391342D01*
X224971428Y-66391342D02*
X224819047Y-66353247D01*
X224819047Y-66353247D02*
X224742857Y-66315152D01*
X224742857Y-66315152D02*
X224704762Y-66277057D01*
X224704762Y-66277057D02*
X224666666Y-66200866D01*
X224666666Y-66200866D02*
X224666666Y-66124676D01*
X224666666Y-66124676D02*
X224704762Y-66048485D01*
X224704762Y-66048485D02*
X224742857Y-66010390D01*
X224742857Y-66010390D02*
X224819047Y-65972295D01*
X224819047Y-65972295D02*
X225009524Y-65972295D01*
X225009524Y-65972295D02*
X225123809Y-66010390D01*
X225352381Y-65972295D02*
X225809524Y-65972295D01*
X225580952Y-66772295D02*
X225580952Y-65972295D01*
X214228571Y-84552295D02*
X214228571Y-83752295D01*
X214228571Y-83752295D02*
X214533333Y-83752295D01*
X214533333Y-83752295D02*
X214609523Y-83790390D01*
X214609523Y-83790390D02*
X214647618Y-83828485D01*
X214647618Y-83828485D02*
X214685714Y-83904676D01*
X214685714Y-83904676D02*
X214685714Y-84018961D01*
X214685714Y-84018961D02*
X214647618Y-84095152D01*
X214647618Y-84095152D02*
X214609523Y-84133247D01*
X214609523Y-84133247D02*
X214533333Y-84171342D01*
X214533333Y-84171342D02*
X214228571Y-84171342D01*
X215180952Y-83752295D02*
X215257142Y-83752295D01*
X215257142Y-83752295D02*
X215333333Y-83790390D01*
X215333333Y-83790390D02*
X215371428Y-83828485D01*
X215371428Y-83828485D02*
X215409523Y-83904676D01*
X215409523Y-83904676D02*
X215447618Y-84057057D01*
X215447618Y-84057057D02*
X215447618Y-84247533D01*
X215447618Y-84247533D02*
X215409523Y-84399914D01*
X215409523Y-84399914D02*
X215371428Y-84476104D01*
X215371428Y-84476104D02*
X215333333Y-84514200D01*
X215333333Y-84514200D02*
X215257142Y-84552295D01*
X215257142Y-84552295D02*
X215180952Y-84552295D01*
X215180952Y-84552295D02*
X215104761Y-84514200D01*
X215104761Y-84514200D02*
X215066666Y-84476104D01*
X215066666Y-84476104D02*
X215028571Y-84399914D01*
X215028571Y-84399914D02*
X214990475Y-84247533D01*
X214990475Y-84247533D02*
X214990475Y-84057057D01*
X214990475Y-84057057D02*
X215028571Y-83904676D01*
X215028571Y-83904676D02*
X215066666Y-83828485D01*
X215066666Y-83828485D02*
X215104761Y-83790390D01*
X215104761Y-83790390D02*
X215180952Y-83752295D01*
X215714285Y-83752295D02*
X216247619Y-83752295D01*
X216247619Y-83752295D02*
X215904761Y-84552295D01*
X214228571Y-64232295D02*
X214228571Y-63432295D01*
X214228571Y-63432295D02*
X214533333Y-63432295D01*
X214533333Y-63432295D02*
X214609523Y-63470390D01*
X214609523Y-63470390D02*
X214647618Y-63508485D01*
X214647618Y-63508485D02*
X214685714Y-63584676D01*
X214685714Y-63584676D02*
X214685714Y-63698961D01*
X214685714Y-63698961D02*
X214647618Y-63775152D01*
X214647618Y-63775152D02*
X214609523Y-63813247D01*
X214609523Y-63813247D02*
X214533333Y-63851342D01*
X214533333Y-63851342D02*
X214228571Y-63851342D01*
X215180952Y-63432295D02*
X215257142Y-63432295D01*
X215257142Y-63432295D02*
X215333333Y-63470390D01*
X215333333Y-63470390D02*
X215371428Y-63508485D01*
X215371428Y-63508485D02*
X215409523Y-63584676D01*
X215409523Y-63584676D02*
X215447618Y-63737057D01*
X215447618Y-63737057D02*
X215447618Y-63927533D01*
X215447618Y-63927533D02*
X215409523Y-64079914D01*
X215409523Y-64079914D02*
X215371428Y-64156104D01*
X215371428Y-64156104D02*
X215333333Y-64194200D01*
X215333333Y-64194200D02*
X215257142Y-64232295D01*
X215257142Y-64232295D02*
X215180952Y-64232295D01*
X215180952Y-64232295D02*
X215104761Y-64194200D01*
X215104761Y-64194200D02*
X215066666Y-64156104D01*
X215066666Y-64156104D02*
X215028571Y-64079914D01*
X215028571Y-64079914D02*
X214990475Y-63927533D01*
X214990475Y-63927533D02*
X214990475Y-63737057D01*
X214990475Y-63737057D02*
X215028571Y-63584676D01*
X215028571Y-63584676D02*
X215066666Y-63508485D01*
X215066666Y-63508485D02*
X215104761Y-63470390D01*
X215104761Y-63470390D02*
X215180952Y-63432295D01*
X215942857Y-63432295D02*
X216019047Y-63432295D01*
X216019047Y-63432295D02*
X216095238Y-63470390D01*
X216095238Y-63470390D02*
X216133333Y-63508485D01*
X216133333Y-63508485D02*
X216171428Y-63584676D01*
X216171428Y-63584676D02*
X216209523Y-63737057D01*
X216209523Y-63737057D02*
X216209523Y-63927533D01*
X216209523Y-63927533D02*
X216171428Y-64079914D01*
X216171428Y-64079914D02*
X216133333Y-64156104D01*
X216133333Y-64156104D02*
X216095238Y-64194200D01*
X216095238Y-64194200D02*
X216019047Y-64232295D01*
X216019047Y-64232295D02*
X215942857Y-64232295D01*
X215942857Y-64232295D02*
X215866666Y-64194200D01*
X215866666Y-64194200D02*
X215828571Y-64156104D01*
X215828571Y-64156104D02*
X215790476Y-64079914D01*
X215790476Y-64079914D02*
X215752380Y-63927533D01*
X215752380Y-63927533D02*
X215752380Y-63737057D01*
X215752380Y-63737057D02*
X215790476Y-63584676D01*
X215790476Y-63584676D02*
X215828571Y-63508485D01*
X215828571Y-63508485D02*
X215866666Y-63470390D01*
X215866666Y-63470390D02*
X215942857Y-63432295D01*
X214590476Y-66010390D02*
X214514286Y-65972295D01*
X214514286Y-65972295D02*
X214400000Y-65972295D01*
X214400000Y-65972295D02*
X214285714Y-66010390D01*
X214285714Y-66010390D02*
X214209524Y-66086580D01*
X214209524Y-66086580D02*
X214171429Y-66162771D01*
X214171429Y-66162771D02*
X214133333Y-66315152D01*
X214133333Y-66315152D02*
X214133333Y-66429438D01*
X214133333Y-66429438D02*
X214171429Y-66581819D01*
X214171429Y-66581819D02*
X214209524Y-66658009D01*
X214209524Y-66658009D02*
X214285714Y-66734200D01*
X214285714Y-66734200D02*
X214400000Y-66772295D01*
X214400000Y-66772295D02*
X214476191Y-66772295D01*
X214476191Y-66772295D02*
X214590476Y-66734200D01*
X214590476Y-66734200D02*
X214628572Y-66696104D01*
X214628572Y-66696104D02*
X214628572Y-66429438D01*
X214628572Y-66429438D02*
X214476191Y-66429438D01*
X214971429Y-66772295D02*
X214971429Y-65972295D01*
X214971429Y-65972295D02*
X215428572Y-66772295D01*
X215428572Y-66772295D02*
X215428572Y-65972295D01*
X215809524Y-66772295D02*
X215809524Y-65972295D01*
X215809524Y-65972295D02*
X216000000Y-65972295D01*
X216000000Y-65972295D02*
X216114286Y-66010390D01*
X216114286Y-66010390D02*
X216190476Y-66086580D01*
X216190476Y-66086580D02*
X216228571Y-66162771D01*
X216228571Y-66162771D02*
X216266667Y-66315152D01*
X216266667Y-66315152D02*
X216266667Y-66429438D01*
X216266667Y-66429438D02*
X216228571Y-66581819D01*
X216228571Y-66581819D02*
X216190476Y-66658009D01*
X216190476Y-66658009D02*
X216114286Y-66734200D01*
X216114286Y-66734200D02*
X216000000Y-66772295D01*
X216000000Y-66772295D02*
X215809524Y-66772295D01*
X214228571Y-82012295D02*
X214228571Y-81212295D01*
X214228571Y-81212295D02*
X214533333Y-81212295D01*
X214533333Y-81212295D02*
X214609523Y-81250390D01*
X214609523Y-81250390D02*
X214647618Y-81288485D01*
X214647618Y-81288485D02*
X214685714Y-81364676D01*
X214685714Y-81364676D02*
X214685714Y-81478961D01*
X214685714Y-81478961D02*
X214647618Y-81555152D01*
X214647618Y-81555152D02*
X214609523Y-81593247D01*
X214609523Y-81593247D02*
X214533333Y-81631342D01*
X214533333Y-81631342D02*
X214228571Y-81631342D01*
X215180952Y-81212295D02*
X215257142Y-81212295D01*
X215257142Y-81212295D02*
X215333333Y-81250390D01*
X215333333Y-81250390D02*
X215371428Y-81288485D01*
X215371428Y-81288485D02*
X215409523Y-81364676D01*
X215409523Y-81364676D02*
X215447618Y-81517057D01*
X215447618Y-81517057D02*
X215447618Y-81707533D01*
X215447618Y-81707533D02*
X215409523Y-81859914D01*
X215409523Y-81859914D02*
X215371428Y-81936104D01*
X215371428Y-81936104D02*
X215333333Y-81974200D01*
X215333333Y-81974200D02*
X215257142Y-82012295D01*
X215257142Y-82012295D02*
X215180952Y-82012295D01*
X215180952Y-82012295D02*
X215104761Y-81974200D01*
X215104761Y-81974200D02*
X215066666Y-81936104D01*
X215066666Y-81936104D02*
X215028571Y-81859914D01*
X215028571Y-81859914D02*
X214990475Y-81707533D01*
X214990475Y-81707533D02*
X214990475Y-81517057D01*
X214990475Y-81517057D02*
X215028571Y-81364676D01*
X215028571Y-81364676D02*
X215066666Y-81288485D01*
X215066666Y-81288485D02*
X215104761Y-81250390D01*
X215104761Y-81250390D02*
X215180952Y-81212295D01*
X216133333Y-81212295D02*
X215980952Y-81212295D01*
X215980952Y-81212295D02*
X215904761Y-81250390D01*
X215904761Y-81250390D02*
X215866666Y-81288485D01*
X215866666Y-81288485D02*
X215790476Y-81402771D01*
X215790476Y-81402771D02*
X215752380Y-81555152D01*
X215752380Y-81555152D02*
X215752380Y-81859914D01*
X215752380Y-81859914D02*
X215790476Y-81936104D01*
X215790476Y-81936104D02*
X215828571Y-81974200D01*
X215828571Y-81974200D02*
X215904761Y-82012295D01*
X215904761Y-82012295D02*
X216057142Y-82012295D01*
X216057142Y-82012295D02*
X216133333Y-81974200D01*
X216133333Y-81974200D02*
X216171428Y-81936104D01*
X216171428Y-81936104D02*
X216209523Y-81859914D01*
X216209523Y-81859914D02*
X216209523Y-81669438D01*
X216209523Y-81669438D02*
X216171428Y-81593247D01*
X216171428Y-81593247D02*
X216133333Y-81555152D01*
X216133333Y-81555152D02*
X216057142Y-81517057D01*
X216057142Y-81517057D02*
X215904761Y-81517057D01*
X215904761Y-81517057D02*
X215828571Y-81555152D01*
X215828571Y-81555152D02*
X215790476Y-81593247D01*
X215790476Y-81593247D02*
X215752380Y-81669438D01*
X223828571Y-89632295D02*
X223828571Y-88832295D01*
X223828571Y-88832295D02*
X224133333Y-88832295D01*
X224133333Y-88832295D02*
X224209523Y-88870390D01*
X224209523Y-88870390D02*
X224247618Y-88908485D01*
X224247618Y-88908485D02*
X224285714Y-88984676D01*
X224285714Y-88984676D02*
X224285714Y-89098961D01*
X224285714Y-89098961D02*
X224247618Y-89175152D01*
X224247618Y-89175152D02*
X224209523Y-89213247D01*
X224209523Y-89213247D02*
X224133333Y-89251342D01*
X224133333Y-89251342D02*
X223828571Y-89251342D01*
X225047618Y-89632295D02*
X224590475Y-89632295D01*
X224819047Y-89632295D02*
X224819047Y-88832295D01*
X224819047Y-88832295D02*
X224742856Y-88946580D01*
X224742856Y-88946580D02*
X224666666Y-89022771D01*
X224666666Y-89022771D02*
X224590475Y-89060866D01*
X225542857Y-88832295D02*
X225619047Y-88832295D01*
X225619047Y-88832295D02*
X225695238Y-88870390D01*
X225695238Y-88870390D02*
X225733333Y-88908485D01*
X225733333Y-88908485D02*
X225771428Y-88984676D01*
X225771428Y-88984676D02*
X225809523Y-89137057D01*
X225809523Y-89137057D02*
X225809523Y-89327533D01*
X225809523Y-89327533D02*
X225771428Y-89479914D01*
X225771428Y-89479914D02*
X225733333Y-89556104D01*
X225733333Y-89556104D02*
X225695238Y-89594200D01*
X225695238Y-89594200D02*
X225619047Y-89632295D01*
X225619047Y-89632295D02*
X225542857Y-89632295D01*
X225542857Y-89632295D02*
X225466666Y-89594200D01*
X225466666Y-89594200D02*
X225428571Y-89556104D01*
X225428571Y-89556104D02*
X225390476Y-89479914D01*
X225390476Y-89479914D02*
X225352380Y-89327533D01*
X225352380Y-89327533D02*
X225352380Y-89137057D01*
X225352380Y-89137057D02*
X225390476Y-88984676D01*
X225390476Y-88984676D02*
X225428571Y-88908485D01*
X225428571Y-88908485D02*
X225466666Y-88870390D01*
X225466666Y-88870390D02*
X225542857Y-88832295D01*
X214228571Y-61692295D02*
X214228571Y-60892295D01*
X214228571Y-60892295D02*
X214533333Y-60892295D01*
X214533333Y-60892295D02*
X214609523Y-60930390D01*
X214609523Y-60930390D02*
X214647618Y-60968485D01*
X214647618Y-60968485D02*
X214685714Y-61044676D01*
X214685714Y-61044676D02*
X214685714Y-61158961D01*
X214685714Y-61158961D02*
X214647618Y-61235152D01*
X214647618Y-61235152D02*
X214609523Y-61273247D01*
X214609523Y-61273247D02*
X214533333Y-61311342D01*
X214533333Y-61311342D02*
X214228571Y-61311342D01*
X215180952Y-60892295D02*
X215257142Y-60892295D01*
X215257142Y-60892295D02*
X215333333Y-60930390D01*
X215333333Y-60930390D02*
X215371428Y-60968485D01*
X215371428Y-60968485D02*
X215409523Y-61044676D01*
X215409523Y-61044676D02*
X215447618Y-61197057D01*
X215447618Y-61197057D02*
X215447618Y-61387533D01*
X215447618Y-61387533D02*
X215409523Y-61539914D01*
X215409523Y-61539914D02*
X215371428Y-61616104D01*
X215371428Y-61616104D02*
X215333333Y-61654200D01*
X215333333Y-61654200D02*
X215257142Y-61692295D01*
X215257142Y-61692295D02*
X215180952Y-61692295D01*
X215180952Y-61692295D02*
X215104761Y-61654200D01*
X215104761Y-61654200D02*
X215066666Y-61616104D01*
X215066666Y-61616104D02*
X215028571Y-61539914D01*
X215028571Y-61539914D02*
X214990475Y-61387533D01*
X214990475Y-61387533D02*
X214990475Y-61197057D01*
X214990475Y-61197057D02*
X215028571Y-61044676D01*
X215028571Y-61044676D02*
X215066666Y-60968485D01*
X215066666Y-60968485D02*
X215104761Y-60930390D01*
X215104761Y-60930390D02*
X215180952Y-60892295D01*
X216209523Y-61692295D02*
X215752380Y-61692295D01*
X215980952Y-61692295D02*
X215980952Y-60892295D01*
X215980952Y-60892295D02*
X215904761Y-61006580D01*
X215904761Y-61006580D02*
X215828571Y-61082771D01*
X215828571Y-61082771D02*
X215752380Y-61120866D01*
X214228571Y-79472295D02*
X214228571Y-78672295D01*
X214228571Y-78672295D02*
X214533333Y-78672295D01*
X214533333Y-78672295D02*
X214609523Y-78710390D01*
X214609523Y-78710390D02*
X214647618Y-78748485D01*
X214647618Y-78748485D02*
X214685714Y-78824676D01*
X214685714Y-78824676D02*
X214685714Y-78938961D01*
X214685714Y-78938961D02*
X214647618Y-79015152D01*
X214647618Y-79015152D02*
X214609523Y-79053247D01*
X214609523Y-79053247D02*
X214533333Y-79091342D01*
X214533333Y-79091342D02*
X214228571Y-79091342D01*
X215180952Y-78672295D02*
X215257142Y-78672295D01*
X215257142Y-78672295D02*
X215333333Y-78710390D01*
X215333333Y-78710390D02*
X215371428Y-78748485D01*
X215371428Y-78748485D02*
X215409523Y-78824676D01*
X215409523Y-78824676D02*
X215447618Y-78977057D01*
X215447618Y-78977057D02*
X215447618Y-79167533D01*
X215447618Y-79167533D02*
X215409523Y-79319914D01*
X215409523Y-79319914D02*
X215371428Y-79396104D01*
X215371428Y-79396104D02*
X215333333Y-79434200D01*
X215333333Y-79434200D02*
X215257142Y-79472295D01*
X215257142Y-79472295D02*
X215180952Y-79472295D01*
X215180952Y-79472295D02*
X215104761Y-79434200D01*
X215104761Y-79434200D02*
X215066666Y-79396104D01*
X215066666Y-79396104D02*
X215028571Y-79319914D01*
X215028571Y-79319914D02*
X214990475Y-79167533D01*
X214990475Y-79167533D02*
X214990475Y-78977057D01*
X214990475Y-78977057D02*
X215028571Y-78824676D01*
X215028571Y-78824676D02*
X215066666Y-78748485D01*
X215066666Y-78748485D02*
X215104761Y-78710390D01*
X215104761Y-78710390D02*
X215180952Y-78672295D01*
X216171428Y-78672295D02*
X215790476Y-78672295D01*
X215790476Y-78672295D02*
X215752380Y-79053247D01*
X215752380Y-79053247D02*
X215790476Y-79015152D01*
X215790476Y-79015152D02*
X215866666Y-78977057D01*
X215866666Y-78977057D02*
X216057142Y-78977057D01*
X216057142Y-78977057D02*
X216133333Y-79015152D01*
X216133333Y-79015152D02*
X216171428Y-79053247D01*
X216171428Y-79053247D02*
X216209523Y-79129438D01*
X216209523Y-79129438D02*
X216209523Y-79319914D01*
X216209523Y-79319914D02*
X216171428Y-79396104D01*
X216171428Y-79396104D02*
X216133333Y-79434200D01*
X216133333Y-79434200D02*
X216057142Y-79472295D01*
X216057142Y-79472295D02*
X215866666Y-79472295D01*
X215866666Y-79472295D02*
X215790476Y-79434200D01*
X215790476Y-79434200D02*
X215752380Y-79396104D01*
X214590476Y-68550390D02*
X214514286Y-68512295D01*
X214514286Y-68512295D02*
X214400000Y-68512295D01*
X214400000Y-68512295D02*
X214285714Y-68550390D01*
X214285714Y-68550390D02*
X214209524Y-68626580D01*
X214209524Y-68626580D02*
X214171429Y-68702771D01*
X214171429Y-68702771D02*
X214133333Y-68855152D01*
X214133333Y-68855152D02*
X214133333Y-68969438D01*
X214133333Y-68969438D02*
X214171429Y-69121819D01*
X214171429Y-69121819D02*
X214209524Y-69198009D01*
X214209524Y-69198009D02*
X214285714Y-69274200D01*
X214285714Y-69274200D02*
X214400000Y-69312295D01*
X214400000Y-69312295D02*
X214476191Y-69312295D01*
X214476191Y-69312295D02*
X214590476Y-69274200D01*
X214590476Y-69274200D02*
X214628572Y-69236104D01*
X214628572Y-69236104D02*
X214628572Y-68969438D01*
X214628572Y-68969438D02*
X214476191Y-68969438D01*
X214971429Y-69312295D02*
X214971429Y-68512295D01*
X214971429Y-68512295D02*
X215428572Y-69312295D01*
X215428572Y-69312295D02*
X215428572Y-68512295D01*
X215809524Y-69312295D02*
X215809524Y-68512295D01*
X215809524Y-68512295D02*
X216000000Y-68512295D01*
X216000000Y-68512295D02*
X216114286Y-68550390D01*
X216114286Y-68550390D02*
X216190476Y-68626580D01*
X216190476Y-68626580D02*
X216228571Y-68702771D01*
X216228571Y-68702771D02*
X216266667Y-68855152D01*
X216266667Y-68855152D02*
X216266667Y-68969438D01*
X216266667Y-68969438D02*
X216228571Y-69121819D01*
X216228571Y-69121819D02*
X216190476Y-69198009D01*
X216190476Y-69198009D02*
X216114286Y-69274200D01*
X216114286Y-69274200D02*
X216000000Y-69312295D01*
X216000000Y-69312295D02*
X215809524Y-69312295D01*
X224247619Y-61692295D02*
X223980952Y-61311342D01*
X223790476Y-61692295D02*
X223790476Y-60892295D01*
X223790476Y-60892295D02*
X224095238Y-60892295D01*
X224095238Y-60892295D02*
X224171428Y-60930390D01*
X224171428Y-60930390D02*
X224209523Y-60968485D01*
X224209523Y-60968485D02*
X224247619Y-61044676D01*
X224247619Y-61044676D02*
X224247619Y-61158961D01*
X224247619Y-61158961D02*
X224209523Y-61235152D01*
X224209523Y-61235152D02*
X224171428Y-61273247D01*
X224171428Y-61273247D02*
X224095238Y-61311342D01*
X224095238Y-61311342D02*
X223790476Y-61311342D01*
X224552380Y-61463723D02*
X224933333Y-61463723D01*
X224476190Y-61692295D02*
X224742857Y-60892295D01*
X224742857Y-60892295D02*
X225009523Y-61692295D01*
X225199999Y-60892295D02*
X225390475Y-61692295D01*
X225390475Y-61692295D02*
X225542856Y-61120866D01*
X225542856Y-61120866D02*
X225695237Y-61692295D01*
X225695237Y-61692295D02*
X225885714Y-60892295D01*
%TO.C,T1*%
X231000000Y-66000000D02*
X231000000Y-72600000D01*
X231000000Y-72600000D02*
X233850000Y-72600000D01*
X233850000Y-66000000D02*
X231000000Y-66000000D01*
X233850000Y-69300000D02*
X233850000Y-66000000D01*
X233850000Y-69300000D02*
X233850000Y-72600000D01*
X233850000Y-71250000D02*
X233850000Y-67350000D01*
%TO.C,B1*%
X217250000Y-94050000D02*
X218750000Y-92550000D01*
X217250000Y-96550000D02*
X217250000Y-94050000D01*
X217250000Y-96550000D02*
X218750000Y-98050000D01*
X221250000Y-92550000D02*
X218750000Y-92550000D01*
X221250000Y-98050000D02*
X218750000Y-98050000D01*
X222750000Y-94050000D02*
X221250000Y-92550000D01*
X222750000Y-96550000D02*
X221250000Y-98050000D01*
X222750000Y-96550000D02*
X222750000Y-94050000D01*
D12*
%TO.C,D22*%
X167600000Y-128700000D02*
X168400000Y-128700000D01*
X168000000Y-128700000D02*
X168000000Y-128200000D01*
X168000000Y-129300000D02*
X167450000Y-129300000D01*
X168000000Y-129300000D02*
X167600000Y-128700000D01*
X168000000Y-129300000D02*
X168550000Y-129300000D01*
X168000000Y-129700000D02*
X168000000Y-129300000D01*
X168400000Y-128700000D02*
X168000000Y-129300000D01*
%TO.C,D27*%
X186600000Y-112150000D02*
X187400000Y-112150000D01*
X187000000Y-112150000D02*
X187000000Y-111650000D01*
X187000000Y-112750000D02*
X186450000Y-112750000D01*
X187000000Y-112750000D02*
X186600000Y-112150000D01*
X187000000Y-112750000D02*
X187550000Y-112750000D01*
X187000000Y-113150000D02*
X187000000Y-112750000D01*
X187400000Y-112150000D02*
X187000000Y-112750000D01*
%TO.C,D16*%
X148600000Y-145250000D02*
X149400000Y-145250000D01*
X149000000Y-145250000D02*
X149000000Y-144750000D01*
X149000000Y-145850000D02*
X148450000Y-145850000D01*
X149000000Y-145850000D02*
X148600000Y-145250000D01*
X149000000Y-145850000D02*
X149550000Y-145850000D01*
X149000000Y-146250000D02*
X149000000Y-145850000D01*
X149400000Y-145250000D02*
X149000000Y-145850000D01*
%TO.C,JST1*%
X222600000Y-100900000D02*
X222600000Y-101900000D01*
X222600000Y-103900000D02*
X222600000Y-102900000D01*
X223100000Y-103400000D02*
X222100000Y-103400000D01*
D13*
X223640000Y-99340000D02*
X224640000Y-99340000D01*
X223640000Y-100260000D02*
X223640000Y-99340000D01*
X223640000Y-104540000D02*
X223640000Y-105460000D01*
X223640000Y-105460000D02*
X224640000Y-105460000D01*
X231460000Y-99340000D02*
X230460000Y-99340000D01*
X231460000Y-100340000D02*
X231460000Y-99340000D01*
X231460000Y-104540000D02*
X231460000Y-105460000D01*
X231460000Y-105460000D02*
X230460000Y-105460000D01*
D12*
%TO.C,D18*%
X148600000Y-107150000D02*
X149400000Y-107150000D01*
X149000000Y-107150000D02*
X149000000Y-106650000D01*
X149000000Y-107750000D02*
X148450000Y-107750000D01*
X149000000Y-107750000D02*
X148600000Y-107150000D01*
X149000000Y-107750000D02*
X149550000Y-107750000D01*
X149000000Y-108150000D02*
X149000000Y-107750000D01*
X149400000Y-107150000D02*
X149000000Y-107750000D01*
%TO.C,D24*%
X167600000Y-90600000D02*
X168400000Y-90600000D01*
X168000000Y-90600000D02*
X168000000Y-90100000D01*
X168000000Y-91200000D02*
X167450000Y-91200000D01*
X168000000Y-91200000D02*
X167600000Y-90600000D01*
X168000000Y-91200000D02*
X168550000Y-91200000D01*
X168000000Y-91600000D02*
X168000000Y-91200000D01*
X168400000Y-90600000D02*
X168000000Y-91200000D01*
%TO.C,D8*%
X110600000Y-116650000D02*
X111400000Y-116650000D01*
X111000000Y-116650000D02*
X111000000Y-116150000D01*
X111000000Y-117250000D02*
X110450000Y-117250000D01*
X111000000Y-117250000D02*
X110600000Y-116650000D01*
X111000000Y-117250000D02*
X111550000Y-117250000D01*
X111000000Y-117650000D02*
X111000000Y-117250000D01*
X111400000Y-116650000D02*
X111000000Y-117250000D01*
%TO.C,D10*%
X110600000Y-78550000D02*
X111400000Y-78550000D01*
X111000000Y-78550000D02*
X111000000Y-78050000D01*
X111000000Y-79150000D02*
X110450000Y-79150000D01*
X111000000Y-79150000D02*
X110600000Y-78550000D01*
X111000000Y-79150000D02*
X111550000Y-79150000D01*
X111000000Y-79550000D02*
X111000000Y-79150000D01*
X111400000Y-78550000D02*
X111000000Y-79150000D01*
%TO.C,D13*%
X129600000Y-109650000D02*
X130400000Y-109650000D01*
X130000000Y-109650000D02*
X130000000Y-109150000D01*
X130000000Y-110250000D02*
X129450000Y-110250000D01*
X130000000Y-110250000D02*
X129600000Y-109650000D01*
X130000000Y-110250000D02*
X130550000Y-110250000D01*
X130000000Y-110650000D02*
X130000000Y-110250000D01*
X130400000Y-109650000D02*
X130000000Y-110250000D01*
%TO.C,D1*%
X91600000Y-154750000D02*
X92400000Y-154750000D01*
X92000000Y-154750000D02*
X92000000Y-154250000D01*
X92000000Y-155350000D02*
X91450000Y-155350000D01*
X92000000Y-155350000D02*
X91600000Y-154750000D01*
X92000000Y-155350000D02*
X92550000Y-155350000D01*
X92000000Y-155750000D02*
X92000000Y-155350000D01*
X92400000Y-154750000D02*
X92000000Y-155350000D01*
D11*
%TO.C,MCU1*%
X211110000Y-57520000D02*
X211110000Y-90540000D01*
X211110000Y-90540000D02*
X228890000Y-90540000D01*
X226350000Y-60060000D02*
X226350000Y-62600000D01*
X226350000Y-60060000D02*
X228890000Y-60060000D01*
X226350000Y-62600000D02*
X228890000Y-62600000D01*
X228890000Y-57520000D02*
X211110000Y-57520000D01*
X228890000Y-90540000D02*
X228890000Y-57520000D01*
D12*
%TO.C,D4*%
X91600000Y-97600000D02*
X92400000Y-97600000D01*
X92000000Y-97600000D02*
X92000000Y-97100000D01*
X92000000Y-98200000D02*
X91450000Y-98200000D01*
X92000000Y-98200000D02*
X91600000Y-97600000D01*
X92000000Y-98200000D02*
X92550000Y-98200000D01*
X92000000Y-98600000D02*
X92000000Y-98200000D01*
X92400000Y-97600000D02*
X92000000Y-98200000D01*
%TO.C,D31*%
X207009423Y-155331630D02*
X207782164Y-155538685D01*
X207136975Y-156401083D02*
X207240502Y-156014713D01*
X207240502Y-156014713D02*
X206709243Y-155872363D01*
X207240502Y-156014713D02*
X207009423Y-155331630D01*
X207240502Y-156014713D02*
X207771763Y-156157064D01*
X207395794Y-155435158D02*
X207525203Y-154952195D01*
X207782164Y-155538685D02*
X207240502Y-156014713D01*
%TO.C,D11*%
X129600000Y-147750000D02*
X130400000Y-147750000D01*
X130000000Y-147750000D02*
X130000000Y-147250000D01*
X130000000Y-148350000D02*
X129450000Y-148350000D01*
X130000000Y-148350000D02*
X129600000Y-147750000D01*
X130000000Y-148350000D02*
X130550000Y-148350000D01*
X130000000Y-148750000D02*
X130000000Y-148350000D01*
X130400000Y-147750000D02*
X130000000Y-148350000D01*
%TO.C,D21*%
X167600000Y-147750000D02*
X168400000Y-147750000D01*
X168000000Y-147750000D02*
X168000000Y-147250000D01*
X168000000Y-148350000D02*
X167450000Y-148350000D01*
X168000000Y-148350000D02*
X167600000Y-147750000D01*
X168000000Y-148350000D02*
X168550000Y-148350000D01*
X168000000Y-148750000D02*
X168000000Y-148350000D01*
X168400000Y-147750000D02*
X168000000Y-148350000D01*
%TO.C,D33*%
X219750000Y-123000000D02*
X220350000Y-123400000D01*
X219750000Y-123400000D02*
X219250000Y-123400000D01*
X219750000Y-123800000D02*
X219750000Y-123000000D01*
X220350000Y-123400000D02*
X219750000Y-123800000D01*
X220350000Y-123400000D02*
X220350000Y-122850000D01*
X220350000Y-123400000D02*
X220350000Y-123950000D01*
X220750000Y-123400000D02*
X220350000Y-123400000D01*
%TO.C,D26*%
X186600000Y-131200000D02*
X187400000Y-131200000D01*
X187000000Y-131200000D02*
X187000000Y-130700000D01*
X187000000Y-131800000D02*
X186450000Y-131800000D01*
X187000000Y-131800000D02*
X186600000Y-131200000D01*
X187000000Y-131800000D02*
X187550000Y-131800000D01*
X187000000Y-132200000D02*
X187000000Y-131800000D01*
X187400000Y-131200000D02*
X187000000Y-131800000D01*
%TO.C,D19*%
X148600000Y-88100000D02*
X149400000Y-88100000D01*
X149000000Y-88100000D02*
X149000000Y-87600000D01*
X149000000Y-88700000D02*
X148450000Y-88700000D01*
X149000000Y-88700000D02*
X148600000Y-88100000D01*
X149000000Y-88700000D02*
X149550000Y-88700000D01*
X149000000Y-89100000D02*
X149000000Y-88700000D01*
X149400000Y-88100000D02*
X149000000Y-88700000D01*
%TO.C,D3*%
X91600000Y-116650000D02*
X92400000Y-116650000D01*
X92000000Y-116650000D02*
X92000000Y-116150000D01*
X92000000Y-117250000D02*
X91450000Y-117250000D01*
X92000000Y-117250000D02*
X91600000Y-116650000D01*
X92000000Y-117250000D02*
X92550000Y-117250000D01*
X92000000Y-117650000D02*
X92000000Y-117250000D01*
X92400000Y-116650000D02*
X92000000Y-117250000D01*
%TO.C,D2*%
X91600000Y-135700000D02*
X92400000Y-135700000D01*
X92000000Y-135700000D02*
X92000000Y-135200000D01*
X92000000Y-136300000D02*
X91450000Y-136300000D01*
X92000000Y-136300000D02*
X91600000Y-135700000D01*
X92000000Y-136300000D02*
X92550000Y-136300000D01*
X92000000Y-136700000D02*
X92000000Y-136300000D01*
X92400000Y-135700000D02*
X92000000Y-136300000D01*
%TO.C,D7*%
X110600000Y-135700000D02*
X111400000Y-135700000D01*
X111000000Y-135700000D02*
X111000000Y-135200000D01*
X111000000Y-136300000D02*
X110450000Y-136300000D01*
X111000000Y-136300000D02*
X110600000Y-135700000D01*
X111000000Y-136300000D02*
X111550000Y-136300000D01*
X111000000Y-136700000D02*
X111000000Y-136300000D01*
X111400000Y-135700000D02*
X111000000Y-136300000D01*
D13*
%TO.C,ROT1*%
X212080000Y-110260000D02*
X212680000Y-110260000D01*
X212380000Y-110560000D02*
X212080000Y-110260000D01*
X212680000Y-110260000D02*
X212380000Y-110560000D01*
X213780000Y-108560000D02*
X213780000Y-120260000D01*
X217880000Y-108560000D02*
X213780000Y-108560000D01*
X217880000Y-120260000D02*
X213780000Y-120260000D01*
X219380000Y-114360000D02*
X220380000Y-114360000D01*
X219880000Y-113860000D02*
X219880000Y-114860000D01*
X221880000Y-108460000D02*
X225980000Y-108460000D01*
X225980000Y-108460000D02*
X225980000Y-111060000D01*
X225980000Y-113060000D02*
X225980000Y-115660000D01*
X225980000Y-117660000D02*
X225980000Y-120260000D01*
X225980000Y-120260000D02*
X221880000Y-120260000D01*
X222880000Y-114360000D02*
G75*
G02*
X216880000Y-114360000I-3000000J0D01*
G01*
X216880000Y-114360000D02*
G75*
G02*
X222880000Y-114360000I3000000J0D01*
G01*
D12*
%TO.C,D23*%
X167600000Y-109650000D02*
X168400000Y-109650000D01*
X168000000Y-109650000D02*
X168000000Y-109150000D01*
X168000000Y-110250000D02*
X167450000Y-110250000D01*
X168000000Y-110250000D02*
X167600000Y-109650000D01*
X168000000Y-110250000D02*
X168550000Y-110250000D01*
X168000000Y-110650000D02*
X168000000Y-110250000D01*
X168400000Y-109650000D02*
X168000000Y-110250000D01*
%TO.C,D5*%
X91600000Y-78550000D02*
X92400000Y-78550000D01*
X92000000Y-78550000D02*
X92000000Y-78050000D01*
X92000000Y-79150000D02*
X91450000Y-79150000D01*
X92000000Y-79150000D02*
X91600000Y-78550000D01*
X92000000Y-79150000D02*
X92550000Y-79150000D01*
X92000000Y-79550000D02*
X92000000Y-79150000D01*
X92400000Y-78550000D02*
X92000000Y-79150000D01*
%TO.C,D6*%
X110600000Y-154750000D02*
X111400000Y-154750000D01*
X111000000Y-154750000D02*
X111000000Y-154250000D01*
X111000000Y-155350000D02*
X110450000Y-155350000D01*
X111000000Y-155350000D02*
X110600000Y-154750000D01*
X111000000Y-155350000D02*
X111550000Y-155350000D01*
X111000000Y-155750000D02*
X111000000Y-155350000D01*
X111400000Y-154750000D02*
X111000000Y-155350000D01*
%TO.C,D17*%
X148600000Y-126200000D02*
X149400000Y-126200000D01*
X149000000Y-126200000D02*
X149000000Y-125700000D01*
X149000000Y-126800000D02*
X148450000Y-126800000D01*
X149000000Y-126800000D02*
X148600000Y-126200000D01*
X149000000Y-126800000D02*
X149550000Y-126800000D01*
X149000000Y-127200000D02*
X149000000Y-126800000D01*
X149400000Y-126200000D02*
X149000000Y-126800000D01*
D14*
%TO.C,G\u002A\u002A\u002A*%
G36*
X146271251Y-148887394D02*
G01*
X146433780Y-148903187D01*
X146540665Y-148929429D01*
X146579984Y-148964244D01*
X146580000Y-148965000D01*
X146544121Y-148986636D01*
X146450623Y-148995506D01*
X146320714Y-148992494D01*
X146175603Y-148978483D01*
X146036496Y-148954356D01*
X145980000Y-148940000D01*
X145800000Y-148887854D01*
X146065000Y-148883927D01*
X146271251Y-148887394D01*
G37*
G36*
X148252844Y-134854648D02*
G01*
X148281711Y-134876003D01*
X148280000Y-134880000D01*
X148231045Y-134898032D01*
X148122666Y-134910601D01*
X147975368Y-134915647D01*
X147927639Y-134915400D01*
X147774427Y-134912245D01*
X147694365Y-134907147D01*
X147680604Y-134898566D01*
X147726296Y-134884963D01*
X147760000Y-134877705D01*
X147901084Y-134855498D01*
X148043164Y-134844310D01*
X148166873Y-134844055D01*
X148252844Y-134854648D01*
G37*
G36*
X95217249Y-121146752D02*
G01*
X95220000Y-121163588D01*
X95185520Y-121225770D01*
X95088989Y-121315901D01*
X94940771Y-121427925D01*
X94751228Y-121555787D01*
X94530723Y-121693431D01*
X94289619Y-121834802D01*
X94038279Y-121973844D01*
X93787067Y-122104503D01*
X93546344Y-122220724D01*
X93326475Y-122316450D01*
X93137822Y-122385627D01*
X93118147Y-122391743D01*
X92775443Y-122478455D01*
X92395047Y-122545819D01*
X92015608Y-122588041D01*
X91730000Y-122599839D01*
X91573882Y-122598234D01*
X91453644Y-122593806D01*
X91387387Y-122587368D01*
X91380000Y-122584131D01*
X91416699Y-122572045D01*
X91514873Y-122553140D01*
X91656633Y-122530679D01*
X91730000Y-122520265D01*
X92119705Y-122460466D01*
X92470139Y-122390985D01*
X92794503Y-122306472D01*
X93105999Y-122201579D01*
X93417828Y-122070960D01*
X93743193Y-121909265D01*
X94095295Y-121711147D01*
X94487337Y-121471257D01*
X94776201Y-121286265D01*
X94938340Y-121192318D01*
X95073432Y-121135667D01*
X95170171Y-121119437D01*
X95217249Y-121146752D01*
G37*
G36*
X119461836Y-127190569D02*
G01*
X119531216Y-127202328D01*
X119702790Y-127259750D01*
X119852701Y-127349294D01*
X119963419Y-127456842D01*
X120017415Y-127568276D01*
X120020000Y-127596000D01*
X120011044Y-127661788D01*
X119978284Y-127670269D01*
X119912874Y-127618905D01*
X119841937Y-127544904D01*
X119669163Y-127413843D01*
X119452817Y-127346209D01*
X119199881Y-127343429D01*
X119019449Y-127377000D01*
X118871134Y-127423987D01*
X118743675Y-127480030D01*
X118674239Y-127525411D01*
X118566349Y-127669220D01*
X118480215Y-127865991D01*
X118425231Y-128089647D01*
X118410095Y-128258729D01*
X118425069Y-128463138D01*
X118484435Y-128633612D01*
X118599417Y-128794500D01*
X118707361Y-128903671D01*
X118805528Y-128982154D01*
X118949680Y-129081801D01*
X119119492Y-129190233D01*
X119294639Y-129295071D01*
X119454794Y-129383937D01*
X119579632Y-129444452D01*
X119620000Y-129459482D01*
X119745771Y-129512141D01*
X119799961Y-129565760D01*
X119782155Y-129610579D01*
X119691942Y-129636837D01*
X119627639Y-129639997D01*
X119501568Y-129617889D01*
X119330728Y-129549394D01*
X119140000Y-129449997D01*
X118850156Y-129263902D01*
X118604867Y-129057618D01*
X118417268Y-128843229D01*
X118334226Y-128708683D01*
X118272094Y-128510194D01*
X118258485Y-128273968D01*
X118289050Y-128022308D01*
X118359442Y-127777515D01*
X118465313Y-127561893D01*
X118587179Y-127411352D01*
X118756447Y-127299649D01*
X118975389Y-127221911D01*
X119218890Y-127183697D01*
X119461836Y-127190569D01*
G37*
G36*
X115138126Y-126732546D02*
G01*
X115308417Y-126777738D01*
X115460204Y-126873533D01*
X115616031Y-127027889D01*
X115759322Y-127222069D01*
X115854593Y-127395199D01*
X115906604Y-127517685D01*
X115938327Y-127631382D01*
X115954487Y-127763400D01*
X115959808Y-127940850D01*
X115960000Y-128000000D01*
X115957730Y-128175577D01*
X115945964Y-128313524D01*
X115917262Y-128431073D01*
X115864186Y-128545458D01*
X115779298Y-128673910D01*
X115655161Y-128833662D01*
X115538714Y-128976026D01*
X115384100Y-129158727D01*
X115268295Y-129282335D01*
X115183629Y-129352870D01*
X115122429Y-129376351D01*
X115077026Y-129358797D01*
X115065854Y-129347054D01*
X115059359Y-129306025D01*
X115094806Y-129237795D01*
X115178437Y-129132887D01*
X115282633Y-129017894D01*
X115465883Y-128818249D01*
X115600271Y-128660231D01*
X115693701Y-128529092D01*
X115754074Y-128410085D01*
X115789294Y-128288464D01*
X115807262Y-128149481D01*
X115814127Y-128026043D01*
X115819102Y-127851089D01*
X115813220Y-127726059D01*
X115790401Y-127621018D01*
X115744565Y-127506032D01*
X115682235Y-127376635D01*
X115558310Y-127155698D01*
X115433605Y-127003844D01*
X115295004Y-126911113D01*
X115129393Y-126867546D01*
X115003113Y-126860865D01*
X114740069Y-126892569D01*
X114527788Y-126983938D01*
X114369402Y-127132426D01*
X114268041Y-127335489D01*
X114235585Y-127484819D01*
X114214288Y-127597161D01*
X114188613Y-127667715D01*
X114174846Y-127680000D01*
X114144035Y-127646617D01*
X114141480Y-127558663D01*
X114162402Y-127434425D01*
X114202023Y-127292194D01*
X114255565Y-127150257D01*
X114318249Y-127026904D01*
X114361535Y-126965469D01*
X114506481Y-126848494D01*
X114700599Y-126767436D01*
X114919333Y-126727164D01*
X115138126Y-126732546D01*
G37*
G36*
X111417315Y-113762566D02*
G01*
X111471066Y-113771376D01*
X111844005Y-113869196D01*
X112216964Y-114025781D01*
X112576276Y-114231244D01*
X112908274Y-114475697D01*
X113199290Y-114749253D01*
X113435659Y-115042025D01*
X113584046Y-115300000D01*
X113665580Y-115484730D01*
X113711397Y-115609014D01*
X113722047Y-115670357D01*
X113698079Y-115666263D01*
X113640043Y-115594237D01*
X113550041Y-115454343D01*
X113369148Y-115172579D01*
X113200355Y-114948270D01*
X113028593Y-114763626D01*
X112838793Y-114600856D01*
X112805892Y-114575765D01*
X112682489Y-114484137D01*
X112607687Y-114435714D01*
X112566175Y-114425587D01*
X112542644Y-114448845D01*
X112527160Y-114486368D01*
X112449115Y-114677426D01*
X112372408Y-114821142D01*
X112279242Y-114947854D01*
X112211274Y-115024832D01*
X111970130Y-115241548D01*
X111718445Y-115379245D01*
X111454882Y-115438373D01*
X111178106Y-115419379D01*
X111096661Y-115399736D01*
X110958468Y-115326578D01*
X110817008Y-115190206D01*
X110686610Y-115005443D01*
X110648071Y-114935648D01*
X110598508Y-114789962D01*
X110568784Y-114601854D01*
X110560683Y-114403013D01*
X110562941Y-114376779D01*
X110650782Y-114376779D01*
X110675604Y-114617298D01*
X110743521Y-114846445D01*
X110847948Y-115045727D01*
X110982301Y-115196651D01*
X111071398Y-115254770D01*
X111252578Y-115307670D01*
X111461135Y-115313812D01*
X111659991Y-115273831D01*
X111731593Y-115243492D01*
X111967287Y-115088505D01*
X112169818Y-114890835D01*
X112315861Y-114673269D01*
X112316469Y-114672051D01*
X112387279Y-114515664D01*
X112413749Y-114408549D01*
X112396111Y-114333550D01*
X112334600Y-114273506D01*
X112322001Y-114264989D01*
X112153209Y-114179498D01*
X111927603Y-114100196D01*
X111668360Y-114032071D01*
X111398658Y-113980115D01*
X111141672Y-113949317D01*
X110920580Y-113944666D01*
X110858304Y-113949856D01*
X110768650Y-113967727D01*
X110718901Y-114009107D01*
X110686707Y-114097676D01*
X110675642Y-114143381D01*
X110650782Y-114376779D01*
X110562941Y-114376779D01*
X110575992Y-114225127D01*
X110602554Y-114127716D01*
X110635519Y-114032792D01*
X110643703Y-113973491D01*
X110641099Y-113967766D01*
X110589920Y-113964587D01*
X110483342Y-113985668D01*
X110340121Y-114025256D01*
X110179015Y-114077597D01*
X110018780Y-114136937D01*
X109878174Y-114197523D01*
X109854545Y-114209040D01*
X109732905Y-114282438D01*
X109584793Y-114390478D01*
X109424962Y-114520064D01*
X109268170Y-114658100D01*
X109129170Y-114791490D01*
X109022717Y-114907138D01*
X108963567Y-114991948D01*
X108958674Y-115004176D01*
X108968326Y-115098210D01*
X109040361Y-115219491D01*
X109165431Y-115359854D01*
X109334185Y-115511130D01*
X109537272Y-115665154D01*
X109765343Y-115813758D01*
X110009047Y-115948775D01*
X110080000Y-115983599D01*
X110487978Y-116152407D01*
X110912192Y-116281181D01*
X111342191Y-116369782D01*
X111767525Y-116418070D01*
X112177742Y-116425906D01*
X112562392Y-116393150D01*
X112911024Y-116319663D01*
X113213186Y-116205305D01*
X113458428Y-116049936D01*
X113482952Y-116029044D01*
X113601558Y-115932949D01*
X113671601Y-115897579D01*
X113695992Y-115922420D01*
X113681929Y-115993921D01*
X113626634Y-116069724D01*
X113514598Y-116159328D01*
X113364799Y-116250716D01*
X113196215Y-116331870D01*
X113079352Y-116375460D01*
X112761398Y-116460753D01*
X112399494Y-116529609D01*
X112028917Y-116576676D01*
X111684945Y-116596601D01*
X111620079Y-116596842D01*
X111442322Y-116594371D01*
X111293633Y-116590191D01*
X111192702Y-116584950D01*
X111160000Y-116580855D01*
X111103890Y-116566332D01*
X110992063Y-116539648D01*
X110846867Y-116506118D01*
X110820000Y-116500012D01*
X110525111Y-116412552D01*
X110203769Y-116282376D01*
X109886325Y-116123104D01*
X109626680Y-115964536D01*
X109467490Y-115845697D01*
X109293731Y-115698530D01*
X109120999Y-115538177D01*
X108964887Y-115379780D01*
X108840990Y-115238482D01*
X108764903Y-115129424D01*
X108763106Y-115126007D01*
X108722864Y-115034212D01*
X108723596Y-114963359D01*
X108764853Y-114870000D01*
X108825131Y-114780589D01*
X108925138Y-114659774D01*
X109045727Y-114530316D01*
X109076101Y-114500000D01*
X109389611Y-114244579D01*
X109755338Y-114035611D01*
X110157126Y-113878012D01*
X110578821Y-113776694D01*
X111004269Y-113736574D01*
X111417315Y-113762566D01*
G37*
G36*
X117801653Y-124615588D02*
G01*
X118346809Y-124652245D01*
X118870759Y-124713204D01*
X119180683Y-124763629D01*
X119599646Y-124850301D01*
X119977282Y-124948742D01*
X120306738Y-125056239D01*
X120581163Y-125170077D01*
X120793702Y-125287544D01*
X120937503Y-125405926D01*
X120989842Y-125480000D01*
X121074640Y-125671948D01*
X121164980Y-125912551D01*
X121250781Y-126172004D01*
X121321960Y-126420503D01*
X121355179Y-126560000D01*
X121421421Y-126938860D01*
X121447124Y-127281025D01*
X121430803Y-127610813D01*
X121370972Y-127952542D01*
X121266146Y-128330531D01*
X121242571Y-128403727D01*
X121186004Y-128568527D01*
X121130354Y-128703223D01*
X121065780Y-128820313D01*
X120982443Y-128932291D01*
X120870502Y-129051654D01*
X120720119Y-129190896D01*
X120521452Y-129362514D01*
X120420000Y-129448305D01*
X120066377Y-129729660D01*
X119681283Y-130006456D01*
X119279929Y-130269501D01*
X118877527Y-130509602D01*
X118489289Y-130717565D01*
X118130427Y-130884197D01*
X117893281Y-130975301D01*
X117625787Y-131050755D01*
X117387154Y-131078083D01*
X117151123Y-131056397D01*
X116891435Y-130984815D01*
X116762650Y-130937180D01*
X116296124Y-130738895D01*
X115837967Y-130514254D01*
X115396669Y-130269237D01*
X114980723Y-130009823D01*
X114598621Y-129741991D01*
X114258855Y-129471720D01*
X113969917Y-129204989D01*
X113740300Y-128947779D01*
X113578495Y-128706067D01*
X113569391Y-128688848D01*
X113467112Y-128442077D01*
X113379628Y-128134813D01*
X113308964Y-127785537D01*
X113257144Y-127412728D01*
X113226190Y-127034868D01*
X113218129Y-126670438D01*
X113222116Y-126591784D01*
X113323104Y-126591784D01*
X113329866Y-126985572D01*
X113371282Y-127406253D01*
X113433569Y-127774140D01*
X113475016Y-127969986D01*
X113514530Y-128138833D01*
X113548017Y-128264354D01*
X113571385Y-128330220D01*
X113573919Y-128334140D01*
X113607635Y-128403511D01*
X113638017Y-128507483D01*
X113638689Y-128510593D01*
X113707270Y-128677124D01*
X113843279Y-128868472D01*
X114039916Y-129079613D01*
X114290382Y-129305526D01*
X114587880Y-129541185D01*
X114925609Y-129781569D01*
X115296771Y-130021654D01*
X115694567Y-130256417D01*
X116112198Y-130480834D01*
X116542865Y-130689882D01*
X116660000Y-130742817D01*
X116921726Y-130856908D01*
X117127414Y-130938051D01*
X117293030Y-130988167D01*
X117434539Y-131009173D01*
X117567906Y-131002988D01*
X117709095Y-130971530D01*
X117874073Y-130916719D01*
X117931615Y-130895629D01*
X118254208Y-130757563D01*
X118616794Y-130570440D01*
X119004871Y-130343775D01*
X119403943Y-130087083D01*
X119799509Y-129809881D01*
X120177071Y-129521683D01*
X120522130Y-129232004D01*
X120665048Y-129101722D01*
X120775342Y-128990428D01*
X120857860Y-128892414D01*
X120898195Y-128825237D01*
X120900000Y-128815406D01*
X120913050Y-128747332D01*
X120947476Y-128628640D01*
X120996191Y-128483480D01*
X121002874Y-128464839D01*
X121132889Y-128052575D01*
X121219074Y-127662012D01*
X121257846Y-127310437D01*
X121259719Y-127226283D01*
X121247996Y-127008309D01*
X121215988Y-126745127D01*
X121168935Y-126467347D01*
X121112078Y-126205582D01*
X121050655Y-125990440D01*
X121045749Y-125976295D01*
X121001519Y-125828103D01*
X120965083Y-125668758D01*
X120961011Y-125645987D01*
X120932535Y-125533584D01*
X120879445Y-125453899D01*
X120779931Y-125377023D01*
X120751549Y-125358726D01*
X120467119Y-125209180D01*
X120109930Y-125073484D01*
X119686261Y-124953105D01*
X119202389Y-124849508D01*
X118664591Y-124764161D01*
X118079144Y-124698529D01*
X117840000Y-124678648D01*
X117357438Y-124656520D01*
X116858600Y-124659907D01*
X116354867Y-124687053D01*
X115857621Y-124736203D01*
X115378242Y-124805601D01*
X114928113Y-124893492D01*
X114518614Y-124998121D01*
X114161127Y-125117731D01*
X113867033Y-125250568D01*
X113770821Y-125306305D01*
X113620719Y-125445598D01*
X113499803Y-125651795D01*
X113409166Y-125916893D01*
X113349902Y-126232890D01*
X113323104Y-126591784D01*
X113222116Y-126591784D01*
X113234983Y-126337917D01*
X113278776Y-126055787D01*
X113280305Y-126049233D01*
X113364604Y-125762968D01*
X113473845Y-125538854D01*
X113621003Y-125359944D01*
X113819049Y-125209289D01*
X114000000Y-125109017D01*
X114317899Y-124977715D01*
X114702795Y-124864836D01*
X115143660Y-124771113D01*
X115629469Y-124697284D01*
X116149199Y-124644081D01*
X116691823Y-124612241D01*
X117246316Y-124602498D01*
X117801653Y-124615588D01*
G37*
G36*
X126394848Y-114149331D02*
G01*
X126486089Y-114158544D01*
X126784136Y-114216457D01*
X127105087Y-114309997D01*
X127427129Y-114430376D01*
X127728451Y-114568809D01*
X127987237Y-114716507D01*
X128132856Y-114821901D01*
X128284891Y-114959919D01*
X128417267Y-115103826D01*
X128517456Y-115237858D01*
X128572932Y-115346252D01*
X128580000Y-115384574D01*
X128557832Y-115447310D01*
X128499340Y-115552477D01*
X128416541Y-115678759D01*
X128404716Y-115695478D01*
X128101723Y-116052102D01*
X127739660Y-116359056D01*
X127324745Y-116612904D01*
X126863195Y-116810213D01*
X126361225Y-116947548D01*
X126044075Y-116999627D01*
X125738503Y-117029271D01*
X125476921Y-117032252D01*
X125227315Y-117006882D01*
X124957672Y-116951468D01*
X124910917Y-116939799D01*
X124572324Y-116835980D01*
X124267714Y-116707831D01*
X124013935Y-116563250D01*
X123870725Y-116452117D01*
X123794555Y-116379606D01*
X123772371Y-116348974D01*
X123807453Y-116361003D01*
X123903084Y-116416472D01*
X124015829Y-116486617D01*
X124313541Y-116640862D01*
X124656362Y-116763923D01*
X125012486Y-116846617D01*
X125350107Y-116879761D01*
X125378422Y-116880000D01*
X125545240Y-116867611D01*
X125764910Y-116833739D01*
X126014775Y-116783327D01*
X126272177Y-116721317D01*
X126514458Y-116652652D01*
X126686491Y-116594648D01*
X127105175Y-116403551D01*
X127519189Y-116147133D01*
X127908110Y-115838505D01*
X128007895Y-115746275D01*
X128147566Y-115610473D01*
X128263327Y-115493586D01*
X128344238Y-115406983D01*
X128379357Y-115362032D01*
X128380000Y-115359596D01*
X128351870Y-115303794D01*
X128278165Y-115213047D01*
X128174904Y-115103458D01*
X128058109Y-114991127D01*
X127943804Y-114892155D01*
X127848009Y-114822644D01*
X127842291Y-114819228D01*
X127739535Y-114764640D01*
X127598767Y-114697254D01*
X127436432Y-114624035D01*
X127268977Y-114551946D01*
X127112849Y-114487953D01*
X126984493Y-114439018D01*
X126900356Y-114412106D01*
X126876431Y-114410235D01*
X126878054Y-114454125D01*
X126899100Y-114550627D01*
X126924477Y-114642598D01*
X126959860Y-114776419D01*
X126968166Y-114875123D01*
X126949415Y-114978865D01*
X126924698Y-115061783D01*
X126804239Y-115313750D01*
X126615367Y-115526076D01*
X126360739Y-115695853D01*
X126332736Y-115709903D01*
X126038128Y-115825058D01*
X125775513Y-115867254D01*
X125545719Y-115836814D01*
X125349570Y-115734063D01*
X125187894Y-115559324D01*
X125061517Y-115312920D01*
X125021709Y-115196590D01*
X124970492Y-115000734D01*
X124951266Y-114842336D01*
X124959277Y-114691934D01*
X124964829Y-114633938D01*
X125065275Y-114633938D01*
X125066701Y-114794003D01*
X125081745Y-114975638D01*
X125108728Y-115160104D01*
X125145968Y-115328659D01*
X125191785Y-115462562D01*
X125202458Y-115484754D01*
X125308583Y-115609521D01*
X125470981Y-115702023D01*
X125669066Y-115752182D01*
X125761128Y-115758232D01*
X125916873Y-115744448D01*
X126083914Y-115695028D01*
X126242967Y-115625473D01*
X126470035Y-115496896D01*
X126633758Y-115353354D01*
X126750772Y-115178161D01*
X126799239Y-115067557D01*
X126839335Y-114873246D01*
X126808782Y-114673945D01*
X126705700Y-114457575D01*
X126703745Y-114454386D01*
X126655458Y-114386543D01*
X126599205Y-114345646D01*
X126511717Y-114321641D01*
X126369727Y-114304468D01*
X126353255Y-114302892D01*
X126192816Y-114297396D01*
X125993958Y-114304830D01*
X125776340Y-114322815D01*
X125559617Y-114348968D01*
X125363446Y-114380909D01*
X125207485Y-114416257D01*
X125111388Y-114452631D01*
X125110000Y-114453485D01*
X125079148Y-114514185D01*
X125065275Y-114633938D01*
X124964829Y-114633938D01*
X124970735Y-114572241D01*
X124960701Y-114505259D01*
X124917698Y-114487824D01*
X124830248Y-114516777D01*
X124686874Y-114588957D01*
X124652231Y-114607367D01*
X124448278Y-114744297D01*
X124239673Y-114932901D01*
X124049698Y-115149888D01*
X123919818Y-115340000D01*
X123867036Y-115458561D01*
X123811566Y-115628298D01*
X123760633Y-115821001D01*
X123721461Y-116008463D01*
X123701274Y-116162475D01*
X123700000Y-116198313D01*
X123681271Y-116264183D01*
X123654361Y-116280000D01*
X123633299Y-116243734D01*
X123624371Y-116147610D01*
X123626301Y-116010638D01*
X123637813Y-115851828D01*
X123657632Y-115690191D01*
X123684482Y-115544735D01*
X123709807Y-115453818D01*
X123836533Y-115195071D01*
X124026306Y-114941495D01*
X124262801Y-114708250D01*
X124529691Y-114510496D01*
X124810652Y-114363395D01*
X124931128Y-114319676D01*
X125198234Y-114251543D01*
X125504110Y-114197754D01*
X125822806Y-114160995D01*
X126128369Y-114143958D01*
X126394848Y-114149331D01*
G37*
G36*
X95221618Y-121296257D02*
G01*
X95219553Y-121375293D01*
X95202037Y-121508412D01*
X95171500Y-121683969D01*
X95130376Y-121890316D01*
X95081097Y-122115806D01*
X95026094Y-122348794D01*
X94967801Y-122577631D01*
X94908650Y-122790672D01*
X94854045Y-122967308D01*
X94785034Y-123161632D01*
X94688566Y-123412857D01*
X94571187Y-123705472D01*
X94439442Y-124023964D01*
X94299879Y-124352821D01*
X94159044Y-124676532D01*
X94023482Y-124979583D01*
X93899740Y-125246463D01*
X93839598Y-125371179D01*
X93693445Y-125651499D01*
X93541087Y-125904178D01*
X93370042Y-126146153D01*
X93167831Y-126394360D01*
X92921973Y-126665737D01*
X92764604Y-126830000D01*
X92617654Y-126982844D01*
X92495265Y-127113436D01*
X92406174Y-127212182D01*
X92359116Y-127269488D01*
X92354863Y-127280000D01*
X92403654Y-127263423D01*
X92498603Y-127220935D01*
X92571329Y-127185546D01*
X92702488Y-127123432D01*
X92841377Y-127065933D01*
X92997391Y-127010428D01*
X93179920Y-126954299D01*
X93398357Y-126894924D01*
X93662094Y-126829684D01*
X93980523Y-126755959D01*
X94363037Y-126671130D01*
X94599820Y-126619724D01*
X94823335Y-126569302D01*
X95019221Y-126521013D01*
X95174176Y-126478467D01*
X95274894Y-126445276D01*
X95307645Y-126427629D01*
X95345745Y-126398153D01*
X95373568Y-126437775D01*
X95386713Y-126535806D01*
X95385770Y-126617316D01*
X95389270Y-126757243D01*
X95409164Y-126964672D01*
X95443590Y-127229213D01*
X95490685Y-127540479D01*
X95548588Y-127888080D01*
X95615437Y-128261629D01*
X95689369Y-128650737D01*
X95768522Y-129045016D01*
X95851035Y-129434077D01*
X95935045Y-129807533D01*
X96018691Y-130154995D01*
X96022807Y-130171405D01*
X96205376Y-130887694D01*
X96376221Y-131534588D01*
X96538577Y-132121282D01*
X96695676Y-132656970D01*
X96850753Y-133150847D01*
X97007042Y-133612107D01*
X97167776Y-134049944D01*
X97336190Y-134473554D01*
X97515516Y-134892130D01*
X97708990Y-135314867D01*
X97919844Y-135750960D01*
X98136128Y-136180000D01*
X98586073Y-137026881D01*
X99052698Y-137845642D01*
X99527817Y-138622766D01*
X100003238Y-139344736D01*
X100353693Y-139840000D01*
X100794494Y-140436826D01*
X101244636Y-141036082D01*
X101696445Y-141627962D01*
X102142250Y-142202658D01*
X102574376Y-142750363D01*
X102985152Y-143261269D01*
X103366905Y-143725570D01*
X103711962Y-144133458D01*
X103719523Y-144142233D01*
X104040024Y-144499319D01*
X104409863Y-144886028D01*
X104812735Y-145286261D01*
X105232333Y-145683916D01*
X105652352Y-146062891D01*
X105757095Y-146154200D01*
X106098274Y-146449484D01*
X106388669Y-146701329D01*
X106638037Y-146918593D01*
X106856131Y-147110136D01*
X107052708Y-147284816D01*
X107237521Y-147451494D01*
X107420327Y-147619027D01*
X107610880Y-147796275D01*
X107818936Y-147992097D01*
X108054249Y-148215351D01*
X108326574Y-148474898D01*
X108600000Y-148735976D01*
X108841666Y-148966797D01*
X109088536Y-149202579D01*
X109327750Y-149431042D01*
X109546450Y-149639905D01*
X109731776Y-149816886D01*
X109859811Y-149939147D01*
X110032925Y-150104910D01*
X110243425Y-150307198D01*
X110471335Y-150526772D01*
X110696680Y-150744394D01*
X110839811Y-150882952D01*
X111194943Y-151226765D01*
X111498578Y-151519315D01*
X111756410Y-151765273D01*
X111974138Y-151969311D01*
X112157457Y-152136101D01*
X112312063Y-152270315D01*
X112443653Y-152376624D01*
X112557924Y-152459701D01*
X112660572Y-152524217D01*
X112757293Y-152574844D01*
X112853784Y-152616255D01*
X112955741Y-152653120D01*
X113026800Y-152676585D01*
X113135852Y-152722511D01*
X113214059Y-152773974D01*
X113221698Y-152782046D01*
X113245326Y-152816357D01*
X113236855Y-152833099D01*
X113184540Y-152832255D01*
X113076637Y-152813813D01*
X112920000Y-152781673D01*
X112799571Y-152754820D01*
X112690768Y-152725064D01*
X112587382Y-152687636D01*
X112483207Y-152637766D01*
X112372035Y-152570684D01*
X112247658Y-152481619D01*
X112103870Y-152365803D01*
X111934463Y-152218465D01*
X111733229Y-152034835D01*
X111493962Y-151810143D01*
X111210453Y-151539620D01*
X110876495Y-151218494D01*
X110840000Y-151183332D01*
X110304975Y-150667806D01*
X109823770Y-150204206D01*
X109392584Y-149788958D01*
X109007619Y-149418488D01*
X108665076Y-149089222D01*
X108361154Y-148797588D01*
X108092055Y-148540011D01*
X107853980Y-148312918D01*
X107643129Y-148112736D01*
X107455704Y-147935889D01*
X107287904Y-147778806D01*
X107135931Y-147637913D01*
X106995986Y-147509635D01*
X106864268Y-147390400D01*
X106736980Y-147276633D01*
X106610322Y-147164761D01*
X106480495Y-147051211D01*
X106343698Y-146932409D01*
X106196134Y-146804781D01*
X106060000Y-146687206D01*
X105643291Y-146322440D01*
X105254106Y-145970619D01*
X104885793Y-145624418D01*
X104531696Y-145276512D01*
X104185164Y-144919573D01*
X103839542Y-144546276D01*
X103488176Y-144149296D01*
X103124414Y-143721306D01*
X102741602Y-143254980D01*
X102333086Y-142742994D01*
X101892213Y-142178020D01*
X101494196Y-141660000D01*
X101005605Y-141014856D01*
X100564669Y-140419910D01*
X100165461Y-139865956D01*
X99802055Y-139343787D01*
X99468523Y-138844197D01*
X99158937Y-138357979D01*
X98867372Y-137875927D01*
X98587900Y-137388835D01*
X98314593Y-136887495D01*
X98041525Y-136362702D01*
X97888925Y-136060000D01*
X97670013Y-135613094D01*
X97472387Y-135190267D01*
X97292288Y-134780838D01*
X97125956Y-134374126D01*
X96969631Y-133959452D01*
X96819554Y-133526135D01*
X96671963Y-133063495D01*
X96523101Y-132560852D01*
X96369205Y-132007526D01*
X96206518Y-131392837D01*
X96100545Y-130980000D01*
X95930948Y-130296529D01*
X95785792Y-129673896D01*
X95662348Y-129097694D01*
X95557888Y-128553516D01*
X95469683Y-128026954D01*
X95395003Y-127503603D01*
X95331119Y-126969054D01*
X95318611Y-126852038D01*
X95292618Y-126604076D01*
X95106309Y-126677484D01*
X95009487Y-126708334D01*
X94849724Y-126750949D01*
X94642553Y-126801548D01*
X94403506Y-126856352D01*
X94148118Y-126911581D01*
X94120000Y-126917457D01*
X93647816Y-127020785D01*
X93245064Y-127120313D01*
X92901467Y-127219113D01*
X92606753Y-127320258D01*
X92350648Y-127426821D01*
X92241360Y-127479316D01*
X92089563Y-127552232D01*
X91993984Y-127588397D01*
X91941819Y-127591505D01*
X91922237Y-127571406D01*
X91914878Y-127527922D01*
X91928622Y-127474857D01*
X91969572Y-127404159D01*
X92043828Y-127307782D01*
X92157491Y-127177675D01*
X92316663Y-127005791D01*
X92486982Y-126826393D01*
X92706539Y-126593990D01*
X92894509Y-126387081D01*
X93057514Y-126195139D01*
X93202176Y-126007641D01*
X93335119Y-125814060D01*
X93462963Y-125603872D01*
X93592332Y-125366551D01*
X93729847Y-125091574D01*
X93882130Y-124768413D01*
X94055803Y-124386546D01*
X94139456Y-124200000D01*
X94306486Y-123823710D01*
X94444859Y-123504364D01*
X94560375Y-123226709D01*
X94658836Y-122975489D01*
X94746045Y-122735450D01*
X94827804Y-122491340D01*
X94909913Y-122227903D01*
X94982679Y-121982984D01*
X95048201Y-121762410D01*
X95107462Y-121569259D01*
X95156373Y-121416359D01*
X95190844Y-121316539D01*
X95205799Y-121282952D01*
X95221618Y-121296257D01*
G37*
G36*
X141768883Y-122510221D02*
G01*
X141813100Y-122585970D01*
X141904024Y-122707123D01*
X142031871Y-122862438D01*
X142186857Y-123040675D01*
X142359197Y-123230592D01*
X142539107Y-123420948D01*
X142716804Y-123600501D01*
X142724001Y-123607568D01*
X143118358Y-123982818D01*
X143473210Y-124295507D01*
X143793735Y-124549433D01*
X144085109Y-124748395D01*
X144352511Y-124896189D01*
X144601118Y-124996614D01*
X144630058Y-125005700D01*
X144767167Y-125051300D01*
X144871643Y-125093333D01*
X144921797Y-125123026D01*
X144922465Y-125123988D01*
X144911416Y-125164255D01*
X144841665Y-125199028D01*
X144734509Y-125222570D01*
X144611244Y-125229142D01*
X144550247Y-125224274D01*
X144351029Y-125170864D01*
X144112893Y-125061308D01*
X143847820Y-124901183D01*
X143829402Y-124888791D01*
X143689583Y-124784602D01*
X143508791Y-124635834D01*
X143301489Y-124455587D01*
X143082142Y-124256961D01*
X142865212Y-124053056D01*
X142665163Y-123856971D01*
X142496458Y-123681807D01*
X142494788Y-123680000D01*
X142180845Y-123340000D01*
X142257574Y-123540000D01*
X142299658Y-123647228D01*
X142364732Y-123810047D01*
X142445385Y-124010049D01*
X142534209Y-124228825D01*
X142579573Y-124340000D01*
X142681376Y-124591571D01*
X142789470Y-124862937D01*
X142892528Y-125125409D01*
X142979225Y-125350299D01*
X142998038Y-125400000D01*
X143300046Y-126163953D01*
X143607225Y-126862038D01*
X143926733Y-127508362D01*
X144265725Y-128117031D01*
X144631359Y-128702153D01*
X144800000Y-128952126D01*
X144934931Y-129130918D01*
X145042011Y-129235394D01*
X145100000Y-129264432D01*
X145225676Y-129295619D01*
X145279889Y-129320772D01*
X145270139Y-129346685D01*
X145220000Y-129373123D01*
X145136367Y-129418915D01*
X145094472Y-129454017D01*
X145044124Y-129468752D01*
X145016357Y-129457748D01*
X144956097Y-129441392D01*
X144835560Y-129423221D01*
X144674347Y-129405847D01*
X144551748Y-129395839D01*
X144152757Y-129345266D01*
X143808983Y-129252061D01*
X143505228Y-129111569D01*
X143389350Y-129039634D01*
X143212730Y-128905021D01*
X143006650Y-128721265D01*
X142787639Y-128504682D01*
X142572227Y-128271591D01*
X142383689Y-128046845D01*
X142284432Y-127922881D01*
X142223517Y-127854682D01*
X142189719Y-127835221D01*
X142171815Y-127857469D01*
X142160114Y-127906845D01*
X142113032Y-128110269D01*
X142051106Y-128324401D01*
X141970828Y-128557827D01*
X141868689Y-128819131D01*
X141741180Y-129116901D01*
X141584792Y-129459721D01*
X141396017Y-129856177D01*
X141198464Y-130260000D01*
X140984039Y-130686053D01*
X140775196Y-131082347D01*
X140566000Y-131457678D01*
X140350517Y-131820839D01*
X140122815Y-132180627D01*
X139876959Y-132545836D01*
X139607015Y-132925261D01*
X139307050Y-133327697D01*
X138971129Y-133761940D01*
X138593320Y-134236784D01*
X138167689Y-134761025D01*
X138134010Y-134802169D01*
X137759941Y-135254495D01*
X137411989Y-135664728D01*
X137080940Y-136042090D01*
X136757578Y-136395802D01*
X136432689Y-136735085D01*
X136097059Y-137069159D01*
X135741473Y-137407246D01*
X135356716Y-137758567D01*
X134933573Y-138132343D01*
X134462830Y-138537795D01*
X134059016Y-138880000D01*
X133814480Y-139086427D01*
X133608591Y-139261368D01*
X133429190Y-139415696D01*
X133264118Y-139560279D01*
X133101219Y-139705988D01*
X132928331Y-139863694D01*
X132733299Y-140044268D01*
X132503961Y-140258579D01*
X132241336Y-140505117D01*
X132046455Y-140689748D01*
X131863776Y-140866477D01*
X131685525Y-141043490D01*
X131503928Y-141228974D01*
X131311212Y-141431115D01*
X131099605Y-141658101D01*
X130861332Y-141918118D01*
X130588621Y-142219352D01*
X130273698Y-142569990D01*
X130158537Y-142698662D01*
X129942666Y-142935447D01*
X129684963Y-143210694D01*
X129401512Y-143507676D01*
X129108400Y-143809671D01*
X128821712Y-144099954D01*
X128581163Y-144338662D01*
X128138704Y-144773044D01*
X127748100Y-145157806D01*
X127403586Y-145498824D01*
X127099398Y-145801975D01*
X126829772Y-146073137D01*
X126588943Y-146318187D01*
X126371146Y-146543002D01*
X126170617Y-146753459D01*
X125981592Y-146955436D01*
X125798307Y-147154809D01*
X125614996Y-147357456D01*
X125558928Y-147420000D01*
X125368204Y-147629882D01*
X125131918Y-147884639D01*
X124861137Y-148172636D01*
X124566927Y-148482240D01*
X124260355Y-148801815D01*
X123952487Y-149119727D01*
X123654389Y-149424341D01*
X123599526Y-149480000D01*
X123313961Y-149771106D01*
X123024459Y-150069480D01*
X122740600Y-150365022D01*
X122471969Y-150647632D01*
X122228148Y-150907212D01*
X122018719Y-151133662D01*
X121853265Y-151316885D01*
X121811460Y-151364407D01*
X121619451Y-151579959D01*
X121417367Y-151798827D01*
X121220822Y-152004640D01*
X121045433Y-152181031D01*
X120913479Y-152305681D01*
X120765764Y-152434334D01*
X120596744Y-152575429D01*
X120415941Y-152721729D01*
X120232875Y-152865996D01*
X120057068Y-153000994D01*
X119898041Y-153119487D01*
X119765316Y-153214237D01*
X119668414Y-153278007D01*
X119616857Y-153303560D01*
X119613365Y-153293851D01*
X119683596Y-153202908D01*
X119817459Y-153069378D01*
X120012430Y-152895652D01*
X120200000Y-152738145D01*
X120533118Y-152446344D01*
X120897908Y-152094572D01*
X121285501Y-151691828D01*
X121687028Y-151247109D01*
X121814778Y-151100000D01*
X121976472Y-150916574D01*
X122184521Y-150687574D01*
X122428648Y-150423931D01*
X122698573Y-150136577D01*
X122984021Y-149836441D01*
X123274712Y-149534455D01*
X123560370Y-149241549D01*
X123601236Y-149200000D01*
X123892445Y-148902293D01*
X124196426Y-148587974D01*
X124501722Y-148269127D01*
X124796877Y-147957839D01*
X125070435Y-147666194D01*
X125310940Y-147406280D01*
X125506935Y-147190180D01*
X125516023Y-147180000D01*
X125745415Y-146927931D01*
X126015961Y-146639051D01*
X126310426Y-146331238D01*
X126611579Y-146022368D01*
X126902184Y-145730321D01*
X127114739Y-145521540D01*
X127735126Y-144916798D01*
X128295937Y-144363525D01*
X128798066Y-143860812D01*
X129242406Y-143407749D01*
X129629850Y-143003426D01*
X129961291Y-142646934D01*
X130200000Y-142380447D01*
X130628343Y-141897412D01*
X131036709Y-141449216D01*
X131434500Y-141026796D01*
X131831123Y-140621091D01*
X132235980Y-140223039D01*
X132658476Y-139823578D01*
X133108014Y-139413646D01*
X133594001Y-138984181D01*
X134125838Y-138526122D01*
X134712931Y-138030406D01*
X134723862Y-138021250D01*
X135194298Y-137607727D01*
X135694394Y-137131778D01*
X136216746Y-136601869D01*
X136753945Y-136026469D01*
X137298588Y-135414046D01*
X137843267Y-134773067D01*
X138380576Y-134112001D01*
X138903110Y-133439316D01*
X139403463Y-132763478D01*
X139747241Y-132277635D01*
X139971261Y-131939212D01*
X140208728Y-131552960D01*
X140453551Y-131130851D01*
X140699641Y-130684861D01*
X140940907Y-130226961D01*
X141171260Y-129769127D01*
X141384609Y-129323331D01*
X141574864Y-128901548D01*
X141735936Y-128515752D01*
X141861734Y-128177916D01*
X141912746Y-128020000D01*
X141966880Y-127833427D01*
X141996772Y-127706011D01*
X142003703Y-127621089D01*
X141988952Y-127561998D01*
X141953802Y-127512074D01*
X141951942Y-127509980D01*
X141904627Y-127453173D01*
X141915853Y-127442150D01*
X141970000Y-127457379D01*
X142038490Y-127465892D01*
X142059580Y-127421419D01*
X142060000Y-127405967D01*
X142074517Y-127295991D01*
X142110705Y-127219365D01*
X142144279Y-127200000D01*
X142163717Y-127236200D01*
X142176691Y-127329706D01*
X142180000Y-127423286D01*
X142180000Y-127646573D01*
X142530000Y-128012092D01*
X142792025Y-128280149D01*
X143013775Y-128493826D01*
X143204772Y-128661354D01*
X143374540Y-128790964D01*
X143532603Y-128890886D01*
X143571622Y-128912307D01*
X143722594Y-128980469D01*
X143911390Y-129048052D01*
X144115878Y-129109064D01*
X144313925Y-129157512D01*
X144483398Y-129187406D01*
X144602165Y-129192753D01*
X144605946Y-129192322D01*
X144656169Y-129183460D01*
X144673311Y-129163248D01*
X144653103Y-129116850D01*
X144591281Y-129029431D01*
X144539133Y-128960000D01*
X144351875Y-128691742D01*
X144147225Y-128363617D01*
X143933824Y-127991399D01*
X143720314Y-127590867D01*
X143515337Y-127177796D01*
X143327534Y-126767963D01*
X143286717Y-126673571D01*
X143220642Y-126511933D01*
X143133194Y-126287638D01*
X143029104Y-126013649D01*
X142913103Y-125702931D01*
X142789921Y-125368446D01*
X142664289Y-125023160D01*
X142540937Y-124680035D01*
X142424595Y-124352037D01*
X142319995Y-124052129D01*
X142231866Y-123793275D01*
X142194380Y-123680000D01*
X142113520Y-123454440D01*
X142013464Y-123207050D01*
X141910933Y-122978258D01*
X141868906Y-122893044D01*
X141791822Y-122733553D01*
X141737993Y-122603370D01*
X141713262Y-122517760D01*
X141715764Y-122493044D01*
X141757313Y-122491450D01*
X141768883Y-122510221D01*
G37*
G36*
X105366789Y-124752655D02*
G01*
X105404840Y-124866904D01*
X105458169Y-125058712D01*
X105458506Y-125060000D01*
X105575990Y-125472735D01*
X105712416Y-125880525D01*
X105874881Y-126302049D01*
X106070481Y-126755986D01*
X106250111Y-127143508D01*
X106371669Y-127402242D01*
X106493387Y-127666597D01*
X106606513Y-127917186D01*
X106702295Y-128134623D01*
X106771982Y-128299520D01*
X106772177Y-128300000D01*
X106852503Y-128496347D01*
X106926012Y-128672227D01*
X106998671Y-128840816D01*
X107076447Y-129015290D01*
X107165308Y-129208824D01*
X107271220Y-129434594D01*
X107400151Y-129705777D01*
X107558067Y-130035547D01*
X107560204Y-130040000D01*
X107685594Y-130304001D01*
X107806921Y-130564384D01*
X107917201Y-130805781D01*
X108009448Y-131012830D01*
X108076677Y-131170165D01*
X108096655Y-131220000D01*
X108161347Y-131372588D01*
X108254252Y-131572513D01*
X108364518Y-131797296D01*
X108481292Y-132024459D01*
X108521494Y-132100000D01*
X108647882Y-132339080D01*
X108793786Y-132621451D01*
X108944422Y-132918130D01*
X109085004Y-133200134D01*
X109140709Y-133313832D01*
X109254790Y-133544914D01*
X109369006Y-133770323D01*
X109474109Y-133972225D01*
X109560850Y-134132785D01*
X109607379Y-134213832D01*
X109709169Y-134373998D01*
X109848866Y-134581343D01*
X110019493Y-134826473D01*
X110214072Y-135099994D01*
X110425625Y-135392511D01*
X110647175Y-135694632D01*
X110871744Y-135996961D01*
X111092353Y-136290106D01*
X111302025Y-136564673D01*
X111493783Y-136811267D01*
X111660648Y-137020494D01*
X111795643Y-137182961D01*
X111891790Y-137289274D01*
X111891926Y-137289411D01*
X112040000Y-137438823D01*
X112042081Y-136629411D01*
X112044411Y-136350911D01*
X112161807Y-136350911D01*
X112170938Y-136763100D01*
X112201831Y-137213714D01*
X112254784Y-137715243D01*
X112330095Y-138280178D01*
X112335859Y-138320000D01*
X112387523Y-138668041D01*
X112433062Y-138953309D01*
X112476209Y-139192419D01*
X112520700Y-139401987D01*
X112570269Y-139598630D01*
X112628649Y-139798964D01*
X112699576Y-140019604D01*
X112754464Y-140182629D01*
X112826954Y-140398554D01*
X112896593Y-140611279D01*
X112955771Y-140797236D01*
X112996884Y-140932860D01*
X112998929Y-140940000D01*
X113188668Y-141469588D01*
X113456633Y-141999214D01*
X113636230Y-142289054D01*
X113826207Y-142568614D01*
X113992651Y-142792142D01*
X114148790Y-142974660D01*
X114307852Y-143131191D01*
X114483063Y-143276757D01*
X114551452Y-143328490D01*
X114752056Y-143462238D01*
X114945261Y-143553702D01*
X115154518Y-143609962D01*
X115403275Y-143638097D01*
X115598717Y-143644675D01*
X115802024Y-143650438D01*
X116012905Y-143661459D01*
X116191563Y-143675566D01*
X116220000Y-143678575D01*
X116427888Y-143696225D01*
X116673960Y-143708051D01*
X116942093Y-143714225D01*
X117216167Y-143714916D01*
X117480061Y-143710295D01*
X117717653Y-143700531D01*
X117912823Y-143685796D01*
X118049450Y-143666259D01*
X118078393Y-143658954D01*
X118433539Y-143542175D01*
X118728242Y-143422118D01*
X118981675Y-143287700D01*
X119213012Y-143127834D01*
X119441429Y-142931437D01*
X119593121Y-142783293D01*
X119807388Y-142557145D01*
X119977788Y-142353801D01*
X120124275Y-142147832D01*
X120242648Y-141955548D01*
X120445653Y-141606490D01*
X120612810Y-141314951D01*
X120749594Y-141069952D01*
X120861480Y-140860509D01*
X120953941Y-140675642D01*
X121032454Y-140504370D01*
X121102491Y-140335710D01*
X121169530Y-140158682D01*
X121239042Y-139962304D01*
X121245109Y-139944749D01*
X121329424Y-139686341D01*
X121417193Y-139392813D01*
X121503478Y-139083066D01*
X121583340Y-138775998D01*
X121651841Y-138490508D01*
X121704043Y-138245497D01*
X121732353Y-138080000D01*
X121764878Y-137876946D01*
X121807746Y-137650747D01*
X121844903Y-137480000D01*
X121874413Y-137330429D01*
X121895361Y-137159588D01*
X121908873Y-136951747D01*
X121916078Y-136691175D01*
X121917998Y-136460000D01*
X121910603Y-135853673D01*
X121885234Y-135304485D01*
X121842396Y-134815977D01*
X121782593Y-134391686D01*
X121706333Y-134035153D01*
X121614121Y-133749916D01*
X121506462Y-133539516D01*
X121499162Y-133528830D01*
X121430914Y-133420481D01*
X121387798Y-133332196D01*
X121380000Y-133300818D01*
X121358684Y-133236795D01*
X121289337Y-133204613D01*
X121163861Y-133203328D01*
X120974157Y-133231999D01*
X120906450Y-133245681D01*
X120456146Y-133319441D01*
X120021410Y-133350334D01*
X119623620Y-133337199D01*
X119498206Y-133322150D01*
X119209698Y-133267962D01*
X118875506Y-133185587D01*
X118521529Y-133082559D01*
X118173666Y-132966412D01*
X117860000Y-132845595D01*
X117699126Y-132782172D01*
X117565606Y-132736804D01*
X117476316Y-132714801D01*
X117449002Y-132716296D01*
X117426511Y-132767153D01*
X117391675Y-132880241D01*
X117348431Y-133039468D01*
X117300719Y-133228741D01*
X117252477Y-133431965D01*
X117207643Y-133633047D01*
X117170156Y-133815895D01*
X117144633Y-133960000D01*
X117131123Y-134075137D01*
X117115374Y-134254978D01*
X117098467Y-134484294D01*
X117081484Y-134747858D01*
X117065508Y-135030442D01*
X117057950Y-135180000D01*
X117037711Y-135545472D01*
X117013659Y-135891546D01*
X116986764Y-136209744D01*
X116957994Y-136491589D01*
X116928318Y-136728604D01*
X116898705Y-136912311D01*
X116870124Y-137034232D01*
X116843544Y-137085891D01*
X116840000Y-137087038D01*
X116783762Y-137055145D01*
X116739947Y-136953945D01*
X116711332Y-136793548D01*
X116700696Y-136584062D01*
X116700686Y-136580000D01*
X116706010Y-136325658D01*
X116721447Y-136015850D01*
X116745189Y-135674218D01*
X116775426Y-135324402D01*
X116810349Y-134990044D01*
X116841197Y-134744101D01*
X116867761Y-134501827D01*
X116887596Y-134225629D01*
X116897713Y-133961493D01*
X116898339Y-133864101D01*
X116901096Y-133652912D01*
X116910877Y-133442781D01*
X116925968Y-133263680D01*
X116937477Y-133180000D01*
X116965383Y-133014994D01*
X116971659Y-132918823D01*
X116946785Y-132881242D01*
X116881239Y-132892008D01*
X116765499Y-132940877D01*
X116730000Y-132956777D01*
X116581587Y-133014489D01*
X116373974Y-133083493D01*
X116126207Y-133158417D01*
X115857331Y-133233891D01*
X115586391Y-133304544D01*
X115332433Y-133365005D01*
X115140000Y-133405159D01*
X114852844Y-133441657D01*
X114515619Y-133455494D01*
X114148784Y-133448278D01*
X113772799Y-133421616D01*
X113408123Y-133377119D01*
X113075215Y-133316393D01*
X112794535Y-133241048D01*
X112721483Y-133215034D01*
X112682516Y-133215272D01*
X112664054Y-133265722D01*
X112659719Y-133365720D01*
X112647501Y-133507837D01*
X112614819Y-133700887D01*
X112567111Y-133920113D01*
X112509815Y-134140756D01*
X112448368Y-134338059D01*
X112442509Y-134354697D01*
X112398700Y-134500005D01*
X112357652Y-134672110D01*
X112341799Y-134754697D01*
X112311808Y-134930052D01*
X112278298Y-135125345D01*
X112262012Y-135220000D01*
X112207641Y-135591851D01*
X112174140Y-135964658D01*
X112161807Y-136350911D01*
X112044411Y-136350911D01*
X112044738Y-136311783D01*
X112051635Y-136057401D01*
X112063894Y-135849573D01*
X112082637Y-135671605D01*
X112108988Y-135506805D01*
X112122081Y-135440000D01*
X112174459Y-135087923D01*
X112186972Y-134725126D01*
X112158327Y-134340120D01*
X112087228Y-133921417D01*
X111972380Y-133457529D01*
X111854627Y-133066391D01*
X111784799Y-132853046D01*
X111727725Y-132697058D01*
X111726211Y-132693772D01*
X111872894Y-132693772D01*
X111881485Y-132732550D01*
X111911210Y-132830923D01*
X111957072Y-132972874D01*
X111999980Y-133101041D01*
X112070747Y-133326225D01*
X112143900Y-133586269D01*
X112207358Y-133837352D01*
X112227688Y-133927156D01*
X112266692Y-134093778D01*
X112302373Y-134221264D01*
X112330492Y-134295954D01*
X112345619Y-134307156D01*
X112365353Y-134247553D01*
X112394661Y-134131894D01*
X112427941Y-133982671D01*
X112435619Y-133945721D01*
X112468026Y-133749673D01*
X112490653Y-133540088D01*
X112498531Y-133365721D01*
X112497063Y-133100000D01*
X112189134Y-132892730D01*
X112054477Y-132803483D01*
X111947802Y-132735411D01*
X111884116Y-132697955D01*
X111872894Y-132693772D01*
X111726211Y-132693772D01*
X111673388Y-132579097D01*
X111611766Y-132479830D01*
X111532840Y-132379925D01*
X111450365Y-132286391D01*
X111160862Y-131932235D01*
X110896571Y-131538532D01*
X110653659Y-131097484D01*
X110428288Y-130601293D01*
X110216625Y-130042161D01*
X110014834Y-129412292D01*
X109982360Y-129301502D01*
X109897841Y-129031544D01*
X109798325Y-128758359D01*
X109676296Y-128463232D01*
X109524237Y-128127447D01*
X109436373Y-127942161D01*
X109300064Y-127659254D01*
X109190799Y-127436702D01*
X109101642Y-127262435D01*
X109025659Y-127124382D01*
X108955915Y-127010472D01*
X108885474Y-126908637D01*
X108807403Y-126806804D01*
X108727531Y-126708398D01*
X108633591Y-126585802D01*
X108594401Y-126515942D01*
X108605395Y-126497870D01*
X108662008Y-126530642D01*
X108759675Y-126613310D01*
X108891326Y-126742345D01*
X108995223Y-126854863D01*
X109089750Y-126971489D01*
X109183794Y-127105786D01*
X109286247Y-127271317D01*
X109405996Y-127481644D01*
X109551738Y-127749971D01*
X109686716Y-128005272D01*
X109796595Y-128223177D01*
X109889543Y-128423091D01*
X109973729Y-128624417D01*
X110057323Y-128846559D01*
X110148495Y-129108922D01*
X110241180Y-129387565D01*
X110449637Y-129985500D01*
X110659679Y-130511426D01*
X110876140Y-130973266D01*
X111103855Y-131378946D01*
X111347657Y-131736388D01*
X111612381Y-132053518D01*
X111902862Y-132338259D01*
X112180000Y-132565581D01*
X112424952Y-132732244D01*
X112689760Y-132879910D01*
X112949834Y-132996333D01*
X113180581Y-133069268D01*
X113200000Y-133073473D01*
X113391304Y-133105459D01*
X113630191Y-133134356D01*
X113894343Y-133158576D01*
X114161440Y-133176531D01*
X114409164Y-133186632D01*
X114615197Y-133187292D01*
X114719475Y-133181597D01*
X115073137Y-133133137D01*
X115463116Y-133054838D01*
X115866183Y-132953136D01*
X116259108Y-132834464D01*
X116618660Y-132705259D01*
X116921609Y-132571953D01*
X116923122Y-132571198D01*
X117295641Y-132384978D01*
X117767820Y-132589551D01*
X118109703Y-132727693D01*
X118475296Y-132858030D01*
X118840424Y-132972905D01*
X119180910Y-133064659D01*
X119446289Y-133121141D01*
X119676856Y-133146167D01*
X119959108Y-133153010D01*
X120267085Y-133142761D01*
X120394084Y-133131927D01*
X121417260Y-133131927D01*
X121492549Y-133215963D01*
X121562351Y-133317558D01*
X121644983Y-133473345D01*
X121730389Y-133660857D01*
X121808515Y-133857629D01*
X121869307Y-134041195D01*
X121881026Y-134083959D01*
X121946167Y-134355669D01*
X121988063Y-134590266D01*
X122011747Y-134825085D01*
X122022248Y-135097460D01*
X122022895Y-135136754D01*
X122027916Y-135309897D01*
X122036677Y-135448798D01*
X122047837Y-135536995D01*
X122057339Y-135560000D01*
X122096083Y-135534857D01*
X122182367Y-135465994D01*
X122304311Y-135363258D01*
X122450036Y-135236494D01*
X122485858Y-135204805D01*
X122665529Y-135041806D01*
X122813152Y-134897134D01*
X122941538Y-134754946D01*
X123063498Y-134599394D01*
X123191842Y-134414635D01*
X123339380Y-134184822D01*
X123434982Y-134030830D01*
X123569025Y-133820114D01*
X123721264Y-133591362D01*
X123870012Y-133376707D01*
X123961353Y-133250830D01*
X124140025Y-132987452D01*
X124328349Y-132667809D01*
X124515739Y-132313031D01*
X124691609Y-131944251D01*
X124845375Y-131582600D01*
X124966451Y-131249211D01*
X124970899Y-131235404D01*
X125036239Y-131027754D01*
X125079329Y-130875491D01*
X125103418Y-130758174D01*
X125111753Y-130655362D01*
X125107579Y-130546615D01*
X125097244Y-130440000D01*
X125080929Y-130276978D01*
X125068521Y-130131518D01*
X125062568Y-130033679D01*
X125062472Y-130030000D01*
X125051259Y-129950449D01*
X125030000Y-129920946D01*
X124997172Y-129952716D01*
X124931156Y-130038117D01*
X124842054Y-130163508D01*
X124755976Y-130290946D01*
X124625454Y-130481098D01*
X124465139Y-130703253D01*
X124283735Y-130946401D01*
X124089943Y-131199533D01*
X123892465Y-131451639D01*
X123700004Y-131691711D01*
X123521262Y-131908739D01*
X123364941Y-132091713D01*
X123239744Y-132229625D01*
X123167793Y-132300156D01*
X122998118Y-132426501D01*
X122767457Y-132565081D01*
X122492142Y-132707591D01*
X122188506Y-132845726D01*
X121872882Y-132971180D01*
X121788630Y-133001484D01*
X121417260Y-133131927D01*
X120394084Y-133131927D01*
X120574829Y-133116508D01*
X120856380Y-133075341D01*
X120940000Y-133058476D01*
X121404092Y-132937402D01*
X121866371Y-132780678D01*
X122304621Y-132597160D01*
X122696629Y-132395701D01*
X122872815Y-132288103D01*
X123012762Y-132181451D01*
X123177244Y-132027278D01*
X123368312Y-131823014D01*
X123588019Y-131566088D01*
X123838415Y-131253932D01*
X124121553Y-130883975D01*
X124439486Y-130453649D01*
X124794264Y-129960382D01*
X125187940Y-129401605D01*
X125258821Y-129300000D01*
X125586629Y-128841585D01*
X125889373Y-128444657D01*
X126176015Y-128098300D01*
X126455515Y-127791599D01*
X126685805Y-127561904D01*
X126866860Y-127394633D01*
X127055329Y-127230188D01*
X127239909Y-127077438D01*
X127409296Y-126945252D01*
X127552187Y-126842499D01*
X127657278Y-126778050D01*
X127707791Y-126760000D01*
X127692826Y-126783622D01*
X127626324Y-126848047D01*
X127518818Y-126943613D01*
X127380847Y-127060656D01*
X127371518Y-127068409D01*
X127104213Y-127297265D01*
X126861301Y-127521849D01*
X126632714Y-127753620D01*
X126408383Y-128004033D01*
X126178239Y-128284544D01*
X125932213Y-128606610D01*
X125660236Y-128981689D01*
X125538342Y-129154229D01*
X125392917Y-129362548D01*
X125288459Y-129516798D01*
X125219250Y-129627873D01*
X125179573Y-129706669D01*
X125163710Y-129764082D01*
X125165943Y-129811008D01*
X125175791Y-129845121D01*
X125196271Y-129935910D01*
X125217229Y-130081903D01*
X125235406Y-130258389D01*
X125242470Y-130350891D01*
X125252424Y-130564584D01*
X125247352Y-130733891D01*
X125224481Y-130893483D01*
X125185732Y-131060000D01*
X125073866Y-131419909D01*
X124918236Y-131815953D01*
X124729430Y-132225564D01*
X124518040Y-132626178D01*
X124294655Y-132995230D01*
X124236905Y-133081780D01*
X123984802Y-133452367D01*
X123773768Y-133764713D01*
X123598943Y-134026082D01*
X123455469Y-134243737D01*
X123341565Y-134420109D01*
X123222460Y-134585987D01*
X123058498Y-134785807D01*
X122866076Y-135002053D01*
X122661592Y-135217213D01*
X122461445Y-135413773D01*
X122282034Y-135574217D01*
X122200000Y-135639338D01*
X122000000Y-135788315D01*
X121996831Y-136584157D01*
X121992840Y-136907630D01*
X121983885Y-137171300D01*
X121970297Y-137369133D01*
X121952406Y-137495098D01*
X121945568Y-137520000D01*
X121919521Y-137619121D01*
X121888155Y-137773171D01*
X121856179Y-137957710D01*
X121837646Y-138080000D01*
X121803381Y-138286782D01*
X121754402Y-138538733D01*
X121697261Y-138803901D01*
X121638908Y-139048775D01*
X121581298Y-139276919D01*
X121541319Y-139438351D01*
X121516928Y-139543903D01*
X121506085Y-139604410D01*
X121506747Y-139630701D01*
X121516874Y-139633611D01*
X121530000Y-139626635D01*
X121579448Y-139613978D01*
X121691059Y-139593274D01*
X121847756Y-139567497D01*
X122014171Y-139542282D01*
X122280023Y-139499833D01*
X122479551Y-139457176D01*
X122626234Y-139408491D01*
X122733551Y-139347961D01*
X122814982Y-139269764D01*
X122884004Y-139168083D01*
X122885036Y-139166313D01*
X122958525Y-139049537D01*
X123071814Y-138881566D01*
X123216011Y-138674682D01*
X123382228Y-138441166D01*
X123561574Y-138193301D01*
X123745160Y-137943369D01*
X123924097Y-137703653D01*
X124089494Y-137486435D01*
X124232462Y-137303996D01*
X124237484Y-137297726D01*
X124395761Y-137099772D01*
X124579264Y-136869439D01*
X124763738Y-136637208D01*
X124905847Y-136457726D01*
X125071819Y-136253688D01*
X125268875Y-136020700D01*
X125472479Y-135787315D01*
X125658097Y-135582085D01*
X125660032Y-135580000D01*
X125819589Y-135402246D01*
X126010393Y-135180484D01*
X126215705Y-134934716D01*
X126418785Y-134684945D01*
X126580587Y-134480000D01*
X126749473Y-134263572D01*
X126916171Y-134052078D01*
X127069278Y-133859828D01*
X127197390Y-133701136D01*
X127289106Y-133590310D01*
X127294913Y-133583491D01*
X127391717Y-133464647D01*
X127520046Y-133299183D01*
X127665538Y-133106012D01*
X127813829Y-132904047D01*
X127866995Y-132830229D01*
X128036544Y-132602171D01*
X128233690Y-132350733D01*
X128435322Y-132104668D01*
X128618331Y-131892729D01*
X128638483Y-131870359D01*
X128880296Y-131600783D01*
X129079833Y-131371384D01*
X129250924Y-131165311D01*
X129407400Y-130965715D01*
X129563091Y-130755743D01*
X129631864Y-130660000D01*
X129762987Y-130479094D01*
X129917355Y-130270641D01*
X130068726Y-130069950D01*
X130122370Y-130000000D01*
X130238472Y-129846069D01*
X130341830Y-129702736D01*
X130418627Y-129589496D01*
X130448430Y-129540000D01*
X130490871Y-129466626D01*
X130567785Y-129339969D01*
X130670479Y-129174101D01*
X130790259Y-128983092D01*
X130880866Y-128840000D01*
X131070362Y-128537497D01*
X131233853Y-128267481D01*
X131366318Y-128038594D01*
X131462733Y-127859482D01*
X131513074Y-127751640D01*
X131542768Y-127723801D01*
X131573410Y-127753463D01*
X131594584Y-127818939D01*
X131595877Y-127898543D01*
X131592270Y-127916554D01*
X131554489Y-128012425D01*
X131477798Y-128163986D01*
X131368532Y-128360955D01*
X131233029Y-128593050D01*
X131077627Y-128849986D01*
X130908662Y-129121482D01*
X130732473Y-129397255D01*
X130555395Y-129667020D01*
X130383767Y-129920496D01*
X130223925Y-130147399D01*
X130181791Y-130205251D01*
X130030859Y-130410827D01*
X129869970Y-130630176D01*
X129717999Y-130837550D01*
X129593826Y-131007201D01*
X129589902Y-131012567D01*
X129459114Y-131181990D01*
X129294255Y-131381806D01*
X129117597Y-131585613D01*
X128969902Y-131747473D01*
X128747319Y-131986989D01*
X128564341Y-132192470D01*
X128403106Y-132385537D01*
X128245751Y-132587810D01*
X128074413Y-132820910D01*
X128017674Y-132900000D01*
X127894115Y-133067261D01*
X127736898Y-133271769D01*
X127564411Y-133490017D01*
X127395042Y-133698497D01*
X127360230Y-133740471D01*
X127181868Y-133957484D01*
X126978468Y-134209570D01*
X126773102Y-134467884D01*
X126588841Y-134703582D01*
X126560395Y-134740471D01*
X126389838Y-134956672D01*
X126200390Y-135187782D01*
X126012343Y-135409571D01*
X125845987Y-135597804D01*
X125807172Y-135640000D01*
X125644390Y-135819955D01*
X125455051Y-136037151D01*
X125261515Y-136265528D01*
X125086140Y-136479024D01*
X125069304Y-136500000D01*
X124758594Y-136888816D01*
X124493309Y-137222353D01*
X124268242Y-137507272D01*
X124078186Y-137750230D01*
X123917932Y-137957888D01*
X123782274Y-138136905D01*
X123666003Y-138293940D01*
X123660000Y-138302163D01*
X123517714Y-138497207D01*
X123354548Y-138720842D01*
X123196786Y-138937043D01*
X123130000Y-139028558D01*
X123022813Y-139178277D01*
X122935773Y-139305292D01*
X122878400Y-139395338D01*
X122860000Y-139433053D01*
X122822308Y-139500802D01*
X122718465Y-139565037D01*
X122562321Y-139622150D01*
X122367723Y-139668531D01*
X122148522Y-139700571D01*
X121918567Y-139714661D01*
X121785233Y-139713165D01*
X121462830Y-139700000D01*
X121338418Y-140060000D01*
X121257140Y-140278324D01*
X121158368Y-140517718D01*
X121050431Y-140760339D01*
X120941660Y-140988343D01*
X120840386Y-141183888D01*
X120754936Y-141329132D01*
X120727523Y-141368525D01*
X120661887Y-141468249D01*
X120578375Y-141612120D01*
X120493233Y-141771926D01*
X120479091Y-141800000D01*
X120306755Y-142116072D01*
X120117403Y-142400080D01*
X119896251Y-142670715D01*
X119628515Y-142946667D01*
X119417124Y-143142568D01*
X119264051Y-143270592D01*
X119112429Y-143373677D01*
X118935992Y-143467632D01*
X118713308Y-143566252D01*
X118516100Y-143644525D01*
X118321008Y-143714829D01*
X118153666Y-143768290D01*
X118060000Y-143792366D01*
X117838866Y-143823767D01*
X117545615Y-143843166D01*
X117187234Y-143850495D01*
X116770711Y-143845686D01*
X116303032Y-143828670D01*
X116000000Y-143812527D01*
X115733910Y-143797005D01*
X115486976Y-143783007D01*
X115273128Y-143771293D01*
X115106295Y-143762618D01*
X115000407Y-143757741D01*
X114980000Y-143757063D01*
X114806033Y-143717730D01*
X114606562Y-143611832D01*
X114388551Y-143445919D01*
X114158961Y-143226543D01*
X113924757Y-142960253D01*
X113692902Y-142653601D01*
X113504995Y-142369519D01*
X113379193Y-142165531D01*
X113276036Y-141992055D01*
X113189356Y-141835269D01*
X113112989Y-141681349D01*
X113040769Y-141516472D01*
X112966531Y-141326814D01*
X112884108Y-141098553D01*
X112787336Y-140817865D01*
X112706815Y-140580000D01*
X112603690Y-140272360D01*
X112518592Y-140011052D01*
X112448497Y-139782233D01*
X112390379Y-139572057D01*
X112341212Y-139366681D01*
X112297972Y-139152259D01*
X112257632Y-138914949D01*
X112217169Y-138640905D01*
X112173555Y-138316283D01*
X112123766Y-137927239D01*
X112119168Y-137890884D01*
X112102416Y-137790151D01*
X112073762Y-137707753D01*
X112021591Y-137625158D01*
X111934291Y-137523836D01*
X111805800Y-137390884D01*
X111665835Y-137238533D01*
X111487473Y-137027505D01*
X111276740Y-136765657D01*
X111039660Y-136460846D01*
X110782257Y-136120929D01*
X110510556Y-135753762D01*
X110230581Y-135367204D01*
X109948358Y-134969110D01*
X109943100Y-134961610D01*
X109771774Y-134713294D01*
X109624585Y-134489655D01*
X109491285Y-134273045D01*
X109361631Y-134045816D01*
X109225376Y-133790320D01*
X109072275Y-133488910D01*
X108979366Y-133301610D01*
X108843348Y-133027359D01*
X108709514Y-132760341D01*
X108584716Y-132514016D01*
X108475807Y-132301842D01*
X108389638Y-132137279D01*
X108341502Y-132048637D01*
X108264170Y-131899987D01*
X108169212Y-131700974D01*
X108067810Y-131475866D01*
X107971146Y-131248932D01*
X107956277Y-131212624D01*
X107869467Y-131006016D01*
X107757036Y-130748504D01*
X107628405Y-130461100D01*
X107492996Y-130164819D01*
X107360229Y-129880671D01*
X107339823Y-129837659D01*
X107207948Y-129556561D01*
X107071537Y-129259168D01*
X106940120Y-128966719D01*
X106823226Y-128700457D01*
X106730384Y-128481622D01*
X106718906Y-128453672D01*
X106618896Y-128215139D01*
X106496911Y-127933986D01*
X106365916Y-127639562D01*
X106238875Y-127361213D01*
X106191622Y-127260000D01*
X105943108Y-126709075D01*
X105740251Y-126207374D01*
X105578366Y-125741946D01*
X105452768Y-125299838D01*
X105398631Y-125067384D01*
X105359938Y-124873329D01*
X105342775Y-124756060D01*
X105345580Y-124715771D01*
X105366789Y-124752655D01*
G37*
G36*
X134669262Y-97039368D02*
G01*
X135007053Y-97091717D01*
X135326967Y-97164044D01*
X135478827Y-97209006D01*
X135891849Y-97371189D01*
X136342385Y-97599040D01*
X136826236Y-97889967D01*
X137339200Y-98241375D01*
X137877077Y-98650672D01*
X138080000Y-98814978D01*
X138290196Y-98988209D01*
X138458043Y-99128020D01*
X138598733Y-99247969D01*
X138727459Y-99361618D01*
X138859415Y-99482526D01*
X139009792Y-99624256D01*
X139193784Y-99800367D01*
X139319392Y-99921204D01*
X139536805Y-100127460D01*
X139782598Y-100355694D01*
X140031745Y-100582956D01*
X140259218Y-100786297D01*
X140340000Y-100857071D01*
X140791577Y-101253060D01*
X141184476Y-101605292D01*
X141523561Y-101918612D01*
X141813698Y-102197864D01*
X142059753Y-102447894D01*
X142266589Y-102673547D01*
X142439073Y-102879667D01*
X142582070Y-103071099D01*
X142622127Y-103129645D01*
X142810490Y-103433246D01*
X142982844Y-103752593D01*
X143124060Y-104058532D01*
X143182730Y-104209836D01*
X143234046Y-104311774D01*
X143294335Y-104376109D01*
X143307883Y-104382502D01*
X143378635Y-104445108D01*
X143413502Y-104570641D01*
X143409997Y-104749331D01*
X143407080Y-104772416D01*
X143406530Y-104941129D01*
X143440180Y-105132281D01*
X143446821Y-105156345D01*
X143491140Y-105421043D01*
X143488427Y-105728295D01*
X143440215Y-106057084D01*
X143359498Y-106353121D01*
X143312872Y-106473629D01*
X143235311Y-106653147D01*
X143132455Y-106879533D01*
X143009945Y-107140647D01*
X142873421Y-107424349D01*
X142728524Y-107718499D01*
X142681174Y-107813121D01*
X142492731Y-108190143D01*
X142338064Y-108505843D01*
X142213877Y-108769792D01*
X142116875Y-108991558D01*
X142043762Y-109180713D01*
X141991241Y-109346826D01*
X141956019Y-109499467D01*
X141934798Y-109648206D01*
X141924283Y-109802613D01*
X141921179Y-109972259D01*
X141921179Y-110020000D01*
X141923498Y-110234348D01*
X141932258Y-110396594D01*
X141952005Y-110534614D01*
X141987281Y-110676282D01*
X142042632Y-110849475D01*
X142069017Y-110926859D01*
X142196083Y-111270961D01*
X142331473Y-111579764D01*
X142485120Y-111870073D01*
X142666957Y-112158689D01*
X142886916Y-112462415D01*
X143154932Y-112798056D01*
X143224662Y-112881827D01*
X143409198Y-113096742D01*
X143619091Y-113332580D01*
X143830609Y-113563149D01*
X144020025Y-113762258D01*
X144049945Y-113792738D01*
X144193298Y-113941689D01*
X144311674Y-114072007D01*
X144395703Y-114172787D01*
X144436016Y-114233125D01*
X144437584Y-114243908D01*
X144455038Y-114269659D01*
X144527639Y-114280612D01*
X144629143Y-114292053D01*
X144690945Y-114313557D01*
X144717742Y-114358995D01*
X144670692Y-114410168D01*
X144555496Y-114464305D01*
X144377853Y-114518634D01*
X144175645Y-114564156D01*
X143858710Y-114611411D01*
X143526977Y-114634060D01*
X143200534Y-114632611D01*
X142899472Y-114607572D01*
X142643877Y-114559450D01*
X142527853Y-114522516D01*
X142287438Y-114408221D01*
X142017779Y-114243894D01*
X141738591Y-114042770D01*
X141469590Y-113818084D01*
X141444340Y-113795132D01*
X141316066Y-113680509D01*
X141236873Y-113618098D01*
X141199483Y-113603333D01*
X141196615Y-113631650D01*
X141199371Y-113641520D01*
X141249934Y-113796920D01*
X141323291Y-114009494D01*
X141413095Y-114261916D01*
X141512995Y-114536856D01*
X141616642Y-114816987D01*
X141717689Y-115084982D01*
X141809785Y-115323511D01*
X141880315Y-115500000D01*
X142075459Y-115966523D01*
X142254580Y-116370004D01*
X142425830Y-116723658D01*
X142597362Y-117040702D01*
X142777327Y-117334354D01*
X142973880Y-117617830D01*
X143195170Y-117904346D01*
X143449351Y-118207120D01*
X143744576Y-118539367D01*
X143777227Y-118575334D01*
X144012580Y-118830385D01*
X144213933Y-119038668D01*
X144397683Y-119215548D01*
X144580228Y-119376386D01*
X144777963Y-119536547D01*
X144918548Y-119644644D01*
X145107204Y-119798278D01*
X145254194Y-119939531D01*
X145355387Y-120061847D01*
X145406649Y-120158676D01*
X145403848Y-120223462D01*
X145342851Y-120249653D01*
X145298751Y-120247551D01*
X145216061Y-120238745D01*
X145077452Y-120225602D01*
X144906737Y-120210346D01*
X144820000Y-120202892D01*
X144282015Y-120118194D01*
X143746420Y-119957623D01*
X143221719Y-119725072D01*
X142716417Y-119424434D01*
X142239016Y-119059601D01*
X142148441Y-118980000D01*
X142042355Y-118889348D01*
X141960380Y-118828109D01*
X141918834Y-118808362D01*
X141917559Y-118809106D01*
X141919762Y-118857826D01*
X141951107Y-118972025D01*
X142008504Y-119143967D01*
X142088862Y-119365912D01*
X142189088Y-119630122D01*
X142306092Y-119928860D01*
X142436783Y-120254386D01*
X142578068Y-120598963D01*
X142726857Y-120954852D01*
X142880057Y-121314316D01*
X143034578Y-121669616D01*
X143187328Y-122013013D01*
X143272209Y-122200000D01*
X143509435Y-122690791D01*
X143768590Y-123177597D01*
X144040315Y-123644797D01*
X144315253Y-124076770D01*
X144584044Y-124457897D01*
X144756672Y-124677797D01*
X144853762Y-124803037D01*
X144899579Y-124885288D01*
X144900464Y-124937062D01*
X144893528Y-124947797D01*
X144850736Y-124988949D01*
X144803645Y-124992003D01*
X144726443Y-124954369D01*
X144679706Y-124926341D01*
X144575151Y-124838178D01*
X144442070Y-124687597D01*
X144286843Y-124484161D01*
X144115855Y-124237434D01*
X143935485Y-123956980D01*
X143752118Y-123652361D01*
X143572134Y-123333142D01*
X143407530Y-123020000D01*
X143219685Y-122631608D01*
X143017508Y-122183297D01*
X142807822Y-121692302D01*
X142597453Y-121175855D01*
X142393225Y-120651188D01*
X142201963Y-120135537D01*
X142030492Y-119646133D01*
X141885636Y-119200209D01*
X141855117Y-119100000D01*
X141792065Y-118900202D01*
X141730086Y-118722058D01*
X141675623Y-118582931D01*
X141635122Y-118500186D01*
X141629572Y-118492315D01*
X141562738Y-118409198D01*
X141472246Y-118297979D01*
X141426638Y-118242315D01*
X141352576Y-118140930D01*
X141330769Y-118087530D01*
X141357873Y-118088361D01*
X141430546Y-118149665D01*
X141460000Y-118180000D01*
X141544213Y-118258566D01*
X141594216Y-118270409D01*
X141620895Y-118214878D01*
X141627922Y-118170000D01*
X141638288Y-118115831D01*
X141654624Y-118118267D01*
X141683652Y-118184827D01*
X141711709Y-118263722D01*
X141746018Y-118351268D01*
X141788948Y-118425853D01*
X141852624Y-118500271D01*
X141949165Y-118587315D01*
X142090696Y-118699781D01*
X142213378Y-118793196D01*
X142668976Y-119115948D01*
X143102883Y-119376588D01*
X143531456Y-119583380D01*
X143971053Y-119744585D01*
X144257049Y-119825448D01*
X144479081Y-119879359D01*
X144627336Y-119906973D01*
X144704620Y-119905114D01*
X144713742Y-119870605D01*
X144657510Y-119800270D01*
X144538732Y-119690932D01*
X144446085Y-119611603D01*
X144271906Y-119453492D01*
X144061929Y-119245632D01*
X143828805Y-119001932D01*
X143585184Y-118736305D01*
X143343717Y-118462664D01*
X143117053Y-118194918D01*
X142917843Y-117946980D01*
X142841949Y-117847483D01*
X142610475Y-117504060D01*
X142375186Y-117090826D01*
X142140204Y-116617575D01*
X141909652Y-116094102D01*
X141687651Y-115530200D01*
X141478325Y-114935665D01*
X141285796Y-114320289D01*
X141146751Y-113820000D01*
X141086073Y-113611960D01*
X141020112Y-113424294D01*
X140957222Y-113279510D01*
X140925692Y-113224418D01*
X140858091Y-113107483D01*
X140825813Y-113015991D01*
X140828510Y-112961876D01*
X140865834Y-112957072D01*
X140931999Y-113007999D01*
X140968377Y-113027431D01*
X140982921Y-112978673D01*
X140984134Y-112957999D01*
X140990410Y-112909160D01*
X141005116Y-112930298D01*
X141026694Y-113004025D01*
X141086731Y-113122250D01*
X141205425Y-113268967D01*
X141371243Y-113434289D01*
X141572651Y-113608328D01*
X141798114Y-113781198D01*
X142036097Y-113943009D01*
X142275067Y-114083875D01*
X142304974Y-114099802D01*
X142522578Y-114205091D01*
X142724374Y-114279227D01*
X142930625Y-114325865D01*
X143161593Y-114348662D01*
X143437540Y-114351271D01*
X143656479Y-114343601D01*
X143864521Y-114332540D01*
X144044315Y-114320423D01*
X144180574Y-114308476D01*
X144258015Y-114297924D01*
X144268867Y-114294519D01*
X144259089Y-114265872D01*
X144193049Y-114218898D01*
X144147505Y-114194514D01*
X144018726Y-114109499D01*
X143849866Y-113963835D01*
X143646175Y-113762798D01*
X143412898Y-113511659D01*
X143155285Y-113215692D01*
X143058273Y-113100000D01*
X142729633Y-112685273D01*
X142458728Y-112298282D01*
X142236417Y-111922860D01*
X142053555Y-111542843D01*
X141901000Y-111142065D01*
X141836586Y-110940000D01*
X141761159Y-110621465D01*
X141715758Y-110279599D01*
X141701619Y-109939343D01*
X141719980Y-109625638D01*
X141760433Y-109404644D01*
X141825482Y-109196011D01*
X141922371Y-108937019D01*
X142043071Y-108646664D01*
X142179550Y-108343944D01*
X142323780Y-108047858D01*
X142379494Y-107940000D01*
X142573554Y-107570135D01*
X142733723Y-107262552D01*
X142863964Y-107009055D01*
X142968242Y-106801449D01*
X143050521Y-106631539D01*
X143114765Y-106491129D01*
X143164938Y-106372024D01*
X143205004Y-106266029D01*
X143238927Y-106164948D01*
X143240494Y-106160000D01*
X143288342Y-105976369D01*
X143324233Y-105775605D01*
X143346816Y-105575991D01*
X143354742Y-105395813D01*
X143346662Y-105253356D01*
X143321227Y-105166906D01*
X143314413Y-105158413D01*
X143273837Y-105169840D01*
X143200275Y-105239632D01*
X143103386Y-105358469D01*
X143093927Y-105371150D01*
X142986300Y-105505712D01*
X142830648Y-105685669D01*
X142636618Y-105900971D01*
X142413856Y-106141568D01*
X142172009Y-106397412D01*
X141920722Y-106658452D01*
X141669643Y-106914640D01*
X141428418Y-107155926D01*
X141206693Y-107372261D01*
X141014115Y-107553594D01*
X140904768Y-107651751D01*
X140691453Y-107835795D01*
X140444521Y-108045606D01*
X140192759Y-108256897D01*
X139964955Y-108445378D01*
X139938407Y-108467097D01*
X139725418Y-108642514D01*
X139493659Y-108835777D01*
X139268361Y-109025709D01*
X139074751Y-109191134D01*
X139040000Y-109221195D01*
X138761516Y-109455512D01*
X138470469Y-109687232D01*
X138172990Y-109912597D01*
X137875213Y-110127848D01*
X137583268Y-110329226D01*
X137303288Y-110512972D01*
X137041405Y-110675329D01*
X136803750Y-110812537D01*
X136596457Y-110920838D01*
X136425656Y-110996473D01*
X136297480Y-111035684D01*
X136218061Y-111034712D01*
X136193531Y-110989798D01*
X136199221Y-110962453D01*
X136195232Y-110877518D01*
X136152104Y-110749189D01*
X136117978Y-110676011D01*
X136034893Y-110477518D01*
X135953574Y-110220413D01*
X135879522Y-109925997D01*
X135818237Y-109615570D01*
X135783328Y-109380000D01*
X135770576Y-109251119D01*
X135755494Y-109055158D01*
X135738868Y-108804976D01*
X135721485Y-108513431D01*
X135704128Y-108193383D01*
X135687583Y-107857691D01*
X135679508Y-107680000D01*
X135663605Y-107333904D01*
X135646608Y-106990213D01*
X135629308Y-106663141D01*
X135612495Y-106366902D01*
X135596961Y-106115710D01*
X135583496Y-105923781D01*
X135578275Y-105860000D01*
X135542634Y-105516182D01*
X135494016Y-105135987D01*
X135436011Y-104742229D01*
X135372210Y-104357725D01*
X135306204Y-104005291D01*
X135241584Y-103707743D01*
X135235773Y-103683673D01*
X135171741Y-103454160D01*
X135081474Y-103175127D01*
X134973377Y-102869167D01*
X134855854Y-102558873D01*
X134737307Y-102266836D01*
X134626141Y-102015650D01*
X134579641Y-101919734D01*
X134439548Y-101677968D01*
X134266863Y-101434890D01*
X134081774Y-101216685D01*
X133915953Y-101058824D01*
X133779935Y-100956853D01*
X133599374Y-100834823D01*
X133391212Y-100702818D01*
X133172390Y-100570922D01*
X132959851Y-100449220D01*
X132770535Y-100347795D01*
X132621384Y-100276732D01*
X132566268Y-100255439D01*
X132318442Y-100210748D01*
X132035198Y-100222393D01*
X131731611Y-100284652D01*
X131422753Y-100391806D01*
X131123698Y-100538135D01*
X130849518Y-100717919D01*
X130615287Y-100925439D01*
X130523554Y-101030589D01*
X130311171Y-101356255D01*
X130145807Y-101730639D01*
X130034277Y-102133295D01*
X129983396Y-102543775D01*
X129980949Y-102658403D01*
X129985348Y-102825498D01*
X130001032Y-102973681D01*
X130033154Y-103115257D01*
X130086866Y-103262533D01*
X130167321Y-103427816D01*
X130279672Y-103623412D01*
X130429072Y-103861628D01*
X130584552Y-104100000D01*
X130731695Y-104323606D01*
X130877840Y-104546025D01*
X131011757Y-104750142D01*
X131122217Y-104918844D01*
X131188229Y-105020000D01*
X131317636Y-105207251D01*
X131490580Y-105439988D01*
X131699290Y-105709052D01*
X131935995Y-106005283D01*
X132192927Y-106319520D01*
X132462315Y-106642604D01*
X132736389Y-106965374D01*
X133007380Y-107278672D01*
X133267518Y-107573337D01*
X133509032Y-107840209D01*
X133724153Y-108070128D01*
X133905111Y-108253935D01*
X134030580Y-108370836D01*
X134316332Y-108605663D01*
X134628735Y-108839623D01*
X134944144Y-109056084D01*
X135238913Y-109238410D01*
X135357954Y-109304585D01*
X135538040Y-109407090D01*
X135644703Y-109484932D01*
X135679783Y-109540569D01*
X135645117Y-109576458D01*
X135573056Y-109592064D01*
X135473529Y-109576371D01*
X135322990Y-109516993D01*
X135132473Y-109420744D01*
X134913012Y-109294441D01*
X134675643Y-109144898D01*
X134431398Y-108978931D01*
X134191312Y-108803354D01*
X133966420Y-108624982D01*
X133859550Y-108533744D01*
X133649754Y-108338075D01*
X133401422Y-108087205D01*
X133123162Y-107790566D01*
X132823584Y-107457590D01*
X132511297Y-107097707D01*
X132194911Y-106720349D01*
X132112602Y-106620000D01*
X131952752Y-106425068D01*
X131776397Y-106211402D01*
X131607821Y-106008358D01*
X131500507Y-105880000D01*
X131397554Y-105749198D01*
X131264054Y-105567196D01*
X131107346Y-105345128D01*
X130934768Y-105094129D01*
X130753660Y-104825332D01*
X130571359Y-104549872D01*
X130395205Y-104278883D01*
X130232537Y-104023499D01*
X130090693Y-103794854D01*
X129977012Y-103604083D01*
X129898833Y-103462320D01*
X129876731Y-103416445D01*
X129764565Y-103068850D01*
X129724305Y-102694226D01*
X129755967Y-102290088D01*
X129859566Y-101853949D01*
X129887487Y-101766949D01*
X130066173Y-101342099D01*
X130300296Y-100974250D01*
X130590916Y-100662424D01*
X130939093Y-100405644D01*
X131345886Y-100202933D01*
X131720646Y-100077273D01*
X131951048Y-100024133D01*
X132161773Y-100001004D01*
X132365047Y-100011246D01*
X132573095Y-100058217D01*
X132798142Y-100145278D01*
X133052415Y-100275786D01*
X133348137Y-100453100D01*
X133541849Y-100577654D01*
X133870071Y-100812304D01*
X134148071Y-101058454D01*
X134387349Y-101330513D01*
X134599402Y-101642888D01*
X134795729Y-102009988D01*
X134938797Y-102328060D01*
X135088560Y-102699009D01*
X135220189Y-103064053D01*
X135335030Y-103431442D01*
X135434426Y-103809423D01*
X135519723Y-104206245D01*
X135592264Y-104630157D01*
X135653394Y-105089408D01*
X135704458Y-105592245D01*
X135746800Y-106146919D01*
X135781765Y-106761677D01*
X135810696Y-107444769D01*
X135820914Y-107740000D01*
X135841259Y-108278141D01*
X135865091Y-108744442D01*
X135893228Y-109147018D01*
X135926493Y-109493985D01*
X135965702Y-109793457D01*
X136011678Y-110053550D01*
X136065239Y-110282379D01*
X136084863Y-110352911D01*
X136137448Y-110539532D01*
X136179594Y-110676610D01*
X136222083Y-110765592D01*
X136275699Y-110807928D01*
X136351225Y-110805067D01*
X136459443Y-110758458D01*
X136611137Y-110669549D01*
X136817089Y-110539790D01*
X136932891Y-110466861D01*
X137612806Y-110022331D01*
X138243848Y-109568838D01*
X138856072Y-109084364D01*
X139100000Y-108879041D01*
X139309571Y-108701856D01*
X139560308Y-108493150D01*
X139830468Y-108270825D01*
X140098309Y-108052784D01*
X140320000Y-107874536D01*
X140554037Y-107683896D01*
X140796846Y-107479322D01*
X141030455Y-107276427D01*
X141236893Y-107090824D01*
X141398187Y-106938125D01*
X141400371Y-106935967D01*
X141570764Y-106764296D01*
X141765457Y-106562917D01*
X141974814Y-106342312D01*
X142189195Y-106112962D01*
X142398964Y-105885348D01*
X142594482Y-105669950D01*
X142766112Y-105477249D01*
X142904216Y-105317727D01*
X142999155Y-105201865D01*
X143018173Y-105176646D01*
X143120694Y-105018427D01*
X143200860Y-104861327D01*
X143251028Y-104723831D01*
X143263558Y-104624426D01*
X143256572Y-104599936D01*
X143227126Y-104540030D01*
X143172923Y-104425573D01*
X143102519Y-104274745D01*
X143046428Y-104153458D01*
X142729546Y-103558914D01*
X142341485Y-102994060D01*
X142288426Y-102926228D01*
X142185369Y-102807765D01*
X142030449Y-102645074D01*
X141832241Y-102446347D01*
X141599318Y-102219773D01*
X141340252Y-101973543D01*
X141063617Y-101715847D01*
X140777987Y-101454875D01*
X140491934Y-101198818D01*
X140344562Y-101069191D01*
X140155167Y-100900553D01*
X139930230Y-100695304D01*
X139691028Y-100473149D01*
X139458839Y-100253793D01*
X139320000Y-100120343D01*
X138778177Y-99612323D01*
X138242679Y-99144053D01*
X137718664Y-98719118D01*
X137211289Y-98341106D01*
X136725714Y-98013604D01*
X136267096Y-97740197D01*
X135840595Y-97524474D01*
X135451369Y-97370020D01*
X135297679Y-97323587D01*
X135000985Y-97255403D01*
X134691718Y-97205111D01*
X134394985Y-97175626D01*
X134135888Y-97169865D01*
X134031250Y-97176486D01*
X133814216Y-97204649D01*
X133543363Y-97248728D01*
X133242203Y-97304135D01*
X132934243Y-97366282D01*
X132642995Y-97430583D01*
X132391968Y-97492448D01*
X132340000Y-97506512D01*
X132163817Y-97561579D01*
X131939783Y-97640908D01*
X131692686Y-97735240D01*
X131447315Y-97835321D01*
X131365448Y-97870422D01*
X131117408Y-97975977D01*
X130920605Y-98052807D01*
X130754439Y-98107399D01*
X130598315Y-98146242D01*
X130431634Y-98175823D01*
X130365448Y-98185402D01*
X130163189Y-98218218D01*
X129962461Y-98258807D01*
X129794777Y-98300496D01*
X129735821Y-98318751D01*
X129605019Y-98360332D01*
X129422474Y-98413879D01*
X129214057Y-98471973D01*
X129037750Y-98518904D01*
X128679508Y-98618274D01*
X128333768Y-98728501D01*
X127981467Y-98856629D01*
X127603541Y-99009702D01*
X127180926Y-99194761D01*
X127060000Y-99249613D01*
X126696678Y-99415722D01*
X126396168Y-99554069D01*
X126148326Y-99669712D01*
X125943006Y-99767710D01*
X125770064Y-99853121D01*
X125619355Y-99931005D01*
X125480735Y-100006420D01*
X125344057Y-100084426D01*
X125199179Y-100170081D01*
X125126111Y-100213971D01*
X124733489Y-100444284D01*
X124374346Y-100639430D01*
X124034109Y-100804607D01*
X123698207Y-100945011D01*
X123352068Y-101065838D01*
X122981118Y-101172285D01*
X122570786Y-101269549D01*
X122106500Y-101362826D01*
X121700000Y-101435730D01*
X121397453Y-101483704D01*
X121035776Y-101534045D01*
X120626859Y-101585619D01*
X120182595Y-101637289D01*
X119714876Y-101687920D01*
X119235593Y-101736376D01*
X118756638Y-101781522D01*
X118289904Y-101822221D01*
X117847283Y-101857339D01*
X117440665Y-101885739D01*
X117081944Y-101906286D01*
X116783011Y-101917844D01*
X116629107Y-101919999D01*
X116344691Y-101913353D01*
X116008000Y-101894822D01*
X115641055Y-101866520D01*
X115265880Y-101830557D01*
X114904497Y-101789046D01*
X114578928Y-101744100D01*
X114311196Y-101697831D01*
X114309762Y-101697544D01*
X113925402Y-101609021D01*
X113524910Y-101496241D01*
X113137444Y-101368317D01*
X112792161Y-101234363D01*
X112704115Y-101195704D01*
X112495465Y-101117921D01*
X112243237Y-101055559D01*
X111940614Y-101007824D01*
X111580780Y-100973925D01*
X111156918Y-100953069D01*
X110662210Y-100944463D01*
X110540000Y-100944134D01*
X109792702Y-100961479D01*
X109112067Y-101014970D01*
X108492684Y-101106035D01*
X107929142Y-101236101D01*
X107416030Y-101406597D01*
X106947936Y-101618950D01*
X106519449Y-101874587D01*
X106242713Y-102078032D01*
X105932584Y-102347954D01*
X105607808Y-102671708D01*
X105280306Y-103034351D01*
X104961998Y-103420939D01*
X104664807Y-103816529D01*
X104400652Y-104206175D01*
X104181455Y-104574936D01*
X104060994Y-104812978D01*
X103963567Y-105036329D01*
X103879948Y-105258675D01*
X103808114Y-105490308D01*
X103746044Y-105741523D01*
X103691714Y-106022614D01*
X103643101Y-106343874D01*
X103598183Y-106715597D01*
X103554937Y-107148077D01*
X103517244Y-107580000D01*
X103474732Y-108069481D01*
X103432640Y-108493476D01*
X103387858Y-108866421D01*
X103337276Y-109202750D01*
X103277784Y-109516900D01*
X103206270Y-109823306D01*
X103119626Y-110136404D01*
X103014740Y-110470630D01*
X102888503Y-110840419D01*
X102737804Y-111260206D01*
X102704953Y-111350075D01*
X102618349Y-111589485D01*
X102539923Y-111811933D01*
X102474517Y-112003238D01*
X102426973Y-112149215D01*
X102402131Y-112235682D01*
X102401186Y-112240000D01*
X102341337Y-112420695D01*
X102251936Y-112527054D01*
X102132597Y-112559235D01*
X101982935Y-112517395D01*
X101875581Y-112454914D01*
X101676879Y-112308014D01*
X101436316Y-112109446D01*
X101163575Y-111868722D01*
X100868338Y-111595355D01*
X100560288Y-111298858D01*
X100249108Y-110988745D01*
X99944480Y-110674529D01*
X99656088Y-110365723D01*
X99393613Y-110071839D01*
X99166738Y-109802392D01*
X99132645Y-109760000D01*
X98951196Y-109535265D01*
X98753565Y-109294890D01*
X98558110Y-109060928D01*
X98383190Y-108855430D01*
X98300162Y-108760000D01*
X97694037Y-108024849D01*
X97123588Y-107235533D01*
X97068065Y-107153088D01*
X96957195Y-106990082D01*
X96859701Y-106851667D01*
X96785357Y-106751374D01*
X96743935Y-106702737D01*
X96741569Y-106700969D01*
X96725926Y-106703117D01*
X96717770Y-106738502D01*
X96717606Y-106814904D01*
X96725939Y-106940102D01*
X96743274Y-107121876D01*
X96770116Y-107368006D01*
X96803739Y-107658805D01*
X96839671Y-108076055D01*
X96858074Y-108548660D01*
X96859539Y-109054052D01*
X96844653Y-109569666D01*
X96814005Y-110072934D01*
X96768184Y-110541289D01*
X96719639Y-110883826D01*
X96656166Y-111174697D01*
X96556094Y-111520516D01*
X96424974Y-111908236D01*
X96268357Y-112324810D01*
X96091793Y-112757190D01*
X95900832Y-113192328D01*
X95701026Y-113617177D01*
X95497924Y-114018690D01*
X95297077Y-114383819D01*
X95104036Y-114699516D01*
X95082503Y-114732190D01*
X94860282Y-115054143D01*
X94609190Y-115396662D01*
X94336931Y-115750768D01*
X94051211Y-116107484D01*
X93759734Y-116457831D01*
X93470204Y-116792830D01*
X93190326Y-117103502D01*
X92927804Y-117380870D01*
X92690343Y-117615954D01*
X92485648Y-117799777D01*
X92376697Y-117885430D01*
X92254941Y-117975230D01*
X92189102Y-118031962D01*
X92170389Y-118069594D01*
X92190007Y-118102093D01*
X92222736Y-118130000D01*
X92296006Y-118171879D01*
X92395059Y-118192961D01*
X92531200Y-118192820D01*
X92715735Y-118171027D01*
X92959969Y-118127156D01*
X93109363Y-118096522D01*
X93562497Y-117990739D01*
X93949061Y-117877371D01*
X94282429Y-117751804D01*
X94575975Y-117609428D01*
X94660000Y-117561733D01*
X94870903Y-117444835D01*
X95020648Y-117378213D01*
X95110068Y-117361580D01*
X95139998Y-117394645D01*
X95140000Y-117395102D01*
X95112633Y-117447232D01*
X95080000Y-117479999D01*
X95029173Y-117548016D01*
X95019999Y-117584738D01*
X95000642Y-117693606D01*
X94946323Y-117859297D01*
X94862675Y-118069695D01*
X94755327Y-118312686D01*
X94629911Y-118576156D01*
X94492059Y-118847989D01*
X94347400Y-119116071D01*
X94201567Y-119368288D01*
X94157081Y-119441229D01*
X93876642Y-119872995D01*
X93592508Y-120263154D01*
X93291844Y-120625874D01*
X92961818Y-120975322D01*
X92589597Y-121325665D01*
X92162345Y-121691072D01*
X91998123Y-121824589D01*
X91749014Y-122023482D01*
X91555369Y-122174619D01*
X91411580Y-122281917D01*
X91312042Y-122349298D01*
X91251148Y-122380681D01*
X91223292Y-122379986D01*
X91219999Y-122368607D01*
X91251566Y-122301265D01*
X91343324Y-122191068D01*
X91490861Y-122042344D01*
X91689766Y-121859420D01*
X91935626Y-121646626D01*
X92072464Y-121532299D01*
X92464076Y-121198578D01*
X92802647Y-120885756D01*
X93102459Y-120577428D01*
X93377794Y-120257192D01*
X93642934Y-119908644D01*
X93912159Y-119515381D01*
X94140137Y-119157458D01*
X94247623Y-118978799D01*
X94364301Y-118775281D01*
X94484194Y-118558457D01*
X94601321Y-118339877D01*
X94709702Y-118131093D01*
X94803359Y-117943657D01*
X94876312Y-117789119D01*
X94922581Y-117679033D01*
X94936187Y-117624948D01*
X94934851Y-117622182D01*
X94896164Y-117634421D01*
X94807732Y-117679815D01*
X94687582Y-117749009D01*
X94669411Y-117759968D01*
X94428807Y-117882856D01*
X94118951Y-118003629D01*
X93750577Y-118118705D01*
X93334419Y-118224499D01*
X93169852Y-118260705D01*
X92884856Y-118316608D01*
X92662979Y-118348718D01*
X92490955Y-118357006D01*
X92355513Y-118341443D01*
X92243387Y-118302001D01*
X92169285Y-118258557D01*
X92079445Y-118190640D01*
X92026241Y-118137144D01*
X92019999Y-118123223D01*
X91986730Y-118087056D01*
X91939999Y-118068410D01*
X91875101Y-118034266D01*
X91859999Y-118006314D01*
X91889129Y-117964549D01*
X91967278Y-117886630D01*
X92080588Y-117785864D01*
X92149999Y-117727875D01*
X92287811Y-117608519D01*
X92459927Y-117449624D01*
X92646214Y-117270271D01*
X92826537Y-117089542D01*
X92860000Y-117055028D01*
X93046412Y-116853870D01*
X93267166Y-116602881D01*
X93511547Y-116315342D01*
X93768840Y-116004530D01*
X94028332Y-115683724D01*
X94279308Y-115366202D01*
X94511054Y-115065244D01*
X94712856Y-114794127D01*
X94873999Y-114566130D01*
X94902665Y-114523476D01*
X95091356Y-114219081D01*
X95290127Y-113862138D01*
X95492774Y-113466787D01*
X95693094Y-113047166D01*
X95884885Y-112617416D01*
X96061943Y-112191676D01*
X96218065Y-111784085D01*
X96347049Y-111408784D01*
X96442690Y-111079912D01*
X96476216Y-110936605D01*
X96521896Y-110669810D01*
X96562091Y-110341406D01*
X96595896Y-109969652D01*
X96622408Y-109572807D01*
X96640722Y-109169130D01*
X96649934Y-108776882D01*
X96649140Y-108414321D01*
X96637434Y-108099706D01*
X96624638Y-107940000D01*
X96604885Y-107722735D01*
X96584843Y-107459242D01*
X96566891Y-107183249D01*
X96553735Y-106935678D01*
X96528091Y-106371357D01*
X96232603Y-106015678D01*
X96112831Y-105866801D01*
X96012518Y-105733285D01*
X95943044Y-105630849D01*
X95916469Y-105578954D01*
X95916095Y-105501615D01*
X95925027Y-105433495D01*
X96128411Y-105433495D01*
X96274575Y-105632609D01*
X96360508Y-105741550D01*
X96435062Y-105822026D01*
X96474740Y-105852446D01*
X96514055Y-105895212D01*
X96577369Y-105994218D01*
X96654861Y-106133204D01*
X96712780Y-106246584D01*
X96849894Y-106496472D01*
X97035074Y-106791144D01*
X97259693Y-107118939D01*
X97515122Y-107468199D01*
X97792733Y-107827263D01*
X98083900Y-108184472D01*
X98379995Y-108528165D01*
X98498567Y-108660000D01*
X98645023Y-108825923D01*
X98820371Y-109032710D01*
X99005420Y-109257288D01*
X99180978Y-109476584D01*
X99230561Y-109540000D01*
X99454256Y-109812842D01*
X99727857Y-110121964D01*
X100038352Y-110454237D01*
X100372729Y-110796529D01*
X100717977Y-111135709D01*
X101061084Y-111458649D01*
X101389039Y-111752217D01*
X101599831Y-111930904D01*
X101779789Y-112077143D01*
X101938906Y-112202346D01*
X102066934Y-112298784D01*
X102153628Y-112358725D01*
X102188282Y-112374881D01*
X102212899Y-112327375D01*
X102237339Y-112232488D01*
X102241645Y-112208596D01*
X102281018Y-112011983D01*
X102340161Y-111765734D01*
X102412137Y-111495622D01*
X102490012Y-111227422D01*
X102566848Y-110986909D01*
X102583019Y-110940000D01*
X102707995Y-110573817D01*
X102814856Y-110236206D01*
X102905812Y-109915092D01*
X102983075Y-109598405D01*
X103048855Y-109274071D01*
X103105363Y-108930018D01*
X103154809Y-108554175D01*
X103199404Y-108134467D01*
X103241359Y-107658823D01*
X103282535Y-107120000D01*
X103342143Y-106506415D01*
X103430676Y-105954881D01*
X103553646Y-105450951D01*
X103716564Y-104980180D01*
X103924942Y-104528122D01*
X104184290Y-104080331D01*
X104500120Y-103622360D01*
X104732249Y-103320000D01*
X105213633Y-102755434D01*
X105697996Y-102270316D01*
X106185994Y-101864125D01*
X106678283Y-101536342D01*
X107175519Y-101286447D01*
X107416846Y-101193767D01*
X107770611Y-101089577D01*
X108186912Y-100997555D01*
X108648954Y-100919571D01*
X109139936Y-100857494D01*
X109643063Y-100813196D01*
X110141535Y-100788547D01*
X110618556Y-100785418D01*
X110962346Y-100798955D01*
X111400085Y-100834588D01*
X111844915Y-100885479D01*
X112279479Y-100948813D01*
X112686420Y-101021774D01*
X113048382Y-101101545D01*
X113348008Y-101185310D01*
X113352536Y-101186776D01*
X113499338Y-101230859D01*
X113615504Y-101259042D01*
X113681613Y-101266845D01*
X113688945Y-101264387D01*
X113696273Y-101205540D01*
X113667217Y-101094317D01*
X113607626Y-100946288D01*
X113523353Y-100777018D01*
X113471009Y-100684570D01*
X113250529Y-100374448D01*
X112963702Y-100069620D01*
X112624001Y-99780706D01*
X112244903Y-99518328D01*
X111839883Y-99293107D01*
X111533792Y-99157553D01*
X111345272Y-99092373D01*
X111095361Y-99019540D01*
X110801753Y-98943467D01*
X110482140Y-98868564D01*
X110154217Y-98799243D01*
X109913211Y-98753523D01*
X109742302Y-98724409D01*
X109585923Y-98702140D01*
X109429332Y-98685866D01*
X109257786Y-98674737D01*
X109056543Y-98667902D01*
X108810859Y-98664511D01*
X108505994Y-98663715D01*
X108360000Y-98663941D01*
X107864325Y-98670884D01*
X107328492Y-98688773D01*
X106766477Y-98716477D01*
X106192260Y-98752867D01*
X105619819Y-98796816D01*
X105063133Y-98847193D01*
X104536180Y-98902869D01*
X104052939Y-98962715D01*
X103627388Y-99025602D01*
X103407183Y-99064020D01*
X102658839Y-99231291D01*
X101958065Y-99443051D01*
X101310698Y-99696952D01*
X100722574Y-99990646D01*
X100199531Y-100321783D01*
X100099778Y-100394903D01*
X99812101Y-100626114D01*
X99484525Y-100915969D01*
X99123591Y-101257967D01*
X98735838Y-101645610D01*
X98327805Y-102072398D01*
X97906032Y-102531834D01*
X97580800Y-102898290D01*
X97287950Y-103238691D01*
X97045608Y-103534804D01*
X96846712Y-103797891D01*
X96684203Y-104039215D01*
X96551019Y-104270038D01*
X96440099Y-104501621D01*
X96344383Y-104745228D01*
X96257998Y-105008218D01*
X96128411Y-105433495D01*
X95925027Y-105433495D01*
X95933737Y-105367073D01*
X95965308Y-105195012D01*
X96006721Y-105005114D01*
X96053889Y-104817062D01*
X96102725Y-104650540D01*
X96119674Y-104600366D01*
X96206594Y-104386812D01*
X96321431Y-104162809D01*
X96468550Y-103922548D01*
X96652315Y-103660221D01*
X96877091Y-103370018D01*
X97147243Y-103046132D01*
X97467134Y-102682753D01*
X97841129Y-102274072D01*
X97976824Y-102128639D01*
X98389025Y-101692808D01*
X98757418Y-101313197D01*
X99088952Y-100984189D01*
X99390576Y-100700164D01*
X99669237Y-100455505D01*
X99931885Y-100244595D01*
X100185466Y-100061815D01*
X100436929Y-99901547D01*
X100693223Y-99758174D01*
X100961295Y-99626077D01*
X101206670Y-99517160D01*
X101539898Y-99382276D01*
X101875455Y-99261529D01*
X102221083Y-99153484D01*
X102584529Y-99056703D01*
X102973535Y-98969749D01*
X103395847Y-98891187D01*
X103859208Y-98819579D01*
X104371363Y-98753488D01*
X104940056Y-98691478D01*
X105573032Y-98632112D01*
X106278034Y-98573954D01*
X106300000Y-98572242D01*
X106719155Y-98544163D01*
X107160300Y-98522813D01*
X107611287Y-98508188D01*
X108059968Y-98500287D01*
X108494195Y-98499108D01*
X108901820Y-98504648D01*
X109270695Y-98516907D01*
X109588674Y-98535880D01*
X109843607Y-98561568D01*
X109920000Y-98572852D01*
X110465054Y-98671736D01*
X110941061Y-98778115D01*
X111358908Y-98896274D01*
X111729483Y-99030499D01*
X112063674Y-99185075D01*
X112372368Y-99364287D01*
X112666453Y-99572422D01*
X112860991Y-99730400D01*
X113172003Y-100028602D01*
X113424558Y-100341095D01*
X113613006Y-100659116D01*
X113731699Y-100973903D01*
X113763556Y-101130395D01*
X113782708Y-101241694D01*
X113814363Y-101305029D01*
X113880382Y-101343942D01*
X113995205Y-101379833D01*
X114242193Y-101440127D01*
X114551931Y-101498347D01*
X114907174Y-101552013D01*
X115290674Y-101598644D01*
X115685184Y-101635759D01*
X115866849Y-101649036D01*
X116196256Y-101665144D01*
X116548135Y-101670859D01*
X116930168Y-101665769D01*
X117350036Y-101649463D01*
X117815420Y-101621530D01*
X118334003Y-101581559D01*
X118913466Y-101529140D01*
X119561490Y-101463860D01*
X119800000Y-101438533D01*
X120210884Y-101394331D01*
X120552425Y-101357254D01*
X120834825Y-101325933D01*
X121068287Y-101299000D01*
X121263016Y-101275086D01*
X121429213Y-101252822D01*
X121577084Y-101230839D01*
X121716831Y-101207768D01*
X121858658Y-101182241D01*
X122012769Y-101152888D01*
X122189366Y-101118341D01*
X122195035Y-101117227D01*
X122783249Y-100986647D01*
X123314765Y-100834717D01*
X123811823Y-100653066D01*
X124296663Y-100433323D01*
X124791526Y-100167120D01*
X124921227Y-100091253D01*
X125106927Y-99983282D01*
X125307158Y-99870635D01*
X125508700Y-99760316D01*
X125698334Y-99659328D01*
X125862841Y-99574674D01*
X125989002Y-99513356D01*
X126063597Y-99482378D01*
X126075064Y-99480000D01*
X126115709Y-99464169D01*
X126217682Y-99420048D01*
X126369587Y-99352693D01*
X126560034Y-99267162D01*
X126777630Y-99168510D01*
X126807146Y-99155063D01*
X127443978Y-98878353D01*
X128035703Y-98649033D01*
X128576789Y-98469147D01*
X128920000Y-98374349D01*
X129135720Y-98318347D01*
X129366402Y-98255030D01*
X129573053Y-98195202D01*
X129637234Y-98175610D01*
X129826705Y-98126251D01*
X130055889Y-98080651D01*
X130284595Y-98046460D01*
X130357234Y-98038591D01*
X130540118Y-98013756D01*
X130741246Y-97974213D01*
X130945539Y-97924463D01*
X131137918Y-97869010D01*
X131303307Y-97812356D01*
X131426625Y-97759004D01*
X131492796Y-97713456D01*
X131499925Y-97697365D01*
X131537099Y-97644675D01*
X131641440Y-97578173D01*
X131802408Y-97503059D01*
X132009460Y-97424536D01*
X132140000Y-97381517D01*
X132368800Y-97317185D01*
X132649334Y-97249702D01*
X132959959Y-97183239D01*
X133279032Y-97121961D01*
X133584911Y-97070039D01*
X133855954Y-97031639D01*
X134061269Y-97011494D01*
X134343899Y-97011219D01*
X134669262Y-97039368D01*
G37*
D12*
%TO.C,D20*%
X148600000Y-69050000D02*
X149400000Y-69050000D01*
X149000000Y-69050000D02*
X149000000Y-68550000D01*
X149000000Y-69650000D02*
X148450000Y-69650000D01*
X149000000Y-69650000D02*
X148600000Y-69050000D01*
X149000000Y-69650000D02*
X149550000Y-69650000D01*
X149000000Y-70050000D02*
X149000000Y-69650000D01*
X149400000Y-69050000D02*
X149000000Y-69650000D01*
%TO.C,D15*%
X129600000Y-71550000D02*
X130400000Y-71550000D01*
X130000000Y-71550000D02*
X130000000Y-71050000D01*
X130000000Y-72150000D02*
X129450000Y-72150000D01*
X130000000Y-72150000D02*
X129600000Y-71550000D01*
X130000000Y-72150000D02*
X130550000Y-72150000D01*
X130000000Y-72550000D02*
X130000000Y-72150000D01*
X130400000Y-71550000D02*
X130000000Y-72150000D01*
%TO.C,D28*%
X186600000Y-93100000D02*
X187400000Y-93100000D01*
X187000000Y-93100000D02*
X187000000Y-92600000D01*
X187000000Y-93700000D02*
X186450000Y-93700000D01*
X187000000Y-93700000D02*
X186600000Y-93100000D01*
X187000000Y-93700000D02*
X187550000Y-93700000D01*
X187000000Y-94100000D02*
X187000000Y-93700000D01*
X187400000Y-93100000D02*
X187000000Y-93700000D01*
%TO.C,D25*%
X167600000Y-71550000D02*
X168400000Y-71550000D01*
X168000000Y-71550000D02*
X168000000Y-71050000D01*
X168000000Y-72150000D02*
X167450000Y-72150000D01*
X168000000Y-72150000D02*
X167600000Y-71550000D01*
X168000000Y-72150000D02*
X168550000Y-72150000D01*
X168000000Y-72550000D02*
X168000000Y-72150000D01*
X168400000Y-71550000D02*
X168000000Y-72150000D01*
%TO.C,D29*%
X186600000Y-74050000D02*
X187400000Y-74050000D01*
X187000000Y-74050000D02*
X187000000Y-73550000D01*
X187000000Y-74650000D02*
X186450000Y-74650000D01*
X187000000Y-74650000D02*
X186600000Y-74050000D01*
X187000000Y-74650000D02*
X187550000Y-74650000D01*
X187000000Y-75050000D02*
X187000000Y-74650000D01*
X187400000Y-74050000D02*
X187000000Y-74650000D01*
%TO.C,D30*%
X188656832Y-150414068D02*
X189429573Y-150621123D01*
X188784384Y-151483521D02*
X188887911Y-151097151D01*
X188887911Y-151097151D02*
X188356652Y-150954801D01*
X188887911Y-151097151D02*
X188656832Y-150414068D01*
X188887911Y-151097151D02*
X189419172Y-151239502D01*
X189043203Y-150517596D02*
X189172612Y-150034633D01*
X189429573Y-150621123D02*
X188887911Y-151097151D01*
%TO.C,D14*%
X129600000Y-90600000D02*
X130400000Y-90600000D01*
X130000000Y-90600000D02*
X130000000Y-90100000D01*
X130000000Y-91200000D02*
X129450000Y-91200000D01*
X130000000Y-91200000D02*
X129600000Y-90600000D01*
X130000000Y-91200000D02*
X130550000Y-91200000D01*
X130000000Y-91600000D02*
X130000000Y-91200000D01*
X130400000Y-90600000D02*
X130000000Y-91200000D01*
%TO.C,D12*%
X129600000Y-128700000D02*
X130400000Y-128700000D01*
X130000000Y-128700000D02*
X130000000Y-128200000D01*
X130000000Y-129300000D02*
X129450000Y-129300000D01*
X130000000Y-129300000D02*
X129600000Y-128700000D01*
X130000000Y-129300000D02*
X130550000Y-129300000D01*
X130000000Y-129700000D02*
X130000000Y-129300000D01*
X130400000Y-128700000D02*
X130000000Y-129300000D01*
%TO.C,D32*%
X207351778Y-135701352D02*
X208124519Y-135908407D01*
X207479330Y-136770805D02*
X207582857Y-136384435D01*
X207582857Y-136384435D02*
X207051598Y-136242085D01*
X207582857Y-136384435D02*
X207351778Y-135701352D01*
X207582857Y-136384435D02*
X208114118Y-136526786D01*
X207738149Y-135804880D02*
X207867558Y-135321917D01*
X208124519Y-135908407D02*
X207582857Y-136384435D01*
%TO.C,D9*%
X110600000Y-97600000D02*
X111400000Y-97600000D01*
X111000000Y-97600000D02*
X111000000Y-97100000D01*
X111000000Y-98200000D02*
X110450000Y-98200000D01*
X111000000Y-98200000D02*
X110600000Y-97600000D01*
X111000000Y-98200000D02*
X111550000Y-98200000D01*
X111000000Y-98600000D02*
X111000000Y-98200000D01*
X111400000Y-97600000D02*
X111000000Y-98200000D01*
D13*
%TO.C,LED9*%
X134200000Y-71800000D02*
X134200000Y-73400000D01*
X134200000Y-73400000D02*
X135800000Y-73400000D01*
%TO.C,LED11*%
X153200000Y-107400000D02*
X153200000Y-109000000D01*
X153200000Y-109000000D02*
X154800000Y-109000000D01*
%TO.C,LED5*%
X115200000Y-116900000D02*
X115200000Y-118500000D01*
X115200000Y-118500000D02*
X116800000Y-118500000D01*
%TO.C,LED26*%
X160800000Y-124850000D02*
X159200000Y-124850000D01*
X160800000Y-126450000D02*
X160800000Y-124850000D01*
%TO.C,LED22*%
X122800000Y-134350000D02*
X121200000Y-134350000D01*
X122800000Y-135950000D02*
X122800000Y-134350000D01*
%TO.C,LED1*%
X96200000Y-155000000D02*
X96200000Y-156600000D01*
X96200000Y-156600000D02*
X97800000Y-156600000D01*
%TO.C,LED20*%
X103800000Y-134350000D02*
X102200000Y-134350000D01*
X103800000Y-135950000D02*
X103800000Y-134350000D01*
%TO.C,LED14*%
X172200000Y-109900000D02*
X172200000Y-111500000D01*
X172200000Y-111500000D02*
X173800000Y-111500000D01*
%TO.C,LED17*%
X191200000Y-74300000D02*
X191200000Y-75900000D01*
X191200000Y-75900000D02*
X192800000Y-75900000D01*
%TO.C,LED25*%
X141800000Y-89250000D02*
X140200000Y-89250000D01*
X141800000Y-90850000D02*
X141800000Y-89250000D01*
%TO.C,LED2*%
X96200000Y-116900000D02*
X96200000Y-118500000D01*
X96200000Y-118500000D02*
X97800000Y-118500000D01*
%TO.C,LED16*%
X191200000Y-112400000D02*
X191200000Y-114000000D01*
X191200000Y-114000000D02*
X192800000Y-114000000D01*
%TO.C,LED6*%
X115200000Y-78800000D02*
X115200000Y-80400000D01*
X115200000Y-80400000D02*
X116800000Y-80400000D01*
%TO.C,LED18*%
X192621276Y-153391598D02*
X194166758Y-153805708D01*
X193035387Y-151846117D02*
X192621276Y-153391598D01*
%TO.C,LED30*%
X198800000Y-129850000D02*
X197200000Y-129850000D01*
X198800000Y-131450000D02*
X198800000Y-129850000D01*
%TO.C,LED12*%
X153200000Y-69300000D02*
X153200000Y-70900000D01*
X153200000Y-70900000D02*
X154800000Y-70900000D01*
%TO.C,LED29*%
X179800000Y-89250000D02*
X178200000Y-89250000D01*
X179800000Y-90850000D02*
X179800000Y-89250000D01*
%TO.C,LED19*%
X210973867Y-158309160D02*
X212519349Y-158723270D01*
X211387978Y-156763679D02*
X210973867Y-158309160D01*
%TO.C,LED15*%
X172200000Y-71800000D02*
X172200000Y-73400000D01*
X172200000Y-73400000D02*
X173800000Y-73400000D01*
%TO.C,LED24*%
X141800000Y-127350000D02*
X140200000Y-127350000D01*
X141800000Y-128950000D02*
X141800000Y-127350000D01*
%TO.C,LED32*%
X219071369Y-139100426D02*
X219485480Y-137554945D01*
X219485480Y-137554945D02*
X217939998Y-137140835D01*
%TO.C,LED23*%
X122800000Y-96250000D02*
X121200000Y-96250000D01*
X122800000Y-97850000D02*
X122800000Y-96250000D01*
%TO.C,LED4*%
X115200000Y-155000000D02*
X115200000Y-156600000D01*
X115200000Y-156600000D02*
X116800000Y-156600000D01*
%TO.C,LED10*%
X153200000Y-145500000D02*
X153200000Y-147100000D01*
X153200000Y-147100000D02*
X154800000Y-147100000D01*
%TO.C,LED8*%
X134200000Y-109900000D02*
X134200000Y-111500000D01*
X134200000Y-111500000D02*
X135800000Y-111500000D01*
%TO.C,LED3*%
X96200000Y-78800000D02*
X96200000Y-80400000D01*
X96200000Y-80400000D02*
X97800000Y-80400000D01*
%TO.C,LED27*%
X160800000Y-86750000D02*
X159200000Y-86750000D01*
X160800000Y-88350000D02*
X160800000Y-86750000D01*
%TO.C,LED21*%
X103800000Y-96250000D02*
X102200000Y-96250000D01*
X103800000Y-97850000D02*
X103800000Y-96250000D01*
%TO.C,LED13*%
X172200000Y-148000000D02*
X172200000Y-149600000D01*
X172200000Y-149600000D02*
X173800000Y-149600000D01*
%TO.C,LED28*%
X179800000Y-127350000D02*
X178200000Y-127350000D01*
X179800000Y-128950000D02*
X179800000Y-127350000D01*
%TO.C,LED31*%
X198800000Y-91750000D02*
X197200000Y-91750000D01*
X198800000Y-93350000D02*
X198800000Y-91750000D01*
%TO.C,LED7*%
X134200000Y-148000000D02*
X134200000Y-149600000D01*
X134200000Y-149600000D02*
X135800000Y-149600000D01*
%TD*%
D15*
%TO.C,*%
X204600000Y-69300000D03*
%TD*%
D16*
%TO.C,MCU1*%
X227620000Y-61330000D03*
D17*
X227620000Y-63870000D03*
X227620000Y-66410000D03*
X227620000Y-68950000D03*
X227620000Y-71490000D03*
X227620000Y-74030000D03*
X227620000Y-76570000D03*
X227620000Y-79110000D03*
X227620000Y-81650000D03*
X227620000Y-84190000D03*
X227620000Y-86730000D03*
X227620000Y-89270000D03*
X212380000Y-61330000D03*
X212380000Y-63870000D03*
X212380000Y-66410000D03*
X212380000Y-68950000D03*
X212380000Y-71490000D03*
X212380000Y-74030000D03*
X212380000Y-76570000D03*
X212380000Y-79110000D03*
X212380000Y-81650000D03*
X212380000Y-84190000D03*
X212380000Y-86730000D03*
X212380000Y-89270000D03*
%TD*%
D15*
%TO.C,*%
X109600000Y-145380000D03*
%TD*%
%TO.C,*%
X202200000Y-137272500D03*
%TD*%
%TO.C,*%
X109600000Y-88230000D03*
%TD*%
%TO.C,*%
X147600000Y-116925000D03*
%TD*%
M02*
