M48
; DRILL file {KiCad 8.0.6} date 2025-03-22T19:16:14+0100
; FORMAT={-:-/ absolute / inch / decimal}
; #@! TF.CreationDate,2025-03-22T19:16:14+01:00
; #@! TF.GenerationSoftware,Kicad,Pcbnew,8.0.6
; #@! TF.FileFunction,NonPlated,1,2,NPTH
FMAT,2
INCH
; #@! TA.AperFunction,NonPlated,NPTH,ComponentDrill
T1C0.0354
; #@! TA.AperFunction,NonPlated,NPTH,ComponentDrill
T2C0.0670
; #@! TA.AperFunction,NonPlated,NPTH,ComponentDrill
T3C0.0984
; #@! TA.AperFunction,NonPlated,NPTH,ComponentDrill
T4C0.1350
%
G90
G05
T1
X9.1535Y-2.6693
X9.1535Y-2.6693
X9.1535Y-2.7874
X9.1535Y-2.7874
T2
X3.7205Y-2.9055
X3.7205Y-3.6555
X3.7205Y-4.4055
X3.7205Y-5.1555
X3.7205Y-5.9055
X4.1535Y-2.9055
X4.1535Y-3.6555
X4.1535Y-4.4055
X4.1535Y-5.1555
X4.1535Y-5.9055
X4.4685Y-2.9055
X4.4685Y-3.6555
X4.4685Y-4.4055
X4.4685Y-5.1555
X4.4685Y-5.9055
X4.9016Y-2.9055
X4.9016Y-3.6555
X4.9016Y-4.4055
X4.9016Y-5.1555
X4.9016Y-5.9055
X5.2165Y-2.6299
X5.2165Y-3.3799
X5.2165Y-4.1299
X5.2165Y-4.8799
X5.2165Y-5.6299
X5.6496Y-2.6299
X5.6496Y-3.3799
X5.6496Y-4.1299
X5.6496Y-4.8799
X5.6496Y-5.6299
X5.9646Y-2.5315
X5.9646Y-3.2815
X5.9646Y-4.0315
X5.9646Y-4.7815
X5.9646Y-5.5315
X6.3976Y-2.5315
X6.3976Y-3.2815
X6.3976Y-4.0315
X6.3976Y-4.7815
X6.3976Y-5.5315
X6.7126Y-2.6299
X6.7126Y-3.3799
X6.7126Y-4.1299
X6.7126Y-4.8799
X6.7126Y-5.6299
X7.1457Y-2.6299
X7.1457Y-3.3799
X7.1457Y-4.1299
X7.1457Y-4.8799
X7.1457Y-5.6299
X7.4606Y-2.7283
X7.4606Y-3.4783
X7.4606Y-4.2283
X7.4606Y-4.9783
X7.5861Y-5.7707
X7.8937Y-2.7283
X7.8937Y-3.4783
X7.8937Y-4.2283
X7.8937Y-4.9783
X8.0044Y-5.8828
X8.3087Y-5.9643
X8.3221Y-5.1915
X8.727Y-6.0764
X8.7405Y-5.3036
T3
X4.315Y-3.4736
X4.315Y-5.7236
X5.811Y-4.6033
X7.9606Y-5.4044
X8.0551Y-2.7283
T4
X3.937Y-2.9055
X3.937Y-3.6555
X3.937Y-4.4055
X3.937Y-5.1555
X3.937Y-5.9055
X4.685Y-2.9055
X4.685Y-3.6555
X4.685Y-4.4055
X4.685Y-5.1555
X4.685Y-5.9055
X5.4331Y-2.6299
X5.4331Y-3.3799
X5.4331Y-4.1299
X5.4331Y-4.8799
X5.4331Y-5.6299
X6.1811Y-2.5315
X6.1811Y-3.2815
X6.1811Y-4.0315
X6.1811Y-4.7815
X6.1811Y-5.5315
X6.9291Y-2.6299
X6.9291Y-3.3799
X6.9291Y-4.1299
X6.9291Y-4.8799
X6.9291Y-5.6299
X7.6772Y-2.7283
X7.6772Y-3.4783
X7.6772Y-4.2283
X7.6772Y-4.9783
X7.7953Y-5.8268
X8.5178Y-6.0204
X8.5313Y-5.2475
M30
